<?xml version="1.0" encoding="utf-8"?>
<!-- Generator: Adobe Illustrator 18.0.0, SVG Export Plug-In . SVG Version: 6.00 Build 0)  -->
<!DOCTYPE svg PUBLIC "-//W3C//DTD SVG 1.1//EN" "http://www.w3.org/Graphics/SVG/1.1/DTD/svg11.dtd">
<svg version="1.1" id="Слой_1" xmlns="http://www.w3.org/2000/svg" xmlns:xlink="http://www.w3.org/1999/xlink" x="0px" y="0px"
	 viewBox="0 0 210 297" enable-background="new 0 0 210 297" xml:space="preserve">
<path fill="#FFFFFF" d="M1,77.5c10.7,0,21.4,0,32,0c22.4,0,44.7,0,67.1,0c1.5,0,1.5,0,1.5,1.5c0,5.2,0,10.4,0,15.6
	c0,0.9-0.3,1.1-1.1,1.1c-32.9,0-65.8,0-98.6,0c-0.3,0-0.6,0-0.9,0C1,89.6,1,83.6,1,77.5z"/>
<path fill="#FFFFFF" d="M163.9,19.9c8.2,0,16.4,0,24.6,0c1.2,0,1.2,0,1.2,1.3c0,5.3,0,10.6,0,16c0,6.5-0.2,13,0,19.5
	c0.4,13.8-9.4,22.2-19.9,24.3c-8.5,1.7-16.4,0.2-23.4-5.2c-4.6-3.5-7.4-8.1-8.3-13.9c-0.1-0.7-0.1-1.3-0.1-2
	c0-12.8-0.1-25.7-0.1-38.5c0-0.3-0.1-0.7,0-0.9c0.1-0.3,0.4-0.5,0.6-0.6c0.2-0.1,0.5,0,0.7,0C147.5,19.9,155.7,19.9,163.9,19.9z
	 M157.5,71.7c0,0.9,0,1.5,0,2.1c0,0.7,0.2,1.1,0.8,1.4c1.5,0.8,2.9,1.7,4.3,2.6c0.5,0.3,0.9,0.3,1.4,0c1.5-0.9,3.1-1.8,4.6-2.8
	c0.3-0.2,0.5-0.7,0.6-1c0.1-0.7,0-1.4,0-2.3c0.5,0.2,0.8,0.4,1,0.5c1.4,0.8,2.7,1.6,4.1,2.3c0.3,0.1,0.6,0.3,0.9,0.2
	c0.6-0.3,1.2-0.7,1.9-1.1c-0.8-0.5-1.5-0.9-2.2-1.3c1.2-1.1,1.4-1.1,2.6-0.4c0.4,0.2,1,0.7,1.3,0.6c0.7-0.2,1.5-0.6,1.9-1.2
	c0.5-0.9,0.1-1.8-0.8-2.3c-0.2-0.1-0.4-0.2-0.6-0.4c-1-0.6-1.1-0.9-0.7-2.2c0.7,0.4,1.4,0.7,2.2,1.2c0-0.5-0.1-0.9,0-1.3
	c0.2-0.9-0.3-1.4-1.1-1.9c-1.1-0.6-2.2-1.3-3.3-1.9c-0.4-0.2-0.8-0.5-1.3-0.8c0.9-0.5,1.7-1,2.4-1.5c0.3-0.2,0.6-0.7,0.6-1
	c0.1-1.8,0.1-3.6,0-5.4c0-0.4-0.3-0.9-0.7-1.1c-1.3-0.8-2.7-1.6-4-2.4c-0.8-0.5-1.5-0.6-2.3,0c-0.5,0.4-1.1,0.7-1.8,1.1
	c0-1.7,0-3.1,0-4.5c0-1.7-0.4-2.1-2.2-2.6c0,0.8-0.1,1.5-0.1,2.3c-1.4-0.3-1.6-0.6-1.6-1.7c0-0.4,0-0.8,0-1.1c0-0.6-1.5-1.7-2.1-1.6
	c-1.1,0.3-1.8,1.1-1.8,2.2c0,0.2,0,0.3,0,0.5c0,1.1-0.3,1.5-1.6,1.7c0-0.8-0.1-1.5-0.1-2.4c-0.5,0.3-0.8,0.5-1.1,0.6
	c-0.8,0.3-1.1,0.9-1,1.8c0.1,1.3,0,2.6,0,3.9c0,0.3,0,0.5-0.1,0.9c-0.9-0.5-1.6-1-2.4-1.3c-0.3-0.1-0.7-0.2-1,0
	c-1.6,0.9-3.2,1.8-4.8,2.7c-0.5,0.3-0.7,0.6-0.7,1.2c0,1.6,0.1,3.2,0,4.8c0,0.8,0.2,1.4,1,1.7c0.7,0.3,1.4,0.8,2.2,1.3
	c-1.6,0.9-2.9,1.7-4.3,2.5c-1.4,0.8-1.7,1.6-1.2,3.2c0.3-0.2,0.7-0.4,1-0.6c0.3-0.2,0.6-0.3,1-0.5c0.4,1.5,0.3,1.6-1.3,2.6
	c-1.2,0.7-1.1,2.3,0,3.1c1,0.7,1.6,0.3,2.4-0.2c1.1-0.7,1.5-0.6,2.5,0.5c-0.3,0.2-0.6,0.4-1,0.6c-0.3,0.2-0.7,0.4-1,0.6
	c1.3,1.4,1.8,1.4,3.3,0.6C154.5,73.4,155.8,72.6,157.5,71.7z M145.3,34.5c0,0.1,0,0.2,0.1,0.3c1.6,0,3.2,0,4.9,0c1,0,2-0.1,2.9-0.4
	c2.4-0.7,3.7-2.8,3.6-5.5c-0.1-2.3-1.3-4.3-3.6-4.7c-2.6-0.4-5.3-0.4-7.9-0.5c0,0.1,0,0.2-0.1,0.2c1,0,1.2,0.6,1.2,1.4
	c0,2.7,0,5.4,0,8C146.3,33.9,146.2,34.5,145.3,34.5z M172.5,25c0.6-0.2,1.2-0.4,1.7-0.6c0.5-0.1,1,0,1.6-0.1
	c0.6-0.1,0.8,0.2,0.8,0.8c-0.1,2.7-0.1,5.3-0.1,8c0,0.7-0.1,1.2-1.1,1.4c1.6,0,2.9,0,4.3,0c-0.7-0.1-1.3-0.3-1.3-1.1
	c0-2.8,0-5.6,0-8.5c0-0.2,0.3-0.6,0.5-0.6c1.2,0,2.5-0.4,3.4,1c0-0.3,0-0.5,0-0.7c0-1.1,0-1.1-1.2-1c-2.3,0-4.6,0-7-0.1
	C172.7,23.6,172.7,23.5,172.5,25C172.5,25,172.5,25.1,172.5,25z M166.7,23.7c-1.2,0-2.3,0-3.3,0c0.2,0.4,0.6,0.8,0.6,1.2
	c0,2.8,0,5.6,0,8.5c0,0.6-0.1,1.2-0.9,1.3c1.3,0,2.7,0,4.1,0c-1.4-0.4-1.4-0.4-1.4-1.9c0-2.5,0-5.1,0-7.6
	C165.8,24.5,165.8,23.8,166.7,23.7z M159.2,29.6c0.4,0.3,0.6,0.6,0.8,0.5c0.2,0,0.4-0.3,0.6-0.5c-0.2-0.2-0.4-0.5-0.6-0.5
	C159.9,29.1,159.6,29.4,159.2,29.6z M170.7,30.4c0.2-0.3,0.5-0.6,0.5-0.7c-0.1-0.2-0.4-0.4-0.6-0.6c-0.2,0.2-0.5,0.4-0.5,0.7
	C170.1,29.9,170.4,30.1,170.7,30.4z"/>
<path fill="#FFFFFF" d="M34.6,190.5c4.7-3.8,9.6-6.6,15.4-8.4c-1.6-0.9-3.3-1.3-4.8-0.8c-2,0.8-2.9-0.6-4.3-1.8
	c1.3-0.5,2.3-1,3.4-1.3c3.3-0.7,6.4,0,9,2.2c0.6,0.5,1.1,0.6,1.8,0.6c1.3,0,2.6,0.1,3.8,0.3c1.1,0.2,2,0.8,2.6,2.1
	c-2-0.9-3.9-0.8-5.8-0.6c0.4,1.3,1,2.5,1.2,3.7c0.9,4.3-1,8.6-4.7,11c-0.5,0.3-0.8,0.4-1.3-0.1c-0.5-0.5-1.1-1-1.8-1.6
	c0.4-0.3,0.7-0.6,1-0.8c2.8-2.1,4-5.9,3.1-9.1c0-0.2-0.1-0.3-0.2-0.5c-0.7-1.7-1-1.9-2.7-1.3c-5.3,1.8-10.1,4.7-14.5,8.2
	c-0.6,0.5-0.7,0.9-0.3,1.6c2.2,4,5.6,6,10.1,6.2c2.1,0.1,4.1-0.4,6-1.3c0.3-0.1,0.8-0.2,0.9-0.1c1.4,1.1,2.7,2.2,4.1,3.4
	c-0.5,0.3-0.8,0.6-1.1,0.8c-5,3-10.3,3.9-15.9,2.1c-0.5-0.1-1-0.1-1.5,0.1c-2.1,0.5-4.2,0.8-6.4,0.4c-1.4-0.3-2.3-0.8-3-1.9
	c2.6,0.8,5.1,0.7,7.9,0c-2.6-1.6-4.5-3.6-6-6.1c-1.3,1.7-2.2,3.3-2.3,5.4c-0.8-0.5-0.9-1.2-0.9-1.8c-0.3-1.8,0.5-3.3,1.5-4.7
	c0.5-0.8,0.5-1.4,0.3-2.2c-1.9-6.3-0.6-11.9,3.7-16.8c0.7-0.7,1.4-1.4,2.2-2c0.2-0.2,0.8-0.2,1-0.1c1.4,1.1,2.7,2.3,4.2,3.6
	C36.3,181.8,34.3,185.4,34.6,190.5z"/>
<path fill="#FFFFFF" d="M3.4,179c2.5,2.1,4.9,4.2,7.3,6.2c2.4,2,4.8,4,7.4,6.2c0-0.5,0.1-0.8,0.1-1.1c0-3.4,0-6.8,0-10.2
	c0-0.8,0.2-1.2,1.1-1.2c1.2,0.1,2.3,0.1,3.5,0c0.8,0,1.1,0.2,1.1,1c0,5.4,0,10.9,0,16.3c0,1.7,0,3.5,0,5.2c0,0.3,0,0.6-0.1,1.1
	c-5-4.3-9.7-8.4-14.7-12.7c0,0.5-0.1,0.8-0.1,1.1c0,3.5,0,7,0,10.5c0,0.8-0.2,1-1,1c-1.3-0.1-2.6,0-3.9,0c-0.5,0-0.8-0.1-0.8-0.7
	c0-7.4,0-14.8,0-22.2C3.3,179.5,3.3,179.4,3.4,179z"/>
<path fill="#FFFFFF" d="M75.2,191.8c2.3,3.5,4.6,6.9,6.9,10.5c-0.3,0.1-0.5,0.1-0.7,0.1c-1.9,0-3.8,0.1-5.7,0c-0.3,0-0.8-0.4-1-0.7
	c-2-3.5-4.1-6.9-6.1-10.4c-0.1-0.2-0.3-0.4-0.4-0.6c-0.1,0-0.2,0-0.3,0c0,3.5,0,7,0,10.4c0,1.3,0,1.3-1.3,1.3c-1.2,0-2.4,0-3.6,0
	c-0.6,0-0.8-0.3-0.8-0.8c0-7.3,0-14.5,0-21.8c0-0.5,0.1-0.9,0.7-0.8c3.3,0.1,6.6,0,9.9,0.4c2.6,0.3,4.7,1.7,5.4,4.5
	c0.7,2.7,0.2,5.1-2,7.1c-0.2,0.2-0.4,0.3-0.6,0.5C75.7,191.5,75.5,191.6,75.2,191.8z M68.2,187C68.2,187,68.2,187,68.2,187
	c0,0.3,0,0.7,0,1c0,2.3,0.3,2.5,2.5,1.9c1.6-0.4,2.4-1.5,2.3-3.3c0-1.6-0.7-2.3-2.4-2.6c-0.5-0.1-1-0.1-1.6-0.1
	c-0.6-0.1-0.9,0.2-0.8,0.8C68.2,185.4,68.2,186.2,68.2,187z"/>
<path fill="#FFFFFF" d="M123.9,119c0-0.3,0-0.7,0-1c0-3.1,0-6.3,0-9.4c0-0.8,0.2-1.1,1-1c1.1,0,2.2,0,3.3,0c0.6,0,1,0.2,1,0.9
	c0,4.9,0,9.7,0,14.6c0,0.7-0.3,0.9-0.9,0.9c-2.4,0-4.7,0-7.1,0c-0.4,0-1-0.3-1.3-0.7c-2.8-3.3-5.5-6.7-8.2-10.1
	c-0.3-0.3-0.5-0.6-1-0.8c0,0.3,0,0.6,0,0.9c0,3.2,0,6.3,0,9.5c0,1.1-0.1,1.2-1.2,1.2c-1.1,0-2.2,0-3.2,0c-0.6,0-0.8-0.2-0.8-0.8
	c0-4.9,0-9.8,0-14.8c0-0.6,0.2-0.8,0.8-0.8c2.5,0,4.9,0,7.4,0c0.4,0,0.9,0.3,1.2,0.7c2.9,3.4,5.7,6.9,8.5,10.4
	c0.1,0.1,0.2,0.3,0.3,0.4C123.7,119,123.8,119,123.9,119z"/>
<path fill="#FFFFFF" d="M141.9,124c-2.2,0-4.3,0-6.5,0c-2.7,0-4.6-1.9-4.6-4.6c0-2.5,0-4.9,0-7.4c0-2.7,1.9-4.6,4.5-4.6
	c4.4,0,8.8,0,13.3,0c2.4,0,4.3,1.9,4.4,4.3c0.1,2.6,0.1,5.3,0,7.9c0,2.5-1.9,4.3-4.4,4.3C146.4,124.1,144.2,124,141.9,124z
	 M142.1,111.8c-1.8,0-3.5,0-5.3,0c-0.7,0-0.9,0.2-0.9,0.9c0,2.1,0,4.2,0,6.3c0,0.6,0.2,0.9,0.9,0.9c3.5,0,7.1,0,10.6,0
	c0.7,0,0.9-0.3,0.9-0.9c0-2.1,0-4.1,0-6.2c0-0.8-0.3-0.9-1-0.9C145.5,111.8,143.8,111.8,142.1,111.8z"/>
<path fill="#FFFFFF" d="M107.3,192.8c0,1.6,0,3.2,0,4.8c0.3,0,0.6,0,1,0c2.3,0,4.6,0,6.9,0c0.7,0,1,0.2,0.9,0.9c0,1,0,2.1,0,3.1
	c0,0.7-0.2,0.8-0.9,0.8c-3.6,0-7.3,0-10.9,0c-0.7,0-1.5,0.1-2.2,0c-0.2,0-0.5-0.4-0.6-0.6c-0.1-0.1,0-0.3,0-0.5c0-7.1,0-14.1,0-21.2
	c0-1.2,0-1.2,1.2-1.2c3.9,0,7.7,0,11.6,0c0.9,0,1.2,0.3,1.1,1.2c-0.1,1,0,1.9,0,2.9c0,0.7-0.3,0.9-0.9,0.9c-2.1,0-4.1,0-6.2,0
	c-0.8,0-1.1,0.3-1,1c0.1,0.7,0.1,1.3,0,2c-0.1,0.9,0.3,1,1,1c1.7,0,3.5,0,5.2,0c0.8,0,1.1,0.3,1.1,1.1c0,1,0,2,0,3
	c0,0.6-0.2,0.9-0.9,0.9c-1.8,0-3.6,0-5.4,0C108,192.8,107.7,192.8,107.3,192.8z"/>
<path fill="#FFFFFF" d="M209.3,123.9c-2.1,0-4,0-5.8,0c-0.3,0-0.7-0.5-0.8-0.8c-0.5-1.6-1.6-2-3.2-1.9c-2.4,0.1-4.8,0.1-7.1,0
	c-0.6,0-1,0.2-1.2,0.8c-0.4,1.8-1.6,2.3-3.3,2.1c-1.1-0.1-2.3,0-3.7,0c0.6-1.1,1.1-2,1.5-2.8c2.4-4.3,4.8-8.5,7.2-12.8
	c0.3-0.6,0.7-0.8,1.4-0.8c1.7,0,3.4,0,5.1,0c0.6,0,0.9,0.2,1.2,0.7c2.8,4.9,5.6,9.9,8.4,14.8C209.1,123.3,209.1,123.5,209.3,123.9z
	 M193.7,117.3c2.2,0,4.1,0,6.3,0c-1.1-1.8-2.1-3.6-3.2-5.5C195.6,113.7,194.7,115.4,193.7,117.3z"/>
<path fill="#FFFFFF" d="M176.9,123.9c-0.3,0-0.6,0.1-0.9,0.1c-1.7,0-3.4,0-5.1,0c-0.7,0-1.3-0.2-1.8-0.7c-2.7-2.4-5.4-4.8-8.1-7.2
	c-0.1-0.1-0.3-0.2-0.6-0.4c0,0.4-0.1,0.7-0.1,1c0,2.1,0,4.2,0,6.3c0,0.8-0.3,1-1,1c-1.2,0-2.4,0-3.6,0c-0.6,0-0.9-0.3-0.9-0.9
	c0-4.9,0-9.8,0-14.7c0-0.7,0.3-0.9,0.9-0.9c1.2,0,2.4,0,3.7,0c0.7,0,0.9,0.3,0.9,1c0,2.1,0,4.2,0,6.5c0.4-0.3,0.7-0.5,0.9-0.7
	c2.4-2,4.7-4.1,7.1-6.1c0.5-0.5,1.1-0.7,1.8-0.7c1.6,0,3.2,0,4.8,0c0.3,0,0.6,0,0.9,0.1c0,0.1,0.1,0.2,0.1,0.2c-3,2.4-6,4.9-9.1,7.4
	c3.5,2.8,6.8,5.6,10.2,8.3C176.9,123.7,176.9,123.8,176.9,123.9z"/>
<path fill="#FFFFFF" d="M13,162.4c-1.5,1.2-3,1.8-4.7,1.6c-1.8-0.1-3.3-0.7-4.3-2.2c-1.4-2.2-1.2-6.6,2.6-7.9c1.6-0.6,3.3-0.7,5-0.7
	c0.4,0,1.3-0.3,1.3-0.4c-0.1-0.7-0.1-1.5-0.5-2c-1-1.1-2.9-0.7-3.5,0.6c-0.3,0.7-0.8,1-1.6,0.9c-0.8-0.1-1.6,0-2.4,0
	c-1,0-1.2-0.3-1-1.2c0.4-1.7,1.3-2.9,2.8-3.7c2.5-1.3,5.1-1.2,7.6-0.5c2.5,0.8,3.7,2.7,3.8,5.3c0.1,3.5,0,6.9,0,10.4
	c0,0.7-0.3,1.1-1,1.1c-0.9,0-1.7,0-2.6,0C13.6,163.7,13,163.5,13,162.4z M11.5,156.7C11.5,156.6,11.5,156.6,11.5,156.7
	c-0.7,0-1.3,0.1-2,0.2c-0.8,0.2-1.3,0.9-1.3,1.7c0,0.9,0.4,1.4,1.3,1.6c2.1,0.5,3.6-0.7,3.5-2.9c0-0.2-0.3-0.5-0.5-0.6
	C12.1,156.6,11.8,156.7,11.5,156.7z"/>
<path fill="#FFFFFF" d="M141,156.6c-1.4,0-2.9,0-4.3,0c-0.9,0-1.1,0.3-0.8,1.1c0.8,2.3,3,3.1,4.8,1.8c0.2-0.2,0.5-0.4,0.6-0.6
	c0.4-1,1.1-1,2-1c0.7,0,1.4,0,2.1,0c0.9,0,1,0.2,0.8,1.1c-0.5,2.1-2.7,4.2-4.8,4.6c-1.6,0.3-3.2,0.4-4.9,0.1
	c-2.5-0.6-4.3-1.9-5.2-4.2c-1.4-3.4-1.3-6.9,0.9-10c1.4-2,3.3-3,5.8-3.1c2.3-0.1,4.4,0.3,6.1,1.9c1.6,1.5,2.2,3.5,2.3,5.7
	c0.1,2.9,0.1,2.6-2.5,2.6C143,156.6,142,156.6,141,156.6z M135.9,153c1.7,0,3.4,0,5.1,0c0.1,0,0.4-0.4,0.4-0.5
	c-0.2-0.8-0.4-1.6-1.3-2.1C138.2,149.4,136.1,150.6,135.9,153z"/>
<path fill="#FFFFFF" d="M64.8,156.6c-1.4,0-2.9,0-4.3,0c-0.8,0-1,0.3-0.8,1.1c0.3,1.2,0.9,2.1,2.2,2.4c1.5,0.2,2.8,0,3.6-1.5
	c0.1-0.3,0.6-0.5,0.9-0.5c1-0.1,1.9,0,2.9,0c0.8,0,1,0.3,0.8,1.1c-0.6,2.2-2.2,3.6-4.2,4.3c-2.2,0.8-4.5,0.8-6.7-0.1
	c-2.8-1.1-4.3-3.3-4.6-6.1c-0.4-3-0.1-5.9,2-8.3c1.3-1.5,3-2.4,5.1-2.5c1.8-0.1,3.6,0,5.2,1c1.6,1,2.6,2.4,3.1,4.2
	c0.3,1.3,0.3,2.6,0.4,3.9c0.1,0.8-0.3,1.1-1.1,1.1C67.7,156.6,66.3,156.6,64.8,156.6C64.8,156.6,64.8,156.6,64.8,156.6z M62.3,153
	C62.3,153,62.3,153,62.3,153c0.8,0,1.5,0.1,2.3,0c0.2,0,0.7-0.5,0.6-0.6c-0.4-0.7-0.6-1.5-1.2-1.9c-1.7-1.1-3.8-0.1-4.2,1.9
	c-0.1,0.5,0.1,0.6,0.5,0.6C61,153,61.6,153,62.3,153z"/>
<path fill="#FFFFFF" d="M86.7,193.4c0-2.7,0-5.4,0-8.1c0-0.8-0.2-1-1-1c-1.3,0-2.6,0-3.8,0c-0.7,0-1-0.3-1-1c0-1.2,0-2.4,0-3.6
	c0-0.6,0.2-0.8,0.8-0.8c5.1,0,10.3,0,15.4,0c0.6,0,0.8,0.2,0.8,0.8c0,1.3,0,2.5,0,3.8c0,0.6-0.2,0.8-0.8,0.8c-1.2,0-2.4,0-3.7,0
	c-0.8,0-1,0.2-1,1c0,5.4,0,10.7,0,16.1c0,1.2,0,1.2-1.1,1.2c-1.3,0-2.5,0-3.8,0c-0.7,0-0.9-0.2-0.9-0.9
	C86.8,198.8,86.7,196.1,86.7,193.4z"/>
<path fill="#FFFFFF" d="M77.8,148.3c0.9-0.5,1.6-1.2,2.5-1.5c2.7-0.8,5.3-0.5,6.6,2.2c0.5,1.1,0.8,2.3,0.8,3.5c0.1,3.3,0,6.6,0,9.9
	c0,1.1-0.2,1.3-1.3,1.3c-0.9,0-1.8,0-2.7,0c-1,0-1.2-0.2-1.2-1.2c0-3.1,0-6.3,0-9.4c0-0.7-0.3-1.4-0.8-1.9c-0.7-0.8-1.7-0.6-2.6-0.2
	c-0.9,0.4-1.4,1.1-1.4,2c0,3.1,0,6.2,0,9.3c0,1.3-0.1,1.4-1.4,1.4c-0.9,0-1.9,0-2.8,0c-0.7,0-1-0.3-1-1c0-4.9,0-9.8,0-14.7
	c0-1,0.3-1.2,1.2-1.2c0.8,0,1.5,0,2.3,0C77.7,146.7,77.7,146.7,77.8,148.3z"/>
<path fill="#FFFFFF" d="M111.6,162.3c-1,0.5-1.8,1.1-2.7,1.4c-3.9,1.2-7-1.1-7.1-5.1c-0.1-3.6,0-7.2,0-10.7c0-0.8,0.4-1.2,1.2-1.1
	c0.8,0,1.5,0,2.3,0c1.7,0,1.8,0.1,1.8,1.8c0,2.9,0,5.9,0,8.8c0,0.4-0.1,0.8,0.1,1.1c0.2,0.5,0.5,1,0.9,1.2c1.5,0.8,3.8,0,3.8-2.7
	c0-2.9,0-5.9,0-8.8c0-1.2,0.2-1.4,1.4-1.5c0.9,0,1.7,0,2.6,0c0.8,0,1.1,0.3,1.1,1.1c0,5,0,9.9,0,14.9c0,0.6-0.3,0.9-0.9,0.9
	c-1.1,0-2.2,0-3.3,0C111.5,163.7,111.8,162.8,111.6,162.3z"/>
<path fill="#FFFFFF" d="M120.4,190.7c0-3.6,0-7.2,0-10.8c0-0.8,0.3-0.9,1-0.9c1.2,0,2.3,0,3.5,0c1.3,0,1.3,0,1.3,1.2
	c0,5.3,0,10.5,0,15.8c0,1.2,0,1.2,1.1,1.2c1.7,0,3.5,0,5.2,0c0.7,0,1,0.2,1,1c0,1.2,0,2.4,0,3.6c0,0.5-0.1,0.8-0.7,0.8
	c-3.9,0-7.7,0-11.6,0c-0.7,0-0.7-0.4-0.7-0.9C120.4,197.9,120.4,194.3,120.4,190.7z"/>
<path fill="#FFFFFF" d="M61.7,7.7c0-1.7,0-3.2,0-4.6c0-0.4,0-0.8,0-1.2C61.7,1.3,62,1,62.5,1c0.7,0,1.5,0,2.2,0
	c0.8-0.1,1.1,0.2,1.1,1.1c0,2.6,0,5.3,0,7.9c0,3.3,0,6.7,0,10c0,1.1-0.1,1.2-1.1,1.2c-0.4,0-0.8,0-1.1,0c-1.2,0-1.2,0-1.4-1.2
	c-0.2,0.1-0.4,0.1-0.5,0.2c-3.3,2.7-8.3,1.4-9.7-3.3c-0.7-2.4-0.8-4.9,0.5-7.2c1.7-3.3,5.4-4.4,8.6-2.5C61.1,7.4,61.3,7.4,61.7,7.7z
	 M61.7,13.9c0-0.8-0.1-1.5,0-2.3c0.1-1.1-0.4-1.6-1.3-2c-2.3-1-4.4-0.1-4.9,2.4c-0.2,1.2-0.3,2.4,0,3.6c0.5,2.5,2.1,3.4,4.5,2.7
	c1.2-0.3,1.7-1,1.7-2.2C61.7,15.4,61.7,14.7,61.7,13.9z"/>
<path fill="#FFFFFF" d="M37.3,155.2c-0.1-2.3,0.5-4.4,2.1-6.2c1.3-1.5,3-2.4,5-2.5c2.2-0.1,4.4,0,6.2,1.6c1.2,1,2,2.4,2.2,3.9
	c0.1,0.8-0.1,1.1-1,1.2c-0.9,0-1.9,0-2.8,0c-0.6,0-1-0.3-1.2-0.9c-0.4-1.3-1-1.7-2.4-1.7c-1.2,0-2.1,0.6-2.5,1.8
	c-0.7,1.9-0.7,3.8-0.1,5.7c0.4,1.3,1.3,2.1,2.6,2.1c1,0,2.2-0.7,2.6-1.9c0.3-1,0.9-1.3,1.8-1.2c0.7,0,1.3,0,2,0c0.7,0,1.1,0.3,1,1.1
	c-0.3,2-1.3,3.7-3,4.7c-3.1,1.9-7.9,1.6-10.6-1.4C38.3,160.4,37.1,158,37.3,155.2z"/>
<path fill="#FFFFFF" d="M20.2,155.3c-0.1-2.4,0.4-4.6,2.1-6.4c1.4-1.5,3.1-2.4,5.2-2.5c1.8-0.1,3.7,0,5.3,1.1
	c1.6,1.1,2.6,2.6,2.9,4.5c0.1,0.9-0.1,1.1-1,1.1c-0.9,0-1.8,0-2.7,0c-0.6,0-1-0.3-1.2-0.9c-0.6-1.6-1.2-1.9-2.9-1.7
	c-1,0.1-1.9,1-2.2,2.3c-0.4,1.7-0.4,3.3,0,5c0.3,1.3,1.4,2.2,2.7,2.3c1.1,0.1,2.4-0.8,2.7-2c0.2-0.9,0.7-1.1,1.5-1.1
	c0.7,0,1.5,0,2.2,0c1,0,1.2,0.3,1,1.3c-0.3,2.2-2.4,4.8-5.2,5.4c-2.2,0.5-4.4,0.3-6.4-0.7c-2.6-1.3-3.7-3.6-4-6.4
	C20.1,156.2,20.2,155.8,20.2,155.3z"/>
<path fill="#FFFFFF" d="M91.1,155.3c0-1.3,0-2.6,0-3.9c0-0.5-0.2-0.8-0.8-0.8c-0.9,0.1-1.2-0.3-1.2-1.2c0-0.4,0-0.9,0-1.3
	c0-1.1,0.1-1.2,1.2-1.5c0.3-0.1,0.7-0.5,0.6-0.7c-0.4-2,0.8-2.7,2.5-3.2c0.6-0.1,1.1-0.4,1.6-0.7c0.8-0.3,1.2-0.1,1.2,0.7
	c0,1,0,1.9-0.1,2.9c0,0.6,0.1,1,0.8,0.9c0,0,0.1,0,0.1,0c0.7,0.1,1.4,0.2,2.1,0.4c0,1,0.1,2,0.1,3c0,0.2-0.5,0.5-0.8,0.5
	c-0.5,0.1-1,0-1.6,0c-0.5,0-0.8,0.1-0.8,0.7c0.1,2.2,0.1,4.4,0.1,6.6c0,1.5,0.2,1.7,1.7,1.7c0.3,0,0.6-0.1,0.9,0
	c0.3,0.2,0.7,0.5,0.7,0.8c0.1,0.7,0,1.4,0,2.2c0,0.6-0.2,1-0.9,1.1c-1.4,0-2.9,0.1-4.3-0.1c-1.8-0.3-3.1-2.3-3.2-4.4
	C91.1,157.9,91.1,156.6,91.1,155.3C91.1,155.3,91.1,155.3,91.1,155.3z"/>
<path fill="#FFFFFF" d="M86.7,7.8c1.1-0.4,2-1,3.1-1.2c3.9-1.1,6.4,0.9,6.5,4.9c0.1,2.9,0,5.8,0,8.7c0,0.7-0.2,1.1-1,1
	c-0.7,0-1.4,0-2.1,0c-0.8,0-1-0.3-1-1c0-2.7,0-5.5,0-8.2c0-2.5-1.2-3.3-3.6-2.4c-1.5,0.6-1.7,0.9-1.7,2.5c0,2.6,0,5.2,0,7.9
	c0,1.2,0,1.2-1.2,1.2c-0.6,0-1.3,0-1.9,0c-0.6,0-0.8-0.3-0.8-0.8c0-4.3,0-8.6,0-12.9c0-0.6,0.3-0.8,0.9-0.8c0.5,0,0.9,0,1.4,0
	C86.4,6.6,86.4,6.6,86.7,7.8z"/>
<path fill="#FFFFFF" d="M40.3,7.9c1.1-0.5,2-1,3.1-1.3c3.2-1,6.3,0.4,6.5,4.5c0.1,3.1,0,6.2,0,9.3c0,0.6-0.3,0.8-0.9,0.8
	c-0.7,0-1.5,0-2.2,0c-0.7,0-1-0.2-1-1c0-2,0-4.1,0-6.1c0-1.1-0.1-2.1-0.1-3.2c0-1-0.7-1.6-1.7-1.6c-1.2,0-2.3,0.3-3.1,1.1
	c-0.2,0.2-0.4,0.6-0.4,0.9c0,2.9-0.1,5.9,0,8.8c0,0.8-0.3,1.2-1.1,1.1c-0.7,0-1.4,0-2.1,0c-0.6,0-0.8-0.3-0.8-0.9
	c0-4.3,0-8.6,0-12.9c0-0.5,0.2-0.8,0.8-0.8c0.6,0,1.2,0,1.7,0C40.2,6.6,40.2,6.6,40.3,7.9z"/>
<path fill="#FFFFFF" d="M16,35.4c1.6,0.7,2.6,1.9,3.1,3.5c0.8,2.8-0.8,5.5-3.6,6.2c-2.8,0.7-5.7,0.2-8.5,0.3c-0.6,0-0.7-0.4-0.7-0.9
	c0-1.6,0-3.1,0-4.7c0-4.1,0-8.2,0-12.3c0-1.3,0.1-1.4,1.4-1.4c1.8,0,3.6,0,5.4,0c1.5,0,2.9,0.3,4.1,1.4c2.5,2,2.1,6.5-0.9,7.7
	C16.2,35.1,16.1,35.2,16,35.4z M8.6,40.2C8.6,40.2,8.6,40.2,8.6,40.2c0,0.9,0,1.7,0,2.6c0,0.2,0.3,0.6,0.4,0.6
	c1.9,0,3.8-0.1,5.7-0.3c0.8-0.1,1.6-0.6,1.9-1.5c0.7-2.1,0.2-4.4-2.3-4.9c-1.7-0.4-3.5-0.3-5.3-0.3c-0.2,0-0.5,0.4-0.5,0.7
	C8.6,38.1,8.6,39.2,8.6,40.2z M11.3,28.1C11.3,28.1,11.3,28.1,11.3,28.1c-0.7,0.1-1.4,0-2.1,0.1c-0.2,0-0.6,0.4-0.6,0.6
	c-0.1,1.6,0,3.2-0.1,4.8c0,0.6,0.3,0.8,0.8,0.8c0.8,0,1.6,0.1,2.4,0c1.1-0.2,2.2-0.3,3.3-0.7c1.2-0.4,1.6-1.8,1.4-3.3
	c-0.2-1.2-0.9-1.9-2.2-2.1C13.3,28.2,12.3,28.1,11.3,28.1z"/>
<path fill="#FFFFFF" d="M81.2,13.9c0,2.7-0.7,5-3,6.5c-3.4,2.3-9.4,1.4-10.7-4c-0.6-2.6-0.4-4.9,1-7.2c1.1-1.9,3-2.7,5.1-2.9
	C77.4,6,80,7.9,81,11.6C81.2,12.3,81.2,13.1,81.2,13.9z M77.4,13.9c-0.1-0.8-0.2-1.7-0.4-2.6c-0.4-1.4-1.5-2.1-2.8-2.1
	c-1.4,0.1-2.6,1-2.7,2.3c-0.1,1.5-0.1,3,0,4.5c0.1,1.4,1.4,2.4,2.7,2.5c1.4,0,2.5-0.7,2.9-2.2C77.2,15.6,77.3,14.8,77.4,13.9z"/>
<path fill="#FFFFFF" d="M34.9,13.9c0.1,2.2-0.5,4.2-2.1,5.8c-1.5,1.5-3.4,2-5.5,1.9c-4-0.3-6.3-3.4-6.3-7.1c0-1.7,0.2-3.2,0.9-4.7
	c1.3-2.8,4.9-3.8,7.6-3.3C32.9,7,35,10.3,34.9,13.9z M31.1,14c-0.1-0.8-0.2-1.6-0.4-2.3c-0.3-1.5-1.4-2.4-2.8-2.3
	c-1.4,0-2.4,0.9-2.8,2.3c-0.4,1.7-0.4,3.3,0,4.9c0.3,1.2,1.3,2,2.6,2c1.4,0.1,2.5-0.6,2.8-1.8C30.8,15.8,30.9,14.9,31.1,14z"/>
<path fill="#FFFFFF" d="M6.2,11.1c0-3,0-6,0-9c0-0.8,0.2-1.2,1.1-1.1c0.8,0.1,1.5,0.1,2.3,0c0.9-0.1,1.1,0.3,1.1,1.1
	c0,3.9,0,7.8,0,11.7c0,1,0,2.1,0,3.1c0,0.7,0.3,0.9,0.9,0.9c2.5,0,5,0,7.5,0c1.2,0,1.3,0.2,1.3,1.3c0,2.1,0,2.1-2,2.1
	c-3.6,0-7.2,0-10.8,0c-1.3,0-1.3,0-1.3-1.4C6.2,16.9,6.2,14,6.2,11.1z"/>
<path fill="#FFFFFF" d="M93.9,133.5c-1.5-0.6-3-1.2-4.6-1.8c-3.6-1.3-2.9-0.7-3-4.1c0-0.2,0-0.4,0-0.6c0.1-0.7,0.4-1,1-0.7
	c2.2,0.8,4.4,1.7,6.6,2.6c2,0.8,4,1.7,6,2.4c0.6,0.2,0.9,0.6,0.9,1.3c0,0,0,0.1,0,0.1c0.1,2.9,0.1,2.9-3.3,4.2
	c-3.3,1.3-6.6,2.6-9.8,3.9c-1.1,0.4-1.4,0.3-1.4-0.9c0-0.8,0-1.6,0-2.4c0-0.7,0.3-1.1,0.9-1.3c2-0.7,4-1.4,6-2.2
	c0.3-0.1,0.5-0.2,0.8-0.3C93.9,133.7,93.9,133.6,93.9,133.5z"/>
<path fill="#FFFFFF" d="M124.7,148.5c0.9-0.6,1.8-1.2,2.7-1.7c0.3-0.2,0.6-0.2,0.9-0.3c1-0.1,1.3,0.1,1.3,1.2c0,0.8,0,1.7,0,2.5
	c0,1.1-0.2,1.3-1.3,1.3c-1.2,0-2.4,0.4-3.1,1.4c-0.3,0.4-0.4,1-0.4,1.5c0,2.6,0,5.1,0,7.7c0,1.2-0.1,1.4-1.3,1.4c-1,0-2,0-3,0
	c-0.6,0-0.9-0.3-0.9-0.9c0-5,0-9.9,0-14.9c0-0.8,0.3-1.2,1.2-1.2c0.9,0,1.7,0,2.6,0c1.2,0,1.4,0.2,1.3,1.4
	C124.7,148.3,124.7,148.4,124.7,148.5z"/>
<path fill="#FFFFFF" d="M12.4,69.9c-3.2,0.1-5.3-1.6-6.7-4.3c-0.3-0.5-0.1-0.8,0.4-1C7.2,64,7.4,64,7.9,65.1
	c1.4,2.7,3.6,3.3,6.3,2.6c1.1-0.3,2.1-1.4,2.2-2.3c0.1-1.4-0.1-2.7-1.5-3.3c-1.6-0.7-3.3-1.4-4.9-2.1c-1.7-0.7-3.2-1.6-4-3.5
	c-0.7-1.5,0.3-4.2,1.9-5.3c3-1.9,8-1.4,9.7,2.9c0.2,0.4,0.5,0.9-0.2,1.1c-0.5,0.1-1.3,0.6-1.7-0.3c-0.5-1.2-1.4-2.3-2.7-2.5
	c-1.1-0.2-2.3-0.2-3.3,0.1c-1.8,0.4-2.4,3.4-0.6,4.4c1.3,0.7,2.7,1.3,4,1.9c1.5,0.7,3,1.3,4.3,2.4c2.2,1.9,1.5,6.6-1.5,8
	c-1.1,0.5-2.4,0.7-3.6,1C12.4,70,12.4,70,12.4,69.9z"/>
<path fill="#FFFFFF" d="M178,115.8c0-2.4,0-4.7,0-7.1c0-1.1,0.1-1.1,1.2-1.1c1.1,0,2.2,0,3.3,0c0.7,0,0.9,0.2,0.9,0.9
	c0,4.9,0,9.7,0,14.6c0,0.7-0.3,0.9-0.9,0.9c-1.1,0-2.3,0-3.4,0c-0.9,0-1.1-0.3-1.1-1.1C178.1,120.5,178,118.1,178,115.8z"/>
<path fill="#FFFFFF" d="M35.2,57c1-0.5,2-1.1,3-1.4c2.7-0.8,5,1,5.1,3.8c0,3,0,6,0,9.1c0,0.7-0.2,1.1-1,1c-0.7,0-1.3,0-1.3-1
	c0-3.1,0-6.3,0.1-9.4c0-1.2-1-2.3-2.2-1.9c-1.1,0.3-2.1,0.8-3,1.4c-0.4,0.2-0.6,0.9-0.6,1.4c-0.1,2.8,0,5.6,0,8.4
	c0,1-0.2,1.1-1.3,1.2c-0.9,0-1-0.4-1-1.2c0-5.6,0-11.3,0-16.9c0-1.1,0.7-1.6,1.7-1.2c0.3,0.1,0.5,0.6,0.5,1c0,1.7,0,3.5,0,5.2
	C35.2,56.8,35.2,56.9,35.2,57z"/>
<path fill="#FFFFFF" d="M73.7,42.4c-0.6,1.7-2.6,3.2-4.7,3.3c-3.3,0.2-6-2.1-6.4-5.3c-0.3-2.1-0.2-4.2,0.7-6.1c1-2,3.1-3.3,5.3-3
	c2.3,0.3,4,1.8,4.5,4.1c0.2,0.8,0.3,1.7,0.3,2.5c0,1-0.1,1.2-1.1,1.2c-2.3,0-4.6,0-6.9,0c-1,0-1.1,0.1-0.9,1.1
	c0.1,0.4,0.2,0.9,0.4,1.3c1.2,2.8,4.6,3.4,6.7,1.1C72.5,41.5,72.6,41.5,73.7,42.4z M67.9,37.2c0.9,0,1.8,0,2.7,0
	c0.3,0,0.7-0.4,0.7-0.6c0.2-1.2-0.9-2.7-1.9-3.2c-2-1-4.7,0.6-4.7,3.2c0,0.2,0.4,0.5,0.6,0.6C66.1,37.2,67,37.2,67.9,37.2z"/>
<path fill="#FFFFFF" d="M165.7,198c-1,0-2.1,0-3.1,0c-1,0-1.4-0.5-1.1-1.5c0.1-0.2,0.4-0.4,0.6-0.4c1.6,0,3.3,0,4.9,0
	c0.6,0,0.7,0.4,0.7,0.9c0.3,4.4-3.6,7.4-7.9,6.2c-3.4-0.9-5.4-3.9-5-7.3c0.3-3.1,3.2-5.8,6.5-5.9c1.5-0.1,2.9,0.3,4.1,1.3
	c0.3,0.2,0.9,0.4,0.4,0.9c-0.4,0.4-0.6,1.3-1.5,0.6c-1.3-0.9-2.7-1.1-4.2-0.6c-1.8,0.6-3.1,2.3-3.2,4.3c-0.1,2,1.1,3.8,2.9,4.6
	c1.8,0.8,3.9,0.4,5.1-1c0.4-0.5,0.7-1.2,1-1.8C165.8,198.2,165.7,198.1,165.7,198z"/>
<path fill="#FFFFFF" d="M52.3,32.9c1.1-0.5,2.1-1.2,3.1-1.5c2.7-0.7,4.9,1.1,5,3.9c0,3,0,6,0,9.1c0,0.8-0.3,1.1-1.1,1.1
	c-0.8,0-1.1-0.3-1.1-1.1c0-2.9,0-5.8,0-8.6c0-2.4-1.1-3.2-3.3-2.4c-0.6,0.2-1.2,0.6-1.8,0.9c-0.6,0.4-0.8,1-0.8,1.7
	c0,2.8,0,5.6,0,8.4c0,0.9-0.4,1.1-1.1,1.1c-0.8,0-1.1-0.3-1.1-1.1c0-3.9,0-7.7,0-11.6c0-1.2,0.1-1.3,1.3-1.3c1.1,0,1,0.6,0.9,1.3
	C52.2,32.8,52.3,32.9,52.3,32.9z"/>
<path fill="#FFFFFF" d="M56.6,63c-0.1,1.8-0.5,3.9-2.1,5.5c-2.3,2.3-6.5,1.7-8.1-1.1c-1.8-3.2-1.8-6.5,0.1-9.7
	c1.8-3.1,6.7-3.2,8.7-0.2C56.1,59.1,56.5,60.6,56.6,63z M47.1,62.6c0.1,1,0.2,2,0.4,2.9c0.4,1.6,1.7,2.6,3.2,2.6
	c1.5,0,2.8-0.9,3.3-2.4c0.6-1.8,0.6-3.7,0.2-5.6c-0.4-1.6-1.9-2.9-3.4-2.9c-1.4,0-2.8,1.1-3.2,2.7C47.3,60.8,47.3,61.7,47.1,62.6z"
	/>
<path fill="#FFFFFF" d="M69.6,62.7c0,1.8-0.5,3.4-1.4,5c-1.9,3.1-7.3,3.3-9.2-0.8c-1.2-2.7-1.3-5.4-0.1-8.1c1.1-2.6,3-3.4,5.1-3.3
	c2.5,0,4.5,1.8,5.1,4.2C69.3,60.6,69.4,61.6,69.6,62.7z M67.6,62.4c-0.2-0.9-0.3-2-0.7-3c-0.5-1.4-1.6-2.1-3-2.2
	c-1.3,0-2.5,0.6-3.1,1.9c-0.9,2.3-1,4.7,0,6.9c0.9,2.2,3.5,2.6,5.3,1C67.4,65.9,67.2,64.2,67.6,62.4z"/>
<path fill="#FFFFFF" d="M29.2,44.1c-1,0.5-1.9,1.1-2.9,1.5c-2.1,0.8-5.1-0.9-5.1-3.6c0.1-3.2,0-6.4,0-9.6c0-0.7,0.2-1,1-1
	c0.8,0,1,0.3,1,1c0,2.9,0.1,5.8,0,8.6c-0.1,2.9,1.8,3.2,3.8,2.4c0.4-0.2,0.8-0.4,1.2-0.6c0.7-0.5,1.2-1,1.2-2c-0.1-2.8,0-5.5,0-8.3
	c0-0.7,0.2-1.1,1-1.1c0.8,0,1.1,0.4,1.1,1.1c0,4,0,7.9,0,11.9c0,0.7-0.2,1-0.9,1c-0.7,0-1.2-0.1-1.2-1
	C29.3,44.3,29.2,44.2,29.2,44.1z"/>
<path fill="#FFFFFF" d="M80.9,45.9c-2.4-0.3-4.1-0.8-5.5-2.2c-0.3-0.3-0.5-0.7,0-1c0.5-0.3,0.8-1.2,1.5-0.4c1.1,1.3,2.5,1.8,4.1,1.6
	c0.5-0.1,1.1-0.2,1.5-0.6c1.5-1.3,1-2.9-1-3.6c-1.3-0.5-2.6-0.8-3.9-1.4c-1.4-0.6-2.2-1.7-2.3-3.2c-0.1-1.5,1.2-3.1,2.7-3.5
	c2.3-0.7,4.4-0.2,6.2,1.5c0.4,0.4,0.7,0.7,0.1,1.2c-0.5,0.4-0.8,0.9-1.5,0.2c-1.1-1.2-2.5-1.8-4.2-1.1c-0.6,0.3-1.1,0.7-1.1,1.4
	c-0.1,0.8,0.2,1.4,1,1.7c1,0.4,2.1,0.7,3.2,1.1c1.7,0.6,3.3,1.3,3.7,3.4c0.3,1.4-0.4,3.3-1.6,3.9C82.7,45.3,81.6,45.6,80.9,45.9z"/>
<path fill="#FFFFFF" d="M38.9,45.8c-2.3-0.2-4-0.8-5.4-2.1c-0.3-0.3-0.7-0.6-0.2-1c0.5-0.3,0.8-1.3,1.6-0.5c1.1,1.2,2.4,1.7,4.1,1.6
	c1.1-0.1,2.1-0.8,2.4-1.7c0.2-0.8-0.2-1.6-1.3-2.1c-1.2-0.5-2.4-0.8-3.6-1.3c-0.6-0.2-1.2-0.5-1.7-0.9c-1-0.8-1.6-1.9-1.4-3.2
	c0.3-1.5,1.1-2.7,2.7-3.2c2.3-0.7,4.4-0.2,6.2,1.5c0.5,0.5,0.5,0.8,0,1.3c-0.5,0.4-0.8,0.7-1.4,0.1c-1.3-1.4-2.7-1.7-4.3-1.1
	c-0.6,0.2-1.1,0.7-1.1,1.3c0,0.7,0.1,1.4,0.9,1.7c1.1,0.5,2.3,0.8,3.4,1.2c1.7,0.5,3.1,1.3,3.6,3.2c0.4,1.6-0.3,3.4-1.8,4.2
	C40.6,45.4,39.6,45.6,38.9,45.8z"/>
<path fill="#FFFFFF" d="M92.5,45.8c-2.3-0.1-4-0.8-5.4-2c-0.4-0.4-0.6-0.8,0-1.2c0.4-0.3,0.8-1,1.5-0.1c1.3,1.5,3.6,1.9,5.2,1.1
	c0.7-0.4,1-1,1.1-1.8c0-0.8-0.3-1.3-1-1.6c-1.5-0.6-3-1.1-4.5-1.6c-2.4-0.9-3.1-3.1-1.9-5.3c0.8-1.5,2.1-1.8,3.6-1.9
	c1.8-0.1,3.4,0.5,4.7,1.7c0.4,0.4,0.6,0.8,0,1.2c-0.4,0.4-0.7,0.8-1.4,0.2c-1.4-1.4-2.9-1.7-4.3-1c-0.7,0.3-1,0.8-1.1,1.6
	c0,0.8,0.5,1.3,1.1,1.5c1,0.4,2.1,0.7,3.1,1.1c0.8,0.3,1.7,0.6,2.3,1.1c2.2,1.7,1.9,5-0.7,6.4C94,45.5,93,45.6,92.5,45.8z"/>
<path fill="#FFFFFF" d="M193.2,195.2c0.6,0,1.1-0.2,1.7,0c0.2,0,0.3,0.7,0.3,1c0,2.3,0,4.7,0,7c0,2.3-1.3,3.7-3.4,4.1
	c-1.8,0.3-3.7-0.8-4.3-2.5c1-0.9,1.3-0.8,2.2,0.1c0.7,0.7,1.8,0.8,2.7,0.4c0.8-0.4,1.2-1.3,0.9-2.4c-2.7,0.9-4.3,0.5-5.5-1.4
	c-1.1-1.7-0.8-3.9,0.5-5.3c1.4-1.5,3.2-1.7,5-0.6C193.1,195.3,193.1,195.3,193.2,195.2z M193.4,199.1c0-1.4-1-2.6-2.2-2.6
	c-1.3,0-2.3,1.1-2.3,2.5c0,1.4,1,2.6,2.2,2.6C192.3,201.6,193.4,200.5,193.4,199.1z"/>
<path fill="#FFFFFF" d="M66.3,113.8c0.5-1.7,1-3.2,1.4-4.6c0.4-1.4,0.7-1.5,2.3-1.1c-0.1,0.3-0.1,0.6-0.2,0.9
	c-0.7,2.1-1.5,4.3-2.1,6.5c-0.3,1-1,0.7-1.6,0.7c-0.6,0.1-1-0.1-1.2-0.8c-0.4-1.6-1-3.1-1.5-4.9c-0.5,1.7-0.9,3.2-1.3,4.6
	c-0.2,0.6-0.3,1.1-1.1,1.1c-0.8,0-1.5,0.2-1.9-0.9c-0.7-2.1-1.5-4.2-2.2-6.2c-0.1-0.3-0.2-0.6-0.3-0.9c1.5-0.5,2-0.3,2.4,1.1
	c0.5,1.4,0.9,2.8,1.6,4.3c0.4-1.5,0.8-3,1.2-4.5c0.2-0.7,0.4-1.1,1.3-1.1c0.8,0,1.4,0.1,1.7,1.1C65.2,110.5,65.7,112,66.3,113.8z"/>
<path fill="#FFFFFF" d="M20.4,62.6c0.1-2.4,0.6-4.5,2.5-6c2.6-2.1,6.7-1.5,8.1,2.1c0.1,0.2-0.1,0.7-0.3,0.8c-0.5,0.2-1,0.8-1.5-0.1
	c-0.5-1-1.1-1.7-2.2-2.1c-1.1-0.3-2.6,0.1-3.4,1c-1.1,1.4-1.1,3-1.1,4.6c0,0.8,0.1,1.6,0.3,2.3c0.3,1.4,1.2,2.4,2.6,2.7
	c1.6,0.3,3-0.2,4-1.6c0.2-0.3,0.5-0.7,0.8-0.7c0.3,0,0.8,0.2,1,0.5c0.1,0.1-0.1,0.6-0.2,0.8c-1.3,2.1-3.1,3-5.6,2.8
	c-2.3-0.3-3.7-1.7-4.5-3.8C20.7,65,20.6,63.8,20.4,62.6z"/>
<path fill="#FFFFFF" d="M14.4,114.7c-0.9-1.6-2-3.1-2.8-4.8c-0.7-1.4-1.4-3-1.7-4.5c-0.5-2.3,0.8-4,3.1-4.4c0.6-0.1,0.9,0.1,1.1,0.6
	c0.3,1.2,0.8,2.5,0.8,3.7c0.1,2.9,0,5.7,0,8.6c0,0.2-0.1,0.4-0.1,0.6C14.6,114.6,14.5,114.7,14.4,114.7z"/>
<path fill="#FFFFFF" d="M15.9,114.6c-0.1-0.9-0.2-1.8-0.2-2.6c-0.2-3.3-0.2-6.6,0.8-9.7c0.4-1.4,0.7-1.5,2-1
	c1.9,0.7,2.8,2.4,2.3,4.6c-0.6,2.5-2,4.7-3.3,6.9c-0.4,0.7-0.8,1.3-1.3,1.9C16.1,114.6,16,114.6,15.9,114.6z"/>
<path fill="#FFFFFF" d="M168.2,199.1c0-2.4,1.9-4.3,4.3-4.4c2.5,0,4.5,2,4.4,4.4c0,2.4-2,4.3-4.5,4.3
	C170.2,203.4,168.2,201.4,168.2,199.1z M174.9,199.1c0-1.5-0.9-2.5-2.3-2.5c-1.3,0-2.3,1-2.3,2.4c0,1.4,1,2.5,2.3,2.5
	C173.9,201.5,174.9,200.5,174.9,199.1z"/>
<path fill="#FFFFFF" d="M201.4,200.4c0.8,1.2,2.2,1.5,3.2,0.8c1.1-0.7,1.3-0.7,2.2,0.3c-1,1.9-3.6,2.5-5.6,1.4
	c-1.5-0.8-2.4-2.7-2.1-4.5c0.3-2,1.6-3.3,3.4-3.6c1.8-0.3,4,1.1,4.3,2.9c0,0.2-0.2,0.6-0.4,0.7c-1.4,0.6-2.7,1.2-4.1,1.7
	C202,200.1,201.7,200.3,201.4,200.4z M201,198.8c1.3-0.5,2.4-1,3.6-1.5c-0.6-0.7-1.1-0.9-1.8-0.7C201.7,196.8,201.2,197.5,201,198.8
	z"/>
<path fill="#FFFFFF" d="M186.2,199c0,2.5-1.9,4.4-4.3,4.4c-2.3,0-4.3-1.9-4.3-4.2c0-2.4,1.9-4.4,4.3-4.4
	C184.3,194.7,186.2,196.6,186.2,199z M184.3,199.1c0-1.3-1.1-2.5-2.3-2.6c-1.3,0-2.3,1.1-2.3,2.5c0,1.5,1,2.6,2.3,2.6
	C183.2,201.6,184.3,200.4,184.3,199.1z"/>
<path fill="#FFFFFF" d="M73.5,60c0,2.8,0,5.7,0,8.5c0,0.8-0.3,1-1.1,1c-0.8,0-1.1-0.3-1.1-1.1c0-5.7,0-11.4,0-17.1
	c0-0.8,0.2-1.2,1.1-1.2c0.9,0,1.1,0.4,1.1,1.2C73.5,54.3,73.5,57.1,73.5,60z"/>
<path fill="#FFFFFF" d="M13.6,115.3c-0.2-0.1-0.4-0.1-0.5-0.1c-2.1-1.2-4.2-2.4-6.2-3.8c-2.5-1.8-2.7-3.8-0.8-6.3
	c0.2-0.3,0.5-0.6,0.7-0.9C8.4,105.3,13.5,113.6,13.6,115.3z"/>
<path fill="#FFFFFF" d="M23.7,104.2c1.9,1.6,2.6,4,1.6,5.7c-0.4,0.7-1.1,1.3-1.8,1.8c-2,1.3-4,2.4-6,3.6c-0.1,0.1-0.2,0-0.5,0.1
	C18.7,111.2,21,107.6,23.7,104.2z"/>
<path fill="#FFFFFF" d="M39.3,112.1c0,1.1,0,2.2,0,3.2c0,0.8-0.4,0.8-1,0.8c-0.6,0-1.1,0-1-0.8c0-0.6,0-1.3,0-1.9
	c0-0.5-0.2-0.7-0.7-0.7c-0.8,0-1.6,0-2.4,0c-0.5,0-0.7,0.2-0.7,0.7c0.1,0.7,0,1.3,0,2c0,0.7-0.4,0.7-0.9,0.7c-0.5,0-1.1,0.1-1.1-0.7
	c0-2.3,0-4.6,0-6.9c0-0.8,0.6-0.6,1.1-0.7c0.5,0,0.9,0,0.9,0.7c0,0.6,0.1,1.2,0,1.8c0,0.5,0.2,0.7,0.7,0.7c0.8,0,1.6,0,2.4,0
	c0.5,0,0.7-0.2,0.7-0.7c0-0.6,0-1.2,0-1.8c0-0.7,0.5-0.7,0.9-0.7c0.5,0,1.1-0.1,1.1,0.7C39.3,109.7,39.3,110.9,39.3,112.1
	C39.3,112.1,39.3,112.1,39.3,112.1z"/>
<path fill="#FFFFFF" d="M72.6,112.7c0,1.2,0.4,1.8,1.5,1.8c0.9,0,1.7,0,2.6,0c0.6,0,0.8,0.2,0.8,0.8c0,0.5-0.1,0.8-0.7,0.8
	c-1.2,0-2.4,0-3.7-0.2c-1.4-0.2-2.4-1-2.7-2.4c-0.2-1.1-0.1-2.3,0.1-3.4c0.4-1.6,1.8-2.1,3.3-2.2c1-0.1,1.9,0,2.9,0
	c0.6,0,0.7,0.3,0.7,0.8c0,0.6-0.2,0.8-0.8,0.8c-0.8,0-1.6,0-2.4,0c-0.4,0-0.9,0.1-1.1,0.3c-0.3,0.2-0.4,0.7-0.6,1.1
	c0.3,0.1,0.6,0.2,0.9,0.2c1,0,2.1,0,3.1,0c0.6,0,0.8,0.2,0.8,0.7c0,0.5-0.2,0.8-0.8,0.8C75.4,112.7,74,112.7,72.6,112.7z"/>
<path fill="#FFFFFF" d="M57.8,115.9c-1.6,0.5-2.1,0.3-2.6-1c-0.2-0.5-0.5-0.8-1-0.7c-0.4,0-0.8,0-1.2,0c-1.1-0.1-1.9,0.1-2.3,1.4
	c-0.3,1-1.3,0.4-2.2,0.5c0.2-0.4,0.2-0.7,0.3-0.9c1-2.2,2-4.4,3-6.6c0.1-0.3,0.6-0.6,0.9-0.7c0.5,0,1.4,0,1.5,0.4
	C55.5,110.8,56.6,113.3,57.8,115.9z M53,109.8c-0.4,1-0.7,1.8-1.1,2.7c0.8,0,1.5,0,2.2,0C53.8,111.6,53.4,110.8,53,109.8z"/>
<path fill="#FFFFFF" d="M40.6,111.1c0-0.8,0-1.6,0-2.4c0-0.7,0.3-0.9,0.9-0.8c0.6,0,1.2-0.1,1.2,0.8c0,1.3,0,2.7,0,4
	c0,1.6,0.8,2.2,2.4,1.9c0.8-0.2,1.2-0.7,1.2-1.5c0-1.5,0-2.9,0-4.4c0-0.8,0.3-0.9,1-0.9c0.7,0,1,0.2,1,0.9c0,1.5,0,3.1,0,4.6
	c0,1.2-0.6,2-1.7,2.4c-1.4,0.5-2.9,0.5-4.3,0c-1-0.4-1.6-1.1-1.6-2.3C40.6,112.7,40.6,111.9,40.6,111.1
	C40.6,111.1,40.6,111.1,40.6,111.1z"/>
<path fill="#FFFFFF" d="M47.6,38.5c0,2,0,4,0,5.9c0,0.8-0.4,1-1.1,1c-0.7,0-1.1-0.2-1.1-1c0-4,0-8,0-12c0-0.8,0.4-1,1.1-1
	c0.7,0,1.1,0.2,1.1,1C47.6,34.4,47.6,36.5,47.6,38.5z"/>
<path fill="#FFFFFF" d="M27.2,110.3c1,2.4-0.5,5.3-3.1,5.8c-1.4,0.3-2.9,0.2-4.4,0.2c-0.6,0-1.3,0-2-0.2
	C20.7,113.9,23.9,112.1,27.2,110.3z"/>
<path fill="#FFFFFF" d="M13.1,116c-0.1,0.2-0.1,0.2-0.1,0.2c-2.3-0.1-4.7,0.2-6.9-0.3c-2.3-0.4-3.6-3.5-2.6-5.5
	C6.8,112.1,10.1,113.9,13.1,116z"/>
<path fill="#FFFFFF" d="M196.3,196.8c0-1.8,0-3.5,0-5.3c0-0.8,0.3-1,1-1c0.7,0,1,0.3,1,1c0,3.6,0,7.2,0,10.7c0,0.7-0.2,1-0.9,1
	c-0.7,0-1.1-0.2-1-1C196.4,200.4,196.3,198.6,196.3,196.8z"/>
<path fill="#FFFFFF" d="M81,112.1c0,1.1,0,2.2,0,3.3c0,0.7-0.4,0.8-1,0.8c-0.5,0-1.2,0.1-1.2-0.8c0-2.2,0-4.5,0-6.7
	c0-0.9,0.6-0.7,1.1-0.8c0.6,0,1,0.1,1,0.9C81,109.8,81,111,81,112.1z"/>
<path fill="#FFFFFF" d="M17.9,116.9c2.4,0,4.8,0,7.3,0c-0.5,1.8-2.4,2.9-3.9,2.3c-1.2-0.6-2.4-1.3-3.6-2
	C17.8,117,17.8,116.9,17.9,116.9z"/>
<path fill="#FFFFFF" d="M5.4,116.8c2.6,0,5,0,7.7,0c-1.5,1-2.7,2.3-4.5,2.5C7.4,119.4,6.1,118.4,5.4,116.8z"/>
<path fill="#FFFFFF" d="M124,36.4c-1.6-0.7-3.1-1.3-4.9-1.4c0.2-0.7,0.4-1.6,0.8-2.4c0.5-1.3,1.7-1.9,3.1-1.4c1.3,0.4,2.1,1.7,1.8,3
	C124.6,35,124.3,35.7,124,36.4z M124.4,33.7c0-0.1,0-0.4-0.1-0.6c-0.3-0.8-1.6-1.4-2.6-1.2c-0.9,0.2-1.8,1.2-1.8,2
	c0,0.2,0.3,0.4,0.4,0.5c0.8,0.3,1.5,0.5,2.3,0.7C124,35.5,124.4,35.1,124.4,33.7z"/>
<path fill="#FFFFFF" d="M191.3,81.9c-0.3,0.2-0.6,0.5-0.7,0.6c-0.5-1.7-1.1-3.4-1.7-5.4c1.8,0.9,3.4,1.8,5,2.7
	c-0.3,0.4-0.7,0.6-1.4,0.2c-0.4-0.3-0.8-0.8-1.5-0.3C190.3,80.2,190.4,81,191.3,81.9z M190.2,79.8c0.3-0.2,0.5-0.4,0.9-0.6
	c-0.5-0.3-0.8-0.5-1.2-0.7c0,0-0.1,0.1-0.1,0.1C189.9,79,190.1,79.3,190.2,79.8z"/>
<path fill="#FFFFFF" d="M204.6,62.4c0.8,0.3,1,0.7,0.8,1.4c-0.6,2-2.3,2.9-3.9,2.1c-1.6-0.8-1.9-2.5-0.8-4.3
	c0.4-0.7,0.9-0.8,1.4-0.4c-0.4,0.4-1,0.7-1.3,1.1c-0.3,0.5-0.4,1.2-0.2,1.7c0.3,1.1,2,1.6,3.1,1.1C204.8,64.7,205.2,63.6,204.6,62.4
	z"/>
<path fill="#FFFFFF" d="M179.3,3.2c0.3,0,0.6-0.2,0.8-0.1c1,0.3,1.9,0.7,2.8,1.2c0.2,0.1,0.3,0.5,0.4,0.7c-0.1,0.1-0.2,0.1-0.3,0.2
	c-0.1-0.1-0.2-0.3-0.4-0.4c-0.6-0.6-1-0.5-1.4,0.3c-0.3,0.7-0.6,1.5-0.9,2.3c-0.1,0.4-0.2,0.8-0.2,1.3c-0.3-0.1-0.7-0.3-1-0.4
	c0.5-1.1,1-2.2,1.4-3.3c0.4-1,0.2-1.3-0.9-1.4c-0.1,0-0.3,0-0.4,0C179.4,3.5,179.4,3.3,179.3,3.2z"/>
<path fill="#FFFFFF" d="M121.4,47.9c-0.8,0.1-1.6,0.2-2.5,0.4c0-0.2,0-0.4-0.1-0.7c1.3,0,2.5,0,3.9,0c-0.9,1-1.7,1.8-2.5,2.7
	c0,0.1,0,0.1,0,0.2c0.8-0.1,1.6-0.2,2.6-0.2c-0.1,0.2-0.2,0.6-0.3,0.6c-1.1,0-2.2,0-3.6,0c0.9-1,1.7-1.9,2.5-2.8
	C121.5,48,121.4,48,121.4,47.9z"/>
<path fill="#FFFFFF" d="M199.8,73.4c-0.1,0.1-0.3,0.3-0.5,0.5c-0.5-0.4-0.9-0.8-1.4-1.2c-1.5,1.3-1.5,1.8,0.3,2.5
	c-0.2,0.2-0.3,0.4-0.5,0.6c-1-0.8-1.9-1.6-3-2.4c0-0.1,0.2-0.3,0.4-0.5c0.4,0.3,1,0.8,1.2,0.7c0.5-0.2,0.8-0.8,1.3-1.3
	c-0.5-0.3-0.9-0.6-1.3-0.8c0.1-0.2,0.3-0.4,0.4-0.5C197.8,71.8,198.8,72.6,199.8,73.4z"/>
<path fill="#FFFFFF" d="M208.8,48c-1.3,0-2.5,0-3.7,0c0-0.2,0-0.4,0.1-0.7c1.4,0.1,1.4,0,1.4-1.1c0-1.1-0.7-0.8-1.4-0.7
	c0-0.2-0.1-0.5-0.1-0.8c1.3,0,2.5,0,3.7,0c0,0.2,0,0.4,0,0.6c-1.9,0.1-2,0.2-1.8,1.3c0.2,1.3,1.2,0.4,1.9,0.6
	C208.8,47.5,208.8,47.7,208.8,48z"/>
<path fill="#FFFFFF" d="M139.2,10.5c0.5,0.6,0.9,1.3,1.4,1.9c-0.1,0.1-0.3,0.2-0.5,0.3c-0.7-1.1-1.3-2.1-1.9-3.1
	c0-0.1,0.1-0.2,0.1-0.2c1.2,0.3,2.4,0.6,3.8,0.9c-0.6-0.9-1.1-1.5-1.7-2.3c0.1-0.1,0.3-0.2,0.5-0.3c0.7,1.1,1.3,2.1,2.1,3.4
	c-1.4-0.3-2.6-0.6-3.7-0.8C139.3,10.4,139.2,10.5,139.2,10.5z"/>
<path fill="#FFFFFF" d="M191.3,15.6c-0.1-0.1-0.4-0.3-0.6-0.4c0.4-0.5,0.8-0.9,1.3-1.4c-0.5-0.4-1-0.8-1.5-1.3
	c-0.4,0.5-0.7,1-1.1,1.5c-0.1-0.1-0.3-0.3-0.6-0.4c0.8-1,1.6-1.9,2.4-2.9c0.1,0.1,0.3,0.2,0.5,0.4c-0.3,0.4-0.6,0.7-1,1.2
	c0.6,0.4,1,0.8,1.5,1c0.2,0.1,0.6-0.6,0.9-1c0.1,0.1,0.3,0.2,0.5,0.4C192.9,13.7,192.1,14.6,191.3,15.6z"/>
<path fill="#FFFFFF" d="M180.3,88.2c-0.5-2-0.8-2.1-2.4-1c0.2,0.5,0.5,1,0.7,1.6c-0.2,0.1-0.4,0.2-0.6,0.3c-0.4-1.2-0.8-2.3-1.3-3.5
	c0.1,0,0.3-0.2,0.6-0.3c0.2,0.5,0.3,0.9,0.5,1.5c0.6-0.3,1.2-0.4,1.6-0.8c0.1-0.1-0.2-0.8-0.3-1.3c0.1-0.1,0.3-0.2,0.5-0.3
	c0.4,1.2,0.9,2.3,1.3,3.6C180.8,88,180.6,88.1,180.3,88.2z"/>
<path fill="#FFFFFF" d="M134.9,17.2c-1.2,0-2.4,0-3.5,0c0,0.1-0.1,0.1-0.1,0.2c0.6,0.5,1.3,1.1,2,1.7c-0.1,0.1-0.3,0.3-0.3,0.3
	c-0.9-0.8-1.8-1.6-2.7-2.4c0-0.1,0.1-0.1,0.1-0.2c1.2,0,2.4,0,3.7,0c0-0.1,0.1-0.1,0.1-0.2c-0.7-0.6-1.3-1.1-2-1.7
	c0.1-0.1,0.2-0.3,0.4-0.5c0.9,0.9,1.7,1.8,2.6,2.6C135,17,134.9,17.1,134.9,17.2z"/>
<path fill="#FFFFFF" d="M128.5,74.2c1-0.8,1.9-1.6,2.9-2.4c0.7,0.8,1.7,1.5,1.4,2.9c-0.2,0.8-0.8,1.2-1.6,1.3
	C129.8,76.3,129.3,75.1,128.5,74.2z M132.4,73.9c-0.3-0.4-0.5-0.9-0.8-1.2c-0.1-0.1-0.6,0.3-1,0.5c-0.3,0.2-0.5,0.4-0.7,0.6
	c-0.8,0.7-0.7,1.4,0.3,1.7C131.2,75.9,132.3,75.1,132.4,73.9z"/>
<path fill="#FFFFFF" d="M134.9,80.8c-0.2-0.2-0.5-0.5-0.8-0.7c1-1.1,2-2.2,3.1-3.5c-0.5-0.4-1-0.7-1.4-1c0-0.1,0-0.1,0-0.2
	c0.3,0,0.6-0.1,0.8,0.1c0.9,0.7,1.8,1.5,2.7,2.3c-0.2,0.2-0.3,0.4-0.4,0.5c-0.3-0.5-0.7-0.9-1.1-1.4
	C136.8,78.3,135.5,79.3,134.9,80.8z"/>
<path fill="#FFFFFF" d="M147,85.3c-0.2,0.8-0.5,1.5-0.8,2.4c-0.1,0-0.4-0.1-0.6-0.2c0.5-1.2,1-2.3,1.4-3.4c0.1,0,0.1,0,0.2,0
	c0.5,1.1,0.9,2.2,1.5,3.6c0.4-1,0.6-1.8,0.9-2.7c0.1,0,0.3,0.1,0.5,0.2c-0.5,1.2-0.9,2.3-1.4,3.4c-0.1,0-0.2,0-0.3,0
	c-0.5-1.1-0.9-2.2-1.4-3.3C147.1,85.3,147,85.3,147,85.3z"/>
<path fill="#FFFFFF" d="M47.6,27.1c0,1.1-0.1,1.2-1.1,1.2c-0.9,0-1-0.1-1-1.3c0-1,0.2-1.2,1.1-1.2C47.5,25.9,47.6,26,47.6,27.1z"/>
<path fill="#FFFFFF" d="M197.1,16.1c0.1,0.1,0.2,0.3,0.4,0.4c-0.9,0.8-1.8,1.6-2.8,2.6c0-1.4,0-2.6,0-3.9c-0.7,0.6-1.3,1.1-2,1.7
	c0,0-0.1-0.1-0.2-0.2c0.9-0.8,1.8-1.7,2.7-2.5c0.1,0,0.2,0.1,0.2,0.1c-0.1,1.2-0.1,2.4-0.2,3.6c0.1,0,0.1,0.1,0.2,0.1
	C195.9,17.4,196.5,16.7,197.1,16.1z"/>
<path fill="#FFFFFF" d="M198.2,22.3c-1,0-2-0.9-2-1.9c0-1.1,0.9-2.1,2-2.1c1,0,2,1,2,2C200.3,21.3,199.3,22.3,198.2,22.3z
	 M199.7,20.1c0-0.7-0.6-1.4-1.3-1.4c-0.8,0-1.7,0.9-1.7,1.8c0,0.8,0.4,1.3,1.2,1.3C198.8,21.8,199.7,21,199.7,20.1z"/>
<path fill="#FFFFFF" d="M170.7,1.9c1.1,0,2.1,0.9,2,1.9c0,1.1-0.9,2-2,2.1c-1.1,0-2-0.9-2-1.9C168.8,2.8,169.7,1.9,170.7,1.9z
	 M172.1,3.9c0-1-0.4-1.6-1.3-1.6c-0.8,0-1.4,0.6-1.4,1.5c0,0.9,0.6,1.7,1.4,1.7C171.6,5.5,172.1,4.9,172.1,3.9z"/>
<path fill="#FFFFFF" d="M171.9,89c0,1.1-1,2-2.1,2c-1,0-1.9-0.9-1.9-2c0-1.1,1-2,2-2C171.1,87,171.9,87.9,171.9,89z M171.3,89.1
	c0-1-0.6-1.7-1.4-1.8c-0.8,0-1.4,0.6-1.3,1.4c0,1,0.7,1.8,1.5,1.8C170.8,90.6,171.3,90,171.3,89.1z"/>
<path fill="#FFFFFF" d="M157.8,88.5c0,1.1-0.9,2.1-2,2.1c-1.1,0-2-0.9-2-1.9c0-1.1,0.9-2,1.9-2.1C156.8,86.7,157.8,87.5,157.8,88.5z
	 M155.8,87c-0.8,0-1.3,0.6-1.4,1.6c0,1,0.5,1.6,1.3,1.7c0.8,0,1.4-0.6,1.4-1.6C157.2,87.8,156.6,87,155.8,87z"/>
<path fill="#FFFFFF" d="M202.3,29c-1.1,0-2-1-2-2c0-1,0.9-1.9,2-1.9c1.1,0,2,1,2,2.1C204.4,28.1,203.4,29,202.3,29z M203.9,26.9
	c0.1-0.7-0.4-1.3-1.1-1.4c-0.9-0.1-1.9,0.7-2,1.5c-0.1,0.7,0.5,1.3,1.2,1.4C202.8,28.5,203.8,27.7,203.9,26.9z"/>
<path fill="#FFFFFF" d="M204.9,32.9c-0.3,0-0.4,0-0.5,0.1c-1.4,0.3-1.5,0.3-1.9-0.6c-0.4-1.1-0.1-2.1,0.8-2.7c0.7-0.4,1.5-0.5,2,0
	c0.5,0.6,0.7,1.4,1,2.1c0,0.1-0.3,0.3-0.5,0.6c-0.1-0.2-0.1-0.3-0.1-0.3c0.4-0.8,0.2-1.4-0.4-2c-0.6-0.5-1.2-0.3-1.8,0.1
	c-0.7,0.4-0.9,1.1-0.7,1.9c0.1,0.2,0.5,0.4,0.7,0.4c0.3,0,0.6-0.3,0.9-0.5C204.6,32.3,204.8,32.6,204.9,32.9z"/>
<path fill="#FFFFFF" d="M127.8,26.8c-1.1-0.6-2.1-1.2-3.3-1.9c0.1-0.2,0.3-0.6,0.5-0.9c0.4-0.5,0.9-0.6,1.4,0
	c0.1,0.2,0.4,0.2,0.6,0.3c0.4,0.1,1,0.1,1.2,0.4c0.2,0.3,0.1,0.9,0,1.3C128.3,26.2,128,26.5,127.8,26.8z M126.5,25.6
	c0.5,0.1,1,0.1,1.5,0.2c0-0.3,0-0.7-0.1-0.8C127.4,24.5,126.9,24.7,126.5,25.6z M125.3,24.2c0,0.2-0.1,0.3-0.1,0.5
	c0.3,0.1,0.7,0.2,1,0.3c0-0.2,0.1-0.5,0-0.5C125.9,24.3,125.6,24.2,125.3,24.2z"/>
<path fill="#FFFFFF" d="M185.1,81.7c0.5,0.4,1,0.8,1.6,1.2c0.5,0.4,1.1,0.8,1.8,1.3c-0.4,0-0.8,0.1-1.1,0c-0.4-0.2-0.8-0.9-1.3-0.3
	c-0.3,0.3-0.2,1-0.2,1.5c0.1,0,0.2,0.1,0.2,0.1c-0.2,0.1-0.4,0.3-0.6,0.4c-0.2-1.3-0.4-2.6-0.6-3.9C184.9,81.8,185,81.8,185.1,81.7z
	"/>
<path fill="#FFFFFF" d="M129,68.3c0,0,0.2,0.2,0.3,0.5c-0.1,0.1-0.1,0.1-0.2,0.2c-0.6,0.3-1.2,0.6-1.8,0.9c-1,0.5-1.7,0.3-2.2-0.5
	c-0.5-0.8-0.3-1.5,0.7-2.1c0.3-0.2,0.7-0.4,1-0.6c0.3-0.2,0.5-0.4,0.8-0.7c0.1,0.2,0.2,0.4,0.4,0.7c-0.7,0.4-1.4,0.8-2,1.2
	c-0.5,0.3-0.8,0.8-0.5,1.4c0.4,0.6,1,0.6,1.5,0.3C127.6,69.1,128.2,68.7,129,68.3z"/>
<path fill="#FFFFFF" d="M163.3,87.6c0.5,1.2,0.9,2.4,1.4,3.7c-0.5,0.2-0.7-0.1-0.9-0.5c-0.2-0.3-0.6-0.8-0.8-0.7
	c-0.3,0.1-0.6,0.5-0.8,0.8c-0.2,0.2-0.4,0.4-0.6,0.6c0-0.1-0.1-0.1-0.1-0.2c0.5-1.2,1-2.4,1.5-3.6C163.1,87.6,163.2,87.6,163.3,87.6
	z"/>
<path fill="#FFFFFF" d="M200.8,72c0,0-0.1,0.1-0.2,0.3c-0.8-1.1-1.5-2.1-2.5-3.4c1.6,0.3,2.9,0.5,4.5,0.8c-0.5,0.2-0.8,0.4-1.1,0.4
	c-0.5,0-1.2-0.4-1.3,0.4C200.2,70.8,200.5,71.3,200.8,72z"/>
<path fill="#FFFFFF" d="M123.7,26.5c0.7,0.3,1.4,0.6,2,1c0.9,0.5,1.2,1.2,0.9,2c-0.4,0.9-1.1,1.1-2.1,0.8c-0.7-0.3-1.3-0.5-2.1-0.9
	c0.1-0.2,0.2-0.4,0.3-0.6c0.8,0.4,1.5,0.7,2.2,1c0.5,0.2,1.1,0.2,1.3-0.5c0.3-0.6,0-1-0.5-1.3c-0.7-0.4-1.4-0.7-2.2-1
	C123.5,26.9,123.6,26.7,123.7,26.5z"/>
<path fill="#FFFFFF" d="M204.5,53.7c1.3-0.3,2.5-0.6,4.1-0.9c-0.3,0.3-0.5,0.6-0.7,0.8c-0.4,0.2-1.2,0-1.1,0.8
	c0.1,0.4,0.6,0.7,0.9,1.1c0.1,0,0.1-0.1,0.2-0.1c0,0.2,0,0.4,0,0.7c-1.2-0.7-2.3-1.4-3.4-2.1C204.5,53.8,204.5,53.7,204.5,53.7z"/>
<path fill="#FFFFFF" d="M155.3,2.3c0.2,0,0.5-0.1,0.7-0.1c0.1,0.1,0.1,0.1,0.1,0.2c0.1,0.7,0.1,1.5,0.2,2.2c0.1,0.6,0.4,1.1,1.2,0.9
	c0.7-0.1,0.9-0.6,0.8-1.3c-0.1-0.7-0.3-1.5-0.4-2.3c0.2-0.1,0.3-0.1,0.5-0.2c0.1,0.1,0.1,0.1,0.1,0.2c0.1,0.6,0.1,1.3,0.2,1.9
	c0.1,1.1-0.3,1.8-1.2,2c-1,0.2-1.6-0.3-1.8-1.5C155.5,3.7,155.4,3,155.3,2.3z"/>
<path fill="#FFFFFF" d="M123.8,45.5c-1.7-0.1-3.3-0.6-5,0c0-0.3,0-0.7,0-1c1.7,0,3.3,0,5,0C123.8,44.9,123.8,45.2,123.8,45.5z"/>
<path fill="#FFFFFF" d="M135.5,10c1,1.4,1.9,2.8,3.2,3.9c-0.2,0.2-0.5,0.4-0.7,0.6c-1.1-1.3-2.1-2.6-3.2-3.9
	C135,10.5,135.3,10.2,135.5,10z"/>
<path fill="#FFFFFF" d="M175.7,86.8c-1.1-0.5-2-0.4-2.4,0.3c-0.4,0.6-0.1,1.6,0.5,2.1c0.8,0.6,1.6,0.4,2.4-0.4
	c0.2,1-0.6,1.1-1.1,1.2c-1.3,0.2-2.2-0.4-2.5-1.6c-0.2-1,0.5-2,1.6-2.2C174.8,86,175.6,85.6,175.7,86.8z"/>
<path fill="#FFFFFF" d="M188.3,12.2c-0.6,0.8-1.1,0.3-1.6,0c-1.1-0.8-1.3-1.9-0.5-2.9c0.7-0.9,1.9-1,2.9-0.2
	c0.7,0.5,0.7,0.7,0.3,1.2c-0.3-1-1-1.5-1.9-1.4c-0.7,0.1-1.3,1-1.2,1.8C186.4,11.7,187.1,12.2,188.3,12.2z"/>
<path fill="#FFFFFF" d="M145.6,84.3c-0.3-1-1.1-1.5-1.9-1.3c-0.7,0.2-1.2,1.1-1.1,2c0.1,0.9,0.9,1.4,1.9,1.3
	c-0.3,0.6-0.5,0.6-1.3,0.2c-1.2-0.6-1.6-1.8-1-2.8c0.6-1.1,1.8-1.4,2.9-0.6C145.6,83.2,146.4,83.5,145.6,84.3z"/>
<path fill="#FFFFFF" d="M166,4.9c-0.6,0.7-1.3,0.3-2,0.3c0-1.3,0-2.5,0-3.7c0.6-0.1,1.2-0.2,1.8,0.3c-0.5,0.2-1.3-0.3-1.1,0.7
	c0.1,0.3,0.5,0.5,0.9,0.9c-0.1,0-0.4,0.1-0.9,0.2c0,0.3-0.1,0.8,0.1,1.1C164.9,4.9,165.4,4.8,166,4.9z"/>
<path fill="#FFFFFF" d="M152.7,88.1c-0.3-0.1-0.6-0.2-0.9-0.3c-0.6,1.2-0.6,1.4,0.7,1.6c-0.5,0.4-0.6,0.4-1.8-0.2
	c0.3-1.2,0.7-2.4,1-3.5c1.3,0.2,1.5,0.3,1.5,0.8c-0.4,0-0.7,0-1.1-0.1c0,0.3-0.1,0.7,0,0.9c0.1,0.2,0.4,0.3,0.7,0.4
	C152.8,87.9,152.7,88,152.7,88.1z"/>
<path fill="#FFFFFF" d="M184.3,7.9c0.4,0.3,0.6,0.6,0.9,0.8c-0.1,0.1-0.1,0.2-0.2,0.2c-0.2-0.2-0.5-0.3-0.9-0.6
	c-0.2,0.5-0.4,0.9-0.4,1.3c0,0.2,0.5,0.3,0.8,0.5c-0.4,0.4-0.6,0.4-1.8-0.5c0.6-1.1,1.2-2.1,1.8-3.3c0.4,0.3,0.9,0.6,1.4,0.9
	c-0.1,0.1-0.1,0.2-0.2,0.3c-0.3-0.2-0.5-0.3-0.9-0.5C184.7,7.3,184.5,7.6,184.3,7.9z"/>
<path fill="#FFFFFF" d="M136.8,82.2c0.7-1,1.4-2,2.1-3c1,0.5,1.3,0.8,1.1,1.4c-0.2-0.3-0.4-0.6-0.6-1c-0.4,0.5-0.6,0.8-0.7,1
	c0.2,0.4,0.4,0.7,0.6,1c-0.1,0.1-0.2,0.1-0.3,0.2c-0.2-0.3-0.3-0.5-0.5-0.8c-0.1,0-0.2,0.1-0.3,0.1c-0.2,0.4-0.5,0.8-0.6,1.2
	c0,0.2,0.5,0.4,0.8,0.6C138.1,83.4,137.8,83.2,136.8,82.2z"/>
<path fill="#FFFFFF" d="M206.9,33.1c0.5,1.2-0.9,1.2-1,2c0.4,0.7,1.7,0,1.9,1.2c-1.3-0.5-2.6-1.3-3.9-0.1c-0.1-0.4-0.2-0.6-0.2-1
	C205.2,35.4,205.9,34.2,206.9,33.1z"/>
<path fill="#FFFFFF" d="M205.1,52.1c-0.4-0.3-0.5-0.3-0.3-1.2c0.1-0.6-0.1-1.5,0.7-1.9c-0.1,0.4-0.2,0.7-0.3,1.2
	c1.2,0.1,2.2,0.2,3.3,0.3c0,0.2,0,0.4,0,0.7c-0.7-0.1-1.3-0.1-1.9-0.2C205.2,50.8,205.2,50.8,205.1,52.1z"/>
<path fill="#FFFFFF" d="M174.4,2.6c0.5,0.2,1.1,0.4,1.7,0.6c0,0.1,0,0.2-0.1,0.3c-0.5,0-1.3-0.8-1.3,0.4c0,0.4,0.6,0.7,0.8,1.2
	c-0.3-0.1-0.6-0.2-1-0.4c-0.1,0.6-0.2,1.2-0.3,1.8c-0.2-0.1-0.5-0.1-0.7-0.2C173.8,5.1,174.1,3.9,174.4,2.6z"/>
<path fill="#FFFFFF" d="M162.6,1.8c-1.2,0.2-1.2,0.3-1.1,1.6c0,0.6,0.1,1.2,0.2,1.8c-0.2,0-0.5,0.1-0.8,0.1c0-0.8,0-1.6,0-2.4
	c0-1.1-0.1-1.2-1.5-0.9c0.3-0.3,0.4-0.5,0.6-0.6C160.7,1.4,162.4,1.5,162.6,1.8z"/>
<path fill="#FFFFFF" d="M184.1,86.5c-0.3,0.1-0.6,0.3-0.7,0.3c-0.4-0.8-0.8-1.5-1.1-2.3c-0.3-0.7-0.7-0.8-1.2-0.3
	c-0.1,0.1-0.2,0.1-0.3,0.2c0-0.5,1-1.2,2.2-1.6c0.2-0.1,0.4,0,0.6,0.1c-1.2,0.5-1.2,0.5-0.6,1.7c0.2,0.3,0.3,0.7,0.5,1
	C183.7,85.9,183.9,86.2,184.1,86.5z"/>
<path fill="#FFFFFF" d="M196,77.8c-0.1,0.1-0.3,0.3-0.4,0.4c-0.9-0.7-1.8-1.4-2.8-2.1c-0.1,0.1-0.4,0.4-0.6,0.7
	c-0.1,0-0.1,0-0.2-0.1c0.1-0.3,0.2-0.6,0.3-0.8c1.5-1.6,1.5-1.6,2-1.3c-1,0.7-1,0.7-0.2,1.6C194.9,76.8,195.4,77.2,196,77.8z"/>
<path fill="#FFFFFF" d="M123,54.7c0.7,0.2,1.3,2.5,0.8,3.1c0-0.3-0.1-0.4-0.1-0.6c0-0.5-0.3-0.7-0.7-0.6c-0.9,0.2-1.7,0.4-2.7,0.7
	c0-0.2-0.1-0.4-0.2-0.6c0.1-0.1,0.1-0.1,0.2-0.1c0.9-0.2,1.8-0.3,2.6-0.5c0.5-0.1,0.5-0.4,0.4-0.8C123.2,55.1,123.1,55,123,54.7z"/>
<path fill="#FFFFFF" d="M151.2,3.7c0.3-0.8,2.6-1.3,3-0.8c-0.3,0.1-0.9,0.2-1,0.4c-0.1,0.4,0.1,0.8,0.1,1.2c0.1,0.3,0.1,0.6,0.3,0.9
	c0.1,0.3,0.3,0.6,0.5,0.9c-0.2,0.1-0.5,0.2-0.8,0.2c-0.2-0.8-0.3-1.5-0.5-2.1C152.5,3.3,152.5,3.3,151.2,3.7z"/>
<path fill="#FFFFFF" d="M148.3,8.4c-0.2,0.1-0.4,0.1-0.6,0.2c-0.4-1.1-0.8-2.1-1.3-3.1c-0.5,0.2-0.8,0.4-1.2,0.5
	c0.2-0.8,2.4-1.6,2.9-1.1c-0.4,0.1-0.8,0.2-1.3,0.3C147.3,6.3,147.8,7.3,148.3,8.4z"/>
<path fill="#FFFFFF" d="M126,63.4c-0.4-1.3-0.4-1.3-1.6-0.8c-0.7,0.3-1.3,0.6-2.1,0.9c-0.1-0.1-0.2-0.4-0.3-0.6
	c1.1-0.4,2.1-0.8,3.2-1.3c-0.2-0.4-0.4-0.8-0.6-1.1c0.5,0,1,0.8,1.4,2.3C126.1,63,126,63.2,126,63.4z"/>
<path fill="#FFFFFF" d="M120.1,52.6c-0.1,0.1-0.2,0.2-0.2,0.3c0,0.3,0.1,0.6,0.1,0.9c0.3-0.1,0.6-0.1,0.8-0.2c0.3-0.3,0.4-0.7,0.7-1
	c0.3-0.2,0.8-0.4,1.1-0.3c0.3,0.1,0.6,0.6,0.7,1c0.1,0.2-0.2,0.5-0.3,0.7c-0.1,0-0.2-0.1-0.3-0.1c0.1-0.2,0.2-0.3,0.2-0.5
	c0-0.2-0.1-0.5-0.3-0.6c-0.1-0.1-0.5,0-0.6,0.1c-0.3,0.3-0.4,0.8-0.7,1c-0.4,0.3-0.9,0.5-1.3,0.4c-0.3-0.1-0.6-0.7-0.7-1.1
	c-0.1-0.2,0.3-0.5,0.5-0.7C119.9,52.5,120,52.6,120.1,52.6z"/>
<path fill="#FFFFFF" d="M144.2,6.7c-0.2,0-0.4,0-0.6,0c-0.2,0.1-0.4,0.2-0.4,0.3c0,0.2,0.1,0.5,0.3,0.5c0.4,0.2,0.9,0.2,1.2,0.4
	c0.3,0.2,0.7,0.7,0.7,1c0,0.4-0.4,0.8-0.8,1c-0.2,0.1-0.6-0.1-0.9-0.1c0-0.1,0-0.2,0.1-0.3c0.1,0,0.2,0.1,0.3,0.1
	c0.3-0.1,0.6-0.2,0.9-0.3c-0.2-0.3-0.3-0.6-0.6-0.8c-0.3-0.2-0.8-0.2-1.1-0.4c-0.3-0.2-0.6-0.7-0.5-1c0.1-0.3,0.5-0.7,0.8-0.9
	c0.1-0.1,0.4,0.1,0.6,0.2C144.3,6.5,144.2,6.6,144.2,6.7z"/>
<path fill="#FFFFFF" d="M160.8,90.8c-0.6,0.7-1.3,0.2-2,0.2c0.1-1.2,0.2-2.4,0.4-3.7c0.1,0,0.4,0,0.6,0c-0.1,0.8-0.2,1.5-0.2,2.2
	C159.4,90.8,159.5,90.9,160.8,90.8z"/>
<path fill="#FFFFFF" d="M126.9,21.1c0.9,0.6,1.7,1.3,2.6,1.7c0.7,0.3,0.7-0.5,0.8-1c0.6,0.5,0.5,0.8-0.7,1.9c-1-0.7-2-1.3-3-2.1
	C126.6,21.4,126.8,21.2,126.9,21.1z"/>
<path fill="#FFFFFF" d="M202,22.5c-0.7,0.4-1.3,0.7-1.9,1.1c-1.2,0.7-1.2,0.9-0.2,1.7c-0.7,0.2-1-0.1-1.4-1.4c1-0.6,2-1.3,3.1-2
	C201.7,22,201.8,22.3,202,22.5z"/>
<path fill="#FFFFFF" d="M206.4,59c0.5,0.6,0.5,0.7-0.2,2.1c-1.2-0.4-2.3-0.7-3.5-1.1c0-0.2,0.1-0.4,0.2-0.7c0.8,0.3,1.5,0.6,2.2,0.8
	C206.3,60.4,206.5,60.3,206.4,59z"/>
<path fill="#FFFFFF" d="M127.3,72.6c-0.1-0.1-0.2-0.3-0.3-0.5c1-0.7,2-1.4,3.1-2.2c0.1,0.1,0.3,0.3,0.4,0.5
	C129.4,71.1,128.4,71.8,127.3,72.6z"/>
<path fill="#FFFFFF" d="M121.1,60.5c0-0.1-0.1-0.4-0.2-0.6c1.2-0.4,2.4-0.8,3.6-1.1c0.1,0.2,0.1,0.4,0.2,0.6
	C123.5,59.7,122.4,60.1,121.1,60.5z"/>
<path fill="#FFFFFF" d="M165.9,91.2c0-1.3,0-2.4,0-3.7c0.2,0,0.4,0,0.6-0.1c0.1,1.3,0.1,2.5,0.2,3.7
	C166.5,91.2,166.3,91.2,165.9,91.2z"/>
<path fill="#FFFFFF" d="M131.9,20.7c-0.1,0.1-0.3,0.3-0.4,0.5c-1-0.8-1.9-1.5-2.9-2.3c0.1-0.1,0.2-0.3,0.3-0.5
	C129.9,19.1,130.9,19.9,131.9,20.7z"/>
<path fill="#FFFFFF" d="M126.7,64.2c0.1,0.2,0.2,0.3,0.3,0.5c-1.1,0.6-2.2,1.1-3.4,1.7c-0.1-0.1-0.2-0.4-0.3-0.6
	C124.5,65.3,125.5,64.8,126.7,64.2z"/>
<path fill="#FFFFFF" d="M149.2,3.9c0.2-0.1,0.4-0.1,0.5-0.2c0.4,1.2,0.8,2.3,1.3,3.5c-0.1,0-0.4,0.1-0.6,0.2
	C150,6.3,149.6,5.2,149.2,3.9z"/>
<path fill="#FFFFFF" d="M203.7,56.9c0-0.2,0.1-0.4,0.1-0.6c1.2,0.3,2.4,0.6,3.6,0.9c0,0.1-0.1,0.3-0.1,0.6
	C206.1,57.6,204.9,57.2,203.7,56.9z"/>
<path fill="#FFFFFF" d="M139.6,84.2c0.7-1.1,1.3-2.1,2-3.2c0.1,0.1,0.3,0.2,0.5,0.3c-0.7,1.1-1.3,2.1-2,3.2
	C140,84.5,139.8,84.3,139.6,84.2z"/>
<path fill="#FFFFFF" d="M207.6,40.6c-0.5,0.3-0.7,0.6-1,0.6c-0.2,0-0.6-0.4-0.6-0.6c0-0.3,0.3-0.6,0.6-0.7
	C206.8,39.9,207.1,40.3,207.6,40.6z"/>
<path fill="#FFFFFF" d="M122,40.6c-0.5,0.3-0.7,0.6-1,0.6c-0.2,0-0.6-0.4-0.6-0.5c0-0.3,0.3-0.6,0.6-0.7
	C121.2,40,121.5,40.3,122,40.6z"/>
<path fill="#FFFFFF" d="M157.5,71.7c-1.6,0.9-3,1.7-4.4,2.5c-1.5,0.9-2,0.8-3.3-0.6c0.3-0.2,0.7-0.4,1-0.6c0.3-0.2,0.6-0.4,1-0.6
	c-1-1.1-1.4-1.2-2.5-0.5c-0.8,0.5-1.5,0.9-2.4,0.2c-1.1-0.8-1.2-2.4,0-3.1c1.7-1,1.7-1.1,1.3-2.6c-0.3,0.2-0.7,0.3-1,0.5
	c-0.3,0.2-0.7,0.4-1,0.6c-0.5-1.6-0.2-2.4,1.2-3.2c1.4-0.8,2.8-1.6,4.3-2.5c-0.8-0.5-1.5-0.9-2.2-1.3c-0.8-0.4-1-0.9-1-1.7
	c0.1-1.6,0-3.2,0-4.8c0-0.6,0.2-0.9,0.7-1.2c1.6-0.9,3.2-1.9,4.8-2.7c0.3-0.1,0.7-0.1,1,0c0.8,0.4,1.5,0.8,2.4,1.3
	c0-0.4,0.1-0.7,0.1-0.9c0-1.3,0.1-2.6,0-3.9c-0.1-0.9,0.2-1.4,1-1.8c0.3-0.1,0.7-0.4,1.1-0.6c0.1,0.9,0.1,1.7,0.1,2.4
	c1.2-0.2,1.6-0.5,1.6-1.7c0-0.2,0-0.3,0-0.5c0-1.2,0.7-2,1.8-2.2c0.6-0.1,2.1,1,2.1,1.6c0,0.4,0,0.8,0,1.1c0,1.2,0.2,1.4,1.6,1.7
	c0-0.8,0.1-1.5,0.1-2.3c1.8,0.5,2.2,1,2.2,2.6c0,1.4,0,2.8,0,4.5c0.7-0.4,1.3-0.7,1.8-1.1c0.8-0.6,1.5-0.6,2.3,0
	c1.3,0.9,2.7,1.6,4,2.4c0.3,0.2,0.7,0.7,0.7,1.1c0.1,1.8,0.1,3.6,0,5.4c0,0.4-0.3,0.8-0.6,1c-0.7,0.5-1.5,0.9-2.4,1.5
	c0.5,0.3,0.9,0.6,1.3,0.8c1.1,0.7,2.2,1.3,3.3,1.9c0.8,0.4,1.2,0.9,1.1,1.9c-0.1,0.4,0,0.7,0,1.3c-0.8-0.4-1.5-0.8-2.2-1.2
	c-0.4,1.3-0.3,1.6,0.7,2.2c0.2,0.1,0.4,0.2,0.6,0.4c0.9,0.5,1.3,1.4,0.8,2.3c-0.3,0.6-1.2,1-1.9,1.2c-0.3,0.1-0.9-0.4-1.3-0.6
	c-1.2-0.7-1.4-0.7-2.6,0.4c0.7,0.4,1.4,0.8,2.2,1.3c-0.7,0.4-1.3,0.8-1.9,1.1c-0.2,0.1-0.6,0-0.9-0.2c-1.4-0.8-2.7-1.6-4.1-2.3
	c-0.3-0.2-0.5-0.3-1-0.5c0,0.9,0.1,1.6,0,2.3c0,0.4-0.3,0.8-0.6,1c-1.5,1-3,1.8-4.6,2.8c-0.5,0.3-0.9,0.3-1.4,0
	c-1.4-0.9-2.9-1.8-4.3-2.6c-0.6-0.3-0.8-0.7-0.8-1.4C157.5,73.2,157.5,72.6,157.5,71.7z M163.5,42.9c0,0.4,0,0.7,0,1
	c0,1.9,0,3.8,0,5.7c0,2.6-0.4,1.8,1.9,3.2c1,0.6,1.9,1.1,3,1.7c0.1-0.2,0.1-0.4,0.1-0.5c0-2.6,0-5.2,0-7.9c0-0.7-0.4-0.9-1.1-1
	c0,0.8,0,1.5,0,2.3c-2.1-0.6-2.6-1.2-2.6-3.1C164.8,43.5,164.4,43.1,163.5,42.9z M158.1,54.5c1.6-0.9,2.9-1.7,4.3-2.5
	c0.5-0.3,0.7-0.6,0.7-1.2c0-2.4,0-4.8,0-7.1c0-0.3,0-0.5,0-0.9c-1.2,0.5-1.1,0.5-1.2,1.5c0,0.6,0.1,1.5-0.2,1.8
	c-0.6,0.6-1.5,1-2.4,1.5c-0.1-0.9-0.1-1.7-0.2-2.4c-0.8,0.1-1,0.5-1,1.1c0,2.1,0,4.2,0,6.3C158.1,53.2,158.1,53.7,158.1,54.5z
	 M150.8,73.6c0.6,0.7,1.1,0.7,1.8,0.3c1.8-1.1,3.6-2.1,5.3-3.1c0.4-0.2,0.8-0.5,1.4-0.9c-1.7-1-3.2-1.9-4.8-2.8
	c-0.1-0.1-0.4,0-0.6,0.2c-2.2,1.2-4.3,2.5-6.5,3.8c-0.1,0.1-0.2,0.2-0.4,0.3c0.7,0.7,0.8,0.7,1.5,0.3c0.4-0.2,0.8-0.5,1.3-0.7
	c0.2-0.1,0.5-0.2,0.6-0.1c0.8,0.4,1.6,0.9,2.6,1.5C152.2,72.7,151.6,73.1,150.8,73.6z M179.6,71.3c-1.9-1.1-3.8-2-5.5-3.2
	c-1.4-1-2.6-1-3.9,0c-0.8,0.7-1.9,1.1-2.9,1.8c0.2,0.2,0.4,0.3,0.5,0.4c2.1,1.2,4.3,2.5,6.4,3.7c0.6,0.4,1,0.1,1.5-0.4
	c-0.7-0.5-1.4-0.9-2.2-1.4c0.3-0.2,0.6-0.3,0.8-0.5c1.2-1,2.4-1.2,3.7-0.1C178.6,72.1,179.1,72,179.6,71.3z M177.6,65.2
	c0.9,0.5,1.6,0.9,2.3,1.3c0.3-0.8,0.1-1.2-0.5-1.5c-2.1-1.2-4.2-2.4-6.3-3.7c-0.2-0.1-0.3-0.1-0.6-0.2c0,1.6,0,3.2,0,4.7
	c0,0.6,0.2,1,0.8,1.3c2,1.1,4,2.3,6,3.5c0.2,0.1,0.5,0.2,0.8,0.4c0.2-0.8,0.1-1.4-0.7-1.7c-0.4-0.2-0.8-0.4-1.2-0.7
	c-0.2-0.2-0.4-0.4-0.4-0.7C177.5,67.1,177.6,66.3,177.6,65.2z M146.8,71c2.2-1.3,4.4-2.5,6.5-3.8c0.2-0.1,0.4-0.2,0.5-0.3
	c0.2-0.2,0.4-0.4,0.4-0.5c0-1.7,0-3.5,0-5.2c-0.2,0-0.3,0-0.3,0.1c-2.3,1.3-4.5,2.6-6.8,4c-0.3,0.2-0.4,0.7-0.5,1.1
	c0.1,0.1,0.2,0.1,0.3,0.2c0.7-0.4,1.4-0.8,2.2-1.2c0,0.4,0,0.6,0.1,0.9c0.3,1.6-0.2,2.8-1.8,3.3C146.5,69.7,146.5,70.2,146.8,71z
	 M172.4,50.5c0,2,0,3.7,0,5.4c0,0.2,0.3,0.5,0.5,0.6c1.3,0.8,2.6,1.5,3.8,2.3c0.2,0.1,0.4,0.1,0.7,0.2c0-1.8,0-3.5,0-5.2
	c0-0.2-0.2-0.5-0.3-0.6C175.7,52.4,174.1,51.5,172.4,50.5z M154.2,50.5c-1.7,1-3.2,1.9-4.7,2.8c-0.2,0.1-0.3,0.6-0.3,0.9
	c0,1.3,0,2.6,0,3.9c0,0.3,0.1,0.5,0.1,0.9c1.6-0.9,3.1-1.8,4.6-2.7c0.2-0.1,0.4-0.4,0.4-0.6C154.2,54.1,154.2,52.4,154.2,50.5z
	 M158.4,74.6c0.8,0.5,1.3,0.8,1.9,1.2c1,0.6,2,1.5,3,1.5c1,0,2-0.9,3-1.5c0.6-0.3,1.2-0.7,2-1.2c-1.2-0.7-2.3-1.2-3.2-1.9
	c-1.2-0.9-2.2-1-3.4,0C160.7,73.4,159.6,73.9,158.4,74.6z M177.3,59.6c-1.8-1-3.3-1.9-4.9-2.7c-0.2-0.1-0.6,0-0.9,0.2
	c-1.2,0.7-2.4,1.4-3.6,2.1c-0.5,0.3-0.9,0.6-1.5,0.9c0.6,0.4,1.1,0.6,1.5,0.9c1.1,0.9,2.1,0.9,3.1,0c0.7-0.6,1.3-0.5,2,0
	c0.3,0.2,0.8,0.5,1.1,0.4C175.3,60.8,176.2,60.2,177.3,59.6z M149.3,59.6c1,0.6,1.8,1.1,2.6,1.5c0.3,0.2,0.9,0.2,1.2,0
	c1-0.8,1.8-0.7,2.7,0c0.2,0.2,0.5,0.4,0.8,0.5c0.2,0.1,0.5,0.1,0.6,0.1c0.9-0.5,1.8-1,2.9-1.7c-2-1.1-3.8-2.2-5.6-3.2
	c-0.1-0.1-0.4,0-0.5,0.1C152.6,57.7,151,58.6,149.3,59.6z M168.5,74.2c0-1.1,0-1.9,0-2.8c0-0.2-0.2-0.5-0.4-0.6
	c-1.4-0.5-1.6-1.5-1.5-2.8c0-0.4,0-0.8,0-1.1c0-0.2-0.1-0.5-0.3-0.7c-0.8-0.5-1.7-1-2.6-1.5c-0.1,0.2-0.1,0.3-0.1,0.3
	c0,1.9,0,3.8,0,5.7c0,0.2,0.1,0.5,0.2,0.6C165.2,72.4,166.8,73.2,168.5,74.2z M154.6,50.4c0,2,0,3.8,0,5.6c0,0.2,0.2,0.4,0.4,0.5
	c1.6,1,3.2,1.9,4.9,2.9c0.1,0.1,0.3,0,0.4,0.1c0.4-2.3,0.3-2.7-1.6-3.8c-0.9-0.5-1.2-1-1.1-2c0.1-0.5,0.1-1.3-0.2-1.5
	C156.7,51.5,155.7,51,154.6,50.4z M163.1,64.8c-0.4,0.2-0.6,0.2-0.8,0.3c-2.2,1.1-2.3,1.2-2.2,3.7c0,0.9-0.3,1.5-1.1,1.8
	c-0.3,0.2-0.8,0.5-0.8,0.8c-0.1,0.8,0,1.7,0,2.7c1.7-1,3.2-1.8,4.7-2.7c0.1-0.1,0.3-0.3,0.3-0.5C163.1,69,163.1,67,163.1,64.8z
	 M171.9,50.5c-0.7,0.4-1.1,0.7-1.6,0.9c-1.1,0.5-1.6,1.2-1.3,2.4c0.2,0.9-0.2,1.6-1.1,1.9c-0.2,0.1-0.3,0.2-0.5,0.3
	c-1.2,0.7-1.6,2.1-0.9,3.5c1.7-1,3.4-2,5.2-3.1c0.2-0.1,0.3-0.3,0.3-0.5C171.9,54.2,171.9,52.4,171.9,50.5z M157.5,64.7
	c0.6,0.4,1.1,0.6,1.4,0.9c0.6,0.5,1.2,0.5,1.8,0c0.6-0.4,1.2-0.7,1.8-1.1c0.5-0.3,0.9-0.3,1.4,0c0.7,0.4,1.4,0.8,2.1,1.2
	c0.2,0.1,0.5,0.2,0.7,0.2c0.7-0.3,1.4-0.8,2.2-1.3c-1.2-0.7-2.3-1.1-3.1-1.8c-1.9-1.5-3.5-1.5-5.4,0C159.7,63.5,158.7,64,157.5,64.7
	z M159.7,69.8c0-1.2,0-2.2,0-3.1c0-0.2-0.2-0.4-0.4-0.5c-0.3-0.2-0.5-0.4-0.8-0.5c-1.2-0.5-1.7-1.3-1.5-2.6c0-0.3-0.1-0.8-0.3-0.9
	c-0.6-0.4-1.2-0.8-2-1.2c0,2,0,3.8,0,5.6c0,0.1,0.1,0.3,0.3,0.4C156.4,67.8,157.9,68.7,159.7,69.8z M171.9,61.1
	c-1.9,0.5-2.3,1-2.2,2.7c0,0.7-0.2,1.2-0.9,1.5c-0.4,0.2-0.9,0.5-1.3,0.7c-0.2,0.1-0.5,0.3-0.5,0.5c-0.1,1,0,2,0,3.1
	c1.7-1,3.2-1.9,4.6-2.8c0.2-0.1,0.3-0.3,0.3-0.5C171.9,64.7,171.9,62.9,171.9,61.1z M163.5,55.5c0,1.5,0,2.8,0,4.2
	c0,0.3-0.1,0.6,0,0.9c0.1,0.3,0.4,0.6,0.6,0.8c0.9,0.6,1.9,1.1,2.9,1.7c0.7,0.4,1.4,0.8,2.1,1.2c0.5-1.5,0.3-2-0.8-2.7
	c-0.4-0.2-0.8-0.5-1.2-0.7c-1-0.4-1.4-1-1.2-2.1c0.3-1.7-0.5-2.7-2-3.2C163.8,55.5,163.7,55.5,163.5,55.5z M168.3,54.9
	c-1.4-0.8-2.5-1.4-3.6-2.1c-1-0.7-1.8-0.7-2.8,0c-1.1,0.7-2.2,1.3-3.5,2.1c0.7,0.4,1.2,0.8,1.7,1c0.3,0.1,0.9,0.2,1.1,0
	c1.4-1.2,2.8-1.3,4.2,0c0.2,0.2,0.6,0.3,0.9,0.2C166.9,55.8,167.5,55.4,168.3,54.9z M163.1,55.5c-2.1,0.7-2.5,1-2.2,2.9
	c0.2,1.8-1,2.3-2.1,2.9c-1.5,0.8-1.6,1-1.2,2.8c1.7-1,3.5-2,5.2-3.1c0.2-0.1,0.3-0.4,0.3-0.6C163.1,58.9,163.1,57.3,163.1,55.5z"/>
<path fill="#FFFFFF" d="M148,27.9c0,0,0.1,0,0.1,0c0,1.7,0,3.4,0,5c0,0.4,0.3,0.8,0.6,1c2.1,1.1,5.2-0.2,5.9-2.5
	c1.1-4.1-1.2-7.5-5.7-7.2c-0.6,0-0.9,0.3-0.9,0.9C148,26.1,148,27,148,27.9z"/>
<path fill="#FFFFFF" d="M159.2,29.6"/>
<path fill="#FFFFFF" d="M160.7,29.6"/>
<path fill="#FFFFFF" d="M53,109.8c0.4,1,0.8,1.8,1.1,2.7c-0.7,0-1.4,0-2.2,0C52.3,111.6,52.6,110.8,53,109.8z"/>
<path fill="#FFFFFF" d="M190.2,79.8c-0.2-0.5-0.3-0.8-0.4-1.1c0,0,0.1-0.1,0.1-0.1c0.3,0.2,0.7,0.4,1.2,0.7
	C190.8,79.4,190.5,79.6,190.2,79.8z"/>
<path fill="#FFFFFF" d="M128,25.7c-0.5-0.1-1-0.1-1.5-0.2"/>
<path fill="#FFFFFF" d="M148,27.9c0-0.9,0-1.8,0-2.7c0-0.6,0.3-0.9,0.9-0.9c4.5-0.3,6.8,3.1,5.7,7.2c-0.6,2.3-3.8,3.6-5.9,2.5
	c-0.3-0.2-0.6-0.7-0.6-1c-0.1-1.7,0-3.4,0-5C148.1,27.9,148.1,27.9,148,27.9z"/>
</svg>
