<svg xmlns="http://www.w3.org/2000/svg" viewBox="0 0 450 100.41"><defs><style>.cls-1{fill:#fff;}</style></defs><title>wlogo</title><g id="Слой_2" data-name="Слой 2"><g id="Layer_1" data-name="Layer 1"><path class="cls-1" d="M171.56,28.4a3.78,3.78,0,0,0-3.45-2.24h0a3.78,3.78,0,0,0-3.45,2.25L144.72,73.27A2.5,2.5,0,0,0,147,76.79h.06a2.5,2.5,0,0,0,2.29-1.5l4-9.05h29.47l4,9.06a2.5,2.5,0,0,0,2.29,1.49h.13a2.5,2.5,0,0,0,2.29-3.52ZM168,32.84l12.47,28.22H155.62Z"/><path class="cls-1" d="M226.19,26.44h-.05A2.56,2.56,0,0,0,223.58,29V44.8a1.06,1.06,0,0,1-1.8.76,16.13,16.13,0,0,0-11.66-4.38,16.4,16.4,0,0,0-12.59,5.32,18.47,18.47,0,0,0-4.89,12.95,18.42,18.42,0,0,0,4.89,12.88,16.41,16.41,0,0,0,12.59,5.32,16.13,16.13,0,0,0,11.66-4.38,1.06,1.06,0,0,1,1.8.76v.19a2.56,2.56,0,0,0,2.56,2.56h.05a2.56,2.56,0,0,0,2.56-2.56V29A2.56,2.56,0,0,0,226.19,26.44Zm-2.62,33.91a12.49,12.49,0,0,1-11.36,12.6q-.43,0-.87,0a12.85,12.85,0,0,1-9.57-3.88,14.09,14.09,0,0,1,0-19.28,12.64,12.64,0,0,1,9.57-4q.5,0,1,0a12.48,12.48,0,0,1,11.23,12.58Z"/><path class="cls-1" d="M266.62,26.44h-.05A2.56,2.56,0,0,0,264,29V44.8a1.06,1.06,0,0,1-1.8.76,16.13,16.13,0,0,0-11.66-4.38A16.4,16.4,0,0,0,238,46.51a18.47,18.47,0,0,0-4.89,12.95A18.42,18.42,0,0,0,238,72.33a16.41,16.41,0,0,0,12.59,5.32,16.13,16.13,0,0,0,11.66-4.38A1.06,1.06,0,0,1,264,74v.19a2.56,2.56,0,0,0,2.56,2.56h.05a2.56,2.56,0,0,0,2.56-2.56V29A2.56,2.56,0,0,0,266.62,26.44ZM264,60.35a12.49,12.49,0,0,1-11.36,12.6q-.43,0-.87,0a12.85,12.85,0,0,1-9.57-3.88,14.09,14.09,0,0,1,0-19.28,12.64,12.64,0,0,1,9.57-4q.5,0,1,0A12.48,12.48,0,0,1,264,58.48Z"/><path class="cls-1" d="M295,44a2.56,2.56,0,0,0-3-2.54,16.44,16.44,0,0,0-9,4.75,1.06,1.06,0,0,1-1.84-.73v-.86A2.56,2.56,0,0,0,278.63,42h-.05A2.56,2.56,0,0,0,276,44.61V74.23a2.56,2.56,0,0,0,2.56,2.56h.05a2.56,2.56,0,0,0,2.56-2.56V58.93a12,12,0,0,1,6.51-10.74,14.65,14.65,0,0,1,3-1.1,12.21,12.21,0,0,1,2.12-.5A2.56,2.56,0,0,0,295,44.05Z"/><path class="cls-1" d="M312.27,41.19a16.66,16.66,0,0,0-12.73,5.25,18.27,18.27,0,0,0-4.89,13,17,17,0,0,0,5.47,13.09,19.51,19.51,0,0,0,13.67,5.11c4.67,0,8.38-.85,11.16-2.61a2.12,2.12,0,0,0,1-1.79v0A2.08,2.08,0,0,0,323,71.3,20.45,20.45,0,0,1,314.79,73c-7.87,0-13.56-4.29-14.67-11a1.08,1.08,0,0,1,1.06-1.25h22.76a4.25,4.25,0,0,0,4.23-4.86C326.88,47.57,322.07,41.19,312.27,41.19Zm9.81,15.25H301.26a1.08,1.08,0,0,1-1.05-1.28,11.51,11.51,0,0,1,11.85-9.3c3.67,0,6.4,1.08,8.2,3.31a12,12,0,0,1,2.89,6A1.07,1.07,0,0,1,322.08,56.44Z"/><path class="cls-1" d="M382.82,74.42a2.32,2.32,0,0,0-2.32-2.32h-.61c-3,0-4.53-1.73-4.53-5.11V29a2.56,2.56,0,0,0-2.56-2.56h-.05A2.56,2.56,0,0,0,370.17,29V68.21c0,6.11,3.45,8.56,8,8.56h2.33a2.32,2.32,0,0,0,2.33-2.32Z"/><path class="cls-1" d="M365.4,72.69h-.26c-2,0-3.31-1.65-3.31-4.32V54.06c0-8.42-6.26-12.87-15.54-12.87A23.86,23.86,0,0,0,335,43.71a2.11,2.11,0,0,0-1.12,1.87v.05a2.19,2.19,0,0,0,3.08,2,19.56,19.56,0,0,1,8.29-1.79c7.62,0,11.44,2.88,11.44,8.7v.84c-3.06-.26-11.38-.77-12.52-.77a16.28,16.28,0,0,0-10.21,3.09,10.17,10.17,0,0,0-4,8.42,10.44,10.44,0,0,0,3.81,8.49,14.93,14.93,0,0,0,9.42,3,17.71,17.71,0,0,0,12.75-4.77,1.08,1.08,0,0,1,1.73.39c1,2.56,3.28,3.8,6.08,3.8l1.79-.08a2.14,2.14,0,0,0,2-2.13v0A2.14,2.14,0,0,0,365.4,72.69ZM351,71.5A15.32,15.32,0,0,1,344.57,73c-5.39,0-9.49-2.45-9.49-7.12,0-4.32,4-7,10.29-7,.67,0,6.46.37,9.89.74a1.57,1.57,0,0,1,1.4,1.56v1.35A9.87,9.87,0,0,1,351,71.5Z"/><path class="cls-1" d="M391.79,32.7a3.66,3.66,0,1,0-5.18-5.18,3.66,3.66,0,0,0,5.18,5.18Z"/><path class="cls-1" d="M397.38,46.58h3.4a1.07,1.07,0,0,1,1.07,1.07V66.94c0,6.55,3.17,10.72,9.78,10.72a16.19,16.19,0,0,0,5.63-.8,2.3,2.3,0,0,0,1.49-2.15v0a2.29,2.29,0,0,0-2.85-2.21,12.2,12.2,0,0,1-2.83.32c-2.16,0-3.74-.58-4.68-1.65s-1.37-3-1.37-5.75V47.65a1.07,1.07,0,0,1,1.07-1.07h3.55a2.24,2.24,0,0,0,2.24-2.24v0A2.24,2.24,0,0,0,411.64,42h-3.55A1.07,1.07,0,0,1,407,41V33.9a2.56,2.56,0,0,0-2.56-2.56h-.05a2.56,2.56,0,0,0-2.56,2.56V41A1.07,1.07,0,0,1,400.78,42h-3.4a2.24,2.24,0,0,0-2.24,2.24v0A2.24,2.24,0,0,0,397.38,46.58Z"/><rect class="cls-1" x="386.61" y="41.86" width="5.18" height="34.69" rx="2.56" ry="2.56"/><path class="cls-1" d="M417.22,45.63l12.47,26.55a8.06,8.06,0,0,1-.06,6.92c-2.6,5.31-5.09,7.7-8.68,7.7a10.54,10.54,0,0,1-2-.19,2.53,2.53,0,0,0-2.74,2.58v.06c0,1,.71,1.61,1.73,1.85a16.89,16.89,0,0,0,3.81.37c5.18,0,9.35-3.6,12.44-10.79l15.61-35.07A2.53,2.53,0,0,0,447.47,42h-.06a2.53,2.53,0,0,0-2.32,1.52L434.77,67.18a1.07,1.07,0,0,1-1.95,0L421.92,43.48a2.56,2.56,0,0,0-3.62-1.16l0,0A2.56,2.56,0,0,0,417.22,45.63Z"/><polygon class="cls-1" points="38.65 66.94 57.97 100.41 96.62 100.41 115.94 66.94 38.65 66.94"/><polygon class="cls-1" points="77.29 66.94 115.94 66.94 77.29 0 38.65 0 77.29 66.94"/><polygon class="cls-1" points="57.97 33.47 19.32 33.47 0 66.94 19.32 100.41 57.97 33.47"/></g></g></svg>