<?xml version="1.0" encoding="utf-8"?>
<!-- Generator: Adobe Illustrator 18.0.0, SVG Export Plug-In . SVG Version: 6.00 Build 0)  -->
<!DOCTYPE svg PUBLIC "-//W3C//DTD SVG 1.1//EN" "http://www.w3.org/Graphics/SVG/1.1/DTD/svg11.dtd">
<svg version="1.1" id="Слой_1" xmlns="http://www.w3.org/2000/svg" xmlns:xlink="http://www.w3.org/1999/xlink" x="0px" y="0px"
	 viewBox="0 0 210 297" enable-background="new 0 0 210 297" xml:space="preserve">
<g>
	<g>
	</g>
	<g>
	</g>
	<g>
	</g>
	<g>
	</g>
</g>
<g>
	<path fill="#5BB0E2" d="M56.1,140.4l-34.3,25c20.2,27.7,49.4,42.7,83.7,42.7v-42.4C85.2,165.5,67.2,155.6,56.1,140.4z"/>
	<path fill="#93C2E8" d="M47.4,123.4L7.1,136.5c3.5,10.9,8,19.6,14.7,28.9l34.3-25C52.4,135.2,49.4,129.5,47.4,123.4z"/>
	<path fill="#C2D7EF" d="M44.5,104.5c0-33.7,27.3-61,61-61V1c-11.4,0-21.1,1.5-32,5.1c-54.4,17.7-84.1,76-66.4,130.4l40.4-13.1
		C45.5,117.4,44.5,111.1,44.5,104.5z"/>
	<path fill="#0095D3" d="M105.5,1v42.4c33.7,0,61,27.3,61,61s-27.3,61-61,61V208c57.2,0,103.5-46.3,103.5-103.5S162.7,1,105.5,1z"/>
</g>
<g>
	<path d="M25.6,63.2c0.4,0.2,1.3,0.6,2.2,0.6c1.7,0,2.3-1.1,2.2-1.9c0-1.4-1.3-2-2.6-2h-0.7v-1h0.7c1,0,2.2-0.5,2.2-1.7
		c0-0.8-0.5-1.5-1.7-1.5c-0.8,0-1.6,0.4-2,0.7l-0.4-1c0.5-0.4,1.5-0.8,2.6-0.8c2,0,2.8,1.2,2.8,2.4c0,1-0.6,1.9-1.8,2.3v0
		c1.2,0.2,2.2,1.2,2.2,2.5c0,1.6-1.2,3-3.6,3c-1.1,0-2.1-0.4-2.6-0.7L25.6,63.2z"/>
	<path d="M39.7,59.7c0,3.4-1.3,5.2-3.4,5.2c-1.9,0-3.2-1.8-3.3-5.1c0-3.3,1.4-5.2,3.4-5.2C38.5,54.7,39.7,56.5,39.7,59.7z
		 M34.3,59.8c0,2.6,0.8,4,2,4c1.4,0,2-1.6,2-4.1c0-2.4-0.6-4-2-4C35.2,55.7,34.3,57.1,34.3,59.8z"/>
	<path d="M45.4,57.6c0,2.1-1.1,3.1-2.4,3.1c-1.2,0-2.3-1-2.3-3c0-2,1.1-3.1,2.4-3.1C44.5,54.7,45.4,55.7,45.4,57.6z M41.8,57.7
		c0,1.3,0.4,2.2,1.3,2.2c0.9,0,1.3-0.9,1.3-2.3c0-1.2-0.4-2.2-1.3-2.2C42.2,55.5,41.8,56.5,41.8,57.7z M42.9,64.9l5.8-10.3h0.9
		l-5.8,10.3H42.9z M51.9,61.7c0,2.1-1.1,3.1-2.4,3.1c-1.2,0-2.3-1-2.3-3c0-2,1.1-3.1,2.4-3.1C51,58.8,51.9,59.8,51.9,61.7z
		 M48.2,61.8c0,1.3,0.5,2.2,1.3,2.2c0.9,0,1.3-0.9,1.3-2.3c0-1.2-0.4-2.2-1.3-2.2C48.7,59.6,48.2,60.6,48.2,61.8z"/>
</g>
<g>
	<path d="M181.3,102.8h-3.8l-0.4,2.5c0.2,0,0.4-0.1,0.8-0.1c0.8,0,1.5,0.2,2.1,0.5c0.8,0.4,1.4,1.3,1.4,2.5c0,1.9-1.5,3.4-3.7,3.4
		c-1.1,0-2-0.3-2.5-0.6l0.3-1c0.4,0.2,1.2,0.5,2.1,0.5c1.3,0,2.3-0.8,2.3-2.2c0-1.3-0.9-2.2-2.9-2.2c-0.6,0-1,0.1-1.4,0.1l0.6-4.8
		h4.7V102.8z"/>
	<path d="M189.8,106.5c0,3.4-1.3,5.2-3.4,5.2c-1.9,0-3.2-1.8-3.3-5.1c0-3.3,1.4-5.2,3.4-5.2C188.6,101.5,189.8,103.4,189.8,106.5z
		 M184.4,106.7c0,2.6,0.8,4,2,4c1.4,0,2-1.6,2-4.1c0-2.4-0.6-4-2-4C185.2,102.5,184.4,104,184.4,106.7z"/>
	<path d="M195.5,104.5c0,2.1-1.1,3.1-2.4,3.1c-1.2,0-2.3-1-2.3-3c0-2,1.1-3.1,2.4-3.1C194.6,101.5,195.5,102.6,195.5,104.5z
		 M191.8,104.5c0,1.3,0.4,2.2,1.3,2.2c0.9,0,1.3-0.9,1.3-2.3c0-1.2-0.4-2.2-1.3-2.2C192.3,102.3,191.8,103.3,191.8,104.5z
		 M193,111.7l5.8-10.3h0.9l-5.8,10.3H193z M201.9,108.6c0,2.1-1.1,3.1-2.4,3.1c-1.2,0-2.3-1-2.3-3c0-2,1.1-3.1,2.4-3.1
		C201,105.6,201.9,106.7,201.9,108.6z M198.3,108.7c0,1.3,0.5,2.2,1.3,2.2c0.9,0,1.3-0.9,1.3-2.3c0-1.2-0.4-2.2-1.3-2.2
		C198.8,106.4,198.3,107.4,198.3,108.7z"/>
</g>
<g>
	<path d="M28.6,138.3h-3.8l-0.4,2.5c0.2,0,0.4-0.1,0.8-0.1c0.8,0,1.5,0.2,2.1,0.5c0.8,0.4,1.4,1.3,1.4,2.5c0,1.9-1.5,3.4-3.7,3.4
		c-1.1,0-2-0.3-2.5-0.6l0.3-1c0.4,0.2,1.2,0.5,2.1,0.5c1.3,0,2.3-0.8,2.3-2.2c0-1.3-0.9-2.2-2.9-2.2c-0.6,0-1,0.1-1.4,0.1l0.6-4.8
		h4.7V138.3z"/>
	<path d="M35,139.9c0,2.1-1.1,3.1-2.4,3.1c-1.2,0-2.3-1-2.3-3c0-2,1.1-3.1,2.4-3.1C34.1,137,35,138,35,139.9z M31.4,140
		c0,1.3,0.4,2.2,1.3,2.2c0.9,0,1.3-0.9,1.3-2.3c0-1.2-0.4-2.2-1.3-2.2C31.8,137.8,31.4,138.8,31.4,140z M32.6,147.2l5.8-10.3h0.9
		l-5.8,10.3H32.6z M41.5,144c0,2.1-1.1,3.1-2.4,3.1c-1.2,0-2.3-1-2.3-3c0-2,1.1-3.1,2.4-3.1C40.6,141.1,41.5,142.1,41.5,144z
		 M37.8,144.1c0,1.3,0.5,2.2,1.3,2.2c0.9,0,1.3-0.9,1.3-2.3c0-1.2-0.4-2.2-1.3-2.2C38.3,141.9,37.8,142.9,37.8,144.1z"/>
</g>
<g>
	<path d="M57.3,172.2L57.3,172.2l-1.8,0.9l-0.3-1l2.2-1.2h1.1v9.9h-1.3V172.2z"/>
	<path d="M68.2,172.1h-3.8l-0.4,2.5c0.2,0,0.4-0.1,0.8-0.1c0.8,0,1.5,0.2,2.1,0.5c0.8,0.4,1.4,1.3,1.4,2.5c0,1.9-1.5,3.4-3.7,3.4
		c-1.1,0-2-0.3-2.5-0.6l0.3-1c0.4,0.2,1.2,0.5,2.1,0.5c1.3,0,2.3-0.8,2.3-2.2c0-1.3-0.9-2.2-2.9-2.2c-0.6,0-1,0.1-1.4,0.1l0.6-4.8
		h4.7V172.1z"/>
	<path d="M74.6,173.8c0,2.1-1.1,3.1-2.4,3.1c-1.2,0-2.3-1-2.3-3c0-2,1.1-3.1,2.4-3.1C73.6,170.8,74.6,171.9,74.6,173.8z M70.9,173.9
		c0,1.3,0.4,2.2,1.3,2.2c0.9,0,1.3-0.9,1.3-2.3c0-1.2-0.4-2.2-1.3-2.2C71.4,171.6,70.9,172.6,70.9,173.9z M72.1,181.1l5.8-10.3h0.9
		l-5.8,10.3H72.1z M81,177.9c0,2.1-1.1,3.1-2.4,3.1c-1.2,0-2.3-1-2.3-3c0-2,1.1-3.1,2.4-3.1C80.1,174.9,81,176,81,177.9z M77.4,178
		c0,1.3,0.5,2.2,1.3,2.2c0.9,0,1.3-0.9,1.3-2.3c0-1.2-0.4-2.2-1.3-2.2C77.8,175.7,77.4,176.7,77.4,178z"/>
</g>
</svg>
