<?xml version="1.0" encoding="utf-8"?>
<!-- Generator: Adobe Illustrator 18.0.0, SVG Export Plug-In . SVG Version: 6.00 Build 0)  -->
<!DOCTYPE svg PUBLIC "-//W3C//DTD SVG 1.1//EN" "http://www.w3.org/Graphics/SVG/1.1/DTD/svg11.dtd">
<svg version="1.1"
	 id="svg6594" xmlns:svg="http://www.w3.org/2000/svg" xmlns:cc="http://creativecommons.org/ns#" xmlns:dc="http://purl.org/dc/elements/1.1/" xmlns:sodipodi="http://sodipodi.sourceforge.net/DTD/sodipodi-0.dtd" xmlns:rdf="http://www.w3.org/1999/02/22-rdf-syntax-ns#" xmlns:inkscape="http://www.inkscape.org/namespaces/inkscape" sodipodi:docname="–≤–Р–£вАУвЙ†–≤–Р–£вАУ–Ъ–≤–Р–£–≤–Щ¬І–≤–Р–§вАУ–Ђ–≤–Р–£вАФ–§ –≤–Р–£вАФ–¶–≤–Р–£вАУ–Ъ–≤–Р–£вАУ–Ч–≤–Р–§вАУ–£–≤–Р–£вАУ–Щ–≤–Р–£¬ђ¬µ–≤–Р–£вАФ–©–≤–Р–§вАУ–Ґ 1" inkscape:version="0.48.4 r9939"
	 xmlns="http://www.w3.org/2000/svg" xmlns:xlink="http://www.w3.org/1999/xlink" x="0px" y="0px" viewBox="0 0 210 297"
	 enable-background="new 0 0 210 297" xml:space="preserve">
<rect id="rect6626" x="-13.7" y="32.3" fill="none" width="210" height="210"/>
<g id="g7573" transform="translate(-7166.0342,-5219.4102)" inkscape:export-filename="E:\–≤–Р–£вАУ–Г–≤–Р–£вАУ–Г–≤–Р–£вАУ–Г –≤–Р–£вАУвА†–≤–Р–£вАФ–™–≤–Р–£¬ђ¬µ–≤–Р–£вАФ–І–≤–Р–£вАФ–І–≤–Р–£–≤–Ш–Ѓ\EiraCube\–≤–Р–£вАУ–В–≤–Р–£вАУ–Ъ–≤–Р–£–≤–ЩвАҐ–≤–Р–£вАУ–Ъ–≤–Р–§вАУ–Ґ–≤–Р–£вАУ–Ф–≤–Р–£вАФ–™\logo.png" inkscape:export-ydpi="180" inkscape:export-xdpi="180">
	<path id="path7454-5" inkscape:connector-curvature="0" fill="#23AAF0" d="M7240.7,5244.5c-28.7,0-52.1,23.4-52.1,52.1
		c0,28.7,23.4,52.1,52.1,52.1c13.8,0,26.4-5.4,35.7-14.1h-7.9c-7.7,5.7-17.4,9-27.8,9c-26,0-47-21-47-47s21-47,47-47
		c10.4,0,20,3.4,27.7,9h7.9C7267.1,5249.9,7254.6,5244.5,7240.7,5244.5z"/>
	<path id="path7452-1" inkscape:connector-curvature="0" fill="#013A4E" d="M7227.9,5261.9v31.9h27.7v-5.6h-21.2v-8.9h13.9v-5.4
		h-13.9v-6.3h20.7v-5.7L7227.9,5261.9L7227.9,5261.9z M7276.9,5261.9v26.1v1.3v4.5v27.5c0,2.8-1.7,4.4-4.2,4.4c-2.6,0-4.3-2-4.3-4.4
		v-43.7v-1.2h-1.2h-3.9h-1.2v45.1c0.5,6.5,5.3,9.7,10.7,9.8c5.6-0.1,10.6-3.3,10.6-9.8v-32.4v-1.3v-3.3h9.7h0.2l6,9.1h7.9l-6.9-10.2
		c1.2-0.5,2.3-1.1,3.1-1.8c0.9-0.7,1.6-1.5,2.3-2.5c0.5-0.9,1-1.8,1.3-2.8c0.3-1.1,0.5-2.2,0.5-3.5c0-1.8-0.3-3.3-0.8-4.6
		s-1.5-2.5-2.6-3.5c-1.2-0.9-2.6-1.6-4.5-2.2c-1.8-0.5-3.9-0.8-6.3-0.8L7276.9,5261.9L7276.9,5261.9L7276.9,5261.9z M7325.9,5261.9
		l-14.9,31.9h6.8l2.5-5.4h18.6l2.5,5.4h6.7l-15.4-31.9H7325.9z M7262,5262v8.8h1.2h3.9h1.2v-1.2v-7.5h-1.2h-3.9L7262,5262L7262,5262
		z M7283.3,5267.5h9.9c2.5,0,4.4,0.5,5.5,1.5c1.2,0.9,1.8,2.3,1.8,4.1c0,0.9-0.1,1.8-0.5,2.6c-0.3,0.7-0.7,1.4-1.4,1.8
		c-0.6,0.5-1.4,0.9-2.3,1.2c-0.9,0.3-2,0.5-3.3,0.5h-9.9V5267.5L7283.3,5267.5z M7329.4,5268.6l6.9,14.6h-13.6L7329.4,5268.6z
		 M7243.8,5299.3c-2.5,0-4.7,0.4-6.6,1.2c-2,0.8-3.6,1.9-5,3.3s-2.5,3.1-3.1,5c-0.7,1.9-1,4-1,6.3c0,2.3,0.4,4.4,1,6.4
		c0.7,2,1.8,3.6,3.1,5.1c1.4,1.5,3.1,2.6,5.2,3.5c2.1,0.8,4.5,1.3,7.3,1.3c2.2,0,4.1-0.4,6.1-1c1.9-0.6,3.6-1.5,5.1-2.5l-2.5-4.7
		c-0.5,0.4-1.2,0.7-1.8,1.2c-0.7,0.4-1.4,0.5-2.1,0.7c-0.7,0.3-1.5,0.5-2.2,0.5c-0.7,0.1-1.6,0.1-2.4,0.1c-1.7,0-3.3-0.2-4.6-0.7
		c-1.4-0.5-2.5-1.3-3.5-2.3c-0.9-0.9-1.6-2-2.2-3.3c-0.5-1.3-0.7-2.6-0.7-4.2c0-1.5,0.3-2.8,0.7-4.1c0.5-1.3,1.2-2.4,2.1-3.3
		c0.9-0.9,2-1.6,3.5-2.1c1.4-0.5,2.9-0.7,4.6-0.7c0.7,0,1.4,0,2.1,0.1c0.7,0.1,1.5,0.3,2.2,0.5c0.7,0.2,1.4,0.5,1.9,0.7
		c0.6,0.3,1.2,0.5,1.6,1l2.5-4.7c-1.6-1-3.3-1.8-5-2.3C7248,5299.6,7246,5299.3,7243.8,5299.3z M7325.1,5299.8v31.1h24.4v-5.5h-18
		v-8.6h12.8v-5.2h-12.8v-6.3h17.6v-5.5H7325.1L7325.1,5299.8z M7290.2,5299.8v31.1h16.5c2,0,3.9-0.2,5.4-0.6
		c1.5-0.5,2.7-1.1,3.7-1.9c1-0.8,1.7-1.8,2.3-3.1c0.5-1.2,0.7-2.5,0.7-3.9c0-1.7-0.4-3.3-1-4.6s-1.8-2.5-3.3-3.3
		c1.3-1.5,1.9-3.3,1.9-5.2c0-1.2-0.3-2.3-0.7-3.3s-1.2-2-2.3-2.7c-1-0.7-2.2-1.4-3.7-1.8c-1.5-0.5-3.3-0.6-5.4-0.6L7290.2,5299.8
		L7290.2,5299.8z M7296.6,5305.3h8c1.7,0,3.1,0.4,3.9,0.9c0.9,0.6,1.3,1.5,1.3,2.6c0,1.1-0.4,2.1-1.3,2.9c-0.5-0.1-1.1-0.1-1.6-0.1
		h-10.3V5305.3z M7296.6,5317h10.3c1.7,0,3,0.3,3.9,1.1s1.4,1.8,1.4,3.1c0,1.4-0.5,2.5-1.4,3.1c-0.9,0.6-2.2,1.2-3.9,1.2h-10.3V5317
		z"/>
</g>
</svg>
