<?xml version="1.0" encoding="utf-8"?>
<!-- Generator: Adobe Illustrator 18.0.0, SVG Export Plug-In . SVG Version: 6.00 Build 0)  -->
<!DOCTYPE svg PUBLIC "-//W3C//DTD SVG 1.1//EN" "http://www.w3.org/Graphics/SVG/1.1/DTD/svg11.dtd">
<svg version="1.1" id="Слой_1" xmlns="http://www.w3.org/2000/svg" xmlns:xlink="http://www.w3.org/1999/xlink" x="0px" y="0px"
	 viewBox="0 0 210 297" enable-background="new 0 0 210 297" xml:space="preserve">
<path fill="#FFFFFF" d="M120.4,111.5c16.9,0,33.6,0,50.6,0c-0.7,15.8-1.5,31.4-2.2,47.2c-16.1,0-32.1,0-48.4,0
	c0,43.3,0,86.3,0,129.5c-16.7,0-33.3,0-50,0c0-43,0-86,0-129.3c-11.5,0-22.9,0-34.3,0c0-16,0-31.6,0-47.4c11.4,0,22.7,0,34.2,0
	c0-1.2,0-2.1,0-3c0.1-13.5-0.4-27,0.3-40.4c1.4-28.4,18.9-48.4,46.6-54.4c8.8-1.9,17.7-2.4,26.7-2c8.8,0.4,17.7,1,26.9,1.5
	c-0.4,15-0.7,29.5-1.1,44.5c-0.8,0-1.6,0-2.3,0c-9.3-0.1-18.6-0.2-27.9-0.1c-2.4,0-4.8,0.2-7.1,0.7c-7.1,1.4-10.6,5.2-11.5,12.4
	c-0.2,1.9-0.4,3.9-0.4,5.8c0,11.2,0,22.4,0,33.5C120.3,110.3,120.3,110.7,120.4,111.5z"/>
</svg>
