<?xml version="1.0" encoding="utf-8"?>
<!-- Generator: Adobe Illustrator 18.0.0, SVG Export Plug-In . SVG Version: 6.00 Build 0)  -->
<!DOCTYPE svg PUBLIC "-//W3C//DTD SVG 1.1//EN" "http://www.w3.org/Graphics/SVG/1.1/DTD/svg11.dtd">
<svg version="1.1" id="Слой_1" xmlns="http://www.w3.org/2000/svg" xmlns:xlink="http://www.w3.org/1999/xlink" x="0px" y="0px"
	 viewBox="0 0 210 297" enable-background="new 0 0 210 297" xml:space="preserve">
<path fill="#2196EE" d="M190.4,138.7c0,21.5-0.1,43.1,0.1,64.6c0,4.4-1.2,5.9-5.8,5.9c-13.1-0.3-26.2-0.2-39.4,0c-3.7,0-5.2-1-5.2-5
	c0.1-29.2,0-58.4,0.2-87.6c0-2.3,1.4-5.1,3.1-6.8c13.9-13.2,27.9-26.2,42-39.3c1-0.9,2.5-1.2,3.7-1.8c0.4,1.3,1.1,2.7,1.1,4
	C190.4,94.8,190.4,116.7,190.4,138.7z"/>
<path fill="#2196EE" d="M179.7,42.2c-3.5-4.1-6-7.1-9.3-10.8c13.3-3.1,25.9-6,39.8-9.2c-4.1,13.4-7.8,25.7-11.9,38.9
	c-2.4-2.3-4.4-3.9-6-5.9c-2.5-3.2-4.6-3.1-7.5-0.3c-9.6,9.2-19.3,18.2-29,27.2c-18.6,17.4-37.3,34.8-55.9,52.2
	c-0.6,0.6-1.4,1.1-2.8,2.1c-4.1-4.3-8.1-8.5-12.2-12.7c-7.6-7.8-15.4-15.5-22.9-23.4c-2.4-2.6-4.1-2.8-6.9-0.4
	c-13.6,12-27.5,23.7-41.1,35.7c-2.8,2.5-4.4,2.2-6.7-0.5c-5.8-6.5-5.9-6.4,0.9-12.3C24.5,108.7,40.7,94.6,57,80.5
	c0.7-0.6,1.4-1,3.4-2.7c0.8,1.4,1.4,3.1,2.5,4.3c10.3,10.5,20.9,20.8,31.1,31.5c3.3,3.5,5.4,3,8.5,0c14-13.3,28.2-26.4,42.3-39.6
	c10.3-9.7,20.6-19.4,31-29C176.8,43.9,178.2,43.2,179.7,42.2z"/>
<path fill="#2196EE" d="M60.1,161.3c0,14.3-0.1,28.6,0.1,42.9c0,3.7-1.2,4.9-4.9,4.8c-13.4-0.2-26.8-0.2-40.3,0c-3.7,0-5.3-1-5.2-5
	c0.2-15.3,0-30.7,0.2-46c0-2,1.2-4.6,2.8-6c14-12.4,28.2-24.7,42.4-36.9c0.9-0.8,2.3-1,3.4-1.5c0.5,1.4,1.5,2.9,1.5,4.3
	C60.2,132.3,60.1,146.8,60.1,161.3z"/>
<path fill="#2196EE" d="M75.1,129.8c6,6,11.3,11.4,16.7,16.7c6.5,6.5,4.9,6.3,11.4,0.2c6.9-6.4,13.8-12.7,21.4-19.6
	c0.2,2.1,0.4,3.4,0.4,4.6c0,23.9-0.1,47.8,0.1,71.6c0,4.5-1.5,5.8-5.9,5.7c-13-0.2-25.9-0.2-38.9,0c-4.1,0.1-5.7-1-5.6-5.4
	c0.2-23.1,0.1-46.3,0.1-69.4C74.8,133.1,74.9,131.9,75.1,129.8z"/>
<g>
	<path fill="#2196EE" d="M8.8,56c-1.4,0-2.7-0.2-3.8-0.4s-1.9-0.5-2.5-0.8L4,50.6c0.5,0.3,1.1,0.5,1.9,0.7s1.8,0.4,2.9,0.5v-6.5
		c-0.8-0.3-1.6-0.6-2.3-1c-0.8-0.4-1.4-0.9-2-1.4c-0.6-0.6-1.1-1.2-1.5-2s-0.6-1.7-0.6-2.8c0-2.1,0.6-3.7,1.7-4.8s2.7-1.8,4.7-2.1
		V28h3.9v3c1.1,0.1,2.1,0.2,2.9,0.4c0.8,0.2,1.6,0.5,2.3,0.8l-1.3,4.1c-0.4-0.2-0.9-0.4-1.6-0.6c-0.7-0.2-1.4-0.4-2.3-0.5v6
		c0.8,0.3,1.6,0.6,2.4,1s1.5,0.8,2.1,1.4c0.6,0.6,1.1,1.2,1.5,2s0.6,1.7,0.6,2.7c0,2.2-0.6,3.9-1.7,5.1c-1.2,1.2-2.8,2-4.8,2.3v3.2
		h-4V56z M10.4,35.1c-0.6,0-1.1,0.1-1.5,0.2c-0.4,0.1-0.7,0.3-0.9,0.5c-0.2,0.2-0.4,0.5-0.5,0.8s-0.1,0.6-0.1,1
		c0,0.7,0.3,1.2,0.8,1.6c0.6,0.4,1.3,0.8,2.2,1.2V35.1z M11.1,51.9c1.1-0.1,1.9-0.4,2.4-0.9s0.7-1.1,0.7-2c0-0.7-0.3-1.2-0.9-1.7
		c-0.6-0.4-1.4-0.8-2.3-1.2v5.8H11.1z"/>
	<path fill="#2196EE" d="M41,48.9h-4.1v6.7h-4.5v-6.7H21v-2.7l11.9-15h4v14H41V48.9z M32.4,40.1l0.3-2.8h-0.1l-1.2,2.4l-3.8,4.5
		l-1.9,1.3l2.4-0.3h4.5v-5.1H32.4z"/>
	<path fill="#2196EE" d="M42.7,53.3c0-0.8,0.3-1.4,0.8-1.9c0.6-0.5,1.2-0.7,2.1-0.7c1,0,1.9,0.3,2.5,1s0.9,1.5,0.9,2.6
		s-0.2,2-0.5,2.8s-0.8,1.4-1.3,1.9s-1.1,0.9-1.6,1.2c-0.6,0.3-1.1,0.5-1.6,0.6l-1.4-2c0.6-0.2,1.2-0.6,1.7-1.2
		c0.5-0.6,0.8-1.2,0.8-1.8c-0.6,0.1-1.1-0.1-1.6-0.5C43,54.8,42.7,54.2,42.7,53.3z"/>
	<path fill="#2196EE" d="M57.5,51.8c1.7,0,2.9-0.3,3.8-1c0.9-0.7,1.3-1.6,1.3-2.9c0-1.3-0.5-2.3-1.6-2.9c-1-0.6-2.5-0.9-4.4-0.9
		l-3,0.1V31.4h12.9v4.5h-8.7v4.3l1.6-0.1c1.2,0,2.3,0.3,3.3,0.6c1,0.4,1.8,0.9,2.5,1.6c0.7,0.7,1.2,1.5,1.6,2.4s0.6,2,0.6,3.2
		c0,1.4-0.3,2.6-0.8,3.6s-1.2,1.9-2.1,2.6c-0.9,0.7-1.9,1.2-3.2,1.6c-1.2,0.3-2.5,0.5-3.9,0.5c-1.1,0-2.2-0.1-3.2-0.3
		s-1.9-0.4-2.6-0.7l1.3-4c0.6,0.2,1.2,0.4,1.9,0.5C55.7,51.7,56.5,51.8,57.5,51.8z"/>
	<path fill="#2196EE" d="M82.2,31.4H87V39h0.4c0.6-0.6,1.3-1.1,2.1-1.5c0.9-0.4,1.8-0.5,2.9-0.5c2.4,0,4.1,0.8,5.4,2.3
		c1.2,1.5,1.9,3.8,1.9,6.7c0,1.6-0.2,3-0.7,4.3c-0.4,1.2-1.1,2.3-1.9,3.2s-1.8,1.5-3,2C92.8,55.8,91.5,56,90,56
		c-1.7,0-3.3-0.1-4.6-0.4c-1.4-0.2-2.4-0.5-3.2-0.8C82.2,54.8,82.2,31.4,82.2,31.4z M87,51.5c0.5,0.2,1,0.4,1.5,0.4
		C89,52,89.6,52,90.2,52c3,0,4.5-2,4.5-5.9c0-1.7-0.3-2.9-0.9-3.8C93.1,41.4,92.2,41,91,41c-1,0-1.9,0.2-2.5,0.7s-1.1,1.2-1.4,2.1
		L87,51.5L87,51.5z"/>
	<path fill="#2196EE" d="M108.6,49.2c0,1.8,0.6,2.6,1.7,2.6c0.3,0,0.6,0,0.9-0.1s0.6-0.2,1-0.3l0.6,3.8c-0.5,0.2-1.1,0.4-2,0.6
		c-0.8,0.2-1.7,0.3-2.6,0.3c-1.5,0-2.6-0.3-3.3-1s-1.2-1.7-1.2-3.2V31.4h4.8L108.6,49.2L108.6,49.2z"/>
	<path fill="#2196EE" d="M127.6,55.6v-10c0-1.6-0.2-2.7-0.7-3.4s-1.3-1-2.6-1c-1,0-1.9,0.3-2.6,0.8c-0.7,0.6-1.2,1.3-1.5,2.2
		c0,1.9,0,3.8,0,5.7s0,3.8,0,5.7h-4.8V37.4h3.8l0.5,2.6h0.5c0.6-0.9,1.4-1.6,2.4-2.2c1-0.6,2.3-0.9,3.9-0.9c1,0,1.8,0.1,2.6,0.4
		c0.8,0.2,1.4,0.7,1.9,1.2c0.5,0.6,0.9,1.4,1.1,2.4c0.3,1,0.4,2.2,0.4,3.7v11C132.5,55.6,127.6,55.6,127.6,55.6z"/>
</g>
</svg>
