<?xml version="1.0" encoding="utf-8"?>
<!-- Generator: Adobe Illustrator 18.0.0, SVG Export Plug-In . SVG Version: 6.00 Build 0)  -->
<!DOCTYPE svg PUBLIC "-//W3C//DTD SVG 1.1//EN" "http://www.w3.org/Graphics/SVG/1.1/DTD/svg11.dtd">
<svg version="1.1" id="Слой_1" xmlns="http://www.w3.org/2000/svg" xmlns:xlink="http://www.w3.org/1999/xlink" x="0px" y="0px"
	 viewBox="0 0 210 297" enable-background="new 0 0 210 297" xml:space="preserve">
<path fill="#FFFFFF" d="M0,85.1h85.6V-0.5H0V85.1z M2.9,2.4h79.7v79.7H2.9V2.4z"/>
<rect x="14.3" y="29.5" fill="#FFFFFF" width="2.9" height="25.7"/>
<path fill="#FFFFFF" d="M34.7,52.5c-5.7,0-10.4-4.7-10.4-10.2c0-5.7,4.7-10.2,10.4-10.2c2.9,0,5.7,1.2,7.5,3.3l1.8-2
	c-2.4-2.2-5.9-3.7-9.4-3.7c-7.5,0-13.5,5.7-13.5,12.8c0,7.3,5.9,13,13.2,13c3.5,0,6.9-1.4,9.6-3.9l-1.8-2
	C40.2,51.3,37.6,52.5,34.7,52.5z"/>
<path fill="#FFFFFF" d="M57.9,29.5c-7.5,0-13.5,5.7-13.5,12.8s5.9,13,13.5,13s13.5-5.7,13.5-13S65.5,29.5,57.9,29.5z M57.9,52.5
	c-5.7,0-10.4-4.7-10.4-10.2c0-5.7,4.7-10.2,10.4-10.2s10.4,4.5,10.4,10.2C68.5,48,63.6,52.5,57.9,52.5z"/>
<path fill="#FFFFFF" d="M111.3,34.7c-2.6,0-4.5,1-5.9,2.8v-10h-6.6v27.7h6.6v-2.7c1.4,1.9,3.5,2.8,6,2.8c5.6,0,9.3-4,9.3-10.2
	C120.6,38.8,116.9,34.7,111.3,34.7z M109.7,50c-2.6,0-4.3-2-4.3-5c0-3,1.8-5,4.3-5c2.7,0,4.4,2.1,4.4,5C114,48,112.2,50,109.7,50z"
	/>
<path fill="#FFFFFF" d="M132.3,34.7c-6.3,0-10.5,4.2-10.5,10.4c0,6.1,4,10.2,10.7,10.2c3.7,0,6.7-1.3,8.8-3.6l-3.5-3.5
	c-1.4,1.4-3,2.1-4.8,2.1c-2.3,0-3.9-1.3-4.7-3.6h14.1C142.9,39.4,139.3,34.7,132.3,34.7z M128.2,43.2c0.5-2.3,1.9-3.8,4-3.8
	c2.2,0,3.7,1.7,3.7,3.8H128.2z"/>
<path fill="#FFFFFF" d="M156.9,34.7c-2.9,0-5.2,1.3-6.7,3.6V35h-6.6v20.2h6.6V44.5c0.2-2.3,1.8-3.8,3.9-3.8c2.1,0,3.5,1.4,3.5,3.7
	v10.8h6.7V42.5C164.2,37.7,161.2,34.7,156.9,34.7z"/>
<path fill="#FFFFFF" d="M175.9,50c-2.4,0-4-2-4-4.9c0-2.9,1.7-4.9,4-4.9c1.8,0,3,0.8,3.9,2.1l4.8-2.8c-1.8-3-5-4.8-9.1-4.8
	c-6.3,0-10.4,4.2-10.4,10.4c0,6.1,4.2,10.2,10.3,10.2c4.3,0,7.5-1.8,9.2-4.9l-4.9-2.8C179.1,49.3,177.6,50,175.9,50z"/>
<path fill="#FFFFFF" d="M199.1,34.7c-2.9,0-5.2,1.3-6.7,3.6V27.5h-6.6v27.7h6.6v-10c0-2.7,1.5-4.5,3.9-4.5c2.1,0,3.5,1.4,3.5,3.7
	v10.8h6.6V42.5C206.5,37.7,203.5,34.7,199.1,34.7z"/>
</svg>
