<?xml version="1.0" encoding="utf-8"?>
<!-- Generator: Adobe Illustrator 18.0.0, SVG Export Plug-In . SVG Version: 6.00 Build 0)  -->
<!DOCTYPE svg PUBLIC "-//W3C//DTD SVG 1.1//EN" "http://www.w3.org/Graphics/SVG/1.1/DTD/svg11.dtd">
<svg version="1.1" id="Слой_1" xmlns="http://www.w3.org/2000/svg" xmlns:xlink="http://www.w3.org/1999/xlink" x="0px" y="0px"
	 viewBox="0 0 306 299" enable-background="new 0 0 306 299" xml:space="preserve">
<path fill="#FFFFFF" d="M147.1,271c0-79.9,0-158.9,0-238.8c39.2-1.3,72.7,12.2,97.3,42.2c34.2,41.7,39.4,88.5,12.5,135.7
	C233.3,251.6,195.4,270.7,147.1,271z M258.3,143.5c-4.1-56.7-52.3-95.1-96.9-96.2c0,32,0,63.9,0,96.2
	C193.8,143.5,225.8,143.5,258.3,143.5z M161.4,255.4c54.5-1.8,97-52,96.3-96.4c-32,0-64,0-96.3,0
	C161.4,191.4,161.4,223.4,161.4,255.4z"/>
<path fill="#FFFFFF" d="M128.8,34.8c1.7,12.6,1.6,12.5-9.7,16.6c-38,13.6-61.7,40.5-69.3,79.8c-6.1,31.1,0.7,60.4,20.6,85.7
	c13.9,17.6,31.9,29.6,53.5,35.6c4.8,1.3,5.8,3.3,5.4,7.6c-0.2,2.5,0,5.1,0,7.7c-54.1-11.3-91.9-57.6-95.1-108.8
	C30.4,97.3,74.2,45.9,128.8,34.8z"/>
</svg>
