<?xml version="1.0" encoding="utf-8"?>
<!-- Generator: Adobe Illustrator 18.0.0, SVG Export Plug-In . SVG Version: 6.00 Build 0)  -->
<!DOCTYPE svg PUBLIC "-//W3C//DTD SVG 1.1//EN" "http://www.w3.org/Graphics/SVG/1.1/DTD/svg11.dtd">
<svg version="1.1" id="Layer_1" xmlns="http://www.w3.org/2000/svg" xmlns:xlink="http://www.w3.org/1999/xlink" x="0px" y="0px"
	 viewBox="0 0 56.7 56.7" enable-background="new 0 0 56.7 56.7" xml:space="preserve">
<g>
	<path fill="#FFFFFF" d="M38,42.1L53,49.6c0,0,0.1,0,0.1,0c0,0,0,0,0-0.1V17.7L38,42.1z"/>
	<polygon fill="#FFFFFF" points="37.1,7 26.5,24.2 36.7,40.7 52.7,14.8 	"/>
	<polygon fill="#FFFFFF" points="20.3,33.3 34.2,40.2 20.3,17.7 	"/>
	<path fill="#FFFFFF" d="M3,41.5c0,0.2,0.2,0.6,0.4,0.7l14.9,7.5c0,0,0.1,0,0.1,0c0,0,0,0,0-0.1V15L3,7.3L3,41.5z"/>
</g>
</svg>
