<?xml version="1.0" encoding="utf-8"?>
<!-- Generator: Adobe Illustrator 18.0.0, SVG Export Plug-In . SVG Version: 6.00 Build 0)  -->
<!DOCTYPE svg PUBLIC "-//W3C//DTD SVG 1.1//EN" "http://www.w3.org/Graphics/SVG/1.1/DTD/svg11.dtd">
<svg version="1.1" id="Слой_1" xmlns="http://www.w3.org/2000/svg" xmlns:xlink="http://www.w3.org/1999/xlink" x="0px" y="0px"
	 viewBox="0 0 210 297" enable-background="new 0 0 210 297" xml:space="preserve">
<path fill="#2196EE" d="M1,77.5c10.7,0,21.4,0,32,0c22.4,0,44.7,0,67.1,0c1.5,0,1.5,0,1.5,1.5c0,5.2,0,10.4,0,15.6
	c0,0.9-0.3,1.1-1.1,1.1c-32.9,0-65.8,0-98.6,0c-0.3,0-0.6,0-0.9,0C1,89.6,1,83.6,1,77.5z"/>
<g>
	<path fill="#2196EE" d="M33.3,190.5c4.7-3.8,9.6-6.6,15.4-8.4c-1.6-0.9-3.3-1.3-4.8-0.8c-2,0.8-2.9-0.6-4.3-1.8
		c1.3-0.5,2.3-1,3.4-1.3c3.3-0.7,6.4,0,9,2.2c0.6,0.5,1.1,0.6,1.8,0.6c1.3,0,2.6,0.1,3.8,0.3c1.1,0.2,2,0.8,2.6,2.1
		c-2-0.9-3.9-0.8-5.8-0.6c0.4,1.3,1,2.5,1.2,3.7c0.9,4.3-1,8.6-4.7,11c-0.5,0.3-0.8,0.4-1.3-0.1s-1.1-1-1.8-1.6
		c0.4-0.3,0.7-0.6,1-0.8c2.8-2.1,4-5.9,3.1-9.1c0-0.2-0.1-0.3-0.2-0.5c-0.7-1.7-1-1.9-2.7-1.3c-5.3,1.8-10.1,4.7-14.5,8.2
		c-0.6,0.5-0.7,0.9-0.3,1.6c2.2,4,5.6,6,10.1,6.2c2.1,0.1,4.1-0.4,6-1.3c0.3-0.1,0.8-0.2,0.9-0.1c1.4,1.1,2.7,2.2,4.1,3.4
		c-0.5,0.3-0.8,0.6-1.1,0.8c-5,3-10.3,3.9-15.9,2.1c-0.5-0.1-1-0.1-1.5,0.1c-2.1,0.5-4.2,0.8-6.4,0.4c-1.4-0.3-2.3-0.8-3-1.9
		c2.6,0.8,5.1,0.7,7.9,0c-2.6-1.6-4.5-3.6-6-6.1c-1.3,1.7-2.2,3.3-2.3,5.4c-0.8-0.5-0.9-1.2-0.9-1.8c-0.3-1.8,0.5-3.3,1.5-4.7
		c0.5-0.8,0.5-1.4,0.3-2.2c-1.9-6.3-0.6-11.9,3.7-16.8c0.7-0.7,1.4-1.4,2.2-2c0.2-0.2,0.8-0.2,1-0.1c1.4,1.1,2.7,2.3,4.2,3.6
		C35.1,181.8,33,185.4,33.3,190.5z"/>
	<path fill="#2196EE" d="M2.1,179c2.5,2.1,4.9,4.2,7.3,6.2s4.8,4,7.4,6.2c0-0.5,0.1-0.8,0.1-1.1c0-3.4,0-6.8,0-10.2
		c0-0.8,0.2-1.2,1.1-1.2c1.2,0.1,2.3,0.1,3.5,0c0.8,0,1.1,0.2,1.1,1c0,5.4,0,10.9,0,16.3c0,1.7,0,3.5,0,5.2c0,0.3,0,0.6-0.1,1.1
		c-5-4.3-9.7-8.4-14.7-12.7c0,0.5-0.1,0.8-0.1,1.1c0,3.5,0,7,0,10.5c0,0.8-0.2,1-1,1c-1.3-0.1-2.6,0-3.9,0c-0.5,0-0.8-0.1-0.8-0.7
		c0-7.4,0-14.8,0-22.2C2,179.5,2.1,179.4,2.1,179z"/>
	<path fill="#2196EE" d="M74,191.8c2.3,3.5,4.6,6.9,6.9,10.5c-0.3,0.1-0.5,0.1-0.7,0.1c-1.9,0-3.8,0.1-5.7,0c-0.3,0-0.8-0.4-1-0.7
		c-2-3.5-4.1-6.9-6.1-10.4c-0.1-0.2-0.3-0.4-0.4-0.6c-0.1,0-0.2,0-0.3,0c0,3.5,0,7,0,10.4c0,1.3,0,1.3-1.3,1.3c-1.2,0-2.4,0-3.6,0
		c-0.6,0-0.8-0.3-0.8-0.8c0-7.3,0-14.5,0-21.8c0-0.5,0.1-0.9,0.7-0.8c3.3,0.1,6.6,0,9.9,0.4c2.6,0.3,4.7,1.7,5.4,4.5
		c0.7,2.7,0.2,5.1-2,7.1c-0.2,0.2-0.4,0.3-0.6,0.5C74.5,191.5,74.3,191.6,74,191.8z M67,187L67,187c0,0.3,0,0.7,0,1
		c0,2.3,0.3,2.5,2.5,1.9c1.6-0.4,2.4-1.5,2.3-3.3c0-1.6-0.7-2.3-2.4-2.6c-0.5-0.1-1-0.1-1.6-0.1c-0.6-0.1-0.9,0.2-0.8,0.8
		C67,185.4,67,186.2,67,187z"/>
	<path fill="#2196EE" d="M106.1,192.8c0,1.6,0,3.2,0,4.8c0.3,0,0.6,0,1,0c2.3,0,4.6,0,6.9,0c0.7,0,1,0.2,0.9,0.9c0,1,0,2.1,0,3.1
		c0,0.7-0.2,0.8-0.9,0.8c-3.6,0-7.3,0-10.9,0c-0.7,0-1.5,0.1-2.2,0c-0.2,0-0.5-0.4-0.6-0.6c-0.1-0.1,0-0.3,0-0.5
		c0-7.1,0-14.1,0-21.2c0-1.2,0-1.2,1.2-1.2c3.9,0,7.7,0,11.6,0c0.9,0,1.2,0.3,1.1,1.2c-0.1,1,0,1.9,0,2.9c0,0.7-0.3,0.9-0.9,0.9
		c-2.1,0-4.1,0-6.2,0c-0.8,0-1.1,0.3-1,1s0.1,1.3,0,2c-0.1,0.9,0.3,1,1,1c1.7,0,3.5,0,5.2,0c0.8,0,1.1,0.3,1.1,1.1c0,1,0,2,0,3
		c0,0.6-0.2,0.9-0.9,0.9c-1.8,0-3.6,0-5.4,0C106.8,192.8,106.5,192.8,106.1,192.8z"/>
	<path fill="#2196EE" d="M85.5,193.4c0-2.7,0-5.4,0-8.1c0-0.8-0.2-1-1-1c-1.3,0-2.6,0-3.8,0c-0.7,0-1-0.3-1-1c0-1.2,0-2.4,0-3.6
		c0-0.6,0.2-0.8,0.8-0.8c5.1,0,10.3,0,15.4,0c0.6,0,0.8,0.2,0.8,0.8c0,1.3,0,2.5,0,3.8c0,0.6-0.2,0.8-0.8,0.8c-1.2,0-2.4,0-3.7,0
		c-0.8,0-1,0.2-1,1c0,5.4,0,10.7,0,16.1c0,1.2,0,1.2-1.1,1.2c-1.3,0-2.5,0-3.8,0c-0.7,0-0.9-0.2-0.9-0.9
		C85.5,198.8,85.5,196.1,85.5,193.4z"/>
	<path fill="#2196EE" d="M119.1,190.7c0-3.6,0-7.2,0-10.8c0-0.8,0.3-0.9,1-0.9c1.2,0,2.3,0,3.5,0c1.3,0,1.3,0,1.3,1.2
		c0,5.3,0,10.5,0,15.8c0,1.2,0,1.2,1.1,1.2c1.7,0,3.5,0,5.2,0c0.7,0,1,0.2,1,1c0,1.2,0,2.4,0,3.6c0,0.5-0.1,0.8-0.7,0.8
		c-3.9,0-7.7,0-11.6,0c-0.7,0-0.7-0.4-0.7-0.9C119.1,197.9,119.1,194.3,119.1,190.7z"/>
</g>
<path fill="#2196EE" d="M61.7,7.7c0-1.7,0-3.2,0-4.6c0-0.4,0-0.8,0-1.2C61.7,1.3,62,1,62.5,1c0.7,0,1.5,0,2.2,0
	c0.8-0.1,1.1,0.2,1.1,1.1c0,2.6,0,5.3,0,7.9c0,3.3,0,6.7,0,10c0,1.1-0.1,1.2-1.1,1.2c-0.4,0-0.8,0-1.1,0c-1.2,0-1.2,0-1.4-1.2
	c-0.2,0.1-0.4,0.1-0.5,0.2c-3.3,2.7-8.3,1.4-9.7-3.3c-0.7-2.4-0.8-4.9,0.5-7.2c1.7-3.3,5.4-4.4,8.6-2.5C61.1,7.4,61.3,7.4,61.7,7.7z
	 M61.7,13.9c0-0.8-0.1-1.5,0-2.3c0.1-1.1-0.4-1.6-1.3-2c-2.3-1-4.4-0.1-4.9,2.4c-0.2,1.2-0.3,2.4,0,3.6c0.5,2.5,2.1,3.4,4.5,2.7
	c1.2-0.3,1.7-1,1.7-2.2C61.7,15.4,61.7,14.7,61.7,13.9z"/>
<path fill="#2196EE" d="M86.7,7.8c1.1-0.4,2-1,3.1-1.2c3.9-1.1,6.4,0.9,6.5,4.9c0.1,2.9,0,5.8,0,8.7c0,0.7-0.2,1.1-1,1
	c-0.7,0-1.4,0-2.1,0c-0.8,0-1-0.3-1-1c0-2.7,0-5.5,0-8.2c0-2.5-1.2-3.3-3.6-2.4c-1.5,0.6-1.7,0.9-1.7,2.5c0,2.6,0,5.2,0,7.9
	c0,1.2,0,1.2-1.2,1.2c-0.6,0-1.3,0-1.9,0S83,20.9,83,20.4c0-4.3,0-8.6,0-12.9c0-0.6,0.3-0.8,0.9-0.8c0.5,0,0.9,0,1.4,0
	C86.4,6.6,86.4,6.6,86.7,7.8z"/>
<path fill="#2196EE" d="M40.3,7.9c1.1-0.5,2-1,3.1-1.3c3.2-1,6.3,0.4,6.5,4.5c0.1,3.1,0,6.2,0,9.3c0,0.6-0.3,0.8-0.9,0.8
	c-0.7,0-1.5,0-2.2,0s-1-0.2-1-1c0-2,0-4.1,0-6.1c0-1.1-0.1-2.1-0.1-3.2c0-1-0.7-1.6-1.7-1.6c-1.2,0-2.3,0.3-3.1,1.1
	c-0.2,0.2-0.4,0.6-0.4,0.9c0,2.9-0.1,5.9,0,8.8c0,0.8-0.3,1.2-1.1,1.1c-0.7,0-1.4,0-2.1,0c-0.6,0-0.8-0.3-0.8-0.9
	c0-4.3,0-8.6,0-12.9c0-0.5,0.2-0.8,0.8-0.8s1.2,0,1.7,0C40.2,6.6,40.2,6.6,40.3,7.9z"/>
<path fill="#2196EE" d="M16,35.4c1.6,0.7,2.6,1.9,3.1,3.5c0.8,2.8-0.8,5.5-3.6,6.2S9.8,45.3,7,45.4c-0.6,0-0.7-0.4-0.7-0.9
	c0-1.6,0-3.1,0-4.7c0-4.1,0-8.2,0-12.3c0-1.3,0.1-1.4,1.4-1.4c1.8,0,3.6,0,5.4,0c1.5,0,2.9,0.3,4.1,1.4c2.5,2,2.1,6.5-0.9,7.7
	C16.2,35.1,16.1,35.2,16,35.4z M8.6,40.2L8.6,40.2c0,0.9,0,1.7,0,2.6c0,0.2,0.3,0.6,0.4,0.6c1.9,0,3.8-0.1,5.7-0.3
	c0.8-0.1,1.6-0.6,1.9-1.5c0.7-2.1,0.2-4.4-2.3-4.9c-1.7-0.4-3.5-0.3-5.3-0.3c-0.2,0-0.5,0.4-0.5,0.7C8.6,38.1,8.6,39.2,8.6,40.2z
	 M11.3,28.1L11.3,28.1c-0.7,0.1-1.4,0-2.1,0.1c-0.2,0-0.6,0.4-0.6,0.6c-0.1,1.6,0,3.2-0.1,4.8c0,0.6,0.3,0.8,0.8,0.8
	c0.8,0,1.6,0.1,2.4,0c1.1-0.2,2.2-0.3,3.3-0.7c1.2-0.4,1.6-1.8,1.4-3.3c-0.2-1.2-0.9-1.9-2.2-2.1C13.3,28.2,12.3,28.1,11.3,28.1z"/>
<path fill="#2196EE" d="M81.2,13.9c0,2.7-0.7,5-3,6.5c-3.4,2.3-9.4,1.4-10.7-4c-0.6-2.6-0.4-4.9,1-7.2c1.1-1.9,3-2.7,5.1-2.9
	C77.4,6,80,7.9,81,11.6C81.2,12.3,81.2,13.1,81.2,13.9z M77.4,13.9c-0.1-0.8-0.2-1.7-0.4-2.6c-0.4-1.4-1.5-2.1-2.8-2.1
	c-1.4,0.1-2.6,1-2.7,2.3c-0.1,1.5-0.1,3,0,4.5c0.1,1.4,1.4,2.4,2.7,2.5c1.4,0,2.5-0.7,2.9-2.2C77.2,15.6,77.3,14.8,77.4,13.9z"/>
<path fill="#2196EE" d="M34.9,13.9c0.1,2.2-0.5,4.2-2.1,5.8c-1.5,1.5-3.4,2-5.5,1.9c-4-0.3-6.3-3.4-6.3-7.1c0-1.7,0.2-3.2,0.9-4.7
	C23.2,7,26.8,6,29.5,6.5C32.9,7,35,10.3,34.9,13.9z M31.1,14c-0.1-0.8-0.2-1.6-0.4-2.3c-0.3-1.5-1.4-2.4-2.8-2.3
	c-1.4,0-2.4,0.9-2.8,2.3c-0.4,1.7-0.4,3.3,0,4.9c0.3,1.2,1.3,2,2.6,2c1.4,0.1,2.5-0.6,2.8-1.8C30.8,15.8,30.9,14.9,31.1,14z"/>
<path fill="#2196EE" d="M6.2,11.1c0-3,0-6,0-9c0-0.8,0.2-1.2,1.1-1.1c0.8,0.1,1.5,0.1,2.3,0c0.9-0.1,1.1,0.3,1.1,1.1
	c0,3.9,0,7.8,0,11.7c0,1,0,2.1,0,3.1c0,0.7,0.3,0.9,0.9,0.9c2.5,0,5,0,7.5,0c1.2,0,1.3,0.2,1.3,1.3c0,2.1,0,2.1-2,2.1
	c-3.6,0-7.2,0-10.8,0c-1.3,0-1.3,0-1.3-1.4C6.2,16.9,6.2,14,6.2,11.1z"/>
<g>
	<path fill="#2196EE" d="M13.9,158.7c-1.6,1.4-3.3,1.9-5.1,1.8c-1.9-0.2-3.7-0.8-4.8-2.5c-1.6-2.4-1.4-7.2,2.9-8.7
		c1.8-0.6,3.6-0.7,5.5-0.8c0.5,0,1.4-0.3,1.4-0.4c-0.1-0.8-0.1-1.7-0.6-2.2c-1.1-1.2-3.2-0.8-3.9,0.7c-0.4,0.8-0.9,1.1-1.7,1
		c-0.9-0.1-1.7,0-2.6,0c-1.1,0-1.3-0.3-1.1-1.3c0.4-1.8,1.4-3.2,3.1-4.1c2.7-1.4,5.6-1.4,8.4-0.5c2.8,0.8,4.1,3,4.2,5.8
		c0.1,3.8,0,7.6,0,11.4c0,0.8-0.3,1.2-1.2,1.2c-1,0-1.9,0-2.9,0C14.6,160.1,13.9,160,13.9,158.7z M12.2,152.4L12.2,152.4
		c-0.7,0-1.5,0.1-2.2,0.2c-0.8,0.2-1.4,1-1.4,1.8c0,0.9,0.5,1.6,1.4,1.8c2.3,0.6,3.9-0.8,3.8-3.1c0-0.2-0.3-0.6-0.6-0.7
		C13,152.3,12.6,152.4,12.2,152.4z"/>
	<path fill="#2196EE" d="M154.7,152.4c-1.6,0-3.1,0-4.7,0c-1,0-1.2,0.3-0.8,1.2c0.9,2.5,3.3,3.4,5.3,2c0.3-0.2,0.6-0.4,0.7-0.7
		c0.4-1.1,1.2-1.1,2.2-1.1c0.8,0,1.5,0,2.3,0c1,0,1.1,0.2,0.9,1.2c-0.5,2.3-3,4.6-5.3,5c-1.8,0.4-3.6,0.5-5.4,0.1
		c-2.7-0.6-4.7-2.1-5.7-4.6c-1.5-3.8-1.4-7.5,1-11c1.5-2.2,3.7-3.3,6.4-3.4c2.5-0.1,4.8,0.3,6.7,2.1c1.8,1.7,2.4,3.9,2.5,6.2
		c0.1,3.2,0.1,2.8-2.7,2.8C156.8,152.4,155.7,152.4,154.7,152.4z M149.1,148.4c1.9,0,3.8,0,5.6,0c0.2,0,0.5-0.4,0.5-0.5
		c-0.2-0.9-0.4-1.8-1.4-2.3C151.6,144.5,149.3,145.8,149.1,148.4z"/>
	<path fill="#2196EE" d="M70.9,152.4c-1.6,0-3.1,0-4.7,0c-0.9,0-1.1,0.3-0.9,1.2c0.4,1.3,1,2.4,2.4,2.6c1.6,0.3,3,0,3.9-1.6
		c0.2-0.3,0.6-0.6,1-0.6c1-0.1,2.1-0.1,3.2,0c0.9,0,1.1,0.4,0.9,1.2c-0.7,2.4-2.4,4-4.6,4.8c-2.4,0.9-4.9,0.8-7.3-0.1
		c-3-1.2-4.7-3.6-5.1-6.8c-0.4-3.3-0.2-6.5,2.2-9.1c1.5-1.7,3.3-2.6,5.6-2.7c2-0.1,3.9,0,5.7,1.1c1.8,1.1,2.9,2.6,3.4,4.6
		c0.3,1.4,0.3,2.8,0.4,4.3c0.1,0.8-0.4,1.2-1.2,1.2C74.1,152.4,72.5,152.4,70.9,152.4L70.9,152.4z M68.1,148.4L68.1,148.4
		c0.8,0,1.7,0.1,2.5,0c0.3,0,0.7-0.5,0.7-0.6c-0.4-0.7-0.7-1.7-1.3-2.1c-1.9-1.2-4.1-0.1-4.6,2.1c-0.1,0.5,0.1,0.7,0.6,0.7
		C66.7,148.4,67.4,148.4,68.1,148.4z"/>
	<path fill="#2196EE" d="M85.2,143.2c0.9-0.6,1.8-1.3,2.7-1.6c3-0.8,5.8-0.6,7.3,2.4c0.6,1.2,0.8,2.6,0.9,3.9c0.1,3.6,0,7.2,0,10.8
		c0,1.2-0.2,1.4-1.4,1.4c-1,0-2,0-3,0c-1.1,0-1.3-0.2-1.3-1.4c0-3.5,0-6.9,0-10.4c0-0.7-0.4-1.6-0.8-2.1c-0.8-0.8-1.9-0.7-2.9-0.2
		c-1,0.4-1.5,1.2-1.5,2.2c0,3.4,0,6.8,0,10.3c0,1.4-0.1,1.5-1.5,1.5c-1,0-2,0-3.1,0c-0.8,0-1.1-0.4-1.1-1.1c0-5.4,0-10.8,0-16.2
		c0-1.1,0.3-1.3,1.3-1.3c0.8,0,1.7,0,2.5,0C85,141.5,85.1,141.5,85.2,143.2z"/>
	<path fill="#2196EE" d="M122.3,158.6c-1.1,0.6-2,1.2-3,1.6c-4.3,1.3-7.7-1.2-7.8-5.7c-0.1-3.9,0-7.9,0-11.8c0-0.9,0.4-1.3,1.3-1.3
		c0.8,0,1.7,0,2.5,0c1.9,0,2,0.1,2,1.9c0,3.2,0,6.5,0,9.7c0,0.4-0.1,0.9,0.1,1.2c0.2,0.5,0.5,1.1,1,1.4c1.6,0.9,4.1,0,4.1-2.9
		c0-3.2,0-6.5,0-9.7c0-1.3,0.2-1.6,1.5-1.6c1,0,1.9,0,2.9,0c0.8,0,1.2,0.4,1.2,1.2c0,5.5,0,10.9,0,16.4c0,0.7-0.3,1-1,1
		c-1.2,0-2.4,0-3.6,0C122.3,160.1,122.5,159.2,122.3,158.6z"/>
	<path fill="#2196EE" d="M40.6,150.8c-0.2-2.5,0.6-4.9,2.3-6.8c1.4-1.7,3.3-2.6,5.5-2.8c2.4-0.2,4.8,0,6.8,1.7
		c1.3,1.1,2.2,2.6,2.5,4.3c0.2,0.9-0.1,1.2-1.1,1.3c-1,0-2,0-3.1,0c-0.7,0-1.1-0.3-1.3-1c-0.5-1.4-1.1-1.9-2.6-1.9
		c-1.4,0-2.3,0.7-2.8,1.9c-0.7,2.1-0.7,4.1-0.1,6.2c0.4,1.5,1.4,2.3,2.9,2.4c1.1,0.1,2.5-0.8,2.8-2.1c0.3-1.1,1-1.4,2-1.3
		c0.7,0,1.5,0,2.2,0c0.8,0,1.2,0.4,1.1,1.2c-0.3,2.3-1.4,4-3.3,5.2c-3.4,2.1-8.7,1.7-11.6-1.5C41.7,156.5,40.4,153.9,40.6,150.8z"/>
	<path fill="#2196EE" d="M21.8,151c-0.1-2.6,0.5-5,2.3-7c1.5-1.7,3.4-2.6,5.7-2.7c2-0.1,4,0,5.8,1.2s2.9,2.8,3.2,4.9
		c0.1,1-0.1,1.2-1.1,1.2s-2,0-3,0c-0.7,0-1.1-0.3-1.4-1c-0.7-1.7-1.3-2.1-3.2-1.9c-1.1,0.1-2.1,1.1-2.4,2.5c-0.5,1.8-0.5,3.7,0,5.5
		c0.4,1.4,1.5,2.4,2.9,2.5c1.2,0.1,2.7-0.9,3-2.2c0.2-1,0.8-1.2,1.6-1.2s1.6,0,2.4,0c1.1,0,1.3,0.4,1.1,1.5
		c-0.4,2.4-2.6,5.3-5.7,5.9c-2.5,0.5-4.8,0.4-7-0.8c-2.8-1.5-4-4-4.4-7C21.8,151.9,21.8,151.5,21.8,151z"/>
	<path fill="#2196EE" d="M99.8,150.9c0-1.4,0-2.9,0-4.3c0-0.6-0.2-0.9-0.8-0.8c-0.9,0.1-1.4-0.4-1.3-1.3c0-0.5,0-1,0-1.4
		c0-1.3,0.2-1.4,1.4-1.6c0.3-0.1,0.7-0.5,0.7-0.8c-0.4-2.2,0.9-3,2.7-3.5c0.6-0.2,1.2-0.5,1.8-0.7c0.9-0.4,1.3-0.1,1.3,0.8
		c0,1.1,0,2.1-0.1,3.2c0,0.7,0.2,1,0.9,1h0.1c0.8,0.1,1.6,0.3,2.4,0.4c0.1,1.1,0.1,2.2,0.1,3.3c0,0.2-0.5,0.5-0.8,0.6
		c-0.6,0.1-1.1,0-1.7,0c-0.5,0-0.9,0.1-0.9,0.8c0.1,2.4,0.1,4.9,0.1,7.3c0,1.6,0.3,1.8,1.8,1.8c0.3,0,0.7-0.1,0.9,0
		c0.3,0.2,0.7,0.5,0.8,0.9c0.1,0.8,0,1.6,0,2.4c0,0.7-0.3,1.2-1,1.2c-1.6,0-3.2,0.1-4.8-0.1c-2-0.3-3.4-2.5-3.5-4.8
		C99.8,153.7,99.8,152.3,99.8,150.9L99.8,150.9z"/>
	<path fill="#2196EE" d="M102.9,127c-1.7-0.7-3.3-1.4-5-2c-4-1.5-3.2-0.7-3.2-4.5c0-0.2,0-0.4,0-0.7c0.1-0.8,0.4-1.1,1.1-0.8
		c2.4,0.9,4.8,1.9,7.2,2.9c2.2,0.9,4.4,1.8,6.6,2.7c0.7,0.3,1,0.7,1,1.4v0.1c0.1,3.2,0.1,3.2-3.6,4.6c-3.6,1.4-7.2,2.9-10.8,4.3
		c-1.2,0.5-1.5,0.3-1.5-1c0-0.9,0-1.8,0-2.7c0-0.7,0.3-1.2,0.9-1.4c2.2-0.8,4.4-1.6,6.6-2.4c0.3-0.1,0.6-0.2,0.8-0.4
		C102.9,127.2,102.9,127.1,102.9,127z"/>
	<path fill="#2196EE" d="M136.8,143.5c1-0.7,2-1.3,3-1.9c0.3-0.2,0.7-0.2,1-0.3c1.1-0.1,1.4,0.1,1.5,1.3c0,0.9,0,1.9,0,2.8
		c0,1.2-0.2,1.4-1.5,1.5c-1.4,0-2.6,0.4-3.4,1.6c-0.3,0.5-0.5,1.1-0.5,1.7c0,2.8,0,5.6,0,8.4c0,1.4-0.2,1.5-1.5,1.5
		c-1.1,0-2.2,0-3.3,0c-0.7,0-1-0.3-1-1c0-5.5,0-10.9,0-16.4c0-0.9,0.4-1.3,1.3-1.3c1,0,1.9,0,2.9,0c1.3,0,1.6,0.3,1.5,1.6
		C136.7,143.2,136.8,143.3,136.8,143.5z"/>
</g>
<path fill="#2196EE" d="M12.4,69.9c-3.2,0.1-5.3-1.6-6.7-4.3c-0.3-0.5-0.1-0.8,0.4-1C7.2,64,7.4,64,7.9,65.1
	c1.4,2.7,3.6,3.3,6.3,2.6c1.1-0.3,2.1-1.4,2.2-2.3c0.1-1.4-0.1-2.7-1.5-3.3c-1.6-0.7-3.3-1.4-4.9-2.1c-1.7-0.7-3.2-1.6-4-3.5
	c-0.7-1.5,0.3-4.2,1.9-5.3c3-1.9,8-1.4,9.7,2.9c0.2,0.4,0.5,0.9-0.2,1.1c-0.5,0.1-1.3,0.6-1.7-0.3c-0.5-1.2-1.4-2.3-2.7-2.5
	c-1.1-0.2-2.3-0.2-3.3,0.1c-1.8,0.4-2.4,3.4-0.6,4.4c1.3,0.7,2.7,1.3,4,1.9c1.5,0.7,3,1.3,4.3,2.4c2.2,1.9,1.5,6.6-1.5,8
	c-1.1,0.5-2.4,0.7-3.6,1C12.4,70,12.4,70,12.4,69.9z"/>
<g>
	<path fill="#2196EE" d="M135.5,16c0-0.3,0-0.6,0-0.9c0-2.7,0-5.4,0-8.1c0-0.6,0.2-0.9,0.9-0.9c1,0,1.9,0,2.9,0
		c0.6,0,0.8,0.2,0.8,0.8c0,4.2,0,8.4,0,12.5c0,0.6-0.2,0.8-0.8,0.8c-2,0-4.1,0-6.1,0c-0.4,0-0.9-0.3-1.1-0.6
		c-2.4-2.9-4.7-5.8-7.1-8.7c-0.2-0.3-0.4-0.5-0.8-0.7c0,0.3,0,0.5,0,0.8c0,2.7,0,5.5,0,8.2c0,1-0.1,1-1,1s-1.9,0-2.8,0
		c-0.5,0-0.7-0.2-0.7-0.7c0-4.2,0-8.5,0-12.7c0-0.5,0.2-0.7,0.7-0.7c2.1,0,4.3,0,6.4,0c0.4,0,0.8,0.3,1,0.6c2.5,3,4.9,6,7.3,8.9
		c0.1,0.1,0.2,0.2,0.3,0.3C135.3,16,135.4,16,135.5,16z"/>
	<path fill="#2196EE" d="M151,20.3c-1.9,0-3.7,0-5.6,0c-2.3,0-3.9-1.6-3.9-3.9c0-2.1,0-4.3,0-6.4c0-2.3,1.6-4,3.9-4
		c3.8,0,7.6,0,11.4,0c2.1,0,3.7,1.7,3.8,3.7c0.1,2.3,0,4.6,0,6.8s-1.7,3.7-3.8,3.7C154.8,20.3,152.9,20.3,151,20.3z M151.1,9.8
		c-1.5,0-3.1,0-4.6,0c-0.6,0-0.8,0.2-0.8,0.8c0,1.8,0,3.6,0,5.4c0,0.5,0.2,0.8,0.7,0.8c3.1,0,6.1,0,9.2,0c0.6,0,0.8-0.2,0.8-0.8
		c0-1.8,0-3.6,0-5.3c0-0.6-0.3-0.8-0.9-0.8C154,9.8,152.6,9.8,151.1,9.8z"/>
	<path fill="#2196EE" d="M209,20.2c-1.8,0-3.4,0-5,0c-0.2,0-0.6-0.4-0.7-0.7c-0.4-1.4-1.3-1.7-2.7-1.6c-2,0.1-4.1,0-6.2,0
		c-0.5,0-0.9,0.2-1,0.7c-0.4,1.5-1.4,1.9-2.8,1.8c-1-0.1-2,0-3.2,0c0.5-1,0.9-1.7,1.3-2.4c2.1-3.7,4.1-7.3,6.2-11
		c0.3-0.5,0.6-0.7,1.2-0.7c1.5,0,2.9,0,4.4,0c0.5,0,0.8,0.2,1,0.6c2.4,4.3,4.8,8.5,7.2,12.7C208.8,19.7,208.8,19.9,209,20.2z
		 M195.5,14.5c1.9,0,3.5,0,5.4,0c-0.9-1.6-1.8-3.1-2.8-4.7C197.2,11.5,196.4,12.9,195.5,14.5z"/>
	<path fill="#2196EE" d="M181.1,20.2c-0.3,0-0.5,0.1-0.8,0.1c-1.5,0-3,0-4.4,0c-0.6,0-1.1-0.2-1.6-0.6c-2.3-2.1-4.6-4.1-6.9-6.2
		c-0.1-0.1-0.3-0.2-0.5-0.4c0,0.4-0.1,0.6-0.1,0.9c0,1.8,0,3.6,0,5.4c0,0.7-0.2,0.9-0.9,0.9c-1,0-2.1,0-3.1,0
		c-0.5,0-0.8-0.2-0.8-0.8c0-4.2,0-8.4,0-12.6c0-0.6,0.3-0.7,0.8-0.7c1.1,0,2.1,0,3.2,0c0.6,0,0.8,0.3,0.8,0.8c0,1.8,0,3.6,0,5.6
		c0.3-0.2,0.6-0.4,0.8-0.6c2-1.7,4.1-3.5,6.1-5.3c0.5-0.4,0.9-0.6,1.6-0.6c1.4,0,2.8,0,4.1,0c0.3,0,0.5,0,0.8,0
		c0,0.1,0.1,0.1,0.1,0.2c-2.6,2.1-5.1,4.2-7.8,6.4c3,2.4,5.9,4.8,8.8,7.2C181.1,20,181.1,20.1,181.1,20.2z"/>
	<path fill="#2196EE" d="M182.1,13.2c0-2,0-4.1,0-6.1c0-0.9,0.1-1,1-1c1,0,1.9,0,2.9,0c0.6,0,0.8,0.2,0.8,0.8c0,4.2,0,8.4,0,12.5
		c0,0.6-0.2,0.8-0.8,0.8c-1,0-2,0-2.9,0c-0.7,0-0.9-0.3-0.9-1C182.1,17.3,182.1,15.2,182.1,13.2z"/>
</g>
<path fill="#2196EE" d="M35.2,57c1-0.5,2-1.1,3-1.4c2.7-0.8,5,1,5.1,3.8c0,3,0,6,0,9.1c0,0.7-0.2,1.1-1,1c-0.7,0-1.3,0-1.3-1
	c0-3.1,0-6.3,0.1-9.4c0-1.2-1-2.3-2.2-1.9c-1.1,0.3-2.1,0.8-3,1.4c-0.4,0.2-0.6,0.9-0.6,1.4c-0.1,2.8,0,5.6,0,8.4
	c0,1-0.2,1.1-1.3,1.2c-0.9,0-1-0.4-1-1.2c0-5.6,0-11.3,0-16.9c0-1.1,0.7-1.6,1.7-1.2c0.3,0.1,0.5,0.6,0.5,1c0,1.7,0,3.5,0,5.2
	C35.2,56.8,35.2,56.9,35.2,57z"/>
<path fill="#2196EE" d="M73.7,42.4c-0.6,1.7-2.6,3.2-4.7,3.3c-3.3,0.2-6-2.1-6.4-5.3c-0.3-2.1-0.2-4.2,0.7-6.1c1-2,3.1-3.3,5.3-3
	c2.3,0.3,4,1.8,4.5,4.1c0.2,0.8,0.3,1.7,0.3,2.5c0,1-0.1,1.2-1.1,1.2c-2.3,0-4.6,0-6.9,0c-1,0-1.1,0.1-0.9,1.1
	c0.1,0.4,0.2,0.9,0.4,1.3c1.2,2.8,4.6,3.4,6.7,1.1C72.5,41.5,72.6,41.5,73.7,42.4z M67.9,37.2c0.9,0,1.8,0,2.7,0
	c0.3,0,0.7-0.4,0.7-0.6c0.2-1.2-0.9-2.7-1.9-3.2c-2-1-4.7,0.6-4.7,3.2c0,0.2,0.4,0.5,0.6,0.6C66.1,37.2,67,37.2,67.9,37.2z"/>
<path fill="#2196EE" d="M52.3,32.9c1.1-0.5,2.1-1.2,3.1-1.5c2.7-0.7,4.9,1.1,5,3.9c0,3,0,6,0,9.1c0,0.8-0.3,1.1-1.1,1.1
	s-1.1-0.3-1.1-1.1c0-2.9,0-5.8,0-8.6c0-2.4-1.1-3.2-3.3-2.4c-0.6,0.2-1.2,0.6-1.8,0.9c-0.6,0.4-0.8,1-0.8,1.7c0,2.8,0,5.6,0,8.4
	c0,0.9-0.4,1.1-1.1,1.1c-0.8,0-1.1-0.3-1.1-1.1c0-3.9,0-7.7,0-11.6c0-1.2,0.1-1.3,1.3-1.3C52.5,31.5,52.4,32.1,52.3,32.9
	C52.2,32.8,52.3,32.9,52.3,32.9z"/>
<path fill="#2196EE" d="M56.6,63c-0.1,1.8-0.5,3.9-2.1,5.5c-2.3,2.3-6.5,1.7-8.1-1.1c-1.8-3.2-1.8-6.5,0.1-9.7
	c1.8-3.1,6.7-3.2,8.7-0.2C56.1,59.1,56.5,60.6,56.6,63z M47.1,62.6c0.1,1,0.2,2,0.4,2.9c0.4,1.6,1.7,2.6,3.2,2.6s2.8-0.9,3.3-2.4
	c0.6-1.8,0.6-3.7,0.2-5.6c-0.4-1.6-1.9-2.9-3.4-2.9c-1.4,0-2.8,1.1-3.2,2.7C47.3,60.8,47.3,61.7,47.1,62.6z"/>
<path fill="#2196EE" d="M69.6,62.7c0,1.8-0.5,3.4-1.4,5c-1.9,3.1-7.3,3.3-9.2-0.8c-1.2-2.7-1.3-5.4-0.1-8.1c1.1-2.6,3-3.4,5.1-3.3
	c2.5,0,4.5,1.8,5.1,4.2C69.3,60.6,69.4,61.6,69.6,62.7z M67.6,62.4c-0.2-0.9-0.3-2-0.7-3c-0.5-1.4-1.6-2.1-3-2.2
	c-1.3,0-2.5,0.6-3.1,1.9c-0.9,2.3-1,4.7,0,6.9c0.9,2.2,3.5,2.6,5.3,1C67.4,65.9,67.2,64.2,67.6,62.4z"/>
<path fill="#2196EE" d="M29.2,44.1c-1,0.5-1.9,1.1-2.9,1.5c-2.1,0.8-5.1-0.9-5.1-3.6c0.1-3.2,0-6.4,0-9.6c0-0.7,0.2-1,1-1s1,0.3,1,1
	c0,2.9,0.1,5.8,0,8.6c-0.1,2.9,1.8,3.2,3.8,2.4c0.4-0.2,0.8-0.4,1.2-0.6c0.7-0.5,1.2-1,1.2-2c-0.1-2.8,0-5.5,0-8.3
	c0-0.7,0.2-1.1,1-1.1s1.1,0.4,1.1,1.1c0,4,0,7.9,0,11.9c0,0.7-0.2,1-0.9,1c-0.7,0-1.2-0.1-1.2-1C29.3,44.3,29.2,44.2,29.2,44.1z"/>
<path fill="#2196EE" d="M80.9,45.9c-2.4-0.3-4.1-0.8-5.5-2.2c-0.3-0.3-0.5-0.7,0-1s0.8-1.2,1.5-0.4c1.1,1.3,2.5,1.8,4.1,1.6
	c0.5-0.1,1.1-0.2,1.5-0.6c1.5-1.3,1-2.9-1-3.6c-1.3-0.5-2.6-0.8-3.9-1.4c-1.4-0.6-2.2-1.7-2.3-3.2c-0.1-1.5,1.2-3.1,2.7-3.5
	c2.3-0.7,4.4-0.2,6.2,1.5c0.4,0.4,0.7,0.7,0.1,1.2c-0.5,0.4-0.8,0.9-1.5,0.2c-1.1-1.2-2.5-1.8-4.2-1.1c-0.6,0.3-1.1,0.7-1.1,1.4
	c-0.1,0.8,0.2,1.4,1,1.7c1,0.4,2.1,0.7,3.2,1.1c1.7,0.6,3.3,1.3,3.7,3.4c0.3,1.4-0.4,3.3-1.6,3.9C82.7,45.3,81.6,45.6,80.9,45.9z"/>
<path fill="#2196EE" d="M38.9,45.8c-2.3-0.2-4-0.8-5.4-2.1c-0.3-0.3-0.7-0.6-0.2-1c0.5-0.3,0.8-1.3,1.6-0.5c1.1,1.2,2.4,1.7,4.1,1.6
	c1.1-0.1,2.1-0.8,2.4-1.7c0.2-0.8-0.2-1.6-1.3-2.1c-1.2-0.5-2.4-0.8-3.6-1.3c-0.6-0.2-1.2-0.5-1.7-0.9c-1-0.8-1.6-1.9-1.4-3.2
	c0.3-1.5,1.1-2.7,2.7-3.2c2.3-0.7,4.4-0.2,6.2,1.5c0.5,0.5,0.5,0.8,0,1.3c-0.5,0.4-0.8,0.7-1.4,0.1c-1.3-1.4-2.7-1.7-4.3-1.1
	c-0.6,0.2-1.1,0.7-1.1,1.3c0,0.7,0.1,1.4,0.9,1.7c1.1,0.5,2.3,0.8,3.4,1.2c1.7,0.5,3.1,1.3,3.6,3.2c0.4,1.6-0.3,3.4-1.8,4.2
	C40.6,45.4,39.6,45.6,38.9,45.8z"/>
<path fill="#2196EE" d="M92.5,45.8c-2.3-0.1-4-0.8-5.4-2c-0.4-0.4-0.6-0.8,0-1.2c0.4-0.3,0.8-1,1.5-0.1c1.3,1.5,3.6,1.9,5.2,1.1
	c0.7-0.4,1-1,1.1-1.8c0-0.8-0.3-1.3-1-1.6c-1.5-0.6-3-1.1-4.5-1.6c-2.4-0.9-3.1-3.1-1.9-5.3c0.8-1.5,2.1-1.8,3.6-1.9
	c1.8-0.1,3.4,0.5,4.7,1.7c0.4,0.4,0.6,0.8,0,1.2c-0.4,0.4-0.7,0.8-1.4,0.2c-1.4-1.4-2.9-1.7-4.3-1c-0.7,0.3-1,0.8-1.1,1.6
	c0,0.8,0.5,1.3,1.1,1.5c1,0.4,2.1,0.7,3.1,1.1c0.8,0.3,1.7,0.6,2.3,1.1c2.2,1.7,1.9,5-0.7,6.4C94,45.5,93,45.6,92.5,45.8z"/>
<path fill="#2196EE" d="M20.4,62.6c0.1-2.4,0.6-4.5,2.5-6c2.6-2.1,6.7-1.5,8.1,2.1c0.1,0.2-0.1,0.7-0.3,0.8c-0.5,0.2-1,0.8-1.5-0.1
	c-0.5-1-1.1-1.7-2.2-2.1c-1.1-0.3-2.6,0.1-3.4,1c-1.1,1.4-1.1,3-1.1,4.6c0,0.8,0.1,1.6,0.3,2.3c0.3,1.4,1.2,2.4,2.6,2.7
	c1.6,0.3,3-0.2,4-1.6c0.2-0.3,0.5-0.7,0.8-0.7s0.8,0.2,1,0.5c0.1,0.1-0.1,0.6-0.2,0.8c-1.3,2.1-3.1,3-5.6,2.8
	c-2.3-0.3-3.7-1.7-4.5-3.8C20.7,65,20.6,63.8,20.4,62.6z"/>
<path fill="#2196EE" d="M73.5,60c0,2.8,0,5.7,0,8.5c0,0.8-0.3,1-1.1,1c-0.8,0-1.1-0.3-1.1-1.1c0-5.7,0-11.4,0-17.1
	c0-0.8,0.2-1.2,1.1-1.2s1.1,0.4,1.1,1.2C73.5,54.3,73.5,57.1,73.5,60z"/>
<path fill="#2196EE" d="M47.6,38.5c0,2,0,4,0,5.9c0,0.8-0.4,1-1.1,1c-0.7,0-1.1-0.2-1.1-1c0-4,0-8,0-12c0-0.8,0.4-1,1.1-1
	c0.7,0,1.1,0.2,1.1,1C47.6,34.4,47.6,36.5,47.6,38.5z"/>
<g>
	<path fill="#2196EE" d="M157.4,196.1c-1.2,0-2.5,0-3.7,0s-1.7-0.7-1.3-1.8c0.1-0.2,0.5-0.5,0.8-0.5c2,0,3.9,0,5.9,0
		c0.7,0,0.8,0.4,0.9,1c0.3,5.3-4.3,8.9-9.5,7.5c-4-1.1-6.5-4.6-6.1-8.7c0.4-3.8,3.8-6.9,7.8-7.1c1.8-0.1,3.5,0.4,4.9,1.5
		c0.3,0.3,1,0.5,0.5,1.1c-0.5,0.5-0.7,1.5-1.8,0.8c-1.5-1.1-3.3-1.4-5.1-0.8c-2.2,0.7-3.8,2.8-3.9,5.2c-0.1,2.4,1.3,4.6,3.5,5.5
		s4.7,0.5,6.2-1.2c0.5-0.6,0.8-1.4,1.2-2.1C157.6,196.4,157.5,196.3,157.4,196.1z"/>
	<path fill="#2196EE" d="M190.4,192.7c0.7,0,1.4-0.2,2-0.1c0.2,0,0.4,0.8,0.4,1.2c0,2.8,0.1,5.6,0,8.4c-0.1,2.7-1.6,4.5-4.1,4.9
		c-2.2,0.4-4.5-1-5.2-3c1.2-1,1.5-1,2.6,0.1c0.8,0.8,2.1,1,3.2,0.4c1-0.5,1.4-1.5,1.1-2.8c-3.2,1.1-5.2,0.6-6.6-1.7
		c-1.3-2-1-4.7,0.6-6.4c1.7-1.7,3.8-2,6-0.8C190.4,193,190.4,192.8,190.4,192.7z M190.7,197.5c0-1.7-1.2-3.2-2.7-3.1
		c-1.5,0-2.7,1.3-2.8,3c0,1.7,1.2,3.1,2.7,3.1S190.7,199.2,190.7,197.5z"/>
	<path fill="#2196EE" d="M160.5,197.4c0-2.9,2.3-5.2,5.2-5.2c3,0,5.4,2.4,5.3,5.3c0,2.9-2.4,5.2-5.4,5.2
		C162.8,202.6,160.5,200.3,160.5,197.4z M168.5,197.5c0-1.8-1.1-3-2.7-3c-1.6,0-2.8,1.2-2.8,2.9s1.2,3,2.8,3
		C167.3,200.4,168.5,199.2,168.5,197.5z"/>
	<path fill="#2196EE" d="M200.3,199c1,1.4,2.6,1.7,3.8,0.9c1.3-0.9,1.5-0.9,2.6,0.4c-1.2,2.3-4.3,3-6.8,1.7c-1.8-1-2.9-3.3-2.5-5.4
		c0.4-2.4,1.9-3.9,4.1-4.3c2.2-0.4,4.8,1.3,5.2,3.4c0,0.2-0.3,0.7-0.5,0.8c-1.6,0.7-3.3,1.4-4.9,2.1
		C201,198.7,200.7,198.8,200.3,199z M199.8,197.1c1.5-0.6,2.9-1.2,4.3-1.8c-0.7-0.8-1.3-1.1-2.2-0.9
		C200.7,194.8,200,195.6,199.8,197.1z"/>
	<path fill="#2196EE" d="M182.1,197.3c0,3-2.3,5.3-5.2,5.3c-2.8,0-5.2-2.3-5.2-5.1c0-2.9,2.3-5.3,5.2-5.3S182.1,194.5,182.1,197.3z
		 M179.8,197.4c0-1.6-1.3-3.1-2.8-3.1s-2.8,1.3-2.8,3c0,1.8,1.2,3.1,2.8,3.1C178.4,200.5,179.8,199.1,179.8,197.4z"/>
	<path fill="#2196EE" d="M194.2,194.6c0-2.1,0-4.3,0-6.4c0-1,0.4-1.2,1.2-1.2c0.9,0,1.2,0.3,1.1,1.2c0,4.3,0,8.6,0,12.9
		c0,0.8-0.3,1.2-1.1,1.2c-0.9,0-1.3-0.2-1.3-1.2C194.3,199,194.2,196.8,194.2,194.6z"/>
</g>
<path fill="#2196EE" d="M47.6,27.1c0,1.1-0.1,1.2-1.1,1.2c-0.9,0-1-0.1-1-1.3c0-1,0.2-1.2,1.1-1.2C47.5,25.9,47.6,26,47.6,27.1z"/>
<g>
	<path fill="#2196EE" d="M66.3,117.8c0.5-1.7,1-3.2,1.4-4.6s0.7-1.5,2.3-1.1c-0.1,0.3-0.1,0.6-0.2,0.9c-0.7,2.1-1.5,4.3-2.1,6.5
		c-0.3,1-1,0.7-1.6,0.7c-0.6,0.1-1-0.1-1.2-0.8c-0.4-1.6-1-3.1-1.5-4.9c-0.5,1.7-0.9,3.2-1.3,4.6c-0.2,0.6-0.3,1.1-1.1,1.1
		s-1.5,0.2-1.9-0.9c-0.7-2.1-1.5-4.2-2.2-6.2c-0.1-0.3-0.2-0.6-0.3-0.9c1.5-0.5,2-0.3,2.4,1.1c0.5,1.4,0.9,2.8,1.6,4.3
		c0.4-1.5,0.8-3,1.2-4.5c0.2-0.7,0.4-1.1,1.3-1.1c0.8,0,1.4,0.1,1.7,1.1C65.2,114.5,65.7,116,66.3,117.8z"/>
	<path fill="#2196EE" d="M14.4,118.7c-0.9-1.6-2-3.1-2.8-4.8c-0.7-1.4-1.4-3-1.7-4.5c-0.5-2.3,0.8-4,3.1-4.4
		c0.6-0.1,0.9,0.1,1.1,0.6c0.3,1.2,0.8,2.5,0.8,3.7c0.1,2.9,0,5.7,0,8.6c0,0.2-0.1,0.4-0.1,0.6C14.6,118.6,14.5,118.7,14.4,118.7z"
		/>
	<path fill="#2196EE" d="M15.9,118.6c-0.1-0.9-0.2-1.8-0.2-2.6c-0.2-3.3-0.2-6.6,0.8-9.7c0.4-1.4,0.7-1.5,2-1
		c1.9,0.7,2.8,2.4,2.3,4.6c-0.6,2.5-2,4.7-3.3,6.9c-0.4,0.7-0.8,1.3-1.3,1.9C16.1,118.6,16,118.6,15.9,118.6z"/>
	<path fill="#2196EE" d="M13.6,119.3c-0.2-0.1-0.4-0.1-0.5-0.1c-2.1-1.2-4.2-2.4-6.2-3.8c-2.5-1.8-2.7-3.8-0.8-6.3
		c0.2-0.3,0.5-0.6,0.7-0.9C8.4,109.3,13.5,117.6,13.6,119.3z"/>
	<path fill="#2196EE" d="M23.7,108.2c1.9,1.6,2.6,4,1.6,5.7c-0.4,0.7-1.1,1.3-1.8,1.8c-2,1.3-4,2.4-6,3.6c-0.1,0.1-0.2,0-0.5,0.1
		C18.7,115.2,21,111.6,23.7,108.2z"/>
	<path fill="#2196EE" d="M39.3,116.1c0,1.1,0,2.2,0,3.2c0,0.8-0.4,0.8-1,0.8s-1.1,0-1-0.8c0-0.6,0-1.3,0-1.9c0-0.5-0.2-0.7-0.7-0.7
		c-0.8,0-1.6,0-2.4,0c-0.5,0-0.7,0.2-0.7,0.7c0.1,0.7,0,1.3,0,2s-0.4,0.7-0.9,0.7s-1.1,0.1-1.1-0.7c0-2.3,0-4.6,0-6.9
		c0-0.8,0.6-0.6,1.1-0.7c0.5,0,0.9,0,0.9,0.7c0,0.6,0.1,1.2,0,1.8c0,0.5,0.2,0.7,0.7,0.7c0.8,0,1.6,0,2.4,0c0.5,0,0.7-0.2,0.7-0.7
		c0-0.6,0-1.2,0-1.8c0-0.7,0.5-0.7,0.9-0.7c0.5,0,1.1-0.1,1.1,0.7C39.3,113.7,39.3,114.9,39.3,116.1L39.3,116.1z"/>
	<path fill="#2196EE" d="M72.6,116.7c0,1.2,0.4,1.8,1.5,1.8c0.9,0,1.7,0,2.6,0c0.6,0,0.8,0.2,0.8,0.8c0,0.5-0.1,0.8-0.7,0.8
		c-1.2,0-2.4,0-3.7-0.2c-1.4-0.2-2.4-1-2.7-2.4c-0.2-1.1-0.1-2.3,0.1-3.4c0.4-1.6,1.8-2.1,3.3-2.2c1-0.1,1.9,0,2.9,0
		c0.6,0,0.7,0.3,0.7,0.8c0,0.6-0.2,0.8-0.8,0.8c-0.8,0-1.6,0-2.4,0c-0.4,0-0.9,0.1-1.1,0.3c-0.3,0.2-0.4,0.7-0.6,1.1
		c0.3,0.1,0.6,0.2,0.9,0.2c1,0,2.1,0,3.1,0c0.6,0,0.8,0.2,0.8,0.7s-0.2,0.8-0.8,0.8C75.4,116.7,74,116.7,72.6,116.7z"/>
	<path fill="#2196EE" d="M57.8,119.9c-1.6,0.5-2.1,0.3-2.6-1c-0.2-0.5-0.5-0.8-1-0.7c-0.4,0-0.8,0-1.2,0c-1.1-0.1-1.9,0.1-2.3,1.4
		c-0.3,1-1.3,0.4-2.2,0.5c0.2-0.4,0.2-0.7,0.3-0.9c1-2.2,2-4.4,3-6.6c0.1-0.3,0.6-0.6,0.9-0.7c0.5,0,1.4,0,1.5,0.4
		C55.5,114.8,56.6,117.3,57.8,119.9z M53,113.8c-0.4,1-0.7,1.8-1.1,2.7c0.8,0,1.5,0,2.2,0C53.8,115.6,53.4,114.8,53,113.8z"/>
	<path fill="#2196EE" d="M40.6,115.1c0-0.8,0-1.6,0-2.4c0-0.7,0.3-0.9,0.9-0.8c0.6,0,1.2-0.1,1.2,0.8c0,1.3,0,2.7,0,4
		c0,1.6,0.8,2.2,2.4,1.9c0.8-0.2,1.2-0.7,1.2-1.5c0-1.5,0-2.9,0-4.4c0-0.8,0.3-0.9,1-0.9s1,0.2,1,0.9c0,1.5,0,3.1,0,4.6
		c0,1.2-0.6,2-1.7,2.4c-1.4,0.5-2.9,0.5-4.3,0c-1-0.4-1.6-1.1-1.6-2.3C40.6,116.7,40.6,115.9,40.6,115.1L40.6,115.1z"/>
	<path fill="#2196EE" d="M27.2,114.3c1,2.4-0.5,5.3-3.1,5.8c-1.4,0.3-2.9,0.2-4.4,0.2c-0.6,0-1.3,0-2-0.2
		C20.7,117.9,23.9,116.1,27.2,114.3z"/>
	<path fill="#2196EE" d="M13.1,120c-0.1,0.2-0.1,0.2-0.1,0.2c-2.3-0.1-4.7,0.2-6.9-0.3c-2.3-0.4-3.6-3.5-2.6-5.5
		C6.8,116.1,10.1,117.9,13.1,120z"/>
	<path fill="#2196EE" d="M81,116.1c0,1.1,0,2.2,0,3.3c0,0.7-0.4,0.8-1,0.8c-0.5,0-1.2,0.1-1.2-0.8c0-2.2,0-4.5,0-6.7
		c0-0.9,0.6-0.7,1.1-0.8c0.6,0,1,0.1,1,0.9C81,113.8,81,115,81,116.1z"/>
	<path fill="#2196EE" d="M17.9,120.9c2.4,0,4.8,0,7.3,0c-0.5,1.8-2.4,2.9-3.9,2.3c-1.2-0.6-2.4-1.3-3.6-2
		C17.8,121,17.8,120.9,17.9,120.9z"/>
	<path fill="#2196EE" d="M5.4,120.8c2.6,0,5,0,7.7,0c-1.5,1-2.7,2.3-4.5,2.5C7.4,123.4,6.1,122.4,5.4,120.8z"/>
	<path fill="#2196EE" d="M53,113.8c0.4,1,0.8,1.8,1.1,2.7c-0.7,0-1.4,0-2.2,0C52.3,115.6,52.6,114.8,53,113.8z"/>
</g>
<g>
	<path fill="#2196EE" d="M163,53.8c8.6,0,17.2,0,25.8,0c1.3,0,1.3,0,1.3,1.3c0,5.6,0,11.2,0,16.7c0,6.8-0.2,13.6,0,20.5
		c0.5,14.4-9.8,23.2-20.8,25.5c-8.9,1.8-17.2,0.2-24.5-5.4c-4.8-3.7-7.8-8.5-8.7-14.5c-0.1-0.7-0.1-1.4-0.1-2.1
		c0-13.4-0.1-26.9-0.1-40.3c0-0.3-0.1-0.7,0-1s0.4-0.5,0.7-0.6c0.2-0.1,0.5,0,0.7,0C145.8,53.8,154.4,53.8,163,53.8z M156.3,108
		c0,0.9,0,1.6,0,2.2c0,0.7,0.2,1.1,0.8,1.5c1.5,0.9,3.1,1.8,4.6,2.7c0.5,0.3,0.9,0.3,1.4,0c1.6-1,3.2-1.9,4.8-2.9
		c0.3-0.2,0.5-0.7,0.6-1.1c0.1-0.7,0-1.5,0-2.4c0.5,0.3,0.8,0.4,1.1,0.5c1.4,0.8,2.8,1.6,4.3,2.4c0.3,0.1,0.7,0.3,0.9,0.2
		c0.7-0.3,1.2-0.7,2-1.1c-0.9-0.5-1.6-1-2.3-1.4c1.3-1.1,1.4-1.2,2.7-0.4c0.4,0.3,1,0.7,1.4,0.6c0.7-0.2,1.6-0.7,2-1.3
		c0.5-0.9,0.1-1.9-0.9-2.4c-0.2-0.1-0.4-0.3-0.6-0.4c-1-0.6-1.2-1-0.8-2.3c0.7,0.4,1.5,0.8,2.3,1.2c0-0.6-0.1-1,0-1.3
		c0.2-1-0.3-1.5-1.1-1.9c-1.2-0.6-2.3-1.3-3.5-2c-0.4-0.2-0.8-0.5-1.3-0.9c1-0.6,1.8-1,2.5-1.6c0.3-0.2,0.6-0.7,0.6-1.1
		c0.1-1.9,0.1-3.8,0-5.7c0-0.4-0.4-0.9-0.7-1.1c-1.4-0.9-2.9-1.6-4.2-2.5c-0.9-0.6-1.6-0.7-2.4,0c-0.5,0.4-1.2,0.7-1.9,1.1
		c0-1.8,0-3.2,0-4.7c0-1.8-0.4-2.2-2.3-2.8c0,0.8-0.1,1.6-0.1,2.4c-1.4-0.3-1.6-0.6-1.6-1.8c0-0.4,0-0.8,0-1.2
		c0-0.7-1.6-1.8-2.2-1.7c-1.2,0.3-1.9,1.1-1.9,2.3c0,0.2,0,0.4,0,0.5c0,1.2-0.4,1.6-1.6,1.7c0-0.8-0.1-1.6-0.1-2.5
		c-0.5,0.3-0.8,0.5-1.2,0.6c-0.9,0.3-1.1,0.9-1.1,1.8c0.1,1.4,0,2.7,0,4.1c0,0.3-0.1,0.6-0.1,1c-0.9-0.5-1.7-1-2.5-1.4
		c-0.3-0.1-0.8-0.2-1.1,0c-1.7,0.9-3.3,1.9-5,2.9c-0.5,0.3-0.7,0.7-0.7,1.3c0,1.7,0.1,3.4,0,5c0,0.9,0.2,1.4,1,1.8
		c0.7,0.4,1.4,0.8,2.3,1.3c-1.6,1-3.1,1.8-4.5,2.7c-1.4,0.8-1.8,1.7-1.2,3.4c0.3-0.2,0.7-0.4,1-0.6s0.7-0.4,1-0.5
		c0.4,1.5,0.4,1.7-1.4,2.7c-1.2,0.7-1.2,2.4,0,3.3c1,0.8,1.7,0.3,2.5-0.2c1.2-0.7,1.6-0.6,2.6,0.5c-0.3,0.2-0.7,0.4-1,0.6
		s-0.7,0.4-1.1,0.7c1.4,1.4,1.9,1.5,3.4,0.6C153.1,109.8,154.6,109,156.3,108z M143.5,69.1c0,0.1,0.1,0.2,0.1,0.3
		c1.7,0,3.4,0.1,5.1,0c1,0,2.1-0.1,3-0.4c2.5-0.8,3.9-3,3.8-5.8c-0.1-2.4-1.4-4.5-3.7-4.9c-2.7-0.4-5.5-0.4-8.3-0.6
		c0,0.1,0,0.2-0.1,0.3c1,0,1.2,0.7,1.2,1.5c0,2.8,0,5.6,0,8.4C144.6,68.4,144.4,69.1,143.5,69.1z M172,59.1c0.6-0.2,1.2-0.5,1.8-0.6
		c0.5-0.1,1.1,0,1.6-0.1c0.6-0.1,0.9,0.2,0.9,0.8c-0.1,2.8-0.1,5.6-0.1,8.4c0,0.7-0.1,1.3-1.2,1.5c1.7,0,3.1,0,4.5,0
		c-0.7-0.1-1.4-0.3-1.4-1.2c0-3,0-5.9,0-8.9c0-0.2,0.3-0.6,0.5-0.6c1.2,0,2.6-0.4,3.5,1c0-0.3,0-0.5,0-0.7c0-1.2,0-1.1-1.2-1.1
		c-2.4,0-4.9,0-7.3-0.1C172.2,57.6,172.2,57.6,172,59.1C172,59.1,172,59.2,172,59.1z M165.9,57.7c-1.2,0-2.4,0-3.4,0
		c0.2,0.4,0.7,0.8,0.7,1.2c0,3,0,5.9,0,8.9c0,0.6-0.1,1.3-0.9,1.4c1.4,0,2.8,0,4.3,0c-1.5-0.4-1.5-0.4-1.5-2c0-2.6,0-5.3,0-7.9
		C165,58.6,165,57.9,165.9,57.7z M158.1,64c0.4,0.3,0.7,0.6,0.9,0.5c0.3,0,0.5-0.4,0.7-0.6c-0.2-0.2-0.4-0.5-0.6-0.5
		C158.8,63.4,158.5,63.7,158.1,64z M170.1,64.8c0.2-0.4,0.5-0.6,0.5-0.8c-0.1-0.2-0.4-0.4-0.6-0.6c-0.2,0.2-0.5,0.4-0.5,0.7
		C169.5,64.2,169.8,64.4,170.1,64.8z"/>
	<path fill="#2196EE" d="M121.3,71.1c-1.6-0.7-3.2-1.3-5.1-1.5c0.2-0.8,0.5-1.7,0.8-2.5c0.6-1.4,1.8-1.9,3.2-1.5
		c1.4,0.5,2.2,1.8,1.8,3.1C121.8,69.6,121.5,70.3,121.3,71.1z M121.7,68.2c0-0.1,0-0.4-0.1-0.6c-0.3-0.9-1.6-1.5-2.7-1.2
		c-0.9,0.2-1.9,1.3-1.8,2.1c0,0.2,0.3,0.4,0.5,0.5c0.8,0.3,1.6,0.5,2.4,0.8C121.2,70.1,121.6,69.7,121.7,68.2z"/>
	<path fill="#2196EE" d="M191.8,118.8c-0.3,0.2-0.6,0.5-0.8,0.6c-0.6-1.8-1.1-3.6-1.8-5.7c1.9,1,3.5,1.9,5.3,2.8
		c-0.3,0.4-0.7,0.7-1.4,0.2c-0.4-0.3-0.9-0.8-1.5-0.4C190.7,117,190.7,117.7,191.8,118.8z M190.6,116.5c0.3-0.2,0.6-0.4,0.9-0.6
		c-0.5-0.3-0.9-0.5-1.2-0.7c-0.1,0.1-0.1,0.1-0.2,0.2C190.3,115.6,190.4,116,190.6,116.5z"/>
	<path fill="#2196EE" d="M205.7,98.3c0.9,0.3,1.1,0.7,0.8,1.4c-0.7,2.1-2.4,3-4.1,2.2c-1.7-0.8-2-2.6-0.8-4.5
		c0.5-0.8,0.9-0.9,1.5-0.4c-0.5,0.4-1.1,0.7-1.3,1.2c-0.3,0.5-0.4,1.3-0.2,1.8c0.3,1.1,2.1,1.7,3.3,1.2
		C205.8,100.7,206.3,99.5,205.7,98.3z"/>
	<path fill="#2196EE" d="M179.2,36.3c0.3,0,0.6-0.2,0.9-0.1c1,0.4,2,0.8,2.9,1.2c0.2,0.1,0.3,0.5,0.4,0.7c-0.1,0.1-0.2,0.1-0.3,0.2
		c-0.1-0.1-0.2-0.3-0.4-0.4c-0.7-0.6-1.1-0.5-1.4,0.3c-0.3,0.8-0.7,1.6-1,2.4c-0.1,0.4-0.2,0.9-0.3,1.4c-0.3-0.1-0.7-0.3-1-0.4
		c0.5-1.2,1-2.3,1.5-3.5c0.4-1,0.2-1.4-0.9-1.4c-0.1,0-0.3,0-0.4,0C179.2,36.6,179.2,36.4,179.2,36.3z"/>
	<path fill="#2196EE" d="M118.5,83.1c-0.8,0.1-1.7,0.2-2.6,0.4c0-0.2,0-0.4-0.1-0.7c1.3,0,2.6,0,4.1,0c-1,1-1.8,1.9-2.6,2.8
		c0,0.1,0,0.2,0,0.2c0.8-0.1,1.7-0.2,2.7-0.3c-0.1,0.2-0.2,0.6-0.3,0.6c-1.2,0-2.3,0-3.7,0C116.9,85.1,117.8,84.1,118.5,83.1
		C118.6,83.2,118.5,83.2,118.5,83.1z"/>
	<path fill="#2196EE" d="M200.6,109.8c-0.1,0.1-0.3,0.3-0.5,0.6c-0.5-0.4-1-0.8-1.4-1.2c-1.6,1.4-1.5,1.9,0.3,2.6
		c-0.2,0.2-0.3,0.4-0.5,0.6c-1-0.8-2-1.6-3.1-2.5c0-0.1,0.2-0.3,0.4-0.5c0.5,0.3,1,0.8,1.3,0.7c0.5-0.2,0.8-0.8,1.3-1.3
		c-0.5-0.3-0.9-0.6-1.3-0.9c0.1-0.2,0.3-0.4,0.4-0.6C198.5,108.2,199.5,109,200.6,109.8z"/>
	<path fill="#2196EE" d="M210,83.2c-1.3,0-2.6,0-3.9,0c0-0.2,0-0.5,0.1-0.7c1.5,0.1,1.5,0,1.5-1.1c0-1.2-0.8-0.8-1.5-0.8
		c0-0.2-0.1-0.5-0.1-0.8c1.3,0,2.6,0,3.9,0c0,0.2,0,0.4,0,0.7c-2,0.1-2.1,0.2-1.9,1.4c0.2,1.3,1.3,0.4,1.9,0.6
		C210,82.6,210,82.9,210,83.2z"/>
	<path fill="#2196EE" d="M137.1,44c0.5,0.7,1,1.3,1.5,2c-0.1,0.1-0.3,0.2-0.5,0.3c-0.7-1.1-1.4-2.2-2-3.2c0-0.1,0.1-0.2,0.1-0.2
		c1.2,0.3,2.5,0.6,4,0.9c-0.7-0.9-1.2-1.6-1.8-2.4c0.1-0.1,0.3-0.2,0.5-0.4c0.7,1.1,1.4,2.2,2.2,3.5c-1.5-0.3-2.7-0.6-3.9-0.8
		C137.2,43.8,137.2,43.9,137.1,44z"/>
	<path fill="#2196EE" d="M191.7,49.3c-0.1-0.1-0.4-0.3-0.6-0.5c0.5-0.5,0.9-0.9,1.4-1.5c-0.6-0.5-1-0.9-1.6-1.4
		c-0.4,0.6-0.8,1.1-1.2,1.6c-0.1-0.1-0.4-0.3-0.6-0.4c0.8-1,1.7-2,2.5-3c0.1,0.1,0.3,0.2,0.5,0.4c-0.3,0.4-0.6,0.8-1,1.2
		c0.6,0.4,1.1,0.9,1.6,1c0.2,0.1,0.6-0.6,0.9-1c0.1,0.1,0.3,0.2,0.5,0.4C193.4,47.2,192.6,48.2,191.7,49.3z"/>
	<path fill="#2196EE" d="M180.2,125.3c-0.6-2-0.8-2.1-2.5-1c0.2,0.5,0.5,1.1,0.8,1.7c-0.2,0.1-0.4,0.2-0.7,0.3
		c-0.5-1.2-0.9-2.4-1.4-3.7c0.1-0.1,0.3-0.2,0.6-0.3c0.2,0.5,0.3,0.9,0.5,1.6c0.6-0.3,1.3-0.5,1.7-0.8c0.1-0.1-0.2-0.8-0.4-1.4
		c0.1-0.1,0.4-0.2,0.6-0.3c0.5,1.2,0.9,2.4,1.4,3.7C180.8,125.1,180.5,125.2,180.2,125.3z"/>
	<path fill="#2196EE" d="M132.6,50.9c-1.2,0-2.5,0-3.7,0c0,0.1-0.1,0.1-0.1,0.2c0.7,0.6,1.3,1.1,2.1,1.7c-0.1,0.1-0.3,0.3-0.3,0.3
		c-1-0.9-1.9-1.7-2.9-2.6c0-0.1,0.1-0.1,0.1-0.2c1.3,0,2.6,0,3.8,0c0-0.1,0.1-0.1,0.1-0.2c-0.7-0.6-1.4-1.2-2.1-1.8
		c0.1-0.1,0.3-0.3,0.4-0.5c0.9,0.9,1.8,1.9,2.7,2.8C132.7,50.8,132.7,50.9,132.6,50.9z"/>
	<path fill="#2196EE" d="M126,110.7c1-0.9,2-1.7,3-2.5c0.7,0.8,1.8,1.6,1.4,3.1c-0.2,0.8-0.8,1.3-1.7,1.4
		C127.3,112.8,126.7,111.6,126,110.7z M130.1,110.3c-0.3-0.4-0.5-0.9-0.9-1.3c-0.1-0.1-0.7,0.3-1,0.6c-0.3,0.2-0.5,0.4-0.8,0.6
		c-0.9,0.7-0.7,1.4,0.3,1.8C128.8,112.4,129.9,111.6,130.1,110.3z"/>
	<path fill="#2196EE" d="M132.6,117.5c-0.2-0.2-0.6-0.5-0.8-0.7c1.1-1.2,2.1-2.4,3.3-3.6c-0.6-0.4-1-0.7-1.5-1c0-0.1,0-0.1-0.1-0.2
		c0.3,0,0.6-0.1,0.8,0.1c0.9,0.8,1.8,1.6,2.8,2.4c-0.2,0.2-0.3,0.4-0.4,0.6c-0.4-0.5-0.7-0.9-1.1-1.5
		C134.6,115,133.3,116,132.6,117.5z"/>
	<path fill="#2196EE" d="M145.3,122.3c-0.3,0.8-0.5,1.6-0.8,2.5c-0.1,0-0.4-0.1-0.6-0.2c0.5-1.2,1-2.4,1.5-3.5c0.1,0,0.2,0,0.2,0
		c0.5,1.2,1,2.3,1.6,3.8c0.4-1.1,0.7-1.9,1-2.8c0.1,0,0.3,0.1,0.5,0.2c-0.5,1.2-1,2.4-1.5,3.5c-0.1,0-0.2,0-0.3,0
		c-0.5-1.2-1-2.3-1.4-3.5C145.4,122.3,145.3,122.3,145.3,122.3z"/>
	<path fill="#2196EE" d="M197.8,49.8c0.1,0.1,0.3,0.3,0.4,0.4c-1,0.9-1.9,1.7-3,2.7c0-1.4,0-2.7,0-4c-0.7,0.6-1.4,1.2-2.1,1.7
		c0,0-0.1-0.1-0.2-0.2c1-0.9,1.9-1.7,2.8-2.6c0.1,0,0.2,0.1,0.3,0.1c-0.1,1.3-0.1,2.5-0.2,3.8c0.1,0,0.1,0.1,0.2,0.1
		C196.6,51.1,197.2,50.5,197.8,49.8z"/>
	<path fill="#2196EE" d="M198.9,56.3c-1.1,0-2.1-0.9-2.1-2s1-2.1,2.1-2.2c1.1,0,2.1,1,2.1,2.1C201.1,55.3,200.1,56.3,198.9,56.3z
		 M200.5,54c0-0.8-0.6-1.5-1.3-1.5c-0.9,0-1.8,0.9-1.8,1.8c0,0.8,0.5,1.3,1.2,1.4C199.5,55.8,200.5,54.9,200.5,54z"/>
	<path fill="#2196EE" d="M170.2,34.9c1.2,0,2.2,0.9,2.1,2c0,1.1-1,2.1-2.1,2.2c-1.2,0-2.1-0.9-2.1-2
		C168.2,35.9,169.1,34.9,170.2,34.9z M171.6,37c0-1.1-0.5-1.6-1.4-1.7c-0.9,0-1.4,0.6-1.5,1.6c0,1,0.6,1.8,1.5,1.8
		C171.1,38.7,171.6,38.1,171.6,37z"/>
	<path fill="#2196EE" d="M171.4,126.1c0,1.2-1.1,2.1-2.2,2.1c-1.1,0-2-1-2-2.1s1-2.1,2.1-2.1C170.5,124,171.4,125,171.4,126.1z
		 M170.8,126.3c0-1.1-0.7-1.8-1.5-1.8s-1.4,0.6-1.4,1.5c0,1.1,0.7,1.9,1.6,1.9C170.3,127.8,170.8,127.2,170.8,126.3z"/>
	<path fill="#2196EE" d="M156.6,125.6c0,1.2-0.9,2.2-2,2.3c-1.1,0-2.1-0.9-2.1-2s0.9-2.1,2-2.2C155.6,123.7,156.6,124.6,156.6,125.6
		z M154.6,124.1c-0.8,0-1.4,0.6-1.4,1.7c0,1,0.5,1.7,1.3,1.7s1.5-0.7,1.5-1.7C156,124.9,155.4,124.1,154.6,124.1z"/>
	<path fill="#2196EE" d="M203.3,63.3c-1.1,0-2.1-1-2.1-2.1s1-2,2.1-2s2.1,1,2.1,2.2C205.4,62.3,204.4,63.3,203.3,63.3z M204.9,61.1
		c0.1-0.7-0.5-1.4-1.2-1.5c-1-0.1-2,0.7-2.1,1.6c-0.1,0.7,0.5,1.4,1.2,1.4C203.8,62.8,204.9,62,204.9,61.1z"/>
	<path fill="#2196EE" d="M206,67.4c-0.3,0-0.4,0.1-0.5,0.1c-1.4,0.4-1.6,0.3-1.9-0.6c-0.5-1.2-0.2-2.2,0.8-2.8
		c0.7-0.4,1.6-0.5,2.1,0.1s0.8,1.4,1.1,2.2c0,0.1-0.3,0.4-0.6,0.6c-0.1-0.2-0.1-0.3-0.1-0.3c0.4-0.8,0.2-1.5-0.4-2
		c-0.6-0.6-1.3-0.3-1.8,0.1c-0.7,0.5-0.9,1.2-0.7,2c0.1,0.2,0.5,0.4,0.8,0.4s0.6-0.3,0.9-0.5C205.7,66.8,205.8,67,206,67.4z"/>
	<path fill="#2196EE" d="M125.2,61c-1.2-0.7-2.2-1.3-3.4-2c0.1-0.2,0.3-0.6,0.6-0.9c0.4-0.5,0.9-0.6,1.5,0c0.2,0.2,0.4,0.2,0.7,0.3
		c0.4,0.1,1,0.2,1.2,0.4c0.2,0.3,0.1,0.9,0,1.3C125.7,60.4,125.4,60.7,125.2,61z M123.9,59.7c0.5,0.1,1,0.1,1.6,0.2
		c0-0.3,0-0.7-0.2-0.8C124.8,58.6,124.3,58.7,123.9,59.7z M122.6,58.2c0,0.2-0.1,0.3-0.1,0.5c0.4,0.1,0.7,0.2,1.1,0.3
		c0-0.2,0.1-0.5,0-0.5C123.3,58.4,122.9,58.3,122.6,58.2z"/>
	<path fill="#2196EE" d="M185.2,118.5c0.5,0.4,1.1,0.8,1.6,1.2c0.6,0.4,1.1,0.8,1.9,1.3c-0.4,0-0.8,0.1-1.1,0
		c-0.5-0.2-0.8-1-1.4-0.4c-0.3,0.4-0.2,1-0.3,1.6c0.1,0,0.2,0.1,0.2,0.1c-0.2,0.1-0.4,0.3-0.6,0.4c-0.2-1.4-0.4-2.8-0.7-4.1
		C185.1,118.6,185.1,118.6,185.2,118.5z"/>
	<path fill="#2196EE" d="M126.4,104.4c0,0.1,0.2,0.2,0.3,0.5c-0.1,0.1-0.1,0.1-0.2,0.2c-0.6,0.3-1.2,0.7-1.8,1
		c-1,0.5-1.8,0.3-2.3-0.5s-0.3-1.6,0.7-2.2c0.3-0.2,0.7-0.4,1-0.6s0.5-0.4,0.9-0.7c0.1,0.2,0.2,0.4,0.4,0.7
		c-0.7,0.4-1.4,0.8-2.1,1.3c-0.5,0.3-0.9,0.8-0.5,1.5s1,0.6,1.6,0.3C125,105.3,125.7,104.9,126.4,104.4z"/>
	<path fill="#2196EE" d="M162.4,124.7c0.5,1.3,1,2.5,1.5,3.8c-0.5,0.3-0.7-0.1-0.9-0.6c-0.2-0.3-0.6-0.8-0.8-0.7
		c-0.3,0.1-0.6,0.5-0.9,0.8c-0.2,0.2-0.4,0.4-0.6,0.6c0-0.1-0.1-0.1-0.1-0.2c0.5-1.3,1.1-2.5,1.6-3.8
		C162.2,124.7,162.3,124.7,162.4,124.7z"/>
	<path fill="#2196EE" d="M201.7,108.3c0,0-0.1,0.1-0.2,0.3c-0.8-1.1-1.6-2.3-2.6-3.6c1.6,0.3,3,0.5,4.7,0.8
		c-0.5,0.2-0.8,0.5-1.1,0.5c-0.5,0-1.2-0.4-1.4,0.4C201,107.1,201.4,107.6,201.7,108.3z"/>
	<path fill="#2196EE" d="M120.9,60.7c0.7,0.4,1.4,0.7,2.1,1c1,0.5,1.3,1.3,0.9,2.1c-0.4,0.9-1.2,1.2-2.2,0.8
		c-0.7-0.3-1.4-0.6-2.2-0.9c0.1-0.2,0.2-0.4,0.3-0.7c0.8,0.4,1.6,0.8,2.4,1.1c0.6,0.2,1.1,0.2,1.4-0.5c0.3-0.6,0-1.1-0.6-1.4
		c-0.7-0.4-1.5-0.7-2.3-1.1C120.8,61.1,120.8,60.9,120.9,60.7z"/>
	<path fill="#2196EE" d="M205.6,89.1c1.3-0.3,2.6-0.6,4.2-0.9c-0.3,0.4-0.5,0.7-0.8,0.8c-0.4,0.2-1.3,0-1.1,0.8
		c0.1,0.4,0.6,0.8,1,1.2c0.1,0,0.2-0.1,0.2-0.1c0,0.2,0,0.5,0,0.8c-1.2-0.8-2.4-1.5-3.6-2.2C205.5,89.3,205.5,89.2,205.6,89.1z"/>
	<path fill="#2196EE" d="M154,35.3c0.2,0,0.5-0.1,0.7-0.1c0.1,0.1,0.1,0.1,0.1,0.2c0.1,0.8,0.1,1.6,0.3,2.3c0.1,0.6,0.5,1.1,1.2,1
		s0.9-0.7,0.8-1.3c-0.1-0.8-0.3-1.5-0.4-2.4c0.2-0.1,0.4-0.1,0.5-0.2c0.1,0.1,0.1,0.1,0.1,0.2c0.1,0.7,0.1,1.3,0.2,2
		c0.1,1.2-0.3,1.9-1.2,2.1c-1,0.2-1.7-0.3-1.9-1.6C154.3,36.8,154.1,36.1,154,35.3z"/>
	<path fill="#2196EE" d="M121.1,80.6c-1.8-0.1-3.5-0.6-5.2,0c0-0.3,0-0.7,0-1.1c1.8,0,3.5,0,5.2,0C121.1,79.9,121.1,80.3,121.1,80.6
		z"/>
	<path fill="#2196EE" d="M133.3,43.4c1,1.5,2,2.9,3.4,4.1c-0.2,0.2-0.5,0.4-0.7,0.6c-1.1-1.4-2.2-2.7-3.3-4.1
		C132.7,43.9,133,43.6,133.3,43.4z"/>
	<path fill="#2196EE" d="M175.4,123.8c-1.1-0.5-2.1-0.4-2.5,0.3c-0.4,0.6-0.1,1.7,0.5,2.2c0.8,0.6,1.7,0.5,2.5-0.4
		c0.2,1.1-0.6,1.1-1.2,1.2c-1.3,0.2-2.3-0.5-2.6-1.7c-0.2-1,0.5-2.1,1.7-2.3C174.5,123,175.3,122.6,175.4,123.8z"/>
	<path fill="#2196EE" d="M188.6,45.7c-0.6,0.8-1.2,0.4-1.7,0c-1.2-0.8-1.4-2-0.6-3.1c0.7-1,2-1,3.1-0.2c0.7,0.6,0.8,0.7,0.3,1.3
		c-0.3-1-1.1-1.6-2-1.4c-0.7,0.1-1.4,1.1-1.3,1.9C186.6,45.1,187.3,45.7,188.6,45.7z"/>
	<path fill="#2196EE" d="M143.9,121.2c-0.3-1-1.2-1.6-2-1.4c-0.7,0.2-1.3,1.2-1.1,2.1c0.1,0.9,1,1.4,2,1.3c-0.3,0.6-0.6,0.7-1.3,0.2
		c-1.2-0.7-1.7-1.9-1.1-3c0.6-1.1,1.8-1.4,3-0.7C143.8,120.1,144.7,120.3,143.9,121.2z"/>
	<path fill="#2196EE" d="M165.2,38c-0.6,0.8-1.4,0.3-2.1,0.4c0-1.3,0-2.6,0-3.9c0.6-0.1,1.3-0.2,1.9,0.3c-0.5,0.2-1.4-0.3-1.2,0.8
		c0.1,0.3,0.5,0.5,0.9,0.9c-0.2,0-0.4,0.1-0.9,0.2c0,0.3-0.1,0.9,0.1,1.2C164.1,38,164.6,38,165.2,38z"/>
	<path fill="#2196EE" d="M151.2,125.2c-0.3-0.1-0.6-0.2-0.9-0.3c-0.7,1.3-0.6,1.4,0.7,1.7c-0.5,0.4-0.6,0.4-1.9-0.2
		c0.4-1.2,0.7-2.5,1.1-3.7c1.4,0.2,1.6,0.3,1.6,0.8c-0.4,0-0.7,0-1.1-0.1c0,0.3-0.1,0.7,0,1c0.1,0.2,0.5,0.3,0.7,0.4
		C151.3,125,151.3,125.1,151.2,125.2z"/>
	<path fill="#2196EE" d="M184.3,41.2c0.4,0.3,0.7,0.6,0.9,0.8c-0.1,0.1-0.2,0.2-0.2,0.3c-0.3-0.2-0.5-0.3-0.9-0.6
		c-0.2,0.5-0.5,0.9-0.5,1.3c0,0.2,0.6,0.4,0.9,0.5c-0.4,0.4-0.6,0.4-1.8-0.5c0.6-1.1,1.2-2.2,1.9-3.5c0.5,0.3,1,0.6,1.5,1
		c-0.1,0.1-0.1,0.2-0.2,0.3c-0.3-0.2-0.5-0.3-0.9-0.6C184.8,40.6,184.6,40.9,184.3,41.2z"/>
	<path fill="#2196EE" d="M134.7,119c0.7-1,1.5-2.1,2.2-3.1c1.1,0.5,1.4,0.8,1.1,1.5c-0.2-0.3-0.4-0.6-0.7-1.1
		c-0.4,0.5-0.6,0.9-0.8,1.1c0.3,0.4,0.5,0.7,0.6,1c-0.1,0.1-0.2,0.1-0.3,0.2c-0.2-0.3-0.3-0.6-0.5-0.8c-0.1,0-0.2,0.1-0.3,0.1
		c-0.2,0.4-0.5,0.8-0.6,1.2c0,0.2,0.5,0.4,0.8,0.6C136,120.2,135.7,120.1,134.7,119z"/>
	<path fill="#2196EE" d="M208,67.6c0.5,1.3-1,1.3-1.1,2.1c0.4,0.7,1.7,0,1.9,1.2c-1.4-0.5-2.7-1.3-4.1-0.1c-0.1-0.4-0.2-0.6-0.3-1
		C206.3,70.1,207,68.7,208,67.6z"/>
	<path fill="#2196EE" d="M206.2,87.5c-0.4-0.3-0.5-0.3-0.3-1.2c0.1-0.7-0.2-1.5,0.7-2c-0.1,0.4-0.2,0.8-0.3,1.3
		c1.2,0.1,2.3,0.2,3.5,0.3c0,0.2,0,0.4,0,0.7c-0.7-0.1-1.4-0.1-2-0.2C206.3,86.2,206.3,86.2,206.2,87.5z"/>
	<path fill="#2196EE" d="M174,35.7c0.6,0.2,1.2,0.4,1.8,0.6c0,0.1,0,0.2-0.1,0.3c-0.5,0-1.4-0.8-1.4,0.4c0,0.4,0.6,0.8,0.8,1.3
		c-0.3-0.1-0.6-0.2-1.1-0.4c-0.1,0.6-0.2,1.2-0.3,1.9c-0.2-0.1-0.5-0.1-0.7-0.2C173.4,38.3,173.7,37,174,35.7z"/>
	<path fill="#2196EE" d="M161.7,34.9c-1.2,0.3-1.3,0.3-1.2,1.7c0,0.6,0.1,1.2,0.2,1.9c-0.2,0-0.5,0.1-0.8,0.1c0-0.9,0-1.7,0-2.5
		c0-1.2-0.1-1.2-1.6-0.9c0.3-0.3,0.4-0.5,0.6-0.6C159.7,34.4,161.5,34.5,161.7,34.9z"/>
	<path fill="#2196EE" d="M184.2,123.5c-0.3,0.1-0.6,0.3-0.8,0.3c-0.4-0.8-0.8-1.6-1.1-2.4c-0.3-0.7-0.7-0.8-1.3-0.3
		c-0.1,0.1-0.2,0.1-0.3,0.2c0-0.5,1.1-1.3,2.3-1.7c0.2-0.1,0.4,0,0.6,0.1c-1.2,0.5-1.2,0.5-0.6,1.7c0.2,0.4,0.3,0.7,0.5,1.1
		C183.7,122.9,184,123.2,184.2,123.5z"/>
	<path fill="#2196EE" d="M196.7,114.4c-0.1,0.1-0.3,0.4-0.4,0.4c-1-0.7-1.9-1.4-2.9-2.2c-0.1,0.1-0.4,0.4-0.6,0.8
		c-0.1,0-0.1,0-0.2-0.1c0.1-0.3,0.2-0.6,0.4-0.8c1.6-1.7,1.6-1.7,2.1-1.4c-1.1,0.7-1.1,0.8-0.2,1.7
		C195.4,113.3,196,113.8,196.7,114.4z"/>
	<path fill="#2196EE" d="M120.2,90.3c0.8,0.2,1.4,2.6,0.8,3.2c0-0.3-0.1-0.4-0.1-0.6c0-0.5-0.3-0.7-0.8-0.6
		c-0.9,0.2-1.8,0.5-2.8,0.7c-0.1-0.2-0.1-0.4-0.2-0.6c0.1-0.1,0.1-0.1,0.2-0.1c0.9-0.2,1.8-0.4,2.8-0.5c0.5-0.1,0.6-0.4,0.4-0.8
		C120.4,90.7,120.3,90.5,120.2,90.3z"/>
	<path fill="#2196EE" d="M149.7,36.9c0.3-0.8,2.7-1.4,3.2-0.9c-0.4,0.1-1,0.2-1,0.4c-0.1,0.4,0.1,0.9,0.1,1.3c0.1,0.3,0.1,0.7,0.3,1
		c0.1,0.3,0.3,0.6,0.5,1c-0.3,0.1-0.5,0.2-0.8,0.2c-0.2-0.8-0.4-1.5-0.5-2.2C151.1,36.4,151,36.4,149.7,36.9z"/>
	<path fill="#2196EE" d="M146.7,41.7c-0.2,0.1-0.4,0.2-0.7,0.2c-0.4-1.1-0.9-2.2-1.3-3.3c-0.5,0.2-0.8,0.4-1.2,0.6
		c0.2-0.8,2.5-1.7,3.1-1.2c-0.4,0.1-0.8,0.2-1.4,0.4C145.7,39.5,146.1,40.6,146.7,41.7z"/>
	<path fill="#2196EE" d="M123.3,99.3c-0.4-1.3-0.4-1.3-1.7-0.8c-0.7,0.3-1.4,0.6-2.1,0.9c-0.1-0.1-0.2-0.4-0.3-0.6
		c1.1-0.4,2.2-0.9,3.3-1.3c-0.2-0.4-0.4-0.8-0.6-1.2c0.6,0,1.1,0.8,1.5,2.4C123.4,98.9,123.3,99.1,123.3,99.3z"/>
	<path fill="#2196EE" d="M117.1,88c-0.1,0.1-0.2,0.2-0.2,0.4c0,0.3,0.1,0.6,0.1,0.9c0.3-0.1,0.7-0.1,0.9-0.2c0.3-0.3,0.4-0.8,0.8-1
		c0.3-0.2,0.8-0.5,1.1-0.3c0.3,0.1,0.6,0.6,0.7,1c0.1,0.2-0.2,0.5-0.4,0.7c-0.1-0.1-0.2-0.1-0.3-0.2c0.1-0.2,0.2-0.4,0.2-0.5
		c0-0.2-0.1-0.5-0.3-0.6c-0.1-0.1-0.5,0-0.6,0.1c-0.3,0.3-0.4,0.8-0.7,1c-0.4,0.3-1,0.6-1.3,0.4c-0.4-0.1-0.6-0.7-0.8-1.2
		c-0.1-0.2,0.3-0.5,0.5-0.8C117,87.9,117,88,117.1,88z"/>
	<path fill="#2196EE" d="M142.4,39.9c-0.2,0-0.4,0-0.6,0c-0.2,0.1-0.4,0.2-0.4,0.4s0.1,0.5,0.3,0.6c0.4,0.2,0.9,0.2,1.3,0.4
		c0.4,0.3,0.8,0.7,0.7,1.1c0,0.4-0.4,0.8-0.8,1.1c-0.2,0.1-0.6-0.1-1-0.1c0-0.1,0-0.2,0.1-0.3c0.1,0,0.3,0.1,0.4,0.1
		c0.3-0.1,0.6-0.2,0.9-0.3c-0.2-0.3-0.3-0.7-0.6-0.8c-0.3-0.2-0.9-0.2-1.2-0.4s-0.6-0.7-0.6-1c0.1-0.4,0.5-0.7,0.9-0.9
		C141.9,39.7,142.2,39.9,142.4,39.9C142.4,39.8,142.4,39.9,142.4,39.9z"/>
	<path fill="#2196EE" d="M159.8,128c-0.6,0.7-1.4,0.2-2.1,0.2c0.1-1.3,0.2-2.5,0.4-3.9c0.1,0,0.4,0,0.7,0.1
		c-0.1,0.8-0.2,1.6-0.3,2.3C158.3,128.1,158.4,128.2,159.8,128z"/>
	<path fill="#2196EE" d="M124.2,55c1,0.6,1.8,1.4,2.7,1.7c0.7,0.3,0.8-0.5,0.8-1c0.6,0.5,0.5,0.8-0.7,2c-1-0.7-2.1-1.4-3.2-2.2
		C124,55.4,124.1,55.1,124.2,55z"/>
	<path fill="#2196EE" d="M202.9,56.5c-0.7,0.4-1.4,0.8-2,1.2c-1.3,0.8-1.3,1-0.2,1.8c-0.7,0.2-1-0.1-1.5-1.5
		c1.1-0.7,2.1-1.3,3.2-2.1C202.6,56,202.8,56.3,202.9,56.5z"/>
	<path fill="#2196EE" d="M207.6,94.7c0.6,0.6,0.6,0.7-0.2,2.2c-1.2-0.4-2.4-0.8-3.7-1.2c0-0.2,0.1-0.4,0.2-0.7
		c0.8,0.3,1.6,0.6,2.4,0.8C207.4,96.2,207.6,96.1,207.6,94.7z"/>
	<path fill="#2196EE" d="M124.7,108.9c-0.1-0.1-0.2-0.3-0.4-0.5c1.1-0.8,2.1-1.5,3.2-2.3c0.1,0.1,0.3,0.4,0.4,0.5
		C126.9,107.4,125.8,108.1,124.7,108.9z"/>
	<path fill="#2196EE" d="M118.2,96.3c0-0.2-0.1-0.4-0.2-0.6c1.3-0.4,2.5-0.8,3.7-1.2c0.1,0.2,0.1,0.4,0.2,0.6
		C120.7,95.4,119.5,95.8,118.2,96.3z"/>
	<path fill="#2196EE" d="M165.1,128.4c0-1.3,0-2.6,0-3.9c0.2,0,0.4,0,0.6-0.1c0.1,1.3,0.1,2.6,0.2,3.9
		C165.8,128.4,165.5,128.4,165.1,128.4z"/>
	<path fill="#2196EE" d="M129.5,54.6c-0.1,0.1-0.3,0.3-0.5,0.5c-1-0.8-2-1.6-3.1-2.4c0.1-0.2,0.2-0.3,0.3-0.5
		C127.4,53,128.4,53.7,129.5,54.6z"/>
	<path fill="#2196EE" d="M124.1,100.2c0.1,0.2,0.2,0.3,0.3,0.5c-1.2,0.6-2.3,1.2-3.5,1.8c-0.1-0.1-0.2-0.4-0.3-0.6
		C121.7,101.3,122.8,100.8,124.1,100.2z"/>
	<path fill="#2196EE" d="M147.7,37.1c0.2-0.1,0.4-0.1,0.6-0.2c0.4,1.3,0.9,2.5,1.3,3.7c-0.1,0-0.4,0.1-0.6,0.2
		C148.5,39.5,148.1,38.3,147.7,37.1z"/>
	<path fill="#2196EE" d="M204.7,92.5c0-0.2,0.1-0.4,0.1-0.6c1.3,0.3,2.5,0.6,3.8,1c0,0.1-0.1,0.4-0.1,0.6
		C207.2,93.2,206,92.9,204.7,92.5z"/>
	<path fill="#2196EE" d="M137.6,121.1c0.7-1.1,1.4-2.2,2.1-3.3c0.1,0.1,0.3,0.2,0.5,0.3c-0.7,1.1-1.4,2.2-2.1,3.4
		C138,121.4,137.8,121.3,137.6,121.1z"/>
	<path fill="#2196EE" d="M208.8,75.4c-0.5,0.3-0.8,0.7-1,0.6c-0.2,0-0.6-0.4-0.6-0.6c0-0.3,0.4-0.6,0.6-0.7
		C208,74.8,208.3,75.1,208.8,75.4z"/>
	<path fill="#2196EE" d="M119.1,75.5c-0.5,0.3-0.8,0.6-1,0.6s-0.6-0.4-0.6-0.6c0-0.3,0.3-0.6,0.6-0.7
		C118.3,74.8,118.6,75.1,119.1,75.5z"/>
	<path fill="#2196EE" d="M156.3,108c-1.7,1-3.2,1.8-4.6,2.6c-1.6,0.9-2,0.8-3.4-0.6c0.4-0.2,0.7-0.5,1.1-0.7c0.3-0.2,0.7-0.4,1-0.6
		c-1-1.1-1.4-1.2-2.6-0.5c-0.8,0.5-1.5,1-2.5,0.2c-1.2-0.9-1.2-2.5,0-3.3c1.7-1,1.8-1.2,1.4-2.7c-0.4,0.2-0.7,0.4-1,0.5
		c-0.3,0.2-0.7,0.4-1,0.6c-0.5-1.7-0.2-2.5,1.2-3.4c1.4-0.8,2.9-1.7,4.5-2.7c-0.9-0.5-1.5-1-2.3-1.3c-0.8-0.4-1.1-0.9-1-1.8
		c0.1-1.7,0-3.4,0-5c0-0.6,0.2-1,0.7-1.3c1.7-0.9,3.3-2,5-2.9c0.3-0.2,0.8-0.1,1.1,0c0.8,0.4,1.6,0.9,2.5,1.4c0-0.4,0.1-0.7,0.1-1
		c0-1.4,0.1-2.7,0-4.1c-0.1-0.9,0.2-1.5,1.1-1.8c0.4-0.1,0.7-0.4,1.2-0.6c0.1,0.9,0.1,1.7,0.1,2.5c1.3-0.2,1.6-0.6,1.6-1.7
		c0-0.2,0-0.4,0-0.5c0-1.2,0.7-2.1,1.9-2.3c0.6-0.1,2.2,1,2.2,1.7c0,0.4,0,0.8,0,1.2c0,1.2,0.2,1.5,1.6,1.8c0-0.8,0.1-1.6,0.1-2.4
		c1.9,0.5,2.3,1,2.3,2.8c0,1.5,0,3,0,4.7c0.8-0.4,1.4-0.7,1.9-1.1c0.8-0.7,1.6-0.6,2.4,0c1.4,0.9,2.8,1.6,4.2,2.5
		c0.3,0.2,0.7,0.7,0.7,1.1c0.1,1.9,0.1,3.8,0,5.7c0,0.4-0.3,0.8-0.6,1.1c-0.8,0.5-1.6,1-2.5,1.6c0.5,0.4,0.9,0.6,1.3,0.9
		c1.2,0.7,2.3,1.4,3.5,2c0.8,0.4,1.3,1,1.1,1.9c-0.1,0.4,0,0.8,0,1.3c-0.9-0.5-1.6-0.8-2.3-1.2c-0.4,1.4-0.3,1.7,0.8,2.3
		c0.2,0.1,0.4,0.3,0.6,0.4c0.9,0.5,1.4,1.5,0.9,2.4c-0.4,0.6-1.2,1-2,1.3c-0.3,0.1-0.9-0.4-1.4-0.6c-1.3-0.7-1.4-0.7-2.7,0.4
		c0.7,0.4,1.4,0.9,2.3,1.4c-0.7,0.4-1.3,0.8-2,1.1c-0.2,0.1-0.7,0-0.9-0.2c-1.4-0.8-2.9-1.6-4.3-2.4c-0.3-0.2-0.6-0.3-1.1-0.5
		c0,0.9,0.1,1.7,0,2.4c0,0.4-0.3,0.9-0.6,1.1c-1.6,1-3.2,1.9-4.8,2.9c-0.5,0.3-0.9,0.3-1.4,0c-1.5-0.9-3-1.8-4.6-2.7
		c-0.6-0.3-0.9-0.8-0.8-1.5C156.3,109.6,156.3,109,156.3,108z M162.6,77.9c0,0.4,0,0.7,0,1.1c0,2,0,4,0,5.9c0,2.8-0.4,1.9,1.9,3.3
		c1,0.6,2,1.2,3.1,1.8c0.1-0.3,0.1-0.4,0.1-0.5c0-2.7,0-5.5,0-8.2c0-0.7-0.4-0.9-1.2-1c0,0.8,0,1.6,0,2.4c-2.2-0.7-2.7-1.2-2.7-3.3
		C164,78.5,163.6,78.1,162.6,77.9z M157,90.1c1.7-1,3.1-1.8,4.5-2.6c0.5-0.3,0.7-0.7,0.7-1.2c0-2.5,0-5,0-7.5c0-0.3,0-0.6,0-0.9
		c-1.2,0.5-1.2,0.5-1.2,1.5c0,0.7,0.1,1.5-0.3,1.9c-0.6,0.7-1.6,1-2.5,1.6c-0.1-1-0.1-1.7-0.2-2.5c-0.9,0.1-1,0.6-1,1.2
		c0,2.2,0,4.4,0,6.6C157,88.7,157,89.2,157,90.1z M149.3,110c0.6,0.7,1.2,0.8,1.8,0.3c1.8-1.1,3.7-2.2,5.6-3.3
		c0.4-0.3,0.9-0.5,1.5-0.9c-1.8-1-3.4-2-5-2.9c-0.1-0.1-0.5,0-0.7,0.2c-2.3,1.3-4.5,2.6-6.8,3.9c-0.1,0.1-0.3,0.2-0.4,0.3
		c0.8,0.7,0.8,0.7,1.6,0.3c0.4-0.3,0.9-0.5,1.3-0.8c0.2-0.1,0.5-0.2,0.7-0.1c0.9,0.5,1.7,1,2.7,1.5
		C150.8,109.1,150.1,109.5,149.3,110z M179.5,107.6c-2-1.1-3.9-2.1-5.7-3.4c-1.5-1.1-2.7-1.1-4.1,0c-0.9,0.7-1.9,1.2-3,1.8
		c0.3,0.2,0.4,0.4,0.5,0.4c2.2,1.3,4.5,2.6,6.7,3.9c0.7,0.4,1.1,0.1,1.6-0.4c-0.8-0.5-1.5-1-2.3-1.5c0.3-0.2,0.6-0.3,0.8-0.5
		c1.3-1.1,2.5-1.2,3.9-0.1C178.4,108.5,178.9,108.3,179.5,107.6z M177.3,101.3c0.9,0.5,1.6,0.9,2.4,1.3c0.3-0.8,0.1-1.2-0.5-1.6
		c-2.2-1.3-4.4-2.6-6.6-3.8c-0.2-0.1-0.4-0.1-0.6-0.2c0,1.7,0,3.3,0,4.9c0,0.7,0.2,1.1,0.8,1.4c2.1,1.2,4.2,2.4,6.2,3.6
		c0.2,0.1,0.5,0.2,0.8,0.4c0.3-0.9,0.1-1.4-0.7-1.8c-0.4-0.2-0.9-0.4-1.3-0.7c-0.2-0.2-0.4-0.5-0.5-0.7
		C177.3,103.2,177.3,102.3,177.3,101.3z M145.1,107.3c2.3-1.4,4.6-2.6,6.8-3.9c0.2-0.1,0.4-0.2,0.5-0.3c0.2-0.2,0.4-0.4,0.4-0.6
		c0-1.8,0-3.6,0-5.5c-0.2,0-0.3,0-0.3,0.1c-2.4,1.4-4.7,2.7-7.1,4.1c-0.3,0.2-0.4,0.7-0.6,1.1c0.1,0.1,0.2,0.1,0.3,0.2
		c0.7-0.4,1.5-0.8,2.3-1.2c0,0.4,0,0.6,0.1,0.9c0.3,1.7-0.2,2.9-1.9,3.5C144.8,105.9,144.8,106.5,145.1,107.3z M171.9,85.8
		c0,2.1,0,3.9,0,5.7c0,0.2,0.3,0.5,0.5,0.7c1.3,0.8,2.7,1.6,4,2.4c0.2,0.1,0.4,0.1,0.8,0.2c0-1.9,0-3.7,0-5.4c0-0.2-0.2-0.5-0.3-0.6
		C175.4,87.8,173.8,86.9,171.9,85.8z M152.8,85.8c-1.8,1.1-3.4,2-5,3c-0.2,0.1-0.3,0.6-0.4,1c0,1.4,0,2.7,0,4.1c0,0.3,0.1,0.6,0.1,1
		c1.7-1,3.3-1.9,4.8-2.8c0.2-0.1,0.4-0.4,0.4-0.7C152.8,89.6,152.8,87.9,152.8,85.8z M157.2,111.1c0.8,0.5,1.4,0.9,2,1.2
		c1,0.6,2.1,1.6,3.1,1.6s2.1-1,3.1-1.6c0.6-0.4,1.3-0.8,2.1-1.2c-1.2-0.7-2.4-1.3-3.4-2c-1.2-0.9-2.3-1-3.5,0
		C159.7,109.8,158.5,110.4,157.2,111.1z M177.1,95.3c-1.8-1-3.4-2-5.1-2.9c-0.2-0.1-0.6,0-0.9,0.2c-1.3,0.7-2.5,1.4-3.8,2.2
		c-0.5,0.3-0.9,0.6-1.6,1c0.7,0.4,1.2,0.6,1.6,1c1.1,0.9,2.2,0.9,3.3,0c0.7-0.6,1.4-0.5,2.1,0c0.3,0.2,0.9,0.5,1.1,0.4
		C174.9,96.7,175.9,96,177.1,95.3z M147.7,95.3c1.1,0.6,1.9,1.2,2.7,1.6c0.3,0.2,1,0.2,1.2,0c1-0.8,1.9-0.7,2.9,0
		c0.3,0.2,0.6,0.4,0.9,0.5c0.2,0.1,0.5,0.1,0.7,0.1c1-0.5,1.9-1.1,3-1.7c-2.1-1.2-4-2.3-5.9-3.4c-0.1-0.1-0.4,0-0.5,0.1
		C151.2,93.4,149.6,94.3,147.7,95.3z M167.8,110.7c0-1.1,0-2,0-2.9c0-0.2-0.3-0.5-0.5-0.6c-1.5-0.5-1.7-1.6-1.5-3c0-0.4,0-0.8,0-1.2
		c0-0.2-0.1-0.6-0.3-0.7c-0.9-0.5-1.8-1-2.7-1.6c-0.1,0.2-0.1,0.3-0.1,0.3c0,2,0,4,0,6c0,0.2,0.1,0.5,0.2,0.6
		C164.4,108.7,166,109.6,167.8,110.7z M153.3,85.7c0,2.1,0,4,0,5.9c0,0.2,0.2,0.4,0.4,0.5c1.7,1,3.4,2,5.1,3
		c0.1,0.1,0.3,0.1,0.4,0.1c0.5-2.4,0.3-2.8-1.6-3.9c-0.9-0.5-1.3-1.1-1.2-2.1c0.1-0.5,0.1-1.3-0.2-1.6
		C155.4,86.8,154.4,86.4,153.3,85.7z M162.2,100.8c-0.4,0.2-0.6,0.2-0.8,0.3c-2.3,1.2-2.4,1.2-2.3,3.8c0,1-0.3,1.5-1.1,1.9
		c-0.3,0.2-0.8,0.5-0.8,0.8c-0.1,0.9,0,1.8,0,2.9c1.8-1,3.3-1.9,4.9-2.8c0.1-0.1,0.3-0.3,0.3-0.5
		C162.2,105.2,162.2,103.1,162.2,100.8z M171.4,85.8c-0.7,0.4-1.2,0.7-1.7,0.9c-1.1,0.5-1.6,1.3-1.4,2.5c0.2,1-0.2,1.6-1.2,2
		c-0.2,0.1-0.4,0.2-0.5,0.3c-1.2,0.8-1.6,2.2-0.9,3.7c1.8-1.1,3.6-2.1,5.4-3.2c0.2-0.1,0.4-0.3,0.4-0.5
		C171.4,89.7,171.4,87.8,171.4,85.8z M156.4,100.6c0.6,0.4,1.1,0.6,1.5,0.9c0.6,0.5,1.2,0.5,1.9,0c0.6-0.4,1.3-0.7,1.9-1.1
		c0.5-0.4,1-0.3,1.5,0c0.7,0.5,1.5,0.9,2.2,1.3c0.2,0.1,0.6,0.3,0.7,0.2c0.7-0.4,1.4-0.8,2.3-1.3c-1.2-0.7-2.4-1.2-3.3-1.9
		c-1.9-1.6-3.7-1.5-5.6,0C158.7,99.5,157.6,99.9,156.4,100.6z M158.6,106c0-1.3,0-2.3,0-3.2c0-0.2-0.2-0.4-0.4-0.5
		c-0.3-0.2-0.6-0.4-0.9-0.5c-1.3-0.5-1.8-1.4-1.6-2.7c0-0.3-0.1-0.8-0.3-1c-0.6-0.5-1.3-0.8-2.1-1.3c0,2.1,0,4,0,5.8
		c0,0.1,0.2,0.3,0.3,0.4C155.2,104,156.8,104.9,158.6,106z M171.4,97c-2,0.6-2.4,1-2.3,2.8c0,0.8-0.2,1.3-0.9,1.6
		c-0.5,0.2-0.9,0.5-1.3,0.8c-0.2,0.1-0.6,0.3-0.6,0.5c-0.1,1,0,2.1,0,3.3c1.8-1.1,3.3-2,4.9-2.9c0.2-0.1,0.3-0.3,0.3-0.5
		C171.4,100.7,171.4,98.8,171.4,97z M162.6,91c0,1.5,0,3,0,4.4c0,0.3-0.1,0.6,0,0.9s0.4,0.6,0.7,0.8c1,0.6,2,1.2,3,1.8
		c0.7,0.4,1.4,0.8,2.2,1.3c0.5-1.5,0.3-2.1-0.9-2.8c-0.4-0.2-0.8-0.5-1.3-0.7c-1-0.4-1.5-1.1-1.3-2.2c0.4-1.8-0.5-2.8-2.1-3.4
		C162.9,91.1,162.8,91.1,162.6,91z M167.6,90.5c-1.4-0.8-2.6-1.4-3.8-2.2c-1-0.7-1.9-0.7-2.9,0c-1.1,0.8-2.3,1.4-3.7,2.2
		c0.7,0.4,1.2,0.8,1.8,1.1c0.3,0.1,0.9,0.2,1.1,0c1.5-1.2,2.9-1.3,4.4,0c0.2,0.2,0.7,0.3,0.9,0.2C166.1,91.4,166.7,91,167.6,90.5z
		 M162.1,91.1c-2.2,0.7-2.6,1-2.4,3c0.2,1.9-1,2.4-2.2,3.1c-1.6,0.9-1.7,1.1-1.2,3c1.8-1.1,3.6-2.1,5.4-3.2c0.2-0.1,0.4-0.4,0.4-0.6
		C162.2,94.6,162.1,92.9,162.1,91.1z"/>
	<path fill="#2196EE" d="M146.4,62.1h0.1c0,1.8,0,3.5,0,5.3c0,0.4,0.3,0.9,0.7,1.1c2.2,1.1,5.5-0.2,6.1-2.6c1.2-4.3-1.3-7.8-6-7.5
		c-0.6,0-0.9,0.3-0.9,1C146.4,60.2,146.4,61.2,146.4,62.1z"/>
	<path fill="#2196EE" d="M158.1,64"/>
	<path fill="#2196EE" d="M159.7,63.9"/>
	<path fill="#2196EE" d="M190.6,116.5c-0.2-0.5-0.3-0.8-0.4-1.2c0.1-0.1,0.1-0.1,0.2-0.2c0.4,0.2,0.7,0.4,1.2,0.7
		C191.2,116.1,190.9,116.3,190.6,116.5z"/>
	<path fill="#2196EE" d="M125.5,59.9c-0.5-0.1-1-0.1-1.6-0.2"/>
	<path fill="#2196EE" d="M146.4,62.1c0-0.9,0-1.9,0-2.8c0-0.6,0.3-0.9,0.9-1c4.7-0.3,7.2,3.2,6,7.5c-0.6,2.4-4,3.7-6.1,2.6
		c-0.3-0.2-0.6-0.7-0.7-1.1C146.4,65.5,146.5,63.8,146.4,62.1C146.5,62.1,146.4,62.1,146.4,62.1z"/>
</g>
</svg>
