<?xml version="1.0" encoding="utf-8"?>
<!-- Generator: Adobe Illustrator 18.0.0, SVG Export Plug-In . SVG Version: 6.00 Build 0)  -->
<!DOCTYPE svg PUBLIC "-//W3C//DTD SVG 1.1//EN" "http://www.w3.org/Graphics/SVG/1.1/DTD/svg11.dtd">
<svg version="1.1" id="Слой_1" xmlns="http://www.w3.org/2000/svg" xmlns:xlink="http://www.w3.org/1999/xlink" x="0px" y="0px"
	 viewBox="0 0 210 297" enable-background="new 0 0 210 297" xml:space="preserve">
<path d="M79.6,4.8c4.2,0.3,8.4,0.5,12.6,0.9c1.5,0.2,4.1-1.2,4.2,2c0,3.2-2.5,2.5-4.4,2.5c-5.3,0.1-10.6,0-16,0.5
	c6.3,0.4,12.7,0.9,19,1.3c-0.1,3.3-1,4.2-4,4.2c-5.3,0-10.6,0-16,0.5c5.7,0.4,11.5,0.8,17.4,1.2c-1.2,2.7-2.7,4.1-5.6,4
	c-5.1-0.2-10.2,0-15.3,0.5c4.9,0.4,9.8,0.8,14.8,1.2c-3.3,4.1-11.9,5.5-16,2.6c-2.7-2-3.5-5.1-3.3-8.2c0.7-9.4,9.5-18.8,19.3-17.8
	c2.6,0.3,5.2,0,7.7,0.1c0.7,0,1.3,0.5,1.9,0.7c-0.3,0.7-0.4,1.6-0.9,1.9c-1.2,0.7-2.5,1.3-3.8,1.4c-3.9,0.2-7.8,0.1-11.7,0.1
	C79.6,4.4,79.6,4.6,79.6,4.8z"/>
<path d="M15.9,9.9c0-2.4,0-4.3,0-6.3c0-1.7,0.3-2.9,2.4-2.9c2,0,2.2,1.2,2.2,2.8c0,7.2,0,14.3,0,21.5c0,2.7-1.5,3.6-4.1,2.6
	c-0.7-0.2-1.5-0.4-2.2-0.2c-4.7,1.7-9.1,0.6-11.9-3c-2.6-3.4-2.7-8.3-0.2-11.6c2.9-3.9,7.2-5.1,12-3.3C14.5,9.5,14.9,9.6,15.9,9.9z
	 M15.8,18.3c-0.1-3.1-2.5-5.5-5.6-5.5c-3.1,0-5.4,2.5-5.4,5.7c0,3.2,2.4,5.5,5.5,5.5C13.5,23.9,15.9,21.4,15.8,18.3z"/>
<path d="M42,18.3c0,2.2,0,4.3,0,6.5c0,2.8-1,3.5-3.7,2.9c-1.1-0.2-2.4-0.3-3.5,0c-4.1,1.2-8.4-0.1-11-3.4c-2.6-3.4-2.7-8-0.3-11.5
	c2.4-3.5,6.7-5.1,10.8-3.9c1.4,0.4,2.6,0.8,4.2,0c2.1-1.1,3.5,0,3.5,2.4C42.1,13.7,42,16,42,18.3z M31.9,12.8
	c-3.1,0-5.5,2.5-5.4,5.6c0.1,3.2,2.4,5.5,5.5,5.5c3.1,0,5.4-2.4,5.4-5.6C37.4,15.2,35,12.8,31.9,12.8z"/>
<path d="M63.5,18.3c0,2.2,0,4.5,0,6.7c0,2.5-0.9,3.1-3.5,2.7c-1.2-0.2-2.6-0.3-3.7,0c-4.1,1.2-8.4-0.1-10.9-3.4
	c-2.6-3.5-2.7-7.9-0.3-11.4c2.3-3.4,6.7-5.1,10.7-4c1.4,0.4,2.6,0.9,4.2,0c2.1-1.1,3.5,0,3.5,2.4C63.6,13.7,63.5,16,63.5,18.3z
	 M58.9,18.4c0-3.2-2.3-5.6-5.4-5.6c-3.1,0-5.5,2.4-5.5,5.5c0,3.1,2.4,5.6,5.5,5.6C56.6,23.9,58.9,21.6,58.9,18.4z"/>
<path d="M108.4,16.2c-3.2,0-6.3,0.1-9.5-0.1c-0.8,0-2.2-0.9-2.2-1.3c0-1.4,0-3.2,2.2-3.2c3.2,0,6.5,0,9.7,0c2.4,0,4.8-0.1,7.2,0.1
	c1.1,0.1,2.3,0.5,3.2,1.1c0.7,0.5,0.8,1.7,1.2,2.6c-0.8,0.3-1.6,0.8-2.4,0.8C114.7,16.3,111.6,16.2,108.4,16.2z"/>
<path d="M88.6,27.6c2.1-3.2,4.5-4.8,8.1-4.4c3,0.3,6.2,0,9.2,0.1c3,0.1,4.4,1.5,4.5,4.3C103.3,27.6,96.1,27.6,88.6,27.6z"/>
<path d="M93.9,21.8c1.3-4.1,1.5-4.3,5.1-4.3c4.2,0,8.5,0,12.7,0c1,0,2.2,0.2,3,0.7c0.8,0.5,1.1,1.7,1.6,2.6
	c-0.9,0.3-1.7,0.9-2.6,0.9C107.3,21.9,100.7,21.8,93.9,21.8z"/>
<path d="M107.2,10.2c-2.5,0-5,0-7.5,0c-1.8,0-2.3-0.8-2.3-2.5c0-1.7,0.8-2.2,2.3-2.2c4.1,0,8.2,0,12.2,0c0.9,0,2,0.2,2.6,0.7
	c0.8,0.8,1.2,2,1.8,3c-0.9,0.3-1.8,0.8-2.7,0.8C111.5,10.3,109.3,10.3,107.2,10.2C107.2,10.3,107.2,10.3,107.2,10.2z"/>
<path fill="#FFFFFF" d="M80,64.2c0-2.6,0-5.2,0-7.7c0-1.7,0.6-2.4,2.3-2.4c4.6,0.1,9.2,0.1,13.7,0c1.7,0,2.4,0.7,2.4,2.4
	c0,5.2,0,10.5,0,15.7c0,1.6-0.6,2.3-2.2,2.3c-4.7,0-9.3,0-14,0c-1.6,0-2.3-0.7-2.2-2.3C80,69.6,80,66.9,80,64.2z"/>
<path fill="#FFFFFF" d="M98.4,34.1c0,2.3,0,4.7,0,7c0,1.5-0.5,2.3-2.1,2.3c-4.7,0-9.5,0-14.2,0c-1.5,0-2.1-0.7-2.1-2.1
	c0-4.9,0-9.8,0-14.7c0-1.5,0.7-2.1,2.1-2.1c4.7,0,9.5,0,14.2,0c1.5,0,2.1,0.7,2.1,2.2C98.4,29.2,98.4,31.6,98.4,34.1z"/>
<path fill="#FFFFFF" d="M115.5,38.2c-1.5-0.6-2.3-0.9-3.1-1.2c0-0.3,0-0.5,0.1-0.8c1,0.1,2.8,0,2.9,0.2c0.3,1.9,0.5,3.9,0.3,5.8
	c0,0.4-1.8,0.6-2.8,0.9c-0.1-0.2-0.1-0.4-0.2-0.7c0.7-0.3,1.5-0.7,2.6-1.3c-1.3-0.6-2.1-0.9-3.3-1.4C113.2,39.2,114,38.9,115.5,38.2
	z"/>
<path fill="#FFFFFF" d="M116.7,67.3c-1.2,0.9-2,1.5-2.8,2.1c-0.6-0.9-1.6-1.7-1.8-2.7c-0.1-0.6,1.4-1.9,1.9-1.8
	C114.9,65.1,115.6,66.2,116.7,67.3z"/>
<path fill="#FFFFFF" d="M117,33c-1.5,1-2.2,1.7-3,2c-1.4,0.4-2.1-0.7-1.8-1.9c0.2-0.9,1.1-1.9,1.9-2.3C114.5,30.6,115.5,31.8,117,33
	z"/>
<path fill="#FFFFFF" d="M117.9,24.8c-3.1,1.8-3.1,2.7-0.1,4.5c-2,0-3.6,0-5.1,0c0.6-0.7,1.6-1.4,1.6-2.2c0.1-0.7-1-1.4-1.6-2.2
	C114.2,24.8,115.7,24.8,117.9,24.8z"/>
<path fill="#FFFFFF" d="M115.5,46c0.1,1.3,0.6,2.7,0.2,3.8c-0.2,0.7-1.7,1-2.7,1.5c-0.1-0.3-0.3-0.5-0.4-0.8
	c0.7-0.3,1.4-0.7,2.7-1.3c-1.3-0.6-2.1-1-3.1-1.4C113.5,47.1,114.5,46.6,115.5,46C115.5,46,115.5,46,115.5,46z"/>
<path fill="#FFFFFF" d="M111.8,55.4c0.5-1,0.9-2.2,1.6-3c0.2-0.2,1.9,0.2,2,0.6c0.3,0.9,0.1,2.1,0.1,3.1c-0.3,0-0.7,0-1,0.1
	c-0.3-0.9-0.6-1.7-0.9-2.6c-0.2,0-0.4-0.1-0.6-0.1c-0.2,0.7-0.3,1.4-0.5,2.2C112.3,55.6,112,55.5,111.8,55.4z"/>
<path fill="#FFFFFF" d="M112.7,73.9c0.8-0.3,1.5-0.7,2.9-1.3c-1.4-0.7-2.2-1.1-3-1.5c0-0.2,0.1-0.4,0.1-0.6c0.9,0.2,2.1,0,2.7,0.6
	c0.5,0.4,0.6,2,0.2,2.5c-0.6,0.7-1.8,0.8-2.8,1.1C112.8,74.4,112.7,74.1,112.7,73.9z"/>
<path fill="#FFFFFF" d="M113.1,62.6c1-0.8,1.9-2.5,2.9-0.1c-1.2,0.3-2.3,0.7-3.5,0.9c-0.1,0-0.4-1.2-0.2-2.1
	C112.5,61.7,112.7,62,113.1,62.6z"/>
<path fill="#FFFFFF" d="M115.5,46c-1-0.3-2.1-0.7-3.1-1c0-0.2,0-0.5,0-0.7c1,0,1.9-0.1,2.8,0.1C115.4,44.4,115.4,45.4,115.5,46
	C115.5,46,115.5,46,115.5,46z"/>
<g>
	<path d="M32.6,167.1c4,3,7.8,5.8,11.5,8.7c0.4,0.3,0.8,1.1,0.8,1.6c0,10.5,0,21,0,31.5c0,0.2-0.1,0.4-0.2,0.7c-4,0-8,0-12.1,0
		C32.6,195.5,32.6,181.5,32.6,167.1z"/>
	<path d="M47.8,209.6c0-7.6,0-15.2,0-23.2c2.6,2,4.9,4.1,7.6,5.6c4,2.3,5.5,5.3,4.9,9.8c-0.3,2.5-0.1,5-0.1,7.8
		C56,209.6,52,209.6,47.8,209.6z"/>
	<path d="M80.8,200.5c-0.8,2.5-1.6,5.1-2.6,7.5c-0.3,0.7-1.3,1.4-2,1.4c-0.6,0.1-1.6-0.7-1.8-1.3c-1.5-3.9-2.9-7.9-4.4-12.1
		c1.1,0,1.9,0,2.8,0c1,3,2.1,6.1,3.4,9.9c0.6-1.5,1-2.5,1.3-3.4c0.6-1.8,1.1-3.6,1.8-5.3c0.2-0.6,1.1-1.3,1.6-1.2
		c0.7,0,1.6,0.6,1.9,1.2c1,2.7,1.9,5.4,3.3,8.1c0.8-2.4,1.6-4.9,2.5-7.3c0.8-2.3,0.8-2.3,3.5-1.9c-1.5,4.2-3,8.4-4.6,12.5
		c-0.2,0.5-1.3,0.9-1.9,0.9c-0.5,0-1.3-0.6-1.6-1.1c-0.8-2.1-1.4-4.2-2.1-6.3c-0.2-0.5-0.4-1.1-0.6-1.6
		C81.1,200.5,80.9,200.5,80.8,200.5z"/>
	<path d="M142.6,186.9c-1.3-1.9-2.5-3.6-3.7-5.3c-0.2,0-0.3,0.1-0.5,0.1c0,2.8,0,5.5,0,8.4c-0.9,0.1-1.5,0.1-2.4,0.1
		c0-4.5,0-9,0-13.5c4.6-1.1,4.1,3.8,6.8,5.4c0.7-1.1,1.7-2.3,2.3-3.6c0.9-1.9,2.2-2.4,4.3-1.8c0,4.4,0,8.8,0,13.3
		c-0.7,0-1.4,0-2.3,0c0-2.8,0-5.6,0-8.4c-0.2-0.1-0.4-0.2-0.6-0.2C145.2,183.3,144,185,142.6,186.9z"/>
	<path d="M181.5,176.7c1.1,0,1.8,0,2.7,0c0,4.5,0,8.9,0,13.3c-1.6,0.5-2.6,0.2-3.6-1.2c-1.6-2.4-3.5-4.6-5.8-6.8c0,2.7,0,5.3,0,8.1
		c-1,0.1-1.7,0.1-2.5,0.1c0-4.5,0-9,0-13.4c1.6-0.6,2.6,0,3.6,1.3c1.6,2.4,3.4,4.6,5.6,6.7C181.5,182.3,181.5,179.6,181.5,176.7z"/>
	<path d="M127.4,190.2c0-1.8,0-3.5,0-5.6c-1.8,0-3.4-0.1-5,0.1c-0.4,0-1,0.8-1,1.3c-0.1,1.3,0,2.6,0,4.1c-1,0-1.8,0-2.7,0
		c0-4.4,0-8.8,0-13.4c0.8,0,1.6-0.1,2.6-0.1c0,1.8,0,3.5,0,5.3c2.1,0,3.9,0,6,0c0-1.7,0-3.4,0-5.2c1.1,0,1.8,0,2.8,0
		c0,4.4,0,8.8,0,13.4C129.3,190.2,128.5,190.2,127.4,190.2z"/>
	<path d="M195.6,195.7c2.6,0.2,5.1,0.1,7.5,0.6c3.5,0.8,5.5,3.9,5,7.1c-0.5,3.7-3.1,6-6.8,6.1c-1.8,0.1-3.7,0-5.7,0
		C195.6,205,195.6,200.6,195.6,195.7z M198,202.7C198,202.7,198,202.7,198,202.7c0,1-0.1,2.1,0.1,3.1c0.1,0.5,0.6,1.4,1,1.4
		c2,0.3,3.9,0.1,5.3-1.6c1.3-1.6,1.3-3.4,0.3-5.2c-1-1.7-3.4-2.6-5.5-2c-1.9,0.5-0.8,2.2-1.1,3.4C197.9,202.1,198,202.4,198,202.7z"
		/>
	<path d="M196.9,182.2c-1.4-2.6-1.3-4.1,0.3-5.2c1.6-1.1,3.1-0.9,4.5,0.4c1.4,1.4,1.2,3-0.7,5.4c0.2,0.3,0.4,0.7,0.7,1
		c0.3,0.3,0.6,0.6,1,1.1c0.6-0.4,1.1-0.8,1.8-1.3c0.4,0.5,0.8,1,1.4,1.7c-3,2.3,0.4,3.3,1.3,5.5c-1.8-0.5-3.1-0.8-4.8-1.3
		c-3.3,1.6-5.7,1.5-7.2-0.7C193.8,186.7,194.3,184.6,196.9,182.2z M198.4,183.5c-0.7,1.3-1.4,2.2-1.6,3.1c-0.1,0.4,0.8,1.5,1.2,1.6
		c1,0.1,2.1-0.3,3.7-0.6C200.4,186,199.6,185,198.4,183.5z"/>
	<path d="M123.2,196.1c-1.9,2-3.5,3.7-5.3,5.7c1.9,2.6,3.7,5,5.6,7.7c-4.9,1.1-4.8-4.1-7.6-5.4c-2.6,1-1.3,3.6-1.9,5.5
		c-0.8,0-1.5,0-2.4,0c0-4.4,0-8.9,0-13.4c0.8,0,1.5,0,2.5,0c0,1.8,0,3.6,0,5.6C117.6,200.4,118.3,195.1,123.2,196.1z"/>
	<path d="M166,209.6c0-4.7,0-9,0-13.5c3.2,0,6.5,0,9.8,0c0.5,1.5,0.2,2.3-1.6,2.2c-1.3-0.1-2.7,0-4,0c-1.1-0.1-1.6,0.4-1.6,1.5
		c0,1.1,0.3,1.9,1.7,1.8c1.3,0,2.5-0.1,3.8,0.1c0.4,0,0.7,0.6,1.1,1c-0.4,0.4-0.7,1-1.1,1c-1.3,0.1-2.5,0.1-3.8,0.1
		c-1.3,0-1.7,0.7-1.7,1.8c0,1.2,0.5,1.8,1.7,1.8c1.6,0,3.1-0.1,4.7,0.1c0.5,0,0.9,0.7,1.3,1.1c-0.5,0.4-0.9,1-1.4,1
		C172,209.6,169.1,209.6,166,209.6z"/>
	<path d="M136.7,203.8c-1.3,0-2.5,0-3.8,0c-1.3,0-2.4-0.1-2.4,1.8c0,1.7,1,1.9,2.3,1.9c1.3,0,2.5-0.1,3.8,0c0.6,0.1,1.1,0.7,1.6,1
		c-0.5,0.4-1,1-1.5,1.1c-2.8,0.1-5.6,0.1-8.7,0.1c0-4.6,0-9,0-13.5c3.2,0,6.5,0,9.8,0c0,0.7,0,1.4,0,2.2c-2.3,0-4.6,0-6.8,0
		c-0.9,3-0.6,3.4,2.2,3.4c0.8,0,1.7-0.2,2.4,0.1c0.6,0.2,1.1,0.8,1.7,1.3C137.1,203.3,136.9,203.5,136.7,203.8z"/>
	<path d="M27.5,209.5c0-3.9,0-7.8,0-11.7c0-8.4,0-16.8,0-25.2c0-1.6,0.4-2.7,2.2-3.3c0.1,0.5,0.1,1,0.1,1.5c0,12.3,0,24.6,0,36.9
		C29.8,209,29.8,210.3,27.5,209.5z"/>
	<path d="M153.7,190c1.8-4.2,3.5-8.3,5.3-12.4c0.2-0.5,1.1-1,1.7-0.9c0.7,0,1.6,0.5,1.9,1c1.8,4,3.6,8.1,5.3,12.3
		c-1.8,0.5-2.9,0.3-3.5-1.5c-0.2-0.6-1.2-1.2-1.9-1.3c-1.1-0.2-2.3-0.2-3.3,0c-0.8,0.2-1.8,0.8-2.1,1.4
		C156.4,190.2,155.5,190.7,153.7,190z M160.7,179.6c-0.8,2-1.4,3.4-2,5c1.5,0,2.7,0,4.1,0C162.1,182.9,161.6,181.6,160.7,179.6z"/>
	<path d="M87,176.7c1.2,0,2,0,3,0c0,2.5,0,4.9,0,7.4c0,2.6,1.1,4,3.1,4.1c2.1,0,3.4-1.4,3.4-4.1c0-2.4,0-4.8,0-7.3
		c0.9-0.1,1.6-0.1,2.3-0.2c0,3.5,0.3,6.9-0.1,10.3c-0.2,2.4-2.5,3.6-5.4,3.6c-3.1,0-5.3-1.1-5.7-3.6C87.2,183.6,87.2,180.3,87,176.7
		z"/>
	<path d="M19.7,209.6c-0.8,0-1.5,0-2.4,0c0-0.8,0-1.5,0-2.3c0-9.1,0-18.2,0-27.2c0-1.8,0.7-2.7,2.4-3.4
		C19.7,187.8,19.7,198.6,19.7,209.6z"/>
	<path d="M107.1,209.3c-1.7,0.5-2.7,0.4-3.4-1.3c-0.3-0.7-1.4-1.3-2.2-1.5c-1-0.3-2.1-0.2-3.1,0c-0.7,0.2-1.7,0.7-2,1.3
		c-0.6,1.7-1.6,2.2-3.4,1.5c1.8-4.2,3.5-8.5,5.4-12.7c0.5-1.1,2.8-1.1,3.3,0C103.6,200.8,105.3,205,107.1,209.3z M100.3,199.6
		c-0.2,0-0.4,0-0.6,0c-0.5,1.4-1.1,2.8-1.7,4.4c1.5,0,2.6,0,4.1,0C101.5,202.3,100.9,200.9,100.3,199.6z"/>
	<path d="M113.4,177.9c-0.5,0.7-0.9,1.3-1.2,1.7c-1.4-0.4-2.7-0.8-4-0.9c-0.6,0-1.2,0.8-1.9,1.2c0.4,0.5,0.7,1.3,1.3,1.6
		c1.2,0.6,2.5,0.9,3.8,1.3c1.9,0.7,2.6,2.1,2.4,4c-0.2,1.9-1.3,3-3.1,3.3c-2.6,0.5-5.2,0.2-7.5-1.7c0.4-0.6,0.8-1.2,1.2-1.6
		c1.5,0.5,2.9,1.2,4.3,1.3c0.7,0.1,1.6-0.8,2.4-1.2c-0.6-0.7-1-1.5-1.7-1.9c-1-0.6-2.3-0.7-3.4-1.1c-1.6-0.6-2.5-1.8-2.4-3.6
		c0.1-1.9,1-3,2.8-3.6C108.9,175.8,111.1,176.5,113.4,177.9z"/>
	<path d="M24.7,209.5c-1.8,0.6-2.3-0.1-2.3-1.6c0-10.6,0-21.3,0-31.9c0-1.7,0.9-2.3,2.3-3C24.7,185.2,24.7,197.3,24.7,209.5z"/>
	<path d="M81.6,186.5c0.4,0.6,0.9,1.1,1.3,1.6c-2.4,2.9-7,3.2-10,0.8c-3-2.4-3.4-7-1-10c2.6-3.1,7.1-3.5,10.8-0.7
		c-0.5,0.6-1,1.2-1.4,1.8c-3.5-1.7-5.6-1.5-7.1,0.5c-1.4,1.8-1.3,4.4,0.3,6.2C76.1,188.5,78.2,188.6,81.6,186.5z"/>
	<path d="M143.2,209.4c0-4.4,0-8.8,0-13.3c3.4,0,6.7,0,10.2,0c0,0.7,0.1,1.3,0.1,2.3c-2.2,0-4.2,0.1-6.2,0c-1.3-0.1-1.7,0.5-1.7,1.7
		c0,1.2,0.5,1.8,1.7,1.7c1.5-0.1,3.1,0,4.8,0c0,0.9,0.1,1.5,0.1,2.4c-1.7,0-3.3,0.1-4.8,0c-1.4-0.1-1.9,0.5-1.9,1.8
		c0,0.6,0,1.2,0,1.8C145.8,209.7,144.8,209.8,143.2,209.4z"/>
	<path d="M191.1,209.6c-3,0-5.6,0.1-8.1-0.1c-0.5,0-1.4-0.9-1.5-1.3c-0.1-4-0.1-8-0.1-12.1c0.9,0,1.6,0,2.6,0c0,3.6,0,7.3,0,11.2
		c2.4,0,4.6,0,7,0C191.1,208.1,191.1,208.7,191.1,209.6z"/>
	<path d="M14.6,209.6c-0.8,0-1.4,0-2.2,0c0-6.4-0.1-12.7,0.1-19c0-0.8,1.1-1.5,2.1-1.9C14.6,195.6,14.6,202.5,14.6,209.6z"/>
	<path d="M9.5,192.5c0,5.6,0,11.3,0,16.9c-1.5,0.5-2.3,0.4-2.3-1.4c0-4.3-0.1-8.6,0.1-12.9c0-1,1-2,1.5-3
		C9.1,192.3,9.3,192.4,9.5,192.5z"/>
	<path d="M160.6,209.5c-0.8,0-1.4,0-2.2,0c0-4.5,0-8.9,0-13.5c0.7,0,1.4-0.1,2.2-0.1C160.6,200.4,160.6,204.8,160.6,209.5z"/>
	<path d="M4.5,209.6c-0.8,0-1.5,0-2.4,0c0-3.9-0.1-7.6,0.1-11.4c0-0.8,1.2-1.6,2.3-2.8C4.5,200.6,4.5,205,4.5,209.6z"/>
</g>
<path d="M38.9,131.5c5.5-3.6,7.1-9.7,4-14.6c-0.5-0.8-2.1-0.8-3.2-1.2c-0.7-0.2-1.3-0.4-2-0.6c0.5-0.6,0.8-1.3,1.4-1.6
	c3.4-1.6,6.8-3.1,10.2-4.4c0.6-0.2,2.1,0.4,2.3,1.1c3.1,7.1,2.1,12.4-3.3,17.8c-1.5,1.5-2.8,3-4.4,4.3c-2.8,2.5-4.4,5.3-5,9.2
	c-1,5.6-5.7,8.7-9.9,11.9c-0.3,0.2-1.4,0.1-1.5-0.2c-0.3-0.5-0.4-1.4-0.1-1.8c5.3-6.6,0.6-13.3,0.3-20c-2.9,2.5-6,4.6-6.7,8.8
	c-1,6-5.8,9.3-10.1,12.9c-0.3,0.2-1.2,0-1.5-0.3c-0.3-0.3-0.3-1.3,0-1.5c3.8-3.6,2.6-7.9,1.8-12.2c-1.1-6.5-2.4-12.9-3.5-19.4
	c-0.5-2.8-1.4-4.8-4.8-3.6c-0.3,0.1-0.7-0.2-1.7-0.5c1.1-0.8,1.7-1.3,2.3-1.6c3.3-1.4,6.7-2.7,10-4.2c2.5-1.1,3.1,0,3.4,2.2
	c0.9,6.2,2,12.4,3,18.6c0.1,0.5,0.2,0.9,0.3,1.4c5.6-1.9,8.4-9.3,5.1-14c-0.5-0.7-2.2-0.7-3.3-1c-0.8-0.2-1.5-0.3-2.3-0.5
	c0.6-0.7,1-1.6,1.7-1.9c3.4-1.7,7-3.1,10.4-4.8c2.2-1.1,3-0.3,3.3,1.9c1,6,2,12,3,18C38.5,130.1,38.7,130.7,38.9,131.5z"/>
<path d="M76.1,149.6c-1.2,0.8-2.3,1.9-3.7,2.4c-1,0.4-2.8,0.7-3.4,0.1c-1-0.9-2-2.6-1.8-3.9c0.3-2.8,1.2-5.5,1.9-8.3
	c0.4-1.5,1.6-3.1-0.4-4.5c-0.1-0.1,0.2-1.5,0.5-1.6c2.4-0.6,2.6-2.5,2.6-4.4c0-2.2,1.5-3.1,3.2-3c0.6,0,1.4,2.1,1.7,3.3
	c0.2,1-0.1,2.1-0.2,3.1c3.4,1.1,4.3,0.9,4.9-2.4c0.9-5,3.9-8.1,8.4-9.6c1.5-0.5,3.7-0.3,5.2,0.3c2,0.9,1.6,3,1.2,4.9
	c-0.9,4.5-1.4,4.9-5.2,4.1c0.1-1.2,0.4-2.4,0.4-3.6c0-0.8-0.7-1.5-1-2.2c-0.7,0.4-1.9,0.6-2.2,1.1c-1,2.4-1.7,4.9-2.8,8
	c2.3,0,3.8,0,5.3,0c3.6,0,3.7,0.2,2.8,3.8c-1,3.8-2.1,7.5-3.1,11.4c1.2,0.2,2.1,0.4,3.6,0.6c-1.7,2.1-3.1,3.9-5.7,3.3
	c-2-0.5-3.2-3.2-2.6-5.5c0.6-2.6,1.5-5.1,2-7.7c0.2-1-0.2-2.8-0.8-3c-1.8-0.7-2.3,0.9-2.7,2.2c-1.1,3.6-2.3,7.1-3.1,10.7
	c-0.7,2.8-2,3.9-5.2,2.9C76,151.5,76,150.6,76.1,149.6c1.3-4.3,2.6-8.7,3.9-13c-0.3-0.2-0.5-0.5-0.8-0.7c-1.4,0.4-3.7,0.4-4,1.2
	c-1.4,3.6-2.3,7.5-3.2,10.9C73.8,148.7,74.9,149.2,76.1,149.6z"/>
<path d="M132.3,148.9c1.1-0.3,1.7-0.6,2.4-0.6c0.7-0.1,1.5,0,2.3,0.1c-0.4,0.7-0.7,1.6-1.3,2c-2.1,1.6-4.3,3.2-7.2,1.1
	c-0.7-0.5-2.3-0.1-3.3,0.3c-2.1,0.9-3.9,0.8-5.7-0.7c-0.7-0.5-2-0.4-3-0.2c-0.8,0.1-1.6,0.8-2.4,1.1c-3,1.2-5.8-0.7-5-3.8
	c2.2-8.2,4.6-16.4,7.3-24.5c1-3,6.1-4.3,9-2.7c0,0.2,0,0.5-0.1,0.5c-4.1,1.4-5.2,4.9-6.1,8.5c-1.3,5.1-2.8,10.2-4.2,15.3
	c-0.3,1-0.2,2-0.3,3c0.3,0.2,0.6,0.3,0.9,0.5c0.8-0.9,1.8-1.8,2.2-2.8c0.8-2,1.1-4.2,1.8-6.2c1.8-5.7,5.5-7.7,11.6-6.5
	c0.8-2.7,1.6-5.5,2.6-8.2c1.2-3.4,6-5.5,9.4-4.2c-0.1,0.3-0.1,0.7-0.2,0.7c-3.9,1.3-5,4.7-5.9,8.1c-1.4,5.3-2.9,10.6-4.3,15.9
	C132.3,146.5,132.4,147.6,132.3,148.9z M129.9,138.1c-0.7-0.7-1.3-2.1-2.1-2.2c-0.8-0.1-2.2,0.8-2.5,1.6c-1,2.5-1.8,5.2-2.3,7.8
	c-0.2,1,0.7,2.2,1.1,3.3c1.1-0.6,2.9-0.8,3.2-1.7C128.4,144.3,129,141.4,129.9,138.1z"/>
<path d="M50.8,133.6c3.1,0,4.5,1.6,4,4.7c-0.6,4.1-3.1,6.2-7.8,6.6c-0.8,0.1-2,0.5-2.3,1.1c-0.3,0.5,0.1,1.9,0.6,2.3
	c0.6,0.5,1.8,0.5,2.7,0.5c1.2,0,2.4-0.3,3.5-0.4c-0.9,0.9-1.7,2-2.8,2.7c-4.2,2.7-6,2.6-8.5-0.2c-0.6-0.6-1.1-1.4-1.3-2.3
	C37.5,141.1,43.5,133.6,50.8,133.6z M50.5,138.5c-0.8-1-1.3-1.5-1.8-2.1c-0.8,1.2-1.8,2.3-2.4,3.5c-0.2,0.4,0.7,1.3,1.1,1.9
	C48.3,140.8,49.3,139.8,50.5,138.5z"/>
<path d="M106.7,147.9c-2.9,5.6-7.9,6.4-11.3,2.5c-0.3-0.4-0.6-0.8-0.8-1.2c-1.3-2.8,1.4-11.8,4.2-13.4c2-1.1,4.1-2,6.2-2.5
	c3-0.8,4.7,0.7,4.8,3.8c0.1,4.6-3,7.5-7.6,7.3c-0.8,0-2.1,0.3-2.3,0.8c-0.3,0.9-0.3,2.2,0.3,3c0.5,0.7,1.8,1.1,2.7,1
	C104.1,149,105.4,148.3,106.7,147.9z M100.1,140.6c1.2,0.4,2.5,1.1,2.7,0.9c0.9-1.1,1.7-2.4,2.2-3.8c0.1-0.4-0.8-1.2-1.2-1.8
	C102.8,137,101.9,138.2,100.1,140.6z"/>
<path d="M55.9,145c0.9,1.6,1.2,2.4,1.8,2.9c0.5,0.5,1.4,0.7,2.1,1c0.1-1,0.4-2,0.3-2.9c-0.1-0.5-1-0.8-1.6-1.2c-3.3-2-3.9-4-2.2-7.5
	c1.3-2.6,6.2-4.6,8.9-3.5c0.8,0.3,1.7,1,1.9,1.7c0.3,0.8-0.1,1.8-0.1,2.8c-1-0.1-2.3,0.2-2.9-0.3c-1.1-0.9-1.8-2-3-0.4
	c-0.9,1.3-1.3,2.7,0.4,3.8c0.7,0.4,1.4,0.7,2.1,1.1c2.7,1.6,3.1,3.2,1.7,5.8c-1.4,2.7-5.4,5.1-8.1,4.3c-1.7-0.6-3.2-2.3-4.3-3.8
	C52.7,148.4,54.6,146.6,55.9,145z"/>
<g>
	<path d="M163.5,107.9c2.2-0.8,4.5-1.5,7.2-2.5c-10.6,0.7-15.9-5.9-20.4-13.7c-1.6-2.7-3.1-5.4-4.8-8.3c4.6-5.2,10.8-9.9,19.8-6.9
		c4.1,1.3,8.1,3,11.9,5c9.2,4.8,18.4,6,28,1.4c0.7-0.4,1.8,0,2.7,0c-0.5,0.7-0.9,1.7-1.6,2.1c-5.8,3.8-11.7,7.6-17.6,11.3
		c-5,3.2-10.1,6.2-15.5,8.9c1.9-0.1,3.8-0.2,6-0.4C176.7,108.2,166.7,110.5,163.5,107.9z"/>
	<path d="M86,95.1c0-1.9,0.1-3.9,0-5.8c-0.1-2.5,0.9-4.3,3.2-4.8c2.9-0.6,6-1.2,8.9-0.9c4.4,0.6,6.6,3.6,6.7,8.1
		c0.1,3.3,0,6.6,0,9.9c0,1.6-0.2,3.4-2.3,3.5c-2.2,0.1-2.2-1.8-2.2-3.4c0-3.1,0.1-6.2-0.1-9.4c-0.2-3.9-5.5-6.5-8.7-4.2
		c-0.6,0.4-0.8,1.6-0.9,2.4c-0.1,3.8,0,7.5-0.1,11.3c0,1.5-0.2,3.2-2.1,3.2c-1.9,0-2.3-1.6-2.4-3.1C86,99.7,86,97.4,86,95.1
		C86,95.1,86,95.1,86,95.1z"/>
	<path d="M140.6,93.5c0,2-0.1,4,0,6.1c0.1,2.6-1.1,4.4-3.5,4.8c-2.7,0.6-5.6,1.1-8.4,0.9c-4-0.3-6.7-3.5-6.8-7.7
		c-0.2-3.6-0.1-7.2,0-10.7c0-1.5,0.3-3.2,2.3-3.2c2,0,2.2,1.6,2.2,3.1c0,3,0.1,6.1,0,9.1c-0.2,5.2,4.9,6.4,8.7,4.8
		c0.6-0.2,0.9-1.5,1-2.3c0.1-3.8,0-7.5,0.1-11.3c0-1.6,0.1-3.4,2.3-3.4c2,0.1,2.3,1.8,2.3,3.5C140.6,89.2,140.6,91.4,140.6,93.5z"/>
	<path d="M116.9,105.4c-4.6-0.1-7.7-3-7.8-6.6c-0.1-2.5,0-5-0.1-7.4c0-1.5,0.4-3.2-1.8-3.8c-0.2-0.1-0.4-1.4-0.2-2
		c0.6-1.5,1.3-2.9,2.2-4.2c0.5-0.8,1.3-1.8,2-1.8c0.7,0,2,1,2.1,1.6c0.3,2.2,1.5,2.5,3.4,2.7c0.9,0.1,1.6,1.3,2.5,1.9
		c-0.8,0.7-1.7,1.9-2.5,1.9c-2.7-0.1-3.3,1.2-3.1,3.6c0.1,2,0.1,4,0,6.1c0,2.1,0.8,3.3,3,3.5c1.5,0.1,3.1,0.7,2.6,2.4
		C118.9,104.3,117.4,105,116.9,105.4z"/>
	<path d="M77.6,94.3c0-2.7-0.2-5.3,0.1-7.9c0.1-1,1.3-1.9,2-2.8c0.8,0.9,2.3,1.8,2.3,2.8c0.2,5.4,0.2,10.8,0,16.2
		c0,0.9-1.4,1.8-2.2,2.6c-0.7-0.9-2-1.7-2.1-2.6C77.5,99.8,77.7,97.1,77.6,94.3C77.6,94.3,77.6,94.3,77.6,94.3z"/>
	<path d="M83.1,78.1c-1.5,1.2-2.5,2.7-3.2,2.6c-1-0.3-2.2-1.6-2.4-2.6c-0.1-0.7,1.4-2.2,2.3-2.3C80.6,75.7,81.6,77,83.1,78.1z"/>
</g>
<g>
	<path d="M41.1,45.6c4.6,2,9.2-2.7,13.5,1.3c0.2,0.2,1.2-0.1,1.6-0.4c3.5-2,6.9-1.9,10,0.8c3.7-2.4,7.4-3.3,11-0.2
		c1.4-0.6,2.6-1.2,3.9-1.6c4.3-1.3,7.6,0.5,8.1,5c0.5,3.9,0.4,7.9,0.3,11.9c0,0.6-1.1,1.2-1.7,1.8c-0.6-0.6-1.6-1.2-1.7-1.9
		c-0.2-3.4-0.1-6.7-0.1-10.1c0-2.4-0.7-4.4-3.6-4.1c-2.5,0.2-4.5,1.1-4.1,4.5c0.3,3.1,0.2,6.2,0,9.3c0,0.8-1,1.6-1.6,2.3
		c-0.6-0.8-1.8-1.6-1.8-2.5c-0.2-3.2-0.1-6.5-0.1-9.7c0-2.4-0.8-4.3-3.7-4c-2.4,0.3-4.2,1.1-4,4.2c0.3,3.2,0.2,6.5,0,9.7
		c0,0.8-1.1,1.5-1.7,2.3c-0.6-0.7-1.7-1.4-1.7-2.2c-0.2-3.4-0.1-6.7-0.1-10.1c0-2.4-1-4.3-3.8-3.8c-2.2,0.4-4.3,0.9-3.9,4.2
		c0.4,3.1,0.2,6.2,0,9.3c-0.1,0.9-1.2,1.7-1.8,2.5c-0.6-0.9-1.6-1.7-1.7-2.7c-0.2-3.2-0.1-6.5-0.2-9.7c0-2.2-0.8-4-3.5-3.9
		c-2.4,0.1-4.3,0.9-4.1,4.1c0.2,3.2,0.2,6.5-0.1,9.7c-0.1,0.9-1.2,1.6-1.8,2.5c-0.6-0.8-1.6-1.5-1.6-2.3
		C41,56.6,41.1,51.4,41.1,45.6z"/>
	<path d="M2.7,64.6c-0.9-0.8-2.5-1.5-2.5-2.3C-0.1,54.5,0,46.7,0,39c2.7-0.9,4-0.3,3.8,2.3c0,0.1,0,0.2,0,0.4
		c0.3,8.5,0.6,8.8,9.4,7.7c0.8-0.1,2-1.3,2.1-2.2c0.3-2.1,0-4.2,0.2-6.3c0.1-0.8,1-1.6,1.6-2.3c0.6,0.7,1.8,1.4,1.8,2.1
		c0.1,7.1,0.1,14.2,0,21.3c0,0.8-1.1,1.5-1.7,2.2c-0.6-0.7-1.6-1.4-1.7-2.2c-0.2-2.5,0.1-5-0.2-7.5c-0.1-0.8-1.3-2.1-2.1-2.2
		c-2.9-0.3-5.9-0.1-9.3-0.1c0,4.1,0,7.8,0,11.4C3.5,64,3.1,64.3,2.7,64.6z"/>
	<path d="M174,19.3c0.1-2.9-0.2-4.6,0.4-6c1-2.4,2.1-5.4,4.1-6.7c5.2-3.4,11.3-4.2,17.2-2.9c1.9,0.4,3.1,3.7,4.3,6.2
		C190.1,9.4,182.4,14.2,174,19.3z"/>
	<path d="M201.6,10.6c5.9,6.3,5.5,14-1,20.7c-0.2,0.3-0.7,0.3-0.9,0.6c-1,1-2.1,3-2.9,2.9c-1.7-0.2-3.3-1.3-4.7-2.5
		c-0.6-0.5-0.8-2.4-0.3-2.9c4.7-5.2,7.5-11.2,9.1-18C201,11.1,201.3,11,201.6,10.6z"/>
	<path d="M96.7,56.2c0.7,6.1,2.9,6.9,12.1,4.5c-0.6,1.3-0.8,2.6-1.5,2.9c-3.5,1.6-7.3,2-10.7-0.1c-3.5-2.1-4.3-5.7-3.9-9.5
		c0.4-3.7,1.8-7,5.8-8.4c5.8-2,11.8,2.6,11.1,8.7c-0.1,0.7-1.6,1.7-2.5,1.8C103.7,56.3,100.2,56.2,96.7,56.2z M96.5,53.4
		c3.4,0,6.3,0,9.3,0c-0.3-3-1.4-5.2-4.3-5.3C98.3,47.8,97.2,50.2,96.5,53.4z"/>
	<path d="M149.8,64.8c-5.8,0-9.3-3.7-9.3-9.7c0-5.9,3.7-10,9.3-10c5.5,0,9.4,4.1,9.4,9.9C159.1,61,155.6,64.8,149.8,64.8z
		 M144.3,55.1c0,4.2,2.2,7,5.5,7c3.2,0,5.5-3.1,5.5-7.1c0-4.1-2.5-7.2-5.6-7.1C146.6,48,144.3,51,144.3,55.1z"/>
	<path d="M33.9,52.1c-0.3-4.4-1.3-4.8-10-3.4c0.9-1.4,1.3-2.5,2-2.9c6.6-2.8,11.6,0.4,11.7,7.5c0,3.5,0,6.9,0,10.2
		c-3.3,0.4-6.3,1-9.4,1.2c-3.2,0.2-5.5-1.2-6-4.7c-0.5-3.5,0.9-5.7,4.5-6.6C29,52.7,31.4,52.5,33.9,52.1z M34,55.3
		c-5.2-0.7-8.6,0.6-8.2,3.3c0.2,1.3,2.1,3.1,3.4,3.3C32,62.5,34,59.5,34,55.3z"/>
	<path d="M162.5,46.3c2.8-0.4,5.7-1.1,8.7-1.2c3.2-0.1,5.7,1.6,6,5c0.3,4.1,0.2,8.2,0.2,12.3c0,0.6-0.9,1.1-1.4,1.7
		c-0.6-0.6-1.7-1.1-1.8-1.8c-0.2-3.1,0-6.2-0.2-9.3c-0.1-2.6-0.4-5.2-3.9-5.1c-3.2,0.1-4.6,1.8-4.3,5.1c0.2,2.8,0.2,5.7-0.1,8.6
		c-0.1,1-1.3,2-2,3c-0.4-0.2-0.8-0.4-1.2-0.6C162.5,58.1,162.5,52.2,162.5,46.3z"/>
	<path d="M171.4,23.2c1.4-0.5,2.5-1,3.8-1.5c4.3,2.5,9.2,5.2,14.2,8c-0.5,1.9-5.2,4.5-9,3.7c-2.6-0.5-4.7-2.9-7.3-3.8
		C168.9,28.3,172.6,25.2,171.4,23.2z"/>
	<path d="M137,47.3c-1,0.3-1.9,0.6-2.9,0.8c-1.1,0.1-2.3-0.2-3.3,0.1c-0.8,0.2-1.9,1-2.1,1.7c-0.1,0.7,0.6,1.9,1.3,2.3
		c1.8,1.1,4,1.7,5.5,3.1c1.3,1.2,2.8,3.4,2.5,4.8c-0.3,1.7-2.3,3.8-3.9,4.2c-2.4,0.7-5.1,0.1-7.7-0.2c-0.7-0.1-1.2-1.4-1.9-2.1
		c0.8-0.1,1.7-0.5,2.5-0.4c1.5,0.1,3,0.7,4.4,0.5c1.1-0.1,2.6-1,2.8-1.8c0.2-0.8-0.8-2.2-1.6-2.9c-1.1-0.9-2.6-1.4-3.9-2.1
		c-2.3-1.2-4.4-2.6-3.9-5.7c0.5-3,3-3.9,5.5-4.2c2.1-0.2,4.3,0.2,6.5,0.4C136.9,46.3,136.9,46.8,137,47.3z"/>
	<path d="M113.1,46.5c3.4-0.4,6.7-0.8,9.9-1.2c0.2,0.3,0.4,0.6,0.6,0.9c-0.8,0.6-1.6,1.6-2.5,1.9c-3.6,1-5.5,3-5.1,7
		c0.2,2.3,0.2,4.7-0.1,7.1c-0.1,0.9-1.1,1.7-1.8,2.5c-0.4-0.2-0.7-0.4-1.1-0.6C113.1,58.1,113.1,52.2,113.1,46.5z"/>
</g>
</svg>
