<?xml version="1.0" encoding="utf-8"?>
<!-- Generator: Adobe Illustrator 18.0.0, SVG Export Plug-In . SVG Version: 6.00 Build 0)  -->
<!DOCTYPE svg PUBLIC "-//W3C//DTD SVG 1.1//EN" "http://www.w3.org/Graphics/SVG/1.1/DTD/svg11.dtd">
<svg version="1.1" id="Слой_1" xmlns="http://www.w3.org/2000/svg" xmlns:xlink="http://www.w3.org/1999/xlink" x="0px" y="0px"
	 viewBox="0 0 210 297" enable-background="new 0 0 210 297" xml:space="preserve">
<path d="M79.6,4.8c4.2,0.3,8.4,0.5,12.6,0.9c1.5,0.2,4.1-1.2,4.2,2c0,3.2-2.5,2.5-4.4,2.5c-5.3,0.1-10.6,0-16,0.5
	c6.3,0.4,12.7,0.9,19,1.3c-0.1,3.3-1,4.2-4,4.2c-5.3,0-10.6,0-16,0.5c5.7,0.4,11.5,0.8,17.4,1.2c-1.2,2.7-2.7,4.1-5.6,4
	c-5.1-0.2-10.2,0-15.3,0.5c4.9,0.4,9.8,0.8,14.8,1.2c-3.3,4.1-11.9,5.5-16,2.6c-2.7-2-3.5-5.1-3.3-8.2c0.7-9.4,9.5-18.8,19.3-17.8
	c2.6,0.3,5.2,0,7.7,0.1c0.7,0,1.3,0.5,1.9,0.7c-0.3,0.7-0.4,1.6-0.9,1.9c-1.2,0.7-2.5,1.3-3.8,1.4c-3.9,0.2-7.8,0.1-11.7,0.1
	C79.6,4.4,79.6,4.6,79.6,4.8z"/>
<path d="M15.9,9.9c0-2.4,0-4.3,0-6.3c0-1.7,0.3-2.9,2.4-2.9c2,0,2.2,1.2,2.2,2.8c0,7.2,0,14.3,0,21.5c0,2.7-1.5,3.6-4.1,2.6
	c-0.7-0.2-1.5-0.4-2.2-0.2c-4.7,1.7-9.1,0.6-11.9-3c-2.6-3.4-2.7-8.3-0.2-11.6c2.9-3.9,7.2-5.1,12-3.3C14.5,9.5,14.9,9.6,15.9,9.9z
	 M15.8,18.3c-0.1-3.1-2.5-5.5-5.6-5.5c-3.1,0-5.4,2.5-5.4,5.7c0,3.2,2.4,5.5,5.5,5.5C13.5,23.9,15.9,21.4,15.8,18.3z"/>
<path d="M42,18.3c0,2.2,0,4.3,0,6.5c0,2.8-1,3.5-3.7,2.9c-1.1-0.2-2.4-0.3-3.5,0c-4.1,1.2-8.4-0.1-11-3.4c-2.6-3.4-2.7-8-0.3-11.5
	c2.4-3.5,6.7-5.1,10.8-3.9c1.4,0.4,2.6,0.8,4.2,0c2.1-1.1,3.5,0,3.5,2.4C42.1,13.7,42,16,42,18.3z M31.9,12.8
	c-3.1,0-5.5,2.5-5.4,5.6c0.1,3.2,2.4,5.5,5.5,5.5c3.1,0,5.4-2.4,5.4-5.6C37.4,15.2,35,12.8,31.9,12.8z"/>
<path d="M63.5,18.3c0,2.2,0,4.5,0,6.7c0,2.5-0.9,3.1-3.5,2.7c-1.2-0.2-2.6-0.3-3.7,0c-4.1,1.2-8.4-0.1-10.9-3.4
	c-2.6-3.5-2.7-7.9-0.3-11.4c2.3-3.4,6.7-5.1,10.7-4c1.4,0.4,2.6,0.9,4.2,0c2.1-1.1,3.5,0,3.5,2.4C63.6,13.7,63.5,16,63.5,18.3z
	 M58.9,18.4c0-3.2-2.3-5.6-5.4-5.6c-3.1,0-5.5,2.4-5.5,5.5c0,3.1,2.4,5.6,5.5,5.6C56.6,23.9,58.9,21.6,58.9,18.4z"/>
<path d="M108.4,16.2c-3.2,0-6.3,0.1-9.5-0.1c-0.8,0-2.2-0.9-2.2-1.3c0-1.4,0-3.2,2.2-3.2c3.2,0,6.5,0,9.7,0c2.4,0,4.8-0.1,7.2,0.1
	c1.1,0.1,2.3,0.5,3.2,1.1c0.7,0.5,0.8,1.7,1.2,2.6c-0.8,0.3-1.6,0.8-2.4,0.8C114.7,16.3,111.6,16.2,108.4,16.2z"/>
<path d="M88.6,27.6c2.1-3.2,4.5-4.8,8.1-4.4c3,0.3,6.2,0,9.2,0.1c3,0.1,4.4,1.5,4.5,4.3C103.3,27.6,96.1,27.6,88.6,27.6z"/>
<path d="M93.9,21.8c1.3-4.1,1.5-4.3,5.1-4.3c4.2,0,8.5,0,12.7,0c1,0,2.2,0.2,3,0.7c0.8,0.5,1.1,1.7,1.6,2.6
	c-0.9,0.3-1.7,0.9-2.6,0.9C107.3,21.9,100.7,21.8,93.9,21.8z"/>
<path d="M107.2,10.2c-2.5,0-5,0-7.5,0c-1.8,0-2.3-0.8-2.3-2.5c0-1.7,0.8-2.2,2.3-2.2c4.1,0,8.2,0,12.2,0c0.9,0,2,0.2,2.6,0.7
	c0.8,0.8,1.2,2,1.8,3c-0.9,0.3-1.8,0.8-2.7,0.8C111.5,10.3,109.3,10.3,107.2,10.2C107.2,10.3,107.2,10.3,107.2,10.2z"/>
<path fill="#FFFFFF" d="M80,64.2c0-2.6,0-5.2,0-7.7c0-1.7,0.6-2.4,2.3-2.4c4.6,0.1,9.2,0.1,13.7,0c1.7,0,2.4,0.7,2.4,2.4
	c0,5.2,0,10.5,0,15.7c0,1.6-0.6,2.3-2.2,2.3c-4.7,0-9.3,0-14,0c-1.6,0-2.3-0.7-2.2-2.3C80,69.6,80,66.9,80,64.2z"/>
<path fill="#FFFFFF" d="M98.4,34.1c0,2.3,0,4.7,0,7c0,1.5-0.5,2.3-2.1,2.3c-4.7,0-9.5,0-14.2,0c-1.5,0-2.1-0.7-2.1-2.1
	c0-4.9,0-9.8,0-14.7c0-1.5,0.7-2.1,2.1-2.1c4.7,0,9.5,0,14.2,0c1.5,0,2.1,0.7,2.1,2.2C98.4,29.2,98.4,31.6,98.4,34.1z"/>
<path fill="#FFFFFF" d="M115.5,38.2c-1.5-0.6-2.3-0.9-3.1-1.2c0-0.3,0-0.5,0.1-0.8c1,0.1,2.8,0,2.9,0.2c0.3,1.9,0.5,3.9,0.3,5.8
	c0,0.4-1.8,0.6-2.8,0.9c-0.1-0.2-0.1-0.4-0.2-0.7c0.7-0.3,1.5-0.7,2.6-1.3c-1.3-0.6-2.1-0.9-3.3-1.4C113.2,39.2,114,38.9,115.5,38.2
	z"/>
<path fill="#FFFFFF" d="M116.7,67.3c-1.2,0.9-2,1.5-2.8,2.1c-0.6-0.9-1.6-1.7-1.8-2.7c-0.1-0.6,1.4-1.9,1.9-1.8
	C114.9,65.1,115.6,66.2,116.7,67.3z"/>
<path fill="#FFFFFF" d="M117,33c-1.5,1-2.2,1.7-3,2c-1.4,0.4-2.1-0.7-1.8-1.9c0.2-0.9,1.1-1.9,1.9-2.3C114.5,30.6,115.5,31.8,117,33
	z"/>
<path fill="#FFFFFF" d="M117.9,24.8c-3.1,1.8-3.1,2.7-0.1,4.5c-2,0-3.6,0-5.1,0c0.6-0.7,1.6-1.4,1.6-2.2c0.1-0.7-1-1.4-1.6-2.2
	C114.2,24.8,115.7,24.8,117.9,24.8z"/>
<path fill="#FFFFFF" d="M115.5,46c0.1,1.3,0.6,2.7,0.2,3.8c-0.2,0.7-1.7,1-2.7,1.5c-0.1-0.3-0.3-0.5-0.4-0.8
	c0.7-0.3,1.4-0.7,2.7-1.3c-1.3-0.6-2.1-1-3.1-1.4C113.5,47.1,114.5,46.6,115.5,46C115.5,46,115.5,46,115.5,46z"/>
<path fill="#FFFFFF" d="M111.8,55.4c0.5-1,0.9-2.2,1.6-3c0.2-0.2,1.9,0.2,2,0.6c0.3,0.9,0.1,2.1,0.1,3.1c-0.3,0-0.7,0-1,0.1
	c-0.3-0.9-0.6-1.7-0.9-2.6c-0.2,0-0.4-0.1-0.6-0.1c-0.2,0.7-0.3,1.4-0.5,2.2C112.3,55.6,112,55.5,111.8,55.4z"/>
<path fill="#FFFFFF" d="M112.7,73.9c0.8-0.3,1.5-0.7,2.9-1.3c-1.4-0.7-2.2-1.1-3-1.5c0-0.2,0.1-0.4,0.1-0.6c0.9,0.2,2.1,0,2.7,0.6
	c0.5,0.4,0.6,2,0.2,2.5c-0.6,0.7-1.8,0.8-2.8,1.1C112.8,74.4,112.7,74.1,112.7,73.9z"/>
<path fill="#FFFFFF" d="M113.1,62.6c1-0.8,1.9-2.5,2.9-0.1c-1.2,0.3-2.3,0.7-3.5,0.9c-0.1,0-0.4-1.2-0.2-2.1
	C112.5,61.7,112.7,62,113.1,62.6z"/>
<path fill="#FFFFFF" d="M115.5,46c-1-0.3-2.1-0.7-3.1-1c0-0.2,0-0.5,0-0.7c1,0,1.9-0.1,2.8,0.1C115.4,44.4,115.4,45.4,115.5,46
	C115.5,46,115.5,46,115.5,46z"/>
<g>
	<path d="M55.9,166.4c8.1-5.3,10.5-14.3,5.8-21.6c-0.7-1.1-3.1-1.2-4.8-1.8c-1-0.3-2-0.6-2.9-1c0.7-0.8,1.2-2,2.1-2.4
		c5-2.3,10-4.6,15.1-6.6c0.9-0.3,3.1,0.7,3.5,1.6c4.6,10.4,3.1,18.3-4.9,26.3c-2.1,2.1-4.2,4.4-6.5,6.4c-4.2,3.6-6.4,7.9-7.4,13.5
		c-1.4,8.2-8.5,12.8-14.6,17.6c-0.4,0.3-2,0.1-2.2-0.3c-0.4-0.7-0.5-2.1-0.1-2.6c7.8-9.7,0.9-19.6,0.5-29.5c-4.3,3.8-8.8,6.8-9.9,13
		c-1.5,8.8-8.6,13.7-14.9,19c-0.4,0.3-1.8,0-2.2-0.5c-0.4-0.5-0.4-1.9,0-2.3c5.6-5.3,3.8-11.7,2.7-17.9c-1.7-9.5-3.6-19-5.2-28.6
		c-0.7-4.2-2-7-7-5.4c-0.4,0.1-1-0.3-2.5-0.7c1.6-1.1,2.4-2,3.5-2.4c4.9-2.1,10-3.9,14.8-6.2c3.6-1.7,4.6,0,5.1,3.2
		c1.4,9.1,2.9,18.3,4.4,27.4c0.1,0.7,0.3,1.4,0.4,2.1c8.3-2.8,12.3-13.6,7.6-20.6c-0.8-1.1-3.2-1.1-4.9-1.5
		c-1.1-0.3-2.3-0.5-3.4-0.7c0.8-1,1.5-2.3,2.6-2.9c5.1-2.5,10.3-4.6,15.4-7.1c3.2-1.6,4.4-0.4,4.9,2.8c1.4,8.9,2.9,17.7,4.4,26.5
		C55.4,164.4,55.6,165.2,55.9,166.4z"/>
	<path d="M110.8,193.2c-1.8,1.2-3.4,2.8-5.4,3.6c-1.5,0.6-4.1,1-5,0.2c-1.5-1.3-2.9-3.8-2.7-5.7c0.4-4.1,1.8-8.2,2.8-12.2
		c0.5-2.2,2.3-4.6-0.6-6.6c-0.2-0.1,0.3-2.2,0.8-2.3c3.5-0.9,3.9-3.7,3.9-6.4c0.1-3.3,2.3-4.6,4.7-4.5c0.9,0,2.1,3.1,2.5,4.9
		c0.4,1.4-0.1,3.1-0.3,4.6c5,1.7,6.4,1.3,7.2-3.5c1.3-7.4,5.8-11.9,12.5-14.2c2.3-0.8,5.4-0.5,7.7,0.5c3,1.3,2.4,4.5,1.8,7.3
		c-1.4,6.6-2,7.2-7.7,6c0.2-1.8,0.6-3.6,0.5-5.4c-0.1-1.1-1-2.2-1.5-3.2c-1.1,0.5-2.8,0.8-3.2,1.7c-1.5,3.5-2.6,7.2-4.1,11.8
		c3.4,0,5.6,0,7.9,0c5.2,0.1,5.5,0.4,4.1,5.6c-1.5,5.5-3,11.1-4.6,16.8c1.8,0.3,3.1,0.6,5.3,1c-2.5,3.1-4.6,5.7-8.4,4.8
		c-3-0.7-4.7-4.7-3.9-8.2c0.9-3.8,2.2-7.5,2.9-11.3c0.3-1.4-0.3-4.1-1.2-4.5c-2.6-1.1-3.3,1.3-3.9,3.3c-1.6,5.3-3.3,10.5-4.6,15.8
		c-1,4.1-3,5.7-7.6,4.2C110.6,195.9,110.7,194.5,110.8,193.2c1.9-6.4,3.8-12.8,5.7-19.1c-0.4-0.3-0.7-0.7-1.1-1
		c-2.1,0.5-5.5,0.6-5.9,1.7c-2.1,5.4-3.3,11.1-4.7,16C107.5,191.8,109.1,192.5,110.8,193.2z"/>
	<path d="M193.7,192.1c1.7-0.5,2.6-0.8,3.5-0.9c1.1-0.1,2.2,0.1,3.3,0.1c-0.6,1-1,2.3-1.9,3c-3.2,2.4-6.3,4.7-10.6,1.7
		c-1-0.7-3.4-0.2-4.8,0.4c-3.1,1.4-5.7,1.2-8.4-1c-1-0.8-3-0.6-4.5-0.3c-1.2,0.2-2.3,1.1-3.5,1.6c-4.4,1.7-8.6-1.1-7.4-5.6
		c3.2-12.2,6.8-24.2,10.7-36.1c1.5-4.5,9-6.3,13.3-4c0,0.3,0,0.8-0.1,0.8c-6.1,2-7.6,7.2-9,12.6c-2,7.6-4.2,15-6.2,22.6
		c-0.4,1.4-0.3,2.9-0.5,4.4c0.5,0.2,0.9,0.5,1.4,0.7c1.1-1.4,2.6-2.6,3.2-4.2c1.1-2.9,1.6-6.1,2.6-9.2c2.7-8.3,8-11.4,17.1-9.6
		c1.3-4,2.4-8.1,3.8-12.2c1.7-5,8.8-8.1,13.8-6.2c-0.1,0.4-0.1,1-0.3,1.1c-5.7,2-7.3,6.9-8.7,12c-2.1,7.8-4.3,15.6-6.4,23.4
		C193.7,188.6,193.9,190.1,193.7,192.1z M190.2,176.2c-1-1.1-1.9-3-3.1-3.2c-1.2-0.2-3.3,1.2-3.8,2.4c-1.5,3.7-2.7,7.6-3.4,11.5
		c-0.3,1.4,1,3.2,1.6,4.8c1.6-0.8,4.2-1.2,4.8-2.5C188,185.2,188.9,181,190.2,176.2z"/>
	<path d="M73.5,169.5c4.5,0,6.6,2.4,5.9,6.9c-0.9,6.1-4.6,9.1-11.5,9.7c-1.2,0.1-2.9,0.7-3.4,1.6c-0.4,0.8,0.1,2.8,0.9,3.4
		c1,0.7,2.6,0.7,3.9,0.7c1.7,0,3.5-0.4,5.2-0.6c-1.4,1.3-2.5,3-4.1,4c-6.2,3.9-8.9,3.8-12.6-0.4c-0.8-0.9-1.6-2.1-1.9-3.3
		C53.8,180.7,62.8,169.5,73.5,169.5z M73,176.7c-1.2-1.4-1.9-2.2-2.6-3.1c-1.2,1.7-2.7,3.3-3.5,5.2c-0.3,0.6,1,1.9,1.6,2.8
		C69.9,180.1,71.3,178.6,73,176.7z"/>
	<path d="M155.9,190.6c-4.3,8.3-11.7,9.4-16.7,3.6c-0.5-0.5-0.9-1.1-1.2-1.8c-2-4.2,2-17.5,6.2-19.7c2.9-1.6,6-2.9,9.2-3.7
		c4.4-1.2,6.9,1.1,7,5.7c0.2,6.8-4.4,11-11.2,10.7c-1.2,0-3.2,0.4-3.4,1.2c-0.5,1.3-0.4,3.3,0.4,4.4c0.7,1,2.7,1.6,4,1.4
		C152.1,192.2,154,191.3,155.9,190.6z M146.2,179.8c1.8,0.6,3.7,1.7,3.9,1.3c1.3-1.7,2.5-3.6,3.2-5.6c0.2-0.6-1.2-1.7-1.8-2.6
		C150.2,174.6,148.9,176.3,146.2,179.8z"/>
	<path d="M81.1,186.4c1.4,2.3,1.8,3.5,2.6,4.2c0.8,0.7,2,1,3.1,1.4c0.2-1.4,0.7-2.9,0.4-4.2c-0.1-0.7-1.5-1.2-2.3-1.8
		c-4.9-2.9-5.8-6-3.2-11.1c2-3.9,9.1-6.8,13.1-5.2c1.1,0.4,2.4,1.4,2.8,2.4c0.4,1.2-0.1,2.7-0.2,4.1c-1.5-0.1-3.4,0.3-4.3-0.5
		c-1.6-1.3-2.7-3-4.4-0.6c-1.3,1.9-1.9,4,0.6,5.6c1,0.6,2,1.1,3,1.7c3.9,2.3,4.6,4.7,2.5,8.6c-2.1,3.9-8,7.6-11.9,6.3
		c-2.5-0.8-4.7-3.4-6.3-5.7C76.3,191.4,79.1,188.6,81.1,186.4z"/>
	<path fill="#FFFFFF" d="M110.8,193.2c-1.7-0.7-3.3-1.3-6-2.4c1.4-5,2.6-10.6,4.7-16c0.5-1.2,3.9-1.2,5.9-1.7c0.4,0.3,0.7,0.7,1.1,1
		C114.6,180.4,112.7,186.8,110.8,193.2C110.8,193.2,110.8,193.2,110.8,193.2z"/>
	<path fill="#FFFFFF" d="M73,176.7c-1.7,1.9-3.1,3.4-4.5,5c-0.6-1-1.9-2.2-1.6-2.8c0.9-1.9,2.3-3.5,3.5-5.2
		C71.1,174.5,71.8,175.3,73,176.7z"/>
	<path fill="#FFFFFF" d="M146.2,179.8c2.7-3.5,4-5.2,5.3-6.8c0.7,0.9,2,2,1.8,2.6c-0.7,2-1.9,3.9-3.2,5.6
		C149.8,181.4,147.9,180.4,146.2,179.8z"/>
</g>
<g>
	<path d="M32.5,208.5c4,3,7.8,5.8,11.5,8.7c0.4,0.3,0.8,1.1,0.8,1.6c0,10.5,0,21,0,31.5c0,0.2-0.1,0.4-0.2,0.7c-4,0-8,0-12.1,0
		C32.5,237,32.5,223,32.5,208.5z"/>
	<path d="M47.7,251c0-7.6,0-15.2,0-23.2c2.6,2,4.9,4.1,7.6,5.6c4,2.3,5.5,5.3,4.9,9.8c-0.3,2.5-0.1,5-0.1,7.8
		C55.9,251,51.9,251,47.7,251z"/>
	<path d="M80.6,242c-0.8,2.5-1.6,5.1-2.6,7.5c-0.3,0.7-1.3,1.4-2,1.4c-0.6,0.1-1.6-0.7-1.8-1.3c-1.5-3.9-2.9-7.9-4.4-12.1
		c1.1,0,1.9,0,2.8,0c1,3,2.1,6.1,3.4,9.9c0.6-1.5,1-2.5,1.3-3.4c0.6-1.8,1.1-3.6,1.8-5.3c0.2-0.6,1.1-1.3,1.6-1.2
		c0.7,0,1.6,0.6,1.9,1.2c1,2.7,1.9,5.4,3.3,8.1c0.8-2.4,1.6-4.9,2.5-7.3c0.8-2.3,0.8-2.3,3.5-1.9c-1.5,4.2-3,8.4-4.6,12.5
		c-0.2,0.5-1.3,0.9-1.9,0.9c-0.5,0-1.3-0.6-1.6-1.1c-0.8-2.1-1.4-4.2-2.1-6.3c-0.2-0.5-0.4-1.1-0.6-1.6C81,242,80.8,242,80.6,242z"
		/>
	<path d="M142.5,228.4c-1.3-1.9-2.5-3.6-3.7-5.3c-0.2,0-0.3,0.1-0.5,0.1c0,2.8,0,5.5,0,8.4c-0.9,0.1-1.5,0.1-2.4,0.1
		c0-4.5,0-9,0-13.5c4.6-1.1,4.1,3.8,6.8,5.4c0.7-1.1,1.7-2.3,2.3-3.6c0.9-1.9,2.2-2.4,4.3-1.8c0,4.4,0,8.8,0,13.3
		c-0.7,0-1.4,0-2.3,0c0-2.8,0-5.6,0-8.4c-0.2-0.1-0.4-0.2-0.6-0.2C145.1,224.8,143.9,226.5,142.5,228.4z"/>
	<path d="M181.3,218.2c1.1,0,1.8,0,2.7,0c0,4.5,0,8.9,0,13.3c-1.6,0.5-2.6,0.2-3.6-1.2c-1.6-2.4-3.5-4.6-5.8-6.8c0,2.7,0,5.3,0,8.1
		c-1,0.1-1.7,0.1-2.5,0.1c0-4.5,0-9,0-13.4c1.6-0.6,2.6,0,3.6,1.3c1.6,2.4,3.4,4.6,5.6,6.7C181.3,223.8,181.3,221.1,181.3,218.2z"/>
	<path d="M127.3,231.6c0-1.8,0-3.5,0-5.6c-1.8,0-3.4-0.1-5,0.1c-0.4,0-1,0.8-1,1.3c-0.1,1.3,0,2.6,0,4.1c-1,0-1.8,0-2.7,0
		c0-4.4,0-8.8,0-13.4c0.8,0,1.6-0.1,2.6-0.1c0,1.8,0,3.5,0,5.3c2.1,0,3.9,0,6,0c0-1.7,0-3.4,0-5.2c1.1,0,1.8,0,2.8,0
		c0,4.4,0,8.8,0,13.4C129.2,231.6,128.4,231.6,127.3,231.6z"/>
	<path d="M195.5,237.2c2.6,0.2,5.1,0.1,7.5,0.6c3.5,0.8,5.5,3.9,5,7.1c-0.5,3.7-3.1,6-6.8,6.1c-1.8,0.1-3.7,0-5.7,0
		C195.5,246.5,195.5,242.1,195.5,237.2z M197.8,244.2C197.8,244.2,197.8,244.2,197.8,244.2c0,1-0.1,2.1,0.1,3.1
		c0.1,0.5,0.6,1.4,1,1.4c2,0.3,3.9,0.1,5.3-1.6c1.3-1.6,1.3-3.4,0.3-5.2c-1-1.7-3.4-2.6-5.5-2c-1.9,0.5-0.8,2.2-1.1,3.4
		C197.8,243.6,197.8,243.9,197.8,244.2z"/>
	<path d="M196.8,223.7c-1.4-2.6-1.3-4.1,0.3-5.2c1.6-1.1,3.1-0.9,4.5,0.4c1.4,1.4,1.2,3-0.7,5.4c0.2,0.3,0.4,0.7,0.7,1
		c0.3,0.3,0.6,0.6,1,1.1c0.6-0.4,1.1-0.8,1.8-1.3c0.4,0.5,0.8,1,1.4,1.7c-3,2.3,0.4,3.3,1.3,5.5c-1.8-0.5-3.1-0.8-4.8-1.3
		c-3.3,1.6-5.7,1.5-7.2-0.7C193.6,228.1,194.2,226.1,196.8,223.7z M198.3,225c-0.7,1.3-1.4,2.2-1.6,3.1c-0.1,0.4,0.8,1.5,1.2,1.6
		c1,0.1,2.1-0.3,3.7-0.6C200.3,227.5,199.5,226.5,198.3,225z"/>
	<path d="M123.1,237.5c-1.9,2-3.5,3.7-5.3,5.7c1.9,2.6,3.7,5,5.6,7.7c-4.9,1.1-4.8-4.1-7.6-5.4c-2.6,1-1.3,3.6-1.9,5.5
		c-0.8,0-1.5,0-2.4,0c0-4.4,0-8.9,0-13.4c0.8,0,1.5,0,2.5,0c0,1.8,0,3.6,0,5.6C117.5,241.8,118.1,236.6,123.1,237.5z"/>
	<path d="M165.9,251.1c0-4.7,0-9,0-13.5c3.2,0,6.5,0,9.8,0c0.5,1.5,0.2,2.3-1.6,2.2c-1.3-0.1-2.7,0-4,0c-1.1-0.1-1.6,0.4-1.6,1.5
		c0,1.1,0.3,1.9,1.7,1.8c1.3,0,2.5-0.1,3.8,0.1c0.4,0,0.7,0.6,1.1,1c-0.4,0.4-0.7,1-1.1,1c-1.3,0.1-2.5,0.1-3.8,0.1
		c-1.3,0-1.7,0.7-1.7,1.8c0,1.2,0.5,1.8,1.7,1.8c1.6,0,3.1-0.1,4.7,0.1c0.5,0,0.9,0.7,1.3,1.1c-0.5,0.4-0.9,1-1.4,1
		C171.9,251.1,169,251.1,165.9,251.1z"/>
	<path d="M136.6,245.3c-1.3,0-2.5,0-3.8,0c-1.3,0-2.4-0.1-2.4,1.8c0,1.7,1,1.9,2.3,1.9c1.3,0,2.5-0.1,3.8,0c0.6,0.1,1.1,0.7,1.6,1
		c-0.5,0.4-1,1-1.5,1.1c-2.8,0.1-5.6,0.1-8.7,0.1c0-4.6,0-9,0-13.5c3.2,0,6.5,0,9.8,0c0,0.7,0,1.4,0,2.2c-2.3,0-4.6,0-6.8,0
		c-0.9,3-0.6,3.4,2.2,3.4c0.8,0,1.7-0.2,2.4,0.1c0.6,0.2,1.1,0.8,1.7,1.3C137,244.7,136.8,245,136.6,245.3z"/>
	<path d="M27.4,250.9c0-3.9,0-7.8,0-11.7c0-8.4,0-16.8,0-25.2c0-1.6,0.4-2.7,2.2-3.3c0.1,0.5,0.1,1,0.1,1.5c0,12.3,0,24.6,0,36.9
		C29.7,250.5,29.7,251.7,27.4,250.9z"/>
	<path d="M153.6,231.5c1.8-4.2,3.5-8.3,5.3-12.4c0.2-0.5,1.1-1,1.7-0.9c0.7,0,1.6,0.5,1.9,1c1.8,4,3.6,8.1,5.3,12.3
		c-1.8,0.5-2.9,0.3-3.5-1.5c-0.2-0.6-1.2-1.2-1.9-1.3c-1.1-0.2-2.3-0.2-3.3,0c-0.8,0.2-1.8,0.8-2.1,1.4
		C156.3,231.7,155.4,232.1,153.6,231.5z M160.6,221.1c-0.8,2-1.4,3.4-2,5c1.5,0,2.7,0,4.1,0C162,224.4,161.4,223,160.6,221.1z"/>
	<path d="M86.9,218.2c1.2,0,2,0,3,0c0,2.5,0,4.9,0,7.4c0,2.6,1.1,4,3.1,4.1c2.1,0,3.4-1.4,3.4-4.1c0-2.4,0-4.8,0-7.3
		c0.9-0.1,1.6-0.1,2.3-0.2c0,3.5,0.3,6.9-0.1,10.3c-0.2,2.4-2.5,3.6-5.4,3.6c-3.1,0-5.3-1.1-5.7-3.6C87,225.1,87.1,221.7,86.9,218.2
		z"/>
	<path d="M19.6,251.1c-0.8,0-1.5,0-2.4,0c0-0.8,0-1.5,0-2.3c0-9.1,0-18.2,0-27.2c0-1.8,0.7-2.7,2.4-3.4
		C19.6,229.2,19.6,240,19.6,251.1z"/>
	<path d="M107,250.8c-1.7,0.5-2.7,0.4-3.4-1.3c-0.3-0.7-1.4-1.3-2.2-1.5c-1-0.3-2.1-0.2-3.1,0c-0.7,0.2-1.7,0.7-2,1.3
		c-0.6,1.7-1.6,2.2-3.4,1.5c1.8-4.2,3.5-8.5,5.4-12.7c0.5-1.1,2.8-1.1,3.3,0C103.4,242.3,105.2,246.5,107,250.8z M100.2,241.1
		c-0.2,0-0.4,0-0.6,0c-0.5,1.4-1.1,2.8-1.7,4.4c1.5,0,2.6,0,4.1,0C101.3,243.8,100.8,242.4,100.2,241.1z"/>
	<path d="M113.3,219.4c-0.5,0.7-0.9,1.3-1.2,1.7c-1.4-0.4-2.7-0.8-4-0.9c-0.6,0-1.2,0.8-1.9,1.2c0.4,0.5,0.7,1.3,1.3,1.6
		c1.2,0.6,2.5,0.9,3.8,1.3c1.9,0.7,2.6,2.1,2.4,4c-0.2,1.9-1.3,3-3.1,3.3c-2.6,0.5-5.2,0.2-7.5-1.7c0.4-0.6,0.8-1.2,1.2-1.6
		c1.5,0.5,2.9,1.2,4.3,1.3c0.7,0.1,1.6-0.8,2.4-1.2c-0.6-0.7-1-1.5-1.7-1.9c-1-0.6-2.3-0.7-3.4-1.1c-1.6-0.6-2.5-1.8-2.4-3.6
		c0.1-1.9,1-3,2.8-3.6C108.8,217.3,111,217.9,113.3,219.4z"/>
	<path d="M24.6,251c-1.8,0.6-2.3-0.1-2.3-1.6c0-10.6,0-21.3,0-31.9c0-1.7,0.9-2.3,2.3-3C24.6,226.7,24.6,238.8,24.6,251z"/>
	<path d="M81.4,228c0.4,0.6,0.9,1.1,1.3,1.6c-2.4,2.9-7,3.2-10,0.8c-3-2.4-3.4-7-1-10c2.6-3.1,7.1-3.5,10.8-0.7
		c-0.5,0.6-1,1.2-1.4,1.8c-3.5-1.7-5.6-1.5-7.1,0.5c-1.4,1.8-1.3,4.4,0.3,6.2C75.9,230,78.1,230,81.4,228z"/>
	<path d="M143.1,250.8c0-4.4,0-8.8,0-13.3c3.4,0,6.7,0,10.2,0c0,0.7,0.1,1.3,0.1,2.3c-2.2,0-4.2,0.1-6.2,0c-1.3-0.1-1.7,0.5-1.7,1.7
		c0,1.2,0.5,1.8,1.7,1.7c1.5-0.1,3.1,0,4.8,0c0,0.9,0.1,1.5,0.1,2.4c-1.7,0-3.3,0.1-4.8,0c-1.4-0.1-1.9,0.5-1.9,1.8
		c0,0.6,0,1.2,0,1.8C145.7,251.1,144.6,251.3,143.1,250.8z"/>
	<path d="M191,251.1c-3,0-5.6,0.1-8.1-0.1c-0.5,0-1.4-0.9-1.5-1.3c-0.1-4-0.1-8-0.1-12.1c0.9,0,1.6,0,2.6,0c0,3.6,0,7.3,0,11.2
		c2.4,0,4.6,0,7,0C190.9,249.6,191,250.2,191,251.1z"/>
	<path d="M14.4,251.1c-0.8,0-1.4,0-2.2,0c0-6.4-0.1-12.7,0.1-19c0-0.8,1.1-1.5,2.1-1.9C14.4,237.1,14.4,244,14.4,251.1z"/>
	<path d="M9.4,234c0,5.6,0,11.3,0,16.9c-1.5,0.5-2.3,0.4-2.3-1.4c0-4.3-0.1-8.6,0.1-12.9c0-1,1-2,1.5-3C8.9,233.7,9.2,233.9,9.4,234
		z"/>
	<path d="M160.5,250.9c-0.8,0-1.4,0-2.2,0c0-4.5,0-8.9,0-13.5c0.7,0,1.4-0.1,2.2-0.1C160.5,241.9,160.5,246.3,160.5,250.9z"/>
	<path d="M4.4,251.1c-0.8,0-1.5,0-2.4,0c0-3.9-0.1-7.6,0.1-11.4c0-0.8,1.2-1.6,2.3-2.8C4.4,242.1,4.4,246.5,4.4,251.1z"/>
</g>
<g>
	<path d="M138.5,125.1c3.5-1.2,7-2.4,11.1-3.8c-16.5,1.1-24.6-9.2-31.5-21.2c-2.4-4.2-4.8-8.3-7.5-12.9c7.1-8.1,16.7-15.3,30.7-10.7
		c6.3,2.1,12.6,4.6,18.5,7.7c14.2,7.4,28.5,9.3,43.4,2.1c1.1-0.5,2.8,0,4.2,0c-0.8,1.1-1.5,2.6-2.5,3.3c-9,5.9-18.1,11.7-27.2,17.5
		c-7.8,4.9-15.6,9.6-24,13.7c2.9-0.2,5.8-0.4,9.2-0.6C159.1,125.5,143.5,129.2,138.5,125.1z"/>
	<path d="M18.5,105.3c0-3,0.1-6,0-9c-0.2-3.8,1.4-6.7,5-7.5c4.5-1,9.3-1.9,13.7-1.3C44,88.4,47.4,93,47.6,100
		c0.1,5.1,0.1,10.2,0,15.4c0,2.5-0.4,5.3-3.6,5.4c-3.4,0.1-3.4-2.8-3.5-5.2c-0.1-4.8,0.1-9.7-0.1-14.5c-0.3-6.1-8.6-10-13.5-6.4
		c-0.9,0.7-1.3,2.5-1.3,3.7c-0.1,5.8-0.1,11.7-0.1,17.5c0,2.4-0.2,4.9-3.3,5c-2.9,0-3.6-2.4-3.6-4.8
		C18.5,112.4,18.6,108.8,18.5,105.3C18.5,105.3,18.5,105.3,18.5,105.3z"/>
	<path d="M103.1,102.7c0,3.1-0.1,6.3,0,9.4c0.2,4-1.7,6.7-5.5,7.5c-4.3,0.9-8.7,1.6-13,1.3c-6.1-0.4-10.3-5.4-10.6-12
		c-0.2-5.5-0.1-11.1,0-16.6c0-2.4,0.4-4.9,3.5-4.9c3,0,3.5,2.4,3.5,4.9c0,4.7,0.2,9.4,0,14.1c-0.3,8.1,7.5,9.9,13.4,7.4
		c0.9-0.4,1.4-2.3,1.5-3.6c0.2-5.8,0.1-11.7,0.1-17.5c0-2.5,0.1-5.3,3.5-5.2c3.1,0.1,3.5,2.9,3.6,5.4
		C103.2,96.2,103.1,99.5,103.1,102.7z"/>
	<path d="M66.5,121.2c-7.1-0.1-11.9-4.6-12.1-10.2c-0.2-3.8-0.1-7.7-0.1-11.5c0-2.3,0.6-5-2.8-5.8c-0.4-0.1-0.6-2.2-0.3-3
		c0.9-2.3,2.1-4.5,3.4-6.5c0.8-1.2,2.1-2.7,3.2-2.8c1.1,0,3.1,1.5,3.2,2.5c0.4,3.4,2.4,3.8,5.3,4.1c1.4,0.1,2.5,2,3.8,3
		c-1.3,1-2.6,3-3.9,2.9c-4.2-0.1-5.1,1.9-4.9,5.5c0.2,3.1,0.1,6.3,0,9.4c-0.1,3.2,1.3,5.1,4.6,5.4c2.3,0.2,4.8,1.1,4,3.7
		C69.5,119.5,67.1,120.6,66.5,121.2z"/>
	<path d="M5.6,104.1c0-4.1-0.3-8.2,0.1-12.3c0.2-1.5,2-2.9,3.1-4.3c1.3,1.4,3.5,2.8,3.6,4.3c0.4,8.3,0.3,16.7,0,25
		c-0.1,1.4-2.2,2.7-3.4,4.1c-1.2-1.3-3.1-2.6-3.3-4C5.4,112.6,5.6,108.3,5.6,104.1C5.6,104.1,5.6,104.1,5.6,104.1z"/>
	<path d="M14.1,79c-2.2,1.9-3.9,4.2-4.9,4c-1.6-0.4-3.4-2.4-3.7-4c-0.2-1.1,2.1-3.4,3.5-3.6C10.2,75.3,11.8,77.3,14.1,79z"/>
</g>
<g>
	<path d="M41.1,45.6c4.6,2,9.2-2.7,13.5,1.3c0.2,0.2,1.2-0.1,1.6-0.4c3.5-2,6.9-1.9,10,0.8c3.7-2.4,7.4-3.3,11-0.2
		c1.4-0.6,2.6-1.2,3.9-1.6c4.3-1.3,7.6,0.5,8.1,5c0.5,3.9,0.4,7.9,0.3,11.9c0,0.6-1.1,1.2-1.7,1.8c-0.6-0.6-1.6-1.2-1.7-1.9
		C85.9,59,86,55.6,86,52.2c0-2.4-0.7-4.4-3.6-4.1c-2.5,0.2-4.5,1.1-4.1,4.5c0.3,3.1,0.2,6.2,0,9.3c0,0.8-1,1.6-1.6,2.3
		c-0.6-0.8-1.8-1.6-1.8-2.5c-0.2-3.2-0.1-6.5-0.1-9.7c0-2.4-0.8-4.3-3.7-4c-2.4,0.3-4.2,1.1-4,4.2c0.3,3.2,0.2,6.5,0,9.7
		c0,0.8-1.1,1.5-1.7,2.3c-0.6-0.7-1.7-1.4-1.7-2.2c-0.2-3.4-0.1-6.7-0.1-10.1c0-2.4-1-4.3-3.8-3.8c-2.2,0.4-4.3,0.9-3.9,4.2
		c0.4,3.1,0.2,6.2,0,9.3c-0.1,0.9-1.2,1.7-1.8,2.5c-0.6-0.9-1.6-1.7-1.7-2.7c-0.2-3.2-0.1-6.5-0.2-9.7c0-2.2-0.8-4-3.5-3.9
		c-2.4,0.1-4.3,0.9-4.1,4.1c0.2,3.2,0.2,6.5-0.1,9.7c-0.1,0.9-1.2,1.6-1.8,2.5c-0.6-0.8-1.6-1.5-1.6-2.3
		C41,56.7,41.1,51.5,41.1,45.6z"/>
	<path d="M2.6,64.7c-0.9-0.8-2.5-1.5-2.5-2.3C-0.1,54.6,0,46.7,0,39c2.7-0.9,4-0.3,3.8,2.3c0,0.1,0,0.2,0,0.4
		c0.3,8.5,0.6,8.8,9.4,7.7c0.8-0.1,2-1.3,2.1-2.2c0.3-2.1,0-4.2,0.2-6.3c0.1-0.8,1-1.6,1.6-2.3c0.6,0.7,1.8,1.4,1.8,2.1
		c0.1,7.1,0.1,14.2,0,21.3c0,0.8-1.1,1.5-1.7,2.2c-0.6-0.7-1.6-1.4-1.7-2.2c-0.2-2.5,0.1-5-0.2-7.5c-0.1-0.8-1.3-2.1-2.1-2.2
		c-2.9-0.3-5.9-0.1-9.3-0.1c0,4.1,0,7.8,0,11.4C3.5,64,3.1,64.3,2.6,64.7z"/>
	<path d="M174,19.4c0.1-2.9-0.2-4.6,0.4-6c1-2.4,2.1-5.4,4.1-6.7c5.2-3.4,11.3-4.2,17.2-2.9c1.9,0.4,3.1,3.7,4.3,6.2
		C190.1,9.5,182.4,14.2,174,19.4z"/>
	<path d="M201.6,10.6c5.9,6.3,5.5,14-1,20.7c-0.2,0.3-0.7,0.3-0.9,0.6c-1,1-2.1,3-2.9,2.9c-1.7-0.2-3.3-1.3-4.7-2.5
		c-0.6-0.5-0.8-2.4-0.3-2.9c4.7-5.2,7.5-11.2,9.1-18C201,11.2,201.3,11,201.6,10.6z"/>
	<path d="M96.7,56.2c0.7,6.1,2.9,6.9,12.1,4.5c-0.6,1.3-0.8,2.6-1.5,2.9c-3.5,1.6-7.3,2-10.7-0.1c-3.5-2.1-4.3-5.7-3.9-9.5
		c0.4-3.7,1.8-7,5.8-8.4c5.8-2,11.8,2.6,11.1,8.7c-0.1,0.7-1.6,1.7-2.5,1.8C103.6,56.4,100.2,56.2,96.7,56.2z M96.5,53.4
		c3.4,0,6.3,0,9.3,0c-0.3-3-1.4-5.2-4.3-5.3C98.3,47.9,97.2,50.3,96.5,53.4z"/>
	<path d="M149.8,64.8c-5.8,0-9.3-3.7-9.3-9.7c0-5.9,3.7-10,9.3-10c5.5,0,9.4,4.1,9.4,9.9C159.1,61.1,155.6,64.8,149.8,64.8z
		 M144.3,55.2c0,4.2,2.2,7,5.5,7c3.2,0,5.5-3.1,5.5-7.1c0-4.1-2.5-7.2-5.6-7.1C146.6,48,144.3,51,144.3,55.2z"/>
	<path d="M33.8,52.2c-0.3-4.4-1.3-4.8-10-3.4c0.9-1.4,1.3-2.5,2-2.9c6.6-2.8,11.6,0.4,11.7,7.5c0,3.5,0,6.9,0,10.2
		c-3.3,0.4-6.3,1-9.4,1.2c-3.2,0.2-5.5-1.2-6-4.7c-0.5-3.5,0.9-5.7,4.5-6.6C28.9,52.8,31.4,52.6,33.8,52.2z M34,55.4
		c-5.2-0.7-8.6,0.6-8.2,3.3c0.2,1.3,2.1,3.1,3.4,3.3C32,62.6,34,59.6,34,55.4z"/>
	<path d="M162.4,46.4c2.8-0.4,5.7-1.1,8.7-1.2c3.2-0.1,5.7,1.6,6,5c0.3,4.1,0.2,8.2,0.2,12.3c0,0.6-0.9,1.1-1.4,1.7
		c-0.6-0.6-1.7-1.1-1.8-1.8c-0.2-3.1,0-6.2-0.2-9.3c-0.1-2.6-0.4-5.2-3.9-5.1c-3.2,0.1-4.6,1.8-4.3,5.1c0.2,2.8,0.2,5.7-0.1,8.6
		c-0.1,1-1.3,2-2,3c-0.4-0.2-0.8-0.4-1.2-0.6C162.4,58.1,162.4,52.2,162.4,46.4z"/>
	<path d="M171.4,23.3c1.4-0.5,2.5-1,3.8-1.5c4.3,2.5,9.2,5.2,14.2,8c-0.5,1.9-5.2,4.5-9,3.7c-2.6-0.5-4.7-2.9-7.3-3.8
		C168.9,28.4,172.6,25.2,171.4,23.3z"/>
	<path d="M137,47.4c-1,0.3-1.9,0.6-2.9,0.8c-1.1,0.1-2.3-0.2-3.3,0.1c-0.8,0.2-1.9,1-2.1,1.7c-0.1,0.7,0.6,1.9,1.3,2.3
		c1.8,1.1,4,1.7,5.5,3.1c1.3,1.2,2.8,3.4,2.5,4.8c-0.3,1.7-2.3,3.8-3.9,4.2c-2.4,0.7-5.1,0.1-7.7-0.2c-0.7-0.1-1.2-1.4-1.9-2.1
		c0.8-0.1,1.7-0.5,2.5-0.4c1.5,0.1,3,0.7,4.4,0.5c1.1-0.1,2.6-1,2.8-1.8c0.2-0.8-0.8-2.2-1.6-2.9c-1.1-0.9-2.6-1.4-3.9-2.1
		c-2.3-1.2-4.4-2.6-3.9-5.7c0.5-3,3-3.9,5.5-4.2c2.1-0.2,4.3,0.2,6.5,0.4C136.8,46.3,136.9,46.8,137,47.4z"/>
	<path d="M113.1,46.6c3.4-0.4,6.7-0.8,9.9-1.2c0.2,0.3,0.4,0.6,0.6,0.9c-0.8,0.6-1.6,1.6-2.5,1.9c-3.6,1-5.5,3-5.1,7
		c0.2,2.3,0.2,4.7-0.1,7.1c-0.1,0.9-1.1,1.7-1.8,2.5c-0.4-0.2-0.7-0.4-1.1-0.6C113.1,58.2,113.1,52.3,113.1,46.6z"/>
</g>
</svg>
