<?xml version="1.0" encoding="utf-8"?>
<!-- Generator: Adobe Illustrator 18.0.0, SVG Export Plug-In . SVG Version: 6.00 Build 0)  -->
<!DOCTYPE svg PUBLIC "-//W3C//DTD SVG 1.1//EN" "http://www.w3.org/Graphics/SVG/1.1/DTD/svg11.dtd">
<svg version="1.1" id="Слой_1" xmlns="http://www.w3.org/2000/svg" xmlns:xlink="http://www.w3.org/1999/xlink" x="0px" y="0px"
	 viewBox="0 0 210 297" enable-background="new 0 0 210 297" xml:space="preserve">
<g>
	<path d="M68.1,1c0,12.4,0,24.8,0,37.2c0,1.3-0.1,1.4-1.4,1.4c-0.7,0-1.4,0-2.1,0c-1.3,0-1.3-0.1-1.3-1.3c0-4.7,0-9.4,0-14.1
		c0-5.8,0-11.7,0-17.5c0-1.2,0-1.2-1.2-1.2c-18.5,0-36.9,0-55.4,0c-1.2,0-1.2,0-1.2,1.2c0,18.5,0,36.9,0,55.4c0,1.1,0,1.2,1.2,1.2
		c18.5,0,37,0,55.5,0c1.1,0,1.2,0,1.2-1.2c0-0.7,0-1.4,0-2.2c0-0.6,0.3-1,0.9-1c1,0,2,0,3,0c0.6,0,0.9,0.3,0.9,0.9
		c0,2.4,0,4.7,0,7.1c0,0.2-0.4,0.5-0.7,0.7c-0.2,0.1-0.5,0-0.8,0c-21.5,0-43,0-64.6,0c-0.4,0-0.7,0-1.1,0C1,45.4,1,23.2,1,1
		C23.3,1,45.7,1,68.1,1z"/>
	<path d="M26.2,139.7c0,1.2,0,2.4,0,3.6c0,0.3-0.3,0.9-0.5,0.9c-0.4,0.1-1,0-1.3-0.2c-0.3-0.2-0.4-0.6-0.6-0.9
		c-0.8-1.4-1.5-2.9-2.3-4.3c-0.7-1.2-1.9-1.4-3-1.8c-1.6-0.5-3.2-0.6-4.8-0.1c-1.5,0.5-2.4,1.5-2.7,3.3c-0.2,1.5,0.4,3,1.7,3.6
		c1.4,0.7,2.8,1.3,4.3,1.8c2.4,0.8,4.7,1.4,6.8,2.9c1.7,1.2,2.9,2.8,3.5,4.7c0.7,2.2,0.6,4.4-0.1,6.5c-1,2.8-3,4.5-5.7,5.7
		c-2,0.9-4.1,0.9-6.2,1c-3.6,0.2-7-0.7-10.3-1.8c-0.2-0.1-0.4-0.3-0.6-0.6c-0.1-0.1-0.1-0.3-0.1-0.5c-0.3-2.3-0.5-4.5-0.8-6.8
		c-0.1-0.6,0-1.1,0.7-1.3c0.7-0.1,1.3,0,1.7,0.7c0.7,1.3,1.4,2.6,2.1,4c1.1,2.2,3.1,3.1,5.4,3.4c1.6,0.2,3.3,0.2,4.9-0.3
		c1.9-0.6,3.3-1.6,3.4-3.8c0.1-2.1-0.8-3.8-2.7-4.7c-1.4-0.7-2.9-1.1-4.4-1.5c-2.7-0.7-5.4-1.6-7.4-3.6c-3.5-3.5-3.9-8.2-0.7-12.2
		c1.3-1.6,3.2-2.5,5.3-3c2.2-0.6,4.4-0.6,6.7-0.3c1.1,0.2,2.2,0.5,3.2,0.9c1.1,0.5,2,0.5,3.1,0c1.2-0.5,1.6-0.3,1.6,1
		C26.2,137.4,26.2,138.5,26.2,139.7z"/>
	<path d="M44.1,182.9c4-0.1,7.1,1.5,9.5,4.4c1.7,2,1.6,5.1-1,6.5c-1.3,0.7-3.1,0.5-4.2-0.5c-0.5-0.4-0.9-0.9-1.3-1.3
		c-1.3-1.2-2.8-1.4-4.4-0.9c-1.6,0.5-2.4,1.7-2.6,3.3c-0.2,1.7,0.4,3.2,1.9,4.2c1.4,0.9,3.7,0.7,5-0.5c0.4-0.4,0.9-0.8,1.3-1.2
		c1.3-1.4,3.6-1.4,5.2,0c1.5,1.2,1.8,3.3,0.7,5c-1.3,2.1-3.2,3.5-5.5,4.4c-6.6,2.6-14.4-1.2-16.2-8.1c-1.1-4.1-0.3-7.9,2.6-11.1
		C37.5,184.2,40.5,182.8,44.1,182.9z"/>
	<path d="M63.9,190.2c1-1.4,1.9-2.8,2.9-4.2c0.6-0.8,1.2-1.6,2-2.1c1.5-1.1,3.5-0.7,4.9,0.7c1.3,1.3,1.4,3.3,0.4,4.8
		c-1.1,1.6-2.2,3.2-3.3,4.7c-0.4,0.6-0.1,0.9,0.2,1.3c1.3,1.7,2.6,3.3,3.9,5c1.3,1.7,1,3.8-0.6,5.2c-1.6,1.4-3.9,1.3-5.3-0.2
		c-1.5-1.7-2.9-3.5-4.3-5.2c-0.3-0.3-0.6-0.7-1-1c0,0.3,0,0.6,0,1c-0.1,1.2,0,2.5-0.3,3.7c-0.4,1.7-1.8,2.8-3.5,2.9
		c-1.7,0.1-3.2-0.8-3.8-2.4c-0.2-0.6-0.4-1.3-0.4-2c0-5,0-10,0-15.1c0-1.8,1.4-3.4,3.2-3.8c1.9-0.4,3.8,0.6,4.5,2.2
		c0.2,0.4,0.2,0.9,0.2,1.3c0,1.1,0,2.1,0,3.2C63.7,190.1,63.8,190.1,63.9,190.2z"/>
	<path d="M142.2,200.5c-0.1,0.9-0.1,1.7-0.2,2.5c-0.3,3-3.4,4.2-5.7,3c-1.5-0.8-2.1-2.3-2.1-3.9c0-4.8-0.1-9.6,0-14.4
		c0-2.6,1.4-3.9,4.2-4.1c2-0.2,4.1-0.2,6.1,0c3.5,0.3,6.7,2.9,7.3,6.9c0.4,2.4-0.2,4.6-1.8,6.4c-0.5,0.6-0.3,1,0.1,1.6
		c0.6,0.9,1.2,1.8,1.6,2.8c0.9,1.9,0.2,3.8-1.7,4.9c-1.7,1-3.8,0.5-5-1.2c-0.9-1.3-1.6-2.6-2.4-3.9
		C142.5,200.8,142.4,200.7,142.2,200.5z"/>
	<path d="M197.2,200.7c0,0.6,0.1,1.3,0,1.9c-0.2,1.5-0.7,2.9-2.3,3.5c-1.4,0.6-2.8,0.5-4.1-0.4c-0.9-0.7-1.4-1.7-1.4-2.8
		c0-5.3,0-10.6,0-15.8c0-1.9,1.7-3.4,3.9-3.5c2.1-0.1,4.2-0.2,6.3,0c3,0.3,5.4,2,6.6,4.8c1.3,2.9,1,5.7-1,8.2
		c-0.5,0.7-0.6,1.1-0.1,1.9c0.9,1.3,1.7,2.7,1.8,4.5c0,2-2.2,3.8-4.1,3.6c-1.3-0.1-2.3-0.8-3-1.9c-0.8-1.3-1.6-2.6-2.4-4
		C197.4,200.6,197.3,200.7,197.2,200.7z"/>
	<path d="M10,199.1c0,1.3,0,2.5,0,3.8c0,1.6-1,2.9-2.5,3.5c-1.5,0.6-3.1,0.2-4.2-1c-0.6-0.7-0.9-1.4-0.9-2.3c0-5.3,0-10.6,0-15.9
		c0-1.7,0.8-2.9,2.2-3.5c1.6-0.7,3.1-0.4,4.3,0.8c0.8,0.7,1.1,1.5,1.1,2.5c0,1.1,0,2.2,0.2,3.5c0.6-0.9,1.2-1.8,1.9-2.7
		c0.8-1.1,1.5-2.3,2.4-3.2c1.4-1.5,3.6-1.5,5.3-0.2c1.6,1.3,1.9,3.3,0.7,5c-1.1,1.6-2.1,3.2-3.2,4.7c-0.3,0.4-0.3,0.8,0,1.2
		c1.4,1.7,2.8,3.5,4.1,5.3c1.2,1.7,0.8,3.9-0.8,5.1c-1.9,1.4-4,1.1-5.4-0.6c-1.5-1.8-2.9-3.6-4.4-5.5c-0.2-0.2-0.2-0.5-0.3-0.7
		C10.2,198.9,10.1,199,10,199.1z"/>
	<path d="M173.6,146.3c0.7-0.5,1.3-1,2-1.3c2.7-1.4,5.5-2.1,8.5-0.9c1.3,0.5,2.4,1.4,2.7,2.8c0.3,1.3,0.7,2.6,0.7,4
		c0.1,3.5,0.1,7.1,0,10.6c0,0.9,0.2,1.2,1.2,1.3c1.5,0.1,2.1,0.8,1.9,2.3c0,0.3-0.5,0.8-0.8,0.8c-3.5,0.1-7.1,0-10.6,0
		c-0.9,0-0.9-0.7-0.9-1.4c0-0.6-0.1-1.3,0.9-1.4c0.2,0,0.5,0,0.7-0.1c0.8-0.2,1.2-0.5,1.2-1.5c-0.1-3.1,0-6.1,0-9.2
		c0-0.7-0.1-1.5-0.2-2.2c-0.3-1.8-1.9-2.8-3.9-2.2c-1.1,0.3-2.2,1.1-3.2,1.8c-0.2,0.1-0.3,0.6-0.3,0.9c0,3.7,0,7.4,0,11.1
		c0,0.6,0.2,0.9,0.8,1c0.5,0,1.1,0.2,1.6,0.4c0.9,0.4,0.7,1.2,0.7,2c0,0.6-0.5,0.8-1,0.8c-3.4,0-6.9,0-10.3,0c-0.7,0-1-0.3-0.9-0.9
		c0-0.3,0-0.5,0-0.8c0-0.7,0.2-1.1,1-1.1c0.1,0,0.2,0,0.3,0c1.5-0.3,1.5-0.3,1.5-1.8c0-3.7,0-7.5,0-11.2c0-1,0-2-1.1-2.4
		c-0.3-0.1-0.6-0.2-0.9-0.2c-0.6-0.1-1-0.4-1.1-1c0-0.6,0.1-1.1,0.8-1.3c1.7-0.3,3.4-0.7,5.1-1c0.8-0.2,1.6-0.3,2.4-0.4
		c1-0.2,1.2,0,1.2,1.1c0,0.4,0,0.8,0,1.2C173.4,146.1,173.5,146.1,173.6,146.3z"/>
	<path d="M133.2,202.5c-0.1,1.6-1.3,3.2-2.8,3.7c-1.7,0.6-3.5,0.1-4.4-1.5c-0.6-1.1-1.4-1.4-2.5-1.3c-1.4,0.1-2.8,0-4.2,0
		c-0.6,0-1,0.2-1.4,0.8c-1,1.8-2.4,2.4-4.4,2c-1.7-0.3-3.2-2.2-2.9-3.9c0.1-0.6,0.2-1.3,0.5-1.8c2.3-4.9,4.7-9.8,7-14.8
		c0.8-1.6,2-2.5,3.8-2.5c1.8,0,3,1,3.7,2.5c2.3,4.9,4.6,9.7,6.9,14.6C132.8,201.1,132.9,201.8,133.2,202.5z"/>
	<path d="M85.9,182.9c1.8-0.3,3.6,0.5,5.2,1.6c1.3,0.9,2.2,2.2,1.9,4c-0.4,2.7-2.9,3.5-5.1,2.2c-0.7-0.4-1.2-0.8-1.9-1.2
		c-0.4-0.3-0.9-0.5-1.3,0c-0.4,0.6,0.1,0.9,0.6,1.1c1.1,0.4,2.2,0.8,3.2,1.2c2.1,0.9,4,2,4.8,4.2c1.5,3.8,0.3,8.2-3.9,10
		c-3.5,1.5-8.9,1.2-11.8-2.2c-1.3-1.6-1.8-4.7,0.9-6c1.3-0.6,2.5-0.4,3.6,0.3c0.8,0.5,1.5,1,2.3,1.5c0.5,0.3,1,0.5,1.3-0.2
		c0.3-0.6-0.1-1-0.6-1.2c-1.3-0.5-2.5-0.9-3.8-1.5c-2.2-1-3.9-2.4-4.3-4.9c-0.8-5.1,2.6-8.6,7.4-8.9C85,182.9,85.3,182.9,85.9,182.9
		z"/>
	<path d="M152.5,166.3c-1.8,0-3.6,0.1-5.3-0.7c-2.9-1.4-4.5-3.5-5.2-6.6c-0.6-2.5-0.6-5,0-7.5c0.9-3.5,2.9-6,6.4-7.3
		c3.6-1.3,7.3-1.3,10.8,0.4c2.4,1.2,4,3.1,4.7,5.7c0.7,2.4,0.9,4.7,0.5,7.2c-0.5,3-1.8,5.4-4.2,7.1c-1.5,1.1-3.2,1.8-5.2,1.7
		C154.1,166.3,153.3,166.3,152.5,166.3z M157.3,154.4c-0.2-1.3-0.5-3.5-1-5.6c-0.3-1.6-1.6-2.7-2.7-2.8c-2-0.1-2.7,0-3.8,2.4
		c-1.4,2.9-1.2,6.1-1,9.3c0.1,1.4,0.5,2.9,1,4.2c0.5,1.3,1.3,2.3,2.9,2.3c1.6,0,2.5-0.8,3.2-2.1C157.2,160,157.1,157.7,157.3,154.4z
		"/>
	<path d="M55.5,166.3c-1.9,0-3.7,0.2-5.5-0.7c-3-1.4-4.7-3.8-5.3-6.9c-0.6-3.1-0.5-6.2,0.7-9.1c1.4-3.1,3.7-5.1,7.1-5.9
		c1.8-0.4,3.7-0.6,5.6-0.3c4.2,0.6,7.8,2.8,8.9,8c0.6,2.9,0.6,5.9-0.5,8.7c-1,2.7-3.1,4.6-5.9,5.6c-0.5,0.2-1,0.5-1.6,0.5
		C57.9,166.3,56.7,166.3,55.5,166.3z M51.5,154.4c0,2.8,0.1,5.1,1,7.3c0.5,1.2,1.2,2.3,2.7,2.5c1.7,0.2,2.8-0.4,3.5-2
		c1.2-2.5,1.5-5.1,1.2-7.7c-0.2-1.9-0.5-3.8-0.9-5.7c-0.4-1.8-1.8-2.7-3.5-2.7c-1.7-0.1-2.5,1.1-3.1,2.4
		C51.6,150.5,51.6,152.7,51.5,154.4z"/>
	<path d="M172.7,194.6c0-2.1,0-4.3,0-6.4c0-0.8,0.2-1.7,0.4-2.4c0.5-1.6,1.9-2.3,3.4-2.3c2.8-0.1,5.5-0.1,8.3,0
		c1.8,0,3.5,1.7,3.6,3.3c0.1,2-1.1,3.6-3.1,3.8c-1.2,0.2-2.5,0.1-3.7,0.1c-0.4,0-0.9-0.1-1,0.6c0,0.7,0.5,0.6,1,0.6
		c0.7,0,1.4,0,2.1,0c1.7,0.1,2.7,1.2,2.8,2.9c0.1,1.7-1.5,2.8-2.8,2.8c-0.8,0-1.6,0-2.3,0c-0.5,0-0.8,0.1-0.8,0.7
		c0,0.5,0.3,0.7,0.8,0.7c1.4,0,2.7,0,4.1,0.2c1.6,0.2,2.8,1.6,2.9,3.3c0.1,1.6-0.8,3-2.4,3.5c-0.6,0.2-1.2,0.3-1.8,0.3
		c-2.2,0-4.4,0-6.7,0c-4,0.1-4.8-2.1-4.9-4.8C172.6,199.2,172.7,196.9,172.7,194.6z"/>
	<path d="M116.4,155.3c0,2.1,0,4.2,0,6.3c0,0.8,0.2,1.2,1.1,1.2c0.8,0,1.5,0.2,2.3,0.4c0.7,0.2,0.9,0.8,0.8,1.9
		c-0.1,0.8-0.6,0.7-1.1,0.7c-3.8,0-7.6,0-11.3,0c-0.6,0-1.2,0-1.2-0.9c0-1,0.4-1.6,1.2-1.7c0.1,0,0.2,0,0.3,0
		c1.2-0.2,1.5-0.2,1.4-1.7c-0.1-4.3-0.1-8.5,0-12.8c0-0.8-0.2-1-0.9-0.9c-0.7,0-1.4,0-2.1,0c-0.6,0-0.9-0.3-0.7-0.9
		c0.2-0.6,0.4-1.3,0.6-1.9c0.3-0.9,1.1-1,1.9-1c1.2,0,1.1,0,1.2-1.1c0.4-4.9,2.5-8.8,7.1-10.9c0.4-0.2,0.9-0.3,1.4-0.3
		c1.1,0,2.1-0.1,3.2,0c2,0.1,3.4,1.1,4.2,2.9c0.6,1.3,0.3,2.6-0.6,3.6c-0.9,1-2,1.4-3.4,0.9c-1.3-0.5-2.2-1.4-2.5-2.8
		c-0.1-0.4-0.1-0.7-0.2-1.1c-0.3-0.8-0.7-1-1.3-0.3c-0.3,0.4-0.6,0.8-0.8,1.3c-0.8,2.4-0.6,4.8-0.6,7.3c0,0.2,0.4,0.5,0.7,0.5
		c1.4,0,2.7,0,4.1,0c1.3,0,1.4,0.2,1.2,1.5c-0.6,2.8-0.4,2.3-2.9,2.3c-0.7,0-1.4,0-2.2,0c-0.7,0-0.9,0.2-0.9,0.9
		C116.4,151,116.4,153.2,116.4,155.3z"/>
	<path d="M99.2,154.4c-1.8,0-3.6,0-5.4,0c-1.1,0-1.1,0-1,1.1c0.1,2,0.9,3.6,2.2,5c2,2.2,5.8,2.4,8.3,0.6c0.9-0.7,1.7-0.6,2.6-0.2
		c0.7,0.3,0.8,0.7,0.4,1.3c-1.2,1.7-2.8,2.8-4.6,3.6c-1.2,0.5-2.3,0.6-3.5,0.6c-1,0-1.9,0-2.9,0c-3.5,0-6.1-1.8-7.8-4.6
		c-3-4.8-2.5-9.7,0.6-14.3c1.9-2.8,5-4.1,8.4-4.2c3-0.1,5.6,0.8,7.8,2.9c1.6,1.6,2.2,3.6,2.4,5.8c0,0.7-0.3,1.4-0.7,2
		c-0.1,0.3-0.7,0.4-1,0.4C102.9,154.4,101.1,154.4,99.2,154.4z M96.3,151.1c0.7,0,1.4,0,2.1,0c1.6,0,1.7,0,1.4-1.6
		c-0.4-2.2-1.4-3.5-4-3.1c-1.5,0.2-2.7,1.9-2.9,3.7c-0.1,0.7,0.1,1,0.9,1C94.6,151,95.4,151.1,96.3,151.1z"/>
	<path d="M103.8,183.4c1.8,0,3.7,0,5.5,0c0.8,0,1.7,0.2,2.4,0.5c1.2,0.5,2,2.2,1.9,3.5c-0.1,1.4-1.3,2.8-2.6,3
		c-0.7,0.1-1.4,0.2-2.1,0.2c-1.1,0-1.2,0.1-1.2,1.2c0,3.4,0.1,6.8,0,10.2c0,1-0.4,2-0.9,2.8c-0.9,1.5-2.4,1.7-4,1.4
		c-1.5-0.3-2.4-1.4-2.8-2.8c-0.1-0.5-0.2-1.1-0.2-1.7c0-3.2,0-6.5,0-9.7c0-1.4,0-1.4-1.4-1.4c-1.6,0-3.1-0.4-4-1.9
		c-0.9-1.6-0.2-4.8,2.1-5.1c1.6-0.2,3.1-0.2,4.7-0.3C102.2,183.4,103,183.4,103.8,183.4z"/>
	<path d="M162,183.4c1.9,0,3.8-0.1,5.7,0c1.6,0.1,3,0.5,3.7,2.2c0.9,2.1-0.3,4.7-2.5,4.9c-0.5,0.1-1,0.1-1.5,0.1
		c-1.5,0-1.5,0-1.5,1.5c0,3.2,0,6.3,0,9.5c0,1.2-0.2,2.4-1,3.3c-1.1,1.3-2.8,1.7-4.4,1.1c-1.4-0.5-2.4-2-2.4-3.8c0-3,0-6.1,0-9.1
		c0-0.8,0.2-1.7-0.2-2.3c-0.3-0.4-1.4-0.3-2.1-0.4c-2.2-0.3-3.5-1.5-3.6-3.3c-0.1-2.2,1.5-3.9,3.9-3.9
		C158.1,183.4,160,183.4,162,183.4z"/>
	<path d="M198.3,154.4c0,1.7,0,3.4,0,5.1c0,2.8,2.2,4.1,4.6,2.7c0.3-0.2,0.5-0.3,0.8-0.5c0.8-0.6,1.7-0.5,2.2,0.3
		c0.1,0.2,0.1,0.7-0.1,0.9c-0.9,1.2-2.1,2.1-3.5,2.7c-2.5,1.1-5.1,1.1-7.6,0.2c-1.3-0.5-2.3-1.6-2.6-3c-0.3-1.2-0.5-2.4-0.5-3.6
		c-0.1-3.4,0-6.8,0-10.2c0-0.8-0.3-1.2-1.1-1.1c-0.3,0-0.6,0-0.9,0c-0.6-0.1-1.3,0.1-1.6-0.7c-0.3-0.9,0-1.8,0.7-2.4
		c2.5-1.8,5-3.7,7.6-5.5c0.4-0.3,1.1-0.4,1.6-0.2c0.2,0.1,0.4,0.8,0.4,1.2c0.1,0.9,0.1,1.8,0,2.7c0,0.7,0.2,1,1,1c1.7,0,3.5,0,5.2,0
		c1.2,0,1.4,0.3,1.1,1.4c0,0,0,0.1,0,0.1c-0.5,2.7-0.8,2.3-3.2,2.3c-1.1,0-2.1,0-3.2,0c-0.6,0-0.9,0.3-0.9,0.9
		C198.3,150.7,198.3,152.6,198.3,154.4z"/>
	<path d="M36.8,154.3c0,1.8,0,3.6,0,5.4c0.1,2,1.5,3.3,3.4,3c0.7-0.1,1.4-0.6,2-1c0.8-0.6,1.7-0.6,2.3,0.3c0.1,0.2,0.1,0.7-0.1,0.9
		c-1.6,1.8-3.5,3.1-6,3.3c-1,0.1-2,0-3,0c-2.4,0-4.4-1.9-4.8-4.2c-0.6-3-0.2-6-0.3-9c-0.1-1.3,0-2.7,0-4c0-1.1-0.1-1.1-1.1-1.1
		c-0.4,0-0.9,0.1-1.3,0c-0.5-0.1-1.1-0.3-1.2-0.7c-0.3-0.6-0.3-1.4,0.4-2c0.8-0.6,1.6-1.2,2.3-1.8c1.9-1.4,3.9-2.8,5.9-4.1
		c0.3-0.2,0.9-0.4,1.3-0.2c0.3,0.1,0.4,0.7,0.4,1.1c0.1,1,0,2,0,3c0,0.7,0.1,1,0.9,0.9c1.8-0.1,3.6-0.1,5.4,0c0.9,0,1.2,0.5,0.9,1.4
		c-0.1,0.2-0.1,0.4-0.2,0.6c-0.3,1.8-0.4,1.9-2.2,1.9c-1.3,0-2.6,0-3.9,0c-0.7,0-1,0.2-1,1C36.8,150.7,36.8,152.5,36.8,154.3
		C36.8,154.3,36.8,154.3,36.8,154.3z"/>
	<path d="M76.4,148.5c0.8-1.9,1.8-3.4,3.5-4.4c2.4-1.3,5.5-0.7,6.4,1.9c0.8,2.3-1.1,5-3.6,4.8c-1.2-0.1-1.9-0.9-2.5-1.8
		c-0.2-0.2-0.3-0.4-0.5-0.9c-0.8,1.3-1.4,2.4-2.1,3.6c-1,1.7-1.3,3.5-1.2,5.5c0.1,1.6,0,3.1,0,4.7c0,0.5,0.2,0.8,0.6,0.8
		c0.3,0,0.7,0,1,0.1c1.5,0.2,2.1,0.9,2,2.4c-0.1,0.7-0.6,0.7-1.1,0.7c-2.4,0-4.8,0-7.2,0c-1.2,0-2.3,0-3.5,0c-1,0-1.2-0.3-1.1-1.2
		c0.2-1.5,0.2-1.5,1.7-1.6c1,0,1.2-0.2,1.2-1.3c0-3.7,0-7.3,0-11c0-0.4,0-0.8,0-1.1c-0.2-1.7-0.4-1.9-2-2.3c-0.6-0.2-1-0.5-1.1-1.2
		c0-0.6,0.3-1,0.9-1.1c1.7-0.3,3.4-0.7,5.1-1c0.6-0.1,1.3-0.3,1.9-0.4c1.2-0.2,1.5,0,1.5,1.2C76.4,146,76.4,147.2,76.4,148.5z"/>
	<path d="M132.4,148.2c0.8-1.1,1.4-2.3,2.3-3.2c1.6-1.6,3.5-2,5.6-1.2c1.6,0.6,2.7,2.6,2.1,4.2c-0.7,1.9-1.9,3.3-4.2,2.7
		c-0.5-0.1-1-0.6-1.5-1c-0.4-0.4-0.6-0.9-1.1-1.5c-1,1.8-1.9,3.4-2.7,5.2c-0.4,0.9-0.5,1.9-0.6,2.9c-0.1,1.8,0,3.6,0,5.4
		c0,0.8,0.3,1.1,1.1,1.2c0.3,0,0.7,0.1,1,0.1c1.1,0.1,1.6,0.7,1.6,1.9c0,0.8-0.2,1.1-0.9,1.1c-1,0-2,0-2.9,0c-2.6,0-5.2,0-7.8,0
		c-0.7,0-1.2-0.1-1.3-0.9c0-1.3,0.3-1.8,1.3-1.8c0.1,0,0.3,0,0.4,0c1,0,1.2-0.2,1.2-1.2c0-1.7,0-3.5,0-5.2c0-2.3,0-4.6,0-6.8
		c0-1.6-0.5-2.2-2.1-2.5c-0.6-0.1-0.9-0.4-0.9-1c0-0.6-0.1-1.2,0.7-1.4c0.8-0.2,1.6-0.4,2.4-0.5c1.7-0.3,3.4-0.6,5.1-0.9
		c0.9-0.1,1,0,1,1C132.3,145.8,132.4,147,132.4,148.2z"/>
	<path d="M151.8,116.6c0.6-0.8,1.3-1.6,1.9-2.4c1.3-1.7,1.9-1.6,2.7,0.4c0.4,1,0.7,2.1,1.2,3.2c0.2,0.4,0.6,0.9,1,0.9
		c0.4,0,0.9-0.4,1.1-0.8c0.3-0.4,0.3-1,0.4-1.6c0.2-0.7,0.4-1.5,0.7-2.2c0.2-0.3,0.7-0.7,1-0.6c0.3,0,0.7,0.5,0.8,0.8
		c0.2,0.6,0.2,1.3,0.2,1.9c0,0.3-0.1,0.6-0.1,0.9c-0.1,1.2,0.4,2.1,1.3,2.4c0.9,0.3,2.2-0.1,2.8-1c0.2-0.3,0.2-0.8,0.1-1.1
		c-0.9-2.9-0.9-5.8,0.2-8.7c0.2-0.5,0.4-0.9,0.6-1.3c0.5-0.8,1.2-1.4,2.2-1.2c1,0.2,1.5,0.9,1.7,1.7c0.5,2,0.4,4.1-0.2,6.1
		c-0.3,1.1-0.8,2.2-1.3,3.3c-0.3,0.6-0.5,1.1,0,1.7c0.6,0.7,1.7,1.1,2.2,0.8c0.2-0.1,0.4-0.5,0.4-0.7c-0.2-1.8,0.4-3.4,1.5-4.8
		c0.6-0.8,1.4-1.4,2.5-1.2c1.1,0.3,1.5,1.3,1.7,2.2c0.2,1.2-0.3,2.3-1.2,3.1c-0.4,0.3-0.8,0.6-1.2,0.9c0.8,0.6,1.9,0.5,2.7-0.2
		c1.2-1.1,1.9-2.4,2.4-3.9c0.2-0.5,0.4-1,0.6-1.5c0.4-0.7,1.1-0.7,1.3,0.1c0.4,1.1,0.7,2.3,1.1,3.4c0.2,0.6,0.4,1.3,0.7,1.9
		c0.5,0.8,1.1,0.9,1.4,0c0.3-0.8,0.3-1.7,0.4-2.5c0.1-0.8-0.1-1.6,0-2.4c0.1-0.5,0.5-1,0.9-1.3c0.7-0.5,1.4-0.2,1.5,0.6
		c0.1,0.3,0.1,0.7,0,1c-0.3,2.4-1,4.6-2.8,6.2c-0.4,0.4-1,0.7-1.5,0.8c-0.9,0.3-1.7-0.1-2.1-0.9c-0.3-0.6-0.5-1.3-0.7-1.9
		c-0.3-0.7-0.5-0.7-1-0.2c-0.8,0.8-1.6,1.7-2.5,2.3c-1.4,0.9-3,1.4-4.6,0.1c-0.2-0.1-0.5-0.1-0.8,0c-1.6,0.8-3.1,1-4.4-0.5
		c-0.4-0.5-0.9-0.5-1.5-0.1c-0.5,0.3-0.9,0.7-1.5,0.9c-1.6,0.8-2.8,0.4-3.8-1c-1.1-1.4-1.1-1.4-2.1,0c0,0-0.1,0.1-0.1,0.1
		c-1.2,1.6-1.8,1.6-2.8-0.1c-0.4-0.7-0.7-1.5-1.1-2.2c-0.6-1.2-1-1.3-2-0.5c-1.3,1.1-2.5,2.3-3.9,3.3c-0.4,0.3-1.1,0.7-1.5,0.5
		c-0.7-0.3-0.4-1-0.2-1.6c0.4-1.4,0.7-2.8,1.1-4.2c0.1-0.4,0.2-0.8,0.4-1.1c0.2-0.2,0.6-0.5,0.8-0.5c0.2,0,0.4,0.4,0.5,0.7
		c0.2,0.6,0.3,1.1,0.5,1.7C151.6,116.5,151.7,116.6,151.8,116.6z M168.8,115.9c0.1,0,0.2,0,0.3,0c0.7-1.2,1-2.5,1.1-3.8
		c0.1-0.8,0-1.7-0.1-2.5c0-0.2-0.4-0.5-0.6-0.7c-0.2,0.2-0.5,0.4-0.6,0.6c-0.1,0.2-0.2,0.5-0.2,0.7c-0.1,1.4-0.1,2.8-0.2,4.2
		C168.5,114.9,168.7,115.4,168.8,115.9z M176.6,116.5c-0.4-0.5-0.6-0.8-0.9-1.2c-0.4,0.3-0.9,0.6-1,0.9c-0.1,0.6,0.1,1.3,0.2,1.9
		c0,0.1,0.5,0.1,0.6,0C175.9,117.7,176.2,117.1,176.6,116.5z"/>
	<path d="M26.2,50.3c0,1.2,0,2.3,0,3.5c0,0.5,0,0.9,0,1.4c0,2.3,0,2.3-2.3,2.4c-0.5,0-1,0-1.5-0.1c-0.2,0-0.5-0.3-0.6-0.5
		c-0.1-0.2-0.1-0.4-0.1-0.7c0-4.6,0-9.2,0-13.8c0-1.1,0.1-1.2,1.2-1.2c0.9,0,1.7,0,2.6,0c0.7,0,1.1,0.3,1.5,0.9
		c0.9,1.7,1.9,3.3,2.9,4.9c0.1,0.1,0.2,0.3,0.4,0.6c0-0.5,0.1-0.8,0.1-1.1c0-1.4,0-2.9,0-4.3c0-0.7,0.3-1,1-1c0.8,0,1.6,0,2.4,0
		c0.8,0,1.1,0.3,1.1,1.1c0,3.7,0,7.4,0,11.2c0,1.1,0,2.1,0,3.2c0,0.7-0.3,1-1,1c-0.1,0-0.2,0-0.3,0c-2,0.3-3.4-0.3-4.2-2.3
		c-0.8-1.8-2-3.4-3-5C26.4,50.2,26.3,50.3,26.2,50.3z"/>
	<path d="M64,108.4c0,2.2,0,4.2,0,6.2c0,1,0,2.1,0,3.1c0,0.8-0.4,1.1-1.3,1.1c-1,0-1.5-0.3-1.6-1c0-0.2,0-0.5,0-0.7
		c0-5.4-0.1-10.8,0-16.2c0.1-3.4,1.4-6.2,4.4-8c1.6-1,3.4-1.2,5.3-0.4c1.8,0.8,3.3,1.8,4.3,3.6c1,1.9,1.5,4,1.2,6.2
		c-0.3,2.3-1,4.5-2.7,6.1c-2.6,2.5-6.1,3.1-9.1,0.3C64.4,108.7,64.3,108.6,64,108.4z M73.3,101.5c-0.1,0-0.1,0-0.2-0.1
		c0-2.5-0.6-3.7-2.4-4.9c-1-0.7-3.6-0.6-4.5,0.1c-1.2,0.9-1.7,2-1.8,3.4c-0.1,1.7-0.3,3.3,0.6,4.8c0.9,1.4,2.1,2.1,3.7,2
		c1.6,0,2.8-0.7,3.5-2.1C72.8,103.8,73,102.6,73.3,101.5z"/>
	<path d="M36.6,49.3c0-2.3,0-4.7,0-7c0-0.7,0.2-1.1,1-1.1c2.5,0.1,4.9,0.1,7.4,0.4c2,0.2,3.5,1.4,4.1,3.3c1,3.1,1.1,6.3-0.1,9.5
		c-0.5,1.5-1.6,2.4-3.1,2.7c-2.4,0.5-4.8,0.8-7.3,0.5c-2-0.2-2-0.3-2-2.3C36.6,53.2,36.6,51.2,36.6,49.3z M41.3,48.9
		C41.3,48.9,41.3,48.9,41.3,48.9c0,0.6,0,1.3,0,1.9c0,0.6,0,1.3,0,1.9c0,0.2,0.1,0.4,0.2,0.5c0.9,0.6,3-0.1,3.1-1.2
		c0.1-1.7,0.1-3.4,0-5.1c0-0.7-0.6-1.2-1.4-1.1c-0.4,0-0.8,0-1.2,0c-0.5,0-0.8,0.2-0.8,0.8C41.3,47.2,41.3,48.1,41.3,48.9z"/>
	<path d="M30.9,194.8c0,2.4,0,4.8,0,7.3c0,1.1-0.2,2.1-0.9,3c-1,1.2-2.4,1.6-3.9,1.3c-1.5-0.3-2.4-1.3-2.8-2.7
		c-0.2-0.7-0.3-1.5-0.3-2.3c0-4.2,0-8.5,0-12.7c0-0.9,0.1-1.7,0.3-2.6c0.4-1.8,2-2.9,3.9-2.8c1.9,0.1,3.2,1.2,3.5,3
		c0.1,0.5,0.1,1,0.1,1.5C30.9,190.2,30.9,192.5,30.9,194.8z"/>
	<path d="M33.2,98.1c0-3.5,0-6.9,0-10.4c0-1.2,0.2-1.4,1.4-1.4c3.1,0,6.3-0.1,9.4-0.1c0.6,0,1,0.3,1.1,0.9c0,0.1,0,0.1,0,0.2
		c0,3.2,0.3,2.7-2.5,2.7c-1.8,0-3.6,0-5.4,0c-0.8,0-1,0.3-1,1c0,1.4,0,2.8,0,4.2c0,0.8,0.3,1,1,1c1.9,0,3.7,0,5.6,0
		c1.1,0,1.3,0.2,1.3,1.3c0,2.3,0,2.3-2.3,2.3c-1.5,0-3.1,0-4.6,0c-0.8,0-1.1,0.3-1.1,1.1c0,1.5,0,3,0,4.5c0,0.7,0.2,0.9,1,0.9
		c2.5-0.1,5,0,7.4-0.1c0.1,0,0.2,0,0.3,0c0.7,0.2,1,0.8,0.9,2.4c0,0.7-0.2,1.3-1.1,1.3c-3.5,0-6.9,0-10.4,0c-0.9,0-1.2-0.4-1.2-1.4
		C33.2,105.1,33.2,101.6,33.2,98.1z"/>
	<path d="M119.7,40.9c1.2,0.3,2.5,0.3,3.6,0.8c2,0.9,3.1,2.7,3.3,4.8c0.2,1.8,0.2,3.7,0,5.5c-0.4,3.3-2.6,5.3-6.1,5.5
		c-1.5,0.1-2.9,0.1-4.3-0.6c-2-0.9-3.1-2.5-3.5-4.5c-0.4-2.7-0.6-5.5,0.7-8.1c0.9-2,2.6-3,4.7-3.2c0.5-0.1,1.1,0,1.6,0
		C119.7,41.1,119.7,41,119.7,40.9z M117.2,49.4c0.1,0.9,0.2,1.8,0.4,2.7c0.2,1,0.9,1.4,2.2,1.4c1,0,1.8-0.6,2-1.5
		c0.4-1.7,0.4-3.3,0-4.9c-0.2-0.8-0.9-1.3-1.9-1.3c-1.4,0-2,0.2-2.3,1.2C117.4,47.7,117.3,48.5,117.2,49.4z"/>
	<path d="M82.8,49.2c0.2-1.4,0.3-2.7,0.7-4c0.6-2.4,2.9-4,5.3-4c1.4,0,2.9,0,4.3,0.4c2.3,0.6,3.4,2.5,3.9,4.7c0.4,2,0.4,4.1,0,6.1
		c-0.5,2.9-2.7,5.3-5.9,5.2c-1.3,0-2.6-0.1-3.9-0.4c-2.7-0.6-4-3.4-4.1-5.8c-0.1-0.7,0-1.4,0-2.2C82.9,49.2,82.9,49.2,82.8,49.2z
		 M92.6,49.4c-0.2-0.8-0.3-1.6-0.5-2.4c-0.2-0.8-0.9-1.2-1.9-1.3c-1.3,0-1.9,0.2-2.2,1.2c-0.5,1.8-0.5,3.6,0.1,5.4
		c0.3,0.8,1,1.2,2.2,1.2c1,0,1.7-0.5,1.9-1.3C92.4,51.2,92.5,50.3,92.6,49.4z"/>
	<path d="M111.4,52.5c0,1.4,0,2.7,0,4.1c0,0.7-0.2,1-1,1c-2.1,0-4.1,0.1-6.2,0.1c-2.4,0-4.4-1.2-5.2-3.5c-1.2-3.2-1.1-6.4,0.1-9.6
		c0.7-1.9,2.3-2.9,4.1-3.2c2.2-0.3,4.5-0.4,6.6,0.6c0.9,0.5,1,0.7,0.5,1.6c-0.5,0.7-0.9,1.4-1.3,2.1c-0.3,0.6-0.8,0.6-1.4,0.5
		c-0.9-0.2-1.9-0.3-2.9-0.4c-0.8,0-1.3,0.6-1.4,1.3c-0.1,1.7-0.3,3.5-0.1,5.2c0.1,1.3,2.3,2.1,3.3,1.2c0.4-0.3,0.4-1,0.5-1.5
		c0-0.1-0.6-0.4-1-0.4c-1.7-0.1-1.9-0.3-1.5-1.9c0.4-2.1,0.4-2.1,2.5-2.1c1.1,0,2.2,0,3.3,0c0.7,0,1.1,0.3,1,1
		C111.4,49.8,111.4,51.1,111.4,52.5z"/>
	<path d="M81.9,52.3c0,1.4,0,2.9,0,4.3c0,0.7-0.3,1-0.9,1c-2.4,0-4.7,0.2-7.1,0c-2.5-0.2-4.1-1.8-4.8-4.2c-0.8-2.9-0.8-5.9,0.3-8.7
		c0.9-2.2,2.7-3.3,5-3.4c1.9-0.1,3.9-0.3,5.8,0.7c1,0.5,1.1,0.8,0.5,1.7c-0.4,0.6-0.8,1.2-1.2,1.8C79.1,46,78.7,46.2,78,46
		c-0.7-0.2-1.5-0.3-2.3-0.3c-1.2,0-1.8,0.3-2,1.4c-0.4,1.8-0.5,3.7,0.1,5.5c0.3,0.8,1.3,1.2,2.5,1c0.8-0.1,1.2-0.6,1.3-1.4
		c0.1-0.6-0.1-0.9-0.8-0.9c-0.1,0-0.2,0-0.3,0c-1.9,0-2-0.1-1.5-2c0.4-2,0.4-2,2.5-2c1.1,0,2.2,0,3.3,0c0.7,0,1,0.3,1,1
		C81.8,49.7,81.8,51,81.9,52.3C81.8,52.3,81.9,52.3,81.9,52.3z"/>
	<path d="M11.6,104.3c-1.1,0-2.2,0-3.3,0c-0.8,0-1.2,0.4-1.4,1.1c-0.4,1.3-0.8,2.5-1.2,3.8c-0.2,0.6-0.5,0.8-1.1,0.7
		c-0.1,0-0.3,0-0.4,0c-1.2,0-1.5-0.5-1.1-1.7c0.7-2.1,1.4-4.2,2.1-6.3c0.5-1.6,1.1-3.1,1.6-4.7c0.7-2.1,1.3-4.3,2-6.4
		c0.4-1.3,0.8-2.5,1.2-3.8c0-0.1,0.1-0.3,0.2-0.3c0.8-0.2,1.6-0.4,2.4-0.4c0.4,0,0.9,0.6,1.1,1c0.6,1.5,1.1,3.1,1.6,4.6
		c0.7,2.1,1.2,4.2,1.9,6.2c0.9,2.8,1.8,5.6,2.7,8.3c0.2,0.7,0.5,1.4,0.7,2.1c0.2,0.9-0.1,1.2-1,1.1c-1.8-0.2-1.8-0.2-2.3-1.9
		c-0.2-0.9-0.6-1.7-0.8-2.6c-0.2-0.8-0.7-1.1-1.5-1C13.7,104.4,12.6,104.3,11.6,104.3z M11.5,91.1c-0.5,1.5-1,2.7-1.3,3.9
		c-0.6,1.7-1.1,3.5-1.6,5.2c-0.1,0.5-0.1,0.7,0.5,0.7c1.6,0,3.2,0,4.7-0.1c0.3,0,0.6-0.1,0.9-0.1C13.7,97.5,12.6,94.4,11.5,91.1z"/>
	<path d="M93.9,103.1c-1.5,0-3,0-4.5,0c-0.8,0-1,0.3-0.7,1c0.8,2.5,3.7,3.8,6.1,2.4c0.4-0.2,0.8-0.7,1.2-1c0.1-0.1,0.4-0.3,0.5-0.3
		c0.6,0.5,1.2,1,1.7,1.7c0.2,0.2-0.1,0.9-0.4,1.3c-1.7,1.8-3.8,2.7-6.2,2.3c-1.9-0.3-3.4-1.5-4.5-3.2c-1.2-1.8-1.8-3.8-1.8-5.9
		c0.1-3.3,1-6.5,4.1-8.4c1.6-1,3.3-1.3,5.3-0.6c3.4,1.3,4.4,3.9,4.7,7.1c0.1,0.7,0,1.4,0,2.2c0,1.3-0.1,1.3-1.3,1.3
		C96.6,103.1,95.3,103.1,93.9,103.1z M92.4,99.7C92.4,99.7,92.4,99.7,92.4,99.7c0.9,0,1.9,0,2.8,0c0.1,0,0.1,0,0.2,0
		c0.4,0,0.8,0,0.7-0.6c-0.1-1.1-1.3-2.7-2.3-3c-2.8-0.8-4.2,0.3-5.1,2.8c-0.2,0.5,0.1,0.8,0.6,0.8C90.3,99.7,91.3,99.7,92.4,99.7z"
		/>
	<path d="M57,49.3c0-2.3,0-4.6,0-6.8c0-1.1,0.2-1.3,1.3-1.3c2.9,0,5.7,0,8.6,0c1.1,0,1.2,0.1,1.2,1.2c0,0.7,0,1.5,0,2.2
		c0,0.7-0.3,1.1-1.1,1.1c-1.4,0-2.8,0-4.2,0c-0.6,0-1.2-0.1-1.2,0.8c0,0.9,0.6,0.7,1.2,0.7c0.9,0,1.8,0,2.7,0c0.6,0,0.9,0.2,0.8,0.9
		c-0.1,0.8-0.2,1.5-0.3,2.3c-0.1,0.7-0.4,1-1.1,1c-0.8,0-1.6,0-2.3,0c-0.6,0-0.9,0.3-0.8,0.9c0,0.6,0.2,0.8,0.8,0.8
		c1.4,0,2.9,0,4.3,0c1.1,0,1.2,0.2,1.3,1.3c0,0.7,0,1.5,0,2.2c0,0.6-0.3,1-1,1c-3,0-6.1,0-9.1,0c-0.9,0-1-0.6-1-1.3
		C57,54,57,51.6,57,49.3z"/>
	<path d="M138.2,6.6c1.8-1.7,3.8-2,6-1.4c1.3,0.4,2.4,1.2,2.7,2.6c0.3,1.3,0.5,2.6,0.3,3.9c-0.3,1.8-0.7,3.6-1.4,5.3
		c-1.3,2.9-4.2,4.4-7.4,3.8c-0.8-0.1-1.6-0.7-2.4-1c-0.2,1.1-0.4,2.3-0.6,3.5c-0.2,1-0.3,2-0.6,3.1c0,0.2-0.3,0.5-0.5,0.5
		c-0.7,0.1-1.4,0.1-2.1,0c-0.2,0-0.4-0.6-0.3-1c0.3-2,0.7-4,1.1-6c0.7-3.8,1.3-7.6,2-11.4c0.1-0.6-0.1-0.8-0.6-0.9
		c-0.6,0-0.8-0.3-0.6-0.9c0.2-0.8,0.2-1.6,1.3-1.7C136.7,4.8,137.6,5.2,138.2,6.6z M144.5,11.1c-0.1,0-0.1,0-0.2-0.1
		c-0.1-0.6-0.1-1.2-0.3-1.8c-0.2-0.5-0.7-1.1-1.1-1.3c-1.2-0.6-3.1-0.3-4,0.7c-2,2.1-2.4,4.8-2.1,7.6c0.1,1.4,1.1,2,2.4,2.1
		c1.8,0.2,3.3-0.7,4-2.5C143.8,14.3,144.1,12.6,144.5,11.1z"/>
	<path d="M106.9,19.6c-0.3,2-0.7,4-1,6c-0.1,0.4-0.3,1.2-0.5,1.2c-0.7,0.2-1.5,0.1-2.3,0c-0.1,0-0.3-0.5-0.2-0.7
		c0.7-3.7,1.3-7.5,2-11.2c0.4-2.1,0.7-4.3,1.1-6.4c0.1-0.5,0-0.9-0.6-0.9c-0.6,0-0.7-0.4-0.6-0.9c0.1-0.7,0.1-1.5,1.1-1.7
		c1.4-0.3,2.6,0.1,3.1,0.9c0.1,0.2,0.2,0.4,0.3,0.7c1.3-1.3,2.9-1.8,4.7-1.7c2.5,0.1,4.2,1.8,4.3,4.3c0.2,3-0.3,5.8-1.8,8.4
		c-1.5,2.6-4.9,4-7.8,3C108,20.5,107.5,20,106.9,19.6z M115.2,11c0-0.3,0-0.6,0-0.9c-0.1-1.4-1-2.4-2.4-2.5c-1.5,0-2.9,0.4-3.7,1.8
		c-1.2,2.1-1.7,4.3-1.4,6.7c0.2,1.5,1.1,2.2,2.6,2.2c1.7,0.1,3-0.8,3.8-2.3C114.9,14.4,115.2,12.7,115.2,11z"/>
	<path d="M154.2,52.1c-0.3,1.1-0.5,2.1-0.9,3c-0.2,0.5-0.6,1.4-0.9,1.4c-0.8,0-0.7-0.9-0.8-1.5c-0.2-0.8-0.3-1.6-0.4-2.5
		c-0.6,0.5-1,0.8-1.4,1.1c-0.3,0.2-0.8,0.3-1,0.2c-0.2-0.1-0.4-0.6-0.4-1c0-0.5,0.1-1,0.1-1.5c0-0.8-0.2-1-0.9-0.6
		c-1.1,0.5-2.1,1.1-3.2,1.6c-0.4,0.2-0.9,0.1-1.4,0.1c0.1-0.5,0.2-1,0.5-1.4c0.8-1,1.7-2,2.5-3c0.2-0.2,0.3-0.5,0.6-0.9
		c-0.4-0.1-0.7-0.2-1.1-0.2c-0.6,0-1.3,0-1.9,0c-0.4-0.1-0.8-0.3-1.2-0.5c0.3-0.3,0.5-0.7,0.8-1c0.4-0.3,0.9-0.6,1.4-0.9
		c0.2-0.1,0.3-0.3,0.7-0.6c-0.8-0.2-1.4-0.4-2-0.6c-0.3-0.1-0.6-0.4-0.9-0.7c0.3-0.2,0.7-0.5,1-0.5c1.3,0,2.6,0.1,3.9,0.3
		c0.4,0,0.7,0.5,1,0.7c-0.2,0.3-0.4,0.6-0.7,0.9c-0.5,0.4-1,0.7-1.6,1.1c0,0.1,0,0.2,0.1,0.3c0.7,0.1,1.3,0.2,2,0.3
		c0.4,0.1,0.8,0.4,1.2,0.5c-0.2,0.4-0.4,0.8-0.6,1.2c-0.4,0.5-0.8,0.8-1.2,1.3c0.1,0.1,0.1,0.2,0.2,0.3c0.5-0.2,1-0.4,1.5-0.6
		c0.3-0.1,0.7-0.2,0.9-0.1c0.2,0.2,0.2,0.6,0.2,0.9c0,0.6-0.2,1.2-0.3,1.7c0.1,0,0.2,0.1,0.3,0.1c0.3-0.5,0.6-0.9,1-1.3
		c0.2-0.2,0.5-0.3,0.7-0.5c0.2,0.3,0.4,0.5,0.5,0.8c0.1,0.7,0.1,1.3,0.1,2c0.1,0,0.2,0,0.3,0c0.2-0.6,0.3-1.2,0.5-1.8
		c0.1-0.2,0.3-0.4,0.5-0.7c0.2,0.2,0.5,0.3,0.7,0.6c0.2,0.2,0.4,0.5,0.6,0.8c0.1,0,0.2,0,0.2-0.1c0-0.4,0-0.8,0-1.3
		c0.1-0.8,0.4-1,1.1-0.6c0.4,0.3,0.8,0.7,1.2,1c0.2,0.2,0.5,0.4,0.7,0.6c0.1,0,0.1-0.1,0.2-0.1c-0.2-0.5-0.5-1-0.7-1.6
		c-0.2-0.7-0.9-1.4-0.3-2.1c0.6-0.6,1.3,0,2,0.2c0.4,0.1,0.7,0.2,1.1,0.3c0.2,0,0.4,0,0.5-0.1c0-0.2,0-0.4-0.1-0.5
		c-0.5-0.6-1-1.2-1.6-1.7c-1.1-1.1-1-1.7,0.5-2.1c1.3-0.4,2.6-0.5,3.9-0.7c0.2,0,0.5,0.3,0.8,0.4c-0.2,0.2-0.3,0.5-0.5,0.6
		c-0.6,0.3-1.3,0.5-1.9,0.8c-0.8,0.3-0.8,0.7-0.2,1.3c0.8,0.8,1.6,1.7,2.3,2.5c0.4,0.5,1.1,1,0.6,1.7c-0.4,0.7-1.2,0.3-1.8,0.1
		c-0.9-0.2-1.8-0.6-2.7-0.8c-0.7-0.2-0.9,0-0.6,0.7c0.4,1.1,0.9,2.2,1.3,3.3c0.1,0.3-0.1,0.7-0.1,1.1c-0.4-0.1-0.9,0-1.2-0.2
		c-0.8-0.6-1.5-1.2-2.3-1.8c-0.7-0.5-0.9-0.4-1.1,0.4c0,0.1,0,0.2-0.1,0.3c-0.2,0.4-0.4,0.7-0.6,1.1c-0.3-0.2-0.6-0.4-1-0.7
		C154.7,52.5,154.5,52.4,154.2,52.1z"/>
	<path d="M106.6,110.6c-3.3,0-5-1.1-6.4-2.8c-0.2-0.2-0.2-0.7-0.1-0.9c0.3-0.5,0.8-1,1.3-1.4c0.6-0.4,1,0.1,1.4,0.5
		c1,1.3,2.2,1.6,3.7,1.2c1.1-0.3,1.6-0.8,1.6-1.9c0-1-0.6-1.8-1.5-2.1c-1.6-0.6-3.3-0.9-4.6-2c-2.2-1.8-2.2-5.8,0-7.6
		c2.8-2.3,6.5-1.6,8.6,1.4c0.3,0.4,0.3,0.9-0.2,1.3c-0.1,0.1-0.2,0.2-0.3,0.3c-1.1,1-1.1,1-2.2,0c-0.7-0.7-2.6-1-3.5-0.6
		c-0.6,0.3-1,0.7-1,1.5c0,0.9,0.8,1.3,1.4,1.5c0.7,0.3,1.5,0.5,2.3,0.7c3.3,0.7,5,4.4,3.9,7.4C109.9,109.4,108.3,110.6,106.6,110.6z
		"/>
	<path d="M53.3,104.1c-0.8,1.2-1.4,2.3-2,3.3c-0.2,0.3-0.4,0.6-0.5,0.9c-1.1,1.8-1.1,1.8-3.2,1.7c-0.3,0-0.7-0.2-0.7-0.4
		c-0.1-0.3,0-0.7,0.2-0.9c1.4-2.2,2.8-4.3,4.2-6.5c0.3-0.5,0.3-0.9,0-1.4c-1.3-1.9-2.5-3.8-3.7-5.7c-0.3-0.4-0.7-0.7-0.9-1.1
		c-0.1-0.3-0.2-0.7-0.1-1c0.1-0.2,0.5-0.2,0.8-0.3c0.1,0,0.3,0.1,0.4,0.1c1.8-0.4,2.7,0.7,3.4,2.2c0.5,1,1.1,1.9,1.7,2.8
		c0.5,0.8,0.7,0.9,1.2,0c0.8-1.3,1.6-2.6,2.3-3.9c0.5-0.8,1-1.3,2-1.1c0.4,0,0.7-0.1,1.1,0c0.3,0,0.8,0.1,0.8,0.2
		c0.1,0.3,0.1,0.8,0,1c-1.4,2.2-2.8,4.4-4.2,6.5c-0.4,0.6-0.5,1.2-0.1,1.8c1.3,2,2.6,4,3.8,6.1c0.2,0.4,0.3,1,0.2,1.4
		c-0.1,0.2-0.7,0.3-1.1,0.4c-1.1,0.1-1.9-0.3-2.4-1.4C55.5,107.1,54.4,105.7,53.3,104.1z"/>
	<path d="M117.7,110.6c-2.6,0.1-4.2-1.2-5.6-2.9c-0.6-0.7-0.2-0.8,1-2.1c0.4-0.5,0.9-0.3,1.3,0c0.2,0.2,0.3,0.3,0.4,0.5
		c0.9,1.2,3.1,1.3,4.1,0.8c0.8-0.4,1.1-1.2,1-2.2c-0.1-0.8-0.7-1.3-1.5-1.6c-1.6-0.6-3.2-1.2-4.6-2.1c-1.7-0.9-1.7-2.7-1.6-4.4
		c0.2-3.4,4-5.3,7-4.2c1.2,0.4,2.2,1.2,3,2.2c0.4,0.6,0.5,1.1-0.2,1.6c-0.2,0.1-0.3,0.3-0.5,0.5c-0.6,0.6-1,0.6-1.6-0.1
		c-0.8-0.9-1.8-1.2-3-1.1c-1,0-1.8,0.8-1.9,1.7c0,0.8,0.8,1.4,1.8,1.7c1.2,0.3,2.3,0.7,3.4,1.2c2.4,1,3.3,4.5,2.5,6.7
		C121.9,109.4,120.2,110.6,117.7,110.6z"/>
	<path d="M119,15.6c0.1-2.7,0.5-5.3,2-7.6c1.2-1.9,2.9-2.8,5.1-3c0.8-0.1,1.6-0.1,2.3,0c3,0.4,4.5,2.3,4.2,5.6
		c-0.2,2.2-0.5,4.4-1.6,6.4c-1.2,2.4-3.2,3.7-5.8,3.8c-1,0.1-2,0-3-0.2c-1.9-0.3-3.1-1.9-3.3-4C119,16.3,119,16,119,15.6z
		 M129.6,10.8c-0.2-2.7-1.6-3.7-4-3.1c-1.1,0.3-1.9,1.1-2.4,2.1c-0.9,1.7-1.2,3.5-1.2,5.3c-0.1,1.2,0.2,2.3,1.4,2.9
		c1.2,0.6,3.1,0.2,4-0.7C129.4,15.5,129.5,13,129.6,10.8z"/>
	<path d="M155.7,96.2c2.3,0.1,4.3-0.1,4.1-3.1c1.1,0.4,1.7,1.2,2.1,2c0.4,0.7,0.6,1.5,1.6,1.5c0.9,0,1.7-0.3,2-1.3
		c0.1-0.2,0.5-0.4,0.8-0.4c1.8-0.4,3.2-1.3,3.9-3.1c0.2-0.5,0.5-0.6,0.8-0.3c1.2,1,2.5,1.3,4,1.2c0.6,0,1.2,0.4,1.8-0.1
		c0.1-0.1,0.7,0.2,0.7,0.3c-0.1,0.8,1.5,1.3,0.6,2c-0.7,0.6-0.9,1.2-1.2,1.9c-0.3,0.8-0.7,1.6-1.7,1.6c-1,0-2-0.4-2.6-1.2
		c-0.3-0.4-0.5-1-0.8-1.4c-0.3-0.5-0.8-0.6-1.2-0.2c-1.9,2-4.3,2.9-7,2.6c1.6,0.7,3.1,0.6,4.7,0c0.7-0.3,1.4-0.8,2-1.3
		c0.6-0.4,1-0.4,1.3,0.2c1,1.8,2.5,2.5,4.4,2.4c0.4,0,0.8,0.2,1.2,0.4c-0.3,0.3-0.6,0.7-1,0.9c-1.4,0.4-2.8,0.8-4-0.6
		c-0.1-0.1-0.5-0.1-0.7,0c-3.6,1.8-6.8,1.2-10-1c-0.6-0.4-1.5-0.7-2.2-0.8C157.9,98.1,156.7,97.6,155.7,96.2z M174.8,96.3
		c0.3-0.5,0.7-0.8,0.7-1.2c0-0.2-0.5-0.6-0.7-0.6c-0.2,0-0.6,0.4-0.6,0.7C174.1,95.5,174.4,95.8,174.8,96.3z"/>
	<path d="M196.3,71.3c-0.6-0.4-1.2-0.7-1.7-1.1c-0.6-0.5-1-1.2-0.7-2.1c0.3-1,1-1.7,2-2.1c0.1,0,0.4,0.3,0.5,0.4
		c0,0.4,0,0.9-0.1,1.3c0,0.6-0.1,1.3,0,1.9c0.1,0.6,0.5,0.7,0.9,0.3c0.8-0.9,0.9-2,0.7-3.1c-0.2-1-1-1.6-1.9-1.8
		c-0.5-0.1-1,0.1-1.5,0.2c-2,0.7-4.1,0.9-6-0.1c-0.5-0.3-1-0.7-1.4-1.2c-1.2-1.5-1.6-3.2-1.7-5.3c1.4,0.9,2.8,0.6,4.2,0.5
		c2-0.2,3.6,0.8,4.7,2.3c0.8,1,1.5,2,2.7,2.7c2.3,1.5,2.6,4,0.9,6.4c-0.5,0.7-1,1.3-1.4,2c-0.2,0.4-0.4,0.8-0.6,1.2
		c0.1,0.1,0.1,0.1,0.2,0.2c0.4-0.4,0.7-0.8,1.2-1.1c0.4-0.2,0.9-0.5,1.4-0.4c0.2,0.1,0.5,0.7,0.5,1.1c0,1.2-0.6,2.2-1.5,3.2
		c-0.1-0.3-0.1-0.5-0.2-0.6c-0.2-0.4-0.4-0.9-0.7-1c-0.4-0.1-0.9,0.2-1.2,0.5c-0.4,0.4-0.7,0.9-1.1,1.4c-0.1-0.4-0.2-0.6-0.3-0.9
		c-0.6-1.6-1.1-3.2-2.5-4.3c-0.7-0.5-1.6-0.9-2.5-1.2c-1.7-0.5-2.3-1.4-1.8-3.1c0.1-0.6,0.2-1.2,0.3-1.9c0.9,0.3,1.4,0.9,1.7,1.7
		c0.3,1.3,1.2,2.1,2.1,2.9c0.9,0.7,1.6,1.6,2.6,2.4c-0.2-0.4-0.2-0.8-0.5-1.1c-1-1.3-2-2.5-2.9-3.7c-0.3-0.4-0.5-0.8-0.8-1.2
		c1.2-0.3,2.7,0.3,3.1,1.3c0.6,1.4,1.2,2.8,1.8,4.2c0.1,0.3,0.3,0.6,0.4,1.1C195.5,72.7,195.9,72,196.3,71.3z M189.3,63.6
		c0,0.1,0.1,0.1,0.1,0.2c0.2,0,0.4-0.1,0.5-0.2c0.4-0.2,0.8-0.5,1.3-0.7c0.2-0.1,0.5,0,0.8,0.1c-0.1,0.3-0.1,0.5-0.2,0.7
		c-0.1,0.2-0.2,0.4-0.3,0.5c0.9-0.3,1.7-0.6,2.4-0.9c-0.4-0.5-0.8-1.1-1.2-1.7c-0.1,0.8-0.6,1-1.2,0.5c-0.4-0.4-0.7-0.9-1-1.5
		c0,0.2,0,0.4-0.1,0.5c-0.1,0.3-0.2,0.6-0.3,0.8c-0.3-0.2-0.6-0.3-0.8-0.5c-0.2-0.2-0.3-0.6-0.5-0.8c-0.1,0.1-0.2,0.1-0.4,0.2
		c0.6,1.1,0,1.4-0.9,1.6c0.5,0,1-0.1,1.5-0.1c0.2,0,0.5,0.1,0.6,0.3c0.1,0.1-0.1,0.4-0.2,0.6C189.6,63.4,189.4,63.5,189.3,63.6z"/>
	<path d="M178.1,50.5c-0.7,0.6-1.3,1-1.9,1.5c-0.1-0.1-0.2-0.1-0.3-0.2c0.2-0.5,0.4-1,0.7-1.5c0.5-0.9,0.5-0.9-0.4-1.3
		c-0.5-0.2-0.6-0.5-0.2-0.8c0.1-0.1,0.3-0.2,0.4-0.3c0.8-0.6,0.8-0.8-0.1-1.3c-0.7-0.5-0.7-0.7,0-1.1c0.6-0.3,0.6-0.7,0.3-1.2
		c-0.3-0.5-0.6-1.1-1-1.6c0.1-0.1,0.2-0.2,0.3-0.3c0.5,0.2,1.1,0.4,1.5,0.7c0.6,0.3,0.9,0.4,1-0.4c0.1-0.8,0.3-0.8,1-0.4
		c0.4,0.2,1,0.3,1.4,0.1c1.4-0.4,2.7-0.6,4.1-0.2c2.2,0.7,3.6,2.6,3.6,5c0,2.4-1.6,4.4-3.8,5c-1.5,0.4-2.9,0.2-4.2-0.6
		c-0.4-0.3-0.8-0.4-1.1,0.1c-0.1,0.2-0.4,0.3-0.6,0.4c-0.1-0.2-0.3-0.5-0.4-0.7C178.3,51.1,178.2,50.9,178.1,50.5z M183.5,46.9
		c0.5,0.6,0.9,1.1,1.3,1.6c-0.1,0.1-0.1,0.1-0.2,0.2c-0.6,0-1.3,0-2,0c0,0.3,0.1,0.5,0.1,0.7c0,0.3-0.1,0.6-0.1,0.9
		c-0.3-0.1-0.5-0.1-0.8-0.2c-0.4-0.1-0.7-0.3-1-0.4c0,0.3,0,0.4,0.1,0.5c0.9,0.7,2.5,0.8,3.5,0.3c1.3-0.7,1.8-1.9,1.8-3.2
		c0-2.7-1-4.4-4.1-4c-0.4,0.1-0.9,0.4-1.3,0.5c0,0.1,0.1,0.3,0.1,0.4c0.7-0.1,1.4-0.2,2.2-0.3c-0.1,0.5-0.2,0.9-0.3,1.3
		c0.5,0.1,1,0.1,1.5,0.2c0.2,0.1,0.4,0.2,0.6,0.3c-0.2,0.2-0.3,0.4-0.5,0.6C184.3,46.6,183.9,46.7,183.5,46.9z M178.3,46.2
		c0.8,0.4,0.2,0.9,0,1.2c0.4,0.4,0.8,0.7,1.1,1.1c0.4-0.1,0.9-0.3,1.4-0.4c-0.2-0.4-0.2-0.9,0.6-0.9c-0.7-0.7-1.3-1.4-1.8-1.9
		C179.2,45.6,178.8,45.9,178.3,46.2z"/>
	<path d="M148.3,81.5c-0.9-0.2-1.7-0.3-2.8-0.5c-0.3,0.6-0.3,1.4,0.1,2.2c0.4,0.6,1,1.1,1.5,1.6c1.3,1.1,1.5,2.5,0.5,3.6
		c-4.4-1.9-4.6-6.8-2.7-9.6c0.7-1,1.3-2,1.9-3c0.4-0.8-0.4-2.3-1.2-2.4c-0.2,0-0.5,0.2-0.5,0.3c-0.1,0.3-0.1,0.7,0.1,1.1
		c0.5,1.2,0.1,2.5-1,3.1c-0.2,0.1-0.7,0-0.9-0.2c-0.3-0.3-0.5-0.7-0.6-1.1c-0.4-2.3-0.5-4.5,0.2-6.8c0.1-0.5,0.6-0.8,0.9-1.2
		c0.1,0.5,0.2,0.9,0.2,1.4c0.1,0.5,0.1,1.1,0.1,1.6c0.1,0,0.2,0,0.3,0c0.1-0.4,0.2-0.8,0.3-1.3c0.2-0.9,0.4-1.7,0.7-2.6
		c0.1-0.2,0.4-0.4,0.7-0.5c0.1,0.3,0.4,0.5,0.4,0.8c-0.1,0.9-0.2,1.7-0.4,2.6c0,0.3-0.1,0.7-0.1,1c0.1,0,0.2,0.1,0.2,0.1
		c0.1-0.3,0.3-0.6,0.4-0.8c0.4-1.1,0.7-2.2,1.2-3.2c0.1-0.3,0.6-0.5,0.8-0.7c0.1,0.3,0.4,0.7,0.4,1c-0.2,1-0.6,1.9-0.8,2.8
		c-0.1,0.4-0.2,0.8-0.3,1.2c0.1,0.1,0.2,0.1,0.3,0.2c0.2-0.3,0.5-0.5,0.6-0.8c0.4-0.8,0.7-1.7,1.1-2.5c0.1-0.3,0.5-0.5,0.8-0.7
		c0.2,0.3,0.5,0.7,0.4,1c-0.2,1-0.4,1.9-0.8,2.8c-0.6,1.5-1.4,2.9-2.1,4.4c-0.2,0.4-0.4,0.7-0.5,1.1C147.2,78.9,147,80.3,148.3,81.5
		L148.3,81.5z"/>
	<path d="M15.3,49.2c0-2.2,0-4.5,0-6.7c0-1.1,0.2-1.3,1.3-1.3c0.8,0,1.6,0,2.4,0c0.6,0,1,0.3,1,0.9c0,0.4,0.1,0.9,0.1,1.3
		c0,4.2,0,8.4,0,12.6c0,1.4,0,1.4-1.4,1.5c-0.7,0.1-1.4,0.1-2.1,0.1c-1.1,0-1.4-0.3-1.4-1.4C15.3,53.9,15.3,51.6,15.3,49.2
		C15.3,49.2,15.3,49.2,15.3,49.2z"/>
	<path d="M50.8,49.3c0-2.4,0-4.7,0-7.1c0-0.8,0.3-1.1,1.1-1.1c0.9,0,1.8,0,2.7,0c0.6,0,1,0.3,0.9,0.9c0,4.8,0,9.6,0,14.4
		c0,0.7-0.2,1.1-1,1c-0.8-0.1-1.7-0.1-2.6,0c-0.8,0.1-1.1-0.2-1.1-1C50.8,54.1,50.8,51.7,50.8,49.3z"/>
	<path d="M177.7,80.4c0.2,0.1,0.4,0.2,0.4,0.3c0.2,0.3,0.5,0.6,0.5,0.8c-0.1,0.3-0.5,0.5-0.8,0.6c-0.3,0.1-0.7,0-1,0
		c-0.3,0-0.6,0.1-0.9,0.2c0.5,1.3,0.4,1.6-0.9,1.9c-1,0.3-2,0.5-2.2,1.8c-0.2,1.4,0.2,2.6,1.5,3.4c1.3,0.8,2.6,1.1,4.1,0.7
		c0.3-0.1,0.6-0.3,1-0.5c-0.7-0.3-1.1-0.7-0.4-1.6c-0.7,0.2-1,0.3-1.4,0.4c-1.2,0.4-2.4,0.5-3.5-0.4c-0.7-0.5-0.7-1,0-1.5
		c0.1-0.1,0.2-0.1,0.2-0.2c0.2-1.2,0.8-0.8,1.5-0.4c2,1.3,4,1.2,6.2,0.5c0.3-0.1,0.5-0.2,1-0.4c-0.2,0.8-0.2,1.5-0.4,2.1
		c-1.2,3-3.8,4.1-6.8,3.6c-2.8-0.5-4.4-2.2-5-4.9c-0.6-2.6,0.5-5.2,2.7-6.8c1.4-1,2.9-1.4,4.6-1c0.3,0.1,0.6,0.4,0.9,0.6
		c-0.3,0.2-0.5,0.4-0.8,0.6C178,80.2,177.9,80.3,177.7,80.4z"/>
	<path d="M196.9,14.3c-0.8,0-1.6,0-2.4,0c-0.6,0-0.9,0.2-0.7,0.9c0.3,0.9,0.5,1.8,0.9,2.6c1.3,2.2,5.7,1.9,6.9,0.4
		c0.3-0.3,0.5-0.8,0.7-1.2c0.1-0.5,0.3-0.6,0.8-0.5c0.5,0.1,0.7,0.3,0.7,0.8c-0.1,1.1-0.7,2.1-1.7,2.6c-2.1,1.2-4.5,1.4-6.7,0.5
		c-2.2-0.9-3-2.8-3.1-4.9c-0.2-1.9-0.1-3.8,0.1-5.7c0.4-3.1,2.4-4.9,5.6-4.8c1.1,0,2.2,0.2,3.3,0.6c2.3,0.8,3.4,4.6,2.2,6.6
		c-0.9,1.5-2.3,2.1-4,2.2C198.5,14.4,197.7,14.3,196.9,14.3C196.9,14.3,196.9,14.3,196.9,14.3z M196.9,12.8
		C196.9,12.8,196.9,12.8,196.9,12.8c0.7,0,1.5,0,2.2,0c2.4-0.1,3.6-2,2.7-4.2c-0.8-2.1-4.7-2.8-6.4-1.3c-1.5,1.3-1.8,3-1.7,4.9
		c0,0.2,0.4,0.6,0.7,0.6C195.2,12.8,196,12.8,196.9,12.8z"/>
	<path d="M184.1,14.3c-0.8,0-1.7,0-2.5,0c-0.5,0-0.8,0.2-0.8,0.8c0.3,2.3,1.3,4.3,4.2,4.2c0.7,0,1.5,0,2.2-0.2c1-0.3,1.8-0.8,2-1.9
		c0.2-0.6,0.5-0.9,1.1-0.6c0.6,0.2,0.4,0.7,0.3,1.1c-0.4,1.5-1.4,2.3-2.8,2.8c-1.7,0.6-3.4,0.6-5.1,0.1c-1.7-0.5-2.8-1.8-3.2-3.5
		c-0.7-2.9-0.8-5.8,0.2-8.7c0.7-1.9,2-3.1,4-3.3c2-0.2,3.8-0.2,5.5,1.2c1.8,1.5,2.4,5.4,0.1,7c-0.8,0.6-1.9,0.8-2.9,1.1
		C185.7,14.5,184.9,14.3,184.1,14.3C184.1,14.3,184.1,14.3,184.1,14.3z M183.9,12.8C183.9,12.8,183.9,12.8,183.9,12.8
		c0.8,0,1.7,0,2.5,0c1.6-0.1,2.7-1,2.8-2.4c0.2-1.9-1.2-3.6-3.1-3.8c-0.5,0-1,0-1.6,0c-1.6,0-2.9,0.9-3.3,2.5c-0.3,1-0.4,2-0.6,2.9
		c-0.1,0.6,0.2,0.8,0.7,0.8C182.3,12.8,183.1,12.8,183.9,12.8z"/>
	<path d="M192.1,119.2c0.8,0.8,1.8,0.9,2.8,0.2c1.5-1.1,2.2-2.6,2.7-4.3c0.1-0.4,0.3-0.9,0.5-1.2c0.5-0.6,1-0.4,1.2,0.3
		c0.2,0.8,0.2,1.7,0.4,2.6c0.1,0.5,0.3,0.9,0.4,1.3c0.1,0,0.2,0,0.3,0c0.2-0.4,0.4-0.8,0.6-1.2c0.6-1,1-2.1,1.7-3.1
		c1-1.4,3-1.9,4.4-1.1c0.7,0.4,0.9,0.9,0.7,1.6c-0.1,0.4-0.4,0.9-0.7,1.1c-0.6,0.3-1.2,0.2-1.6-0.4c-0.5-0.7-1-0.5-1.5-0.1
		c-0.4,0.4-0.8,0.8-1.1,1.3c-0.6,1.2-1.2,2.4-1.7,3.7c-0.1,0.3-0.2,0.6-0.4,0.8c-0.3,0.4-0.8,0.9-1.1,0.9c-0.4,0-0.8-0.6-1-1.1
		c-0.3-0.8-0.5-1.6-0.8-2.5c-0.4,0.6-0.8,1.1-1.2,1.6c-1.1,1.3-2.4,2.1-4.2,2.1c-1.6-0.1-2.8-1-3-2.6c-0.3-2,0.2-3.7,1.7-5.1
		c0.7-0.7,1.7-1.1,2.7-0.7c1,0.4,1.7,1.2,1.8,2.4c0.1,1.2-0.5,2-1.5,2.5C193.6,118.6,192.9,118.9,192.1,119.2z M193.5,115.9
		c-0.1-0.2-0.3-0.6-0.6-0.7c-0.3-0.1-0.9,0.1-1,0.3c-0.3,0.6-0.4,1.3-0.5,2c0,0.1,0.3,0.4,0.5,0.4
		C192.7,117.8,193.6,116.8,193.5,115.9z"/>
	<path d="M150.1,14.4c0.3,1.8,0.5,3.5,2.3,4.5c1.3,0.8,4.3,0.6,5.4-0.5c0.4-0.3,0.6-0.9,0.9-1.4c0.2-0.5,0.4-0.7,0.9-0.6
		c0.6,0.2,0.7,0.6,0.5,1.1c-0.3,0.7-0.6,1.4-1.1,1.9c-2,1.9-7,2.1-9-0.4c-1.1-1.3-1.4-2.9-1.5-4.5c-0.2-2.1-0.2-4.3,0.7-6.3
		C150,6.2,151.7,5,154,5c1.8,0,3.5,0.1,4.9,1.5c1.5,1.5,1.8,3.3,1.1,5.2c-0.7,1.9-2.3,2.6-4.2,2.7c-1.6,0.1-3.2,0-4.8,0
		C150.7,14.3,150.5,14.4,150.1,14.4z M153.3,12.8C153.3,12.8,153.3,12.8,153.3,12.8c0.8,0,1.7,0,2.5,0c1.7-0.1,2.8-1.2,2.8-2.7
		c0-1.5-0.8-2.8-2.2-3.3c-1.3-0.5-4.1-0.5-4.9,0.8c0,0-0.1,0.1-0.1,0.1c-1.1,1.3-1.2,2.8-1.3,4.4c0,0.2,0.4,0.6,0.7,0.6
		C151.6,12.8,152.4,12.8,153.3,12.8z"/>
	<path d="M24.5,98.2c0,3.4,0,6.9,0,10.3c0,0.4-0.2,1.2-0.5,1.2c-0.8,0.1-1.6,0-2.3-0.1c-0.1,0-0.3-0.5-0.3-0.8c0-7.1,0-14.1,0-21.2
		c0-1,0.3-1.2,1.3-1.2c0.1,0,0.2,0,0.3,0c1.4,0,1.5,0.1,1.5,1.5C24.5,91.3,24.5,94.7,24.5,98.2z"/>
	<path d="M135.8,114.6c-0.2-1.8,0.3-3.5,0.9-5.3c0.3-0.8,0.8-1.3,1.7-1.5c0.6-0.1,1,0.1,1,0.8c0,0.7-0.1,1.4-0.2,2.1
		c-0.4,2-0.6,4-0.3,6.1c0.1,0.6,0.2,1.2,0.4,1.8c0.4,1,1.1,1.7,2.3,1.7c1.2,0,2.2-0.3,2.7-1.4c1.2-2.4,1.5-4.8,0.6-7.4
		c-0.2-0.7-0.3-1.5-0.3-2.3c0-0.8,0.7-1.5,1.5-1.5c0.9,0,1.1,0.6,1.3,1.3c0.6,3.5,0.6,6.9-1.1,10.1c-1.7,3.3-6.3,3.4-8.3,1.7
		c-1.3-1.1-1.9-2.5-2-4.2C135.7,115.9,135.8,115.3,135.8,114.6z"/>
	<path d="M80.6,93.6c0.7-0.4,1.5-0.7,2.3-1.1c0.4-0.2,0.8-0.3,1.2-0.3c0.6-0.1,1.1,0.2,1.2,0.9c0,0.3,0,0.6,0,0.9
		c0,2.2-0.1,1.9-1.7,2.2c-1.5,0.3-3.1,2.6-3.1,4.4c0,2.7,0,5.4,0,8.1c0,0.4-0.2,1.1-0.5,1.2c-0.6,0.2-1.3,0-1.9-0.1
		c-0.1,0-0.3-0.4-0.3-0.6c0-3.4,0-6.7-0.1-10.1c0-1.3,0-2.5,0-3.8c0-0.3-0.1-0.6-0.1-0.9c0-1.6,0.9-2.2,2.5-1.6
		C80.2,92.9,80.4,93.3,80.6,93.6z"/>
	<path d="M187.7,51.4c0.6-0.5,1.2-0.9,1.4-1.4c0.2-0.5,0.1-1.2,0.1-2.1c0.4,0.2,0.6,0.3,0.8,0.4c0.4,0.2,0.7,0.5,1.1,0.7
		c0.6,0.2,1.2,0.3,1.5-0.4c0.3-0.6,0-1.1-0.6-1.4c-0.6-0.3-1.2-0.5-1.8-0.7c-0.3-0.1-0.7-0.3-1.2-0.5c0.9-0.9,2-0.6,2.9-1
		c-0.8-1.4-2.4-1.3-3.5-1.9c0-0.2,0-0.2,0-0.3c1.7-0.8,3.5-1,5.3-0.3c0.8,0.3,0.9,1,0.7,1.7c-0.1,0.4-0.2,0.7-0.3,1.1
		c-0.1,0.5-0.1,1,0.6,1.1c0.6,0.1,0.7-0.5,0.8-0.9c0-0.5,0-0.9,0-1.4c0-1.7,0.8-2.4,2.5-2c0.3,0.1,0.7,0.2,1.2,0.3
		c-1.1,1-0.7,2-0.4,3.1c0.6,2.2-0.2,4.5-2,5.5c-1.3,0.7-2.7,0.9-4.1,1c-1.3,0.1-2.7-0.1-4-0.2C188.2,51.7,188,51.5,187.7,51.4z
		 M193.9,49.6c1.6,0,2.9-0.6,3.2-1.6c0.2-0.6,0.3-1.2-0.5-1.8C196.4,47.9,195.4,48.8,193.9,49.6z"/>
	<path d="M159.7,70.4c0.2-1.4,0-2.7-1.2-3.7c-0.6,0.8-1.1,1.4-0.8,2.4c0.1,0.2,0,0.5,0,0.8c0.1,0.5,0.2,1.1,0.3,1.6c0,0,0,0.1,0,0.1
		c0.1,1.3,0.9,2.4,1.6,3.5c0.1,0.2-0.1,0.8-0.3,1c-0.2,0.2-0.8,0.1-0.9-0.1c-0.6-0.7-1.5-1.2-1.5-2.3c0-0.3-0.4-0.6-0.5-0.9
		c-0.1-0.4-0.2-0.9-0.3-1.3c0-0.2,0.1-0.4,0-0.5c-0.7-1.5-0.1-2.9,0.4-4.3c0-0.1,0-0.2,0-0.4c-1.8,0-3.1,0.8-4.1,2.2
		c-0.4-1.2-0.1-2.7,1-3.1c1-0.4,2.2-0.4,3.2-0.6c-0.6-0.9-1.6-1.2-3.1-0.8c-0.1-0.8-0.2-1.6,0.5-2.2c0.7-0.5,1.4-0.2,2,0.2
		c0.7,0.6,1.2,1.3,1.8,1.9c0-0.4,0-0.9,0.1-1.4c0.1-0.6,0.3-1.3,1.1-1.3c0.6,0,1.7,1.2,1.7,1.7c0,0.2-0.3,0.4-0.6,0.8
		c0.5,0,0.8-0.1,1.2-0.1c0.7,0,1.5-0.2,2.2,0c1.3,0.4,1.6,1.8,0.6,2.9c-1-1.5-2.4-1.3-4.2-1c1.4,0.5,2.4,1.1,2.1,2.5
		C161.8,69.4,160.8,69.9,159.7,70.4z"/>
	<path d="M150.4,86.7c0.2,1.3,0.2,2.6,0.6,3.7c0.7,2,3.5,3.1,5.4,2.2c0.9-0.4,1.4-1.7,0.9-3c-0.5-1.6-1.4-2.4-3.1-2.2
		c-1,0.1-1.5,0.8-1.2,1.7c0.2,0.8,0.8,1.3,1.7,1.4c0.5,0.1,1,0,1.3-0.6c-0.4-0.1-0.9-0.2-1.2-0.4c-0.3-0.3-0.7-0.8-0.7-1.1
		c0.1-0.6,0.7-0.6,1.2-0.5c1,0.2,2,1.7,1.8,2.7c-0.3,1.2-1.4,1.9-2.6,1.6c-1.4-0.3-2.5-1.1-3-2.5c-0.9-2.3,0.8-4.3,3.2-4
		c2.3,0.3,4,2.5,4.2,5.1c0.2,2.9-1.4,4.5-4.3,4.5c-3.3-0.1-6.2-2.9-6-5.9C148.7,88.1,149.3,87.1,150.4,86.7z"/>
	<path d="M191.9,88c-0.6,0.8-1.1,1.6-1.7,2.3c-1.1,1.3-2.1,1.5-3.5,0.7c-1.2-0.6-1.3-1.4-0.3-2.3c0.6-0.5,1.3-1,2-1.6
		c0.3-0.3,0.6-0.8,0.8-1.1c-0.1-0.1-0.2-0.2-0.3-0.3c-0.3,0.3-0.7,0.5-1,0.8c-0.9,0.7-1.8,1.6-2.7,2.2c-0.8,0.5-1.3,0.3-1.6-0.4
		c-0.3-0.8-0.1-1.2,0.8-1.5c1.5-0.4,2.6-1.3,3.5-2.5c1-1.3,2.8-1.6,4.4-0.9c1.4,0.7,2.5,2.5,2.2,4.1c-0.6,2.6-2.2,4.5-4.4,6
		c-0.5,0.4-1.1,0.1-1.5-0.6c-0.3-0.6,0-0.9,0.5-1.2c1-0.6,2.1-1.1,2.7-2.2c0.2-0.5,0.4-1,0.6-1.4C192.1,88.1,192,88.1,191.9,88z
		 M191.2,84.4c-0.1,0.1-0.4,0.4-0.5,0.6c-0.1,0.6,0.6,1.3,1.3,1.2c0.3,0,0.8-0.3,0.9-0.6C193.1,85.2,192.2,84.4,191.2,84.4z"/>
	<path d="M159.5,59.2c-1,1-2.1,1.7-3.6,1.8c-1.9,0.1-3.3-1.2-3-3.1c0.1-0.3,0.4-0.6,0.6-0.9c0.2,0.2,0.4,0.5,0.6,0.7
		c0.2,0.3,0.5,0.6,0.7,0.9c0.3-0.3,0.6-0.6,0.9-0.8c0.1-0.1,0-0.2,0.1-0.2c0.4-1.5,0.1-1.8-1.3-1.6c0.2-1.2,1.5-2.3,2.8-2.4
		c2-0.1,2.6,0.5,3.3,3.3c0.7-0.9,1.5-1.7,2.7-1.5c0.4,0,0.9,0.3,1.2,0.6c1,0.9,1.1,2.8,0.2,3.9c-0.2-0.6-0.3-1.1-0.5-1.6
		c-0.6,0.4-0.5,1.1-0.4,1.6c0,0.3,0.4,0.6,0.8,1c0,0.6-0.4,1.1-1.2,1.4c-0.8,0.3-1.9,0.1-2.4-0.7C160.4,60.9,160,60.1,159.5,59.2z
		 M156.4,59.3c0.1,0,0.2,0.1,0.3,0.1c0.7-0.7,1.5-3.6,1-4.4C157.2,56.4,156.8,57.8,156.4,59.3z M163.1,57.4c-0.1,0-0.3,0-0.4-0.1
		c-0.4,1-1,2-0.6,3.2c0.1,0,0.2,0,0.3,0.1C162.6,59.5,162.9,58.5,163.1,57.4z M159.1,56.6c-0.7,0.5-0.9,1.3-0.6,2.1
		C159.5,58.3,159.7,57.4,159.1,56.6z M160.6,59.2c0.1,0,0.3,0,0.4,0.1c0.1-0.4,0.1-0.8,0.2-1.2c-0.1,0-0.3,0-0.4-0.1
		C160.8,58.4,160.7,58.8,160.6,59.2z"/>
	<path d="M176.5,68.2c0.6,0.4,1.2,0.9,1.8,1.1c0.8,0.4,1.2,1,1.2,1.9c0,0.6,0,1.2,0.1,1.8c0.1,0,0.3,0,0.4,0c0-0.3,0.1-0.7,0.1-1
		c-0.1-1.2,0.6-1.7,1.7-1.3c0.7,0.3,1.3,0.6,2.2,1c-0.4,0.3-0.8,0.7-1.2,0.9c-0.5,0.3-1.1,0.5-1.6,0.8c-0.2,0.2-0.4,0.7-0.3,0.9
		c0.1,0.3,0.6,0.5,0.9,0.6c0.2,0,0.5-0.4,0.6-0.6c0.1-0.6,0.5-0.6,0.8-0.3c0.7,0.5,1.5,1.1,2.2,1.7c0.1,0.1,0,0.8-0.2,0.9
		c-0.9,0.3-1.8,0.6-2.7,0.7c-1,0.1-0.4-0.7-0.4-1.2c-0.5,0-0.9,0-1.6,0c0.3,0.6,0.5,1,0.8,1.4c0.4,0.8,0.1,1.4-0.8,1.4
		c-1.1,0-1.8-1-1.4-2c0.1-0.3,0.2-0.6,0.2-1c-1.3,0.8-2.1,2.3-4.1,2.1c1.1-1,0.7-2.2,0.8-3.4c0.1-0.7,0.6-1,1.3-0.7
		c0.3,0.1,0.5,0.4,0.7,0.6c0.2,0.1,0.5,0.1,0.8,0.2c0-0.3,0.1-0.7,0-0.9c-0.4-0.4-0.9-0.8-1.3-1.1C175.5,71.6,175.2,69.9,176.5,68.2
		z"/>
	<path d="M172.5,12.2c0-1.4,0-2.8,0-4.2c0-1.3,0-1.3-1.3-1.4c-0.5,0-1-0.1-0.9-0.7c0-0.3,0.3-0.5,0.6-0.7c0.2-0.1,0.6,0,0.9,0
		c0.6,0,0.8-0.2,0.8-0.8c0-0.8,0-1.6,0-2.4c0-0.5,0.2-0.8,0.8-0.8c0.5,0,0.9,0.1,0.9,0.7c0,0.8,0,1.6,0,2.4c0,0.6,0.2,0.8,0.8,0.8
		c1,0,2.1,0,3.1,0c0.5,0,0.9,0.1,0.9,0.7c0,0.6-0.4,0.7-0.9,0.7c-1.1,0-2.2,0-3.3,0c-0.5,0-0.7,0.1-0.7,0.7c0,2.8,0,5.6,0,8.5
		c0,2.8,0.9,3.7,3.8,3.6c0.8,0,1.1,0.3,0.9,1c-0.1,0.3-0.5,0.5-0.7,0.6c-0.7,0.1-1.5,0.1-2.2,0c-2.3-0.4-3.2-1.7-3.5-4
		c0-0.1,0-0.1,0-0.2C172.5,15.1,172.5,13.6,172.5,12.2z"/>
	<path d="M163.1,67.6c2.3,1,2.8,2.7,1.5,4.5c-0.2,0.3-0.5,0.5-0.5,0.8c-0.1,0.4-0.1,1,0.1,1.3c1.5,1.9,1.5,1.8,0.3,4
		c-0.5,0.9-1.1,1.9-0.2,3c0.3,0.4,0.8,0.7,1.3,1.2c-1.5,0.3-2.7,0-3.8-0.8c-1.8-1.3-2.3-3.4-1.2-5.2c0.3-0.6,0.7-0.7,1.3-0.4
		c0.1,0.1,0.3,0.2,0.5,0.2c0.3,0,0.5,0,0.8,0c-0.1-0.2-0.2-0.5-0.4-0.6c-0.6-0.5-1.3-0.8-1.8-1.3c-1-0.8-1-1.7-0.1-2.6
		c0.3-0.3,0.6-0.5,0.9-0.7C162.8,70.1,164,69.3,163.1,67.6z"/>
	<path d="M27.4,101.4c0-2.4,0-4.9,0-7.3c0-1.1,0.1-1.2,1.2-1.2c1.3,0,1.6,0.1,1.6,1.2c0,4.9,0,9.9,0,14.8c0,0.9-0.2,1.1-1.1,1.1
		c-1.6-0.1-1.6-0.1-1.6-1.8C27.4,105.9,27.4,103.6,27.4,101.4z"/>
	<path d="M166,78c0.1,1.2,0.8,1.7,1.7,2.1c2.3,1.1,2.8,3.7,1.3,5.7c-1.2,1.5-3.5,2.3-5.4,1.8c-2.1-0.6-3.7-2.5-3.9-4.5
		c0-0.3,0-0.7,0.2-1c0.2-0.5,0.6-0.7,1-0.2c1.3,1.5,3,1.5,4.8,1.3c0.3,0,0.5-0.2,0.8-0.3c0.5-0.3,0.6-0.8,0.1-1.2
		c-0.2-0.2-0.5-0.3-0.7-0.5C164.8,80.3,164.7,79.1,166,78z M166.4,85.9c1.2-0.1,2.1-1.4,1.7-2.4C166.2,84.3,166.1,84.4,166.4,85.9z"
		/>
	<path d="M184,79.4c-0.4-0.2-0.8-0.4-1.2-0.6c0-0.1,0-0.2,0-0.2c0.3-0.1,0.6-0.2,0.8-0.3c0.6-0.2,1.3-0.4,1.9-0.7
		c1.2-0.6,1.3-1.7,0.4-2.6c-0.4-0.4-0.9-0.6-1.3-0.9c-0.3-0.2-0.6-0.5-1.1-0.9c1.3-0.1,1.6-0.8,1.6-2c0.4,0.3,0.6,0.5,0.7,0.6
		c0.3,0.5,0.6,0.5,1,0.1c0.2-0.1,0.4-0.2,0.7-0.2c0,0.2,0.1,0.5,0.1,0.7c-0.1,0.5-0.2,1.1-0.3,1.6c0,0.3,0,0.7,0.1,1
		c0.1,0.2,0.3,0.4,0.5,0.4c0.2,0,0.5-0.2,0.5-0.4c0.1-0.7,0.1-1.4,0.2-2c0-0.3,0-0.6,0.1-1c0.8,0.9,1.6,0.8,2.6,0
		c-0.3,1.1-1,2,0.9,2c-0.1,0.1-0.3,0.2-0.4,0.3c-0.4,0.1-0.8,0.3-1.3,0.4c-0.6,0.2-1.6,0.3-1.4,1.1c0.2,0.8,1.1,0.4,1.8,0.3
		c0.6-0.2,1.2-0.4,2-0.5c-1,1.1-0.6,1.8,0.6,2.4c-1.2-0.1-1.8,0.4-1.8,1.6c-0.1,0-0.2-0.1-0.2-0.1c-0.2-0.3-0.3-0.6-0.5-0.8
		c-0.4-0.5-0.9-1-1.4-1.5c-0.2-0.1-0.6-0.1-0.8,0c-0.1,0-0.2,0.5,0,0.7c0.5,0.6,1,1.3,1.6,1.9c0.2,0.2,0.5,0.4,0.8,0.6
		c-0.7,0.4-0.9,0.6-1.4,2.2c-0.4-0.4-0.6-0.9-1-1c-0.4-0.1-0.8,0.2-1.5,0.4c0.1-0.4,0.2-0.8,0.3-1.2c0.1-0.9,0.3-1.7,0.4-2.6
		c0-0.2-0.2-0.5-0.4-0.6c-0.2,0-0.6,0.1-0.7,0.3c-0.3,0.6-0.5,1.2-0.6,1.8c-0.1,0.6-0.2,1.1-0.4,1.8c-0.4-1.2-1.1-1.4-2.1-0.6
		c0-0.1,0-0.2-0.1-0.2C183.7,80.3,183.9,79.9,184,79.4z"/>
	<path d="M152,77.9c1,0.5,1.3,0.3,1.2-0.7c0-0.6-0.2-1.1-0.3-1.7c-0.3-1-0.5-2-1-3.1c0,1.1,0,2.2,0,3.3c0,0.6-0.1,1.2-0.3,1.8
		c-0.2,0.6-0.8,1-1.5,1c-1,0-1.5-0.9-1.1-1.9c0.2,0.1,0.3,0.2,0.5,0.2c0.6,0.2,1,0,1.1-0.6c0.1-0.7,0.2-1.5,0.2-2.2
		c0-2.4,1.6-5,3.8-6.2c-0.1,0.8-0.3,1.7-0.2,2.5c0.1,0.8,0.2,1.8,0.6,2.5c0.9,1.6,2,3.2,2.9,4.8c0.4,0.6,0.7,1.2,0.9,1.9
		c0.3,0.9-0.4,2-1.3,2.3c-0.8,0.3-1.7,0.1-2.2-0.7c-0.5-0.7-0.4-1.3,0.2-1.9c0.1,0,0.1,0,0.2,0.1c0.3,0.3,0.5,0.9,1.1,0.5
		c0.6-0.3,0.4-0.9,0.1-1.3c-0.5-0.9-1.1-1.8-1.6-2.8c-0.7-1.5-1.4-3.1-2.1-4.6c-0.2,0.9,0,2,0.4,3.1c0.4,1.2,0.8,2.4,1,3.6
		c0.1,0.5-0.2,1.2-0.6,1.7c-0.4,0.5-1.1,0.6-1.7,0.1C151.8,79.1,151.5,78.6,152,77.9z"/>
	<path d="M164,6.7c1.1-0.5,2.1-1.1,3.1-1.5c0.5-0.2,1.1-0.1,1.6-0.1c0.5,0,0.8,0.2,0.8,0.8c0,0.5-0.2,0.8-0.8,0.8
		c-0.7,0.1-1.5,0.1-2.2,0.4c-1.8,0.7-2.6,2.3-2.6,4.1c-0.1,2.9,0,5.8,0,8.7c0,0.7-0.2,1-0.9,1c-0.6,0-0.8-0.3-0.8-0.9
		c0-1,0-1.9,0-2.9c0-3.1,0-6.2,0-9.2c0-0.7-0.1-1.2-1-1.3c-0.2,0-0.5-0.5-0.5-0.7c0-0.3,0.4-0.7,0.6-0.7
		C162.8,4.7,163.4,5.1,164,6.7z"/>
	<path d="M181.3,99.3c-2.6,0-3.5-1.2-2.7-3.3c0.2-0.5,0.4-0.9,0.7-1.3c0.4-0.7,0.9-0.9,1.7-0.7c1.7,0.5,3.3,0.1,4.8-0.9
		c0.8-0.5,1.2-0.4,1.7,0.4c0.5,0.9,0.3,1.8-0.3,2.6C185.6,98.4,183.4,99.1,181.3,99.3z M184.9,95.1c-0.5,0.1-0.9,0.3-1.4,0.4
		c-1.3,0.3-1.4,0.5-1.3,1.9C184,97.4,185.3,96.3,184.9,95.1z"/>
	<path d="M156.6,43.4c0.6,0.4,1.1,0.8,1.6,1.2c0.2,0.2,0.3,0.5,0.4,0.7c-0.2,0-0.5,0.1-0.7,0.1c-1.8-0.2-1.9-0.2-1.2,1.6
		c0.1,0.3,0,0.6,0,0.9c-0.3-0.1-0.5-0.3-0.8-0.4c-0.4-0.3-0.9-0.7-1.3-1c-0.2,0.5-0.4,1-0.7,1.5c-0.1,0.3-0.4,0.5-0.6,0.7
		c-0.1-0.3-0.3-0.5-0.4-0.8c0-0.1,0-0.3,0-0.4c-0.2-1.2-0.5-1.4-1.5-0.7c0,0-0.1,0.1-0.1,0.1c-0.3,0.1-0.7,0.2-1,0.3
		c0.1-0.3,0.2-0.7,0.3-1c0.2-0.4,0.4-0.7,0.6-1.1c0-0.1-0.1-0.2-0.1-0.2c-0.6,0-1.2,0.1-1.7,0.1c-0.2,0-0.5-0.2-0.7-0.3
		c0.2-0.2,0.3-0.4,0.5-0.5c0.1-0.1,0.2-0.1,0.3-0.1c1.5-0.6,1.5-0.6,0.4-1.7c0.6-0.7,1.9-0.8,2.7-0.1c1.2,1,1.2,1,2.4,0.1
		c0.7-0.5,1.9-0.6,2.7,0C157.3,42.7,157,43,156.6,43.4z"/>
	<path d="M188.1,58.3c-2.3,0-4.5-1.6-5-3.6c-0.2-0.6-0.1-1,0.7-1.1c0.8-0.1,1.7-0.4,2.5-0.6c0.4-0.1,1-0.1,1.2,0.2
		c0.5,0.5,1,0.5,1.6,0.3c1-0.3,1.4-0.1,1.9,0.9c1.1,2.3,0.5,3.4-2,3.9C188.6,58.2,188.3,58.3,188.1,58.3z M189.4,55.8
		c-1.3-0.2-2.5-0.4-3.8-0.6C186.5,56.5,188.4,56.8,189.4,55.8z"/>
	<path d="M168,89.2c-0.1-0.4-0.2-0.7-0.1-1c0.1-0.3,0.3-0.7,0.5-0.8c0.7-0.2,2,0.9,2,1.6c0,0.1,0,0.2,0,0.3c0.2,1.4-0.1,1.5-1.3,1
		c-0.1,0-0.2,0-0.5,0c0.5,1.5-0.2,2.5-1.4,3.2c-1.2,0.8-2.6,1.3-4.1,0.8c-0.7-0.2-1.3-0.8-1.8-1.2c-0.2-0.1-0.3-0.6-0.2-0.8
		c0.1-0.2,0.5-0.2,0.7-0.2c0.3,0,0.7,0.1,1,0.1c0.9,0,1.4-0.7,1.7-1.5c0.2-0.5,0.5-0.9,0.8-1.3C166,88.8,166.4,88.8,168,89.2z"/>
	<path d="M194.3,79.5c0-0.2,0-0.4,0-0.5c0-0.8,0.3-1.5,1.1-1.7c0.7-0.2,1.5,0.1,2,0.8c0.8,1.3,0.7,2.6,0.4,4c-0.4,1.3-1,2.4-2.2,3.4
		c-0.2-1.6-1.4-2.2-2.7-2.7c-0.7-0.3-1.2-1.2-1-1.9c0.2-0.8,1-1.4,1.8-1.3C193.9,79.5,194.1,79.5,194.3,79.5z"/>
	<path d="M148.3,81.5c0.2-0.1,0.4-0.1,0.5-0.2c0.4-1.6,1.4-1.9,2.7-0.9c0.2,0.2,0.6,0.3,0.9,0.2c0.7,0,1.3,0.3,1.6,0.9
		c0.3,0.7,0.1,1.3-0.5,1.7c-0.5,0.3-0.6,0.7-0.7,1.3c-0.2,1.2-1.6,1.6-2.6,0.8c-0.3-0.3-0.8-0.3-1.2-0.5c-0.5-0.3-1.2-0.5-1.5-1
		c-0.4-0.5-0.1-1.1,0.4-1.6C148.1,82.1,148.1,81.7,148.3,81.5C148.3,81.5,148.3,81.5,148.3,81.5z M151.7,82.8
		c-0.4-0.3-0.7-0.7-0.9-0.7c-0.2,0-0.5,0.3-0.7,0.5c0.2,0.3,0.4,0.6,0.7,0.7C151,83.5,151.3,83.1,151.7,82.8z"/>
	<path d="M32.6,88c-0.3,0.3-0.5,0.5-0.8,0.6c-1.4,0.4-2.2,1.2-2.4,2.7c0,0.3-0.4,0.6-0.6,0.9c-0.2-0.3-0.7-0.6-0.7-0.9
		c-0.2-1.3-0.9-2.3-2.2-2.7c-0.3-0.1-0.6-0.4-0.6-0.6c0-0.2,0.4-0.6,0.6-0.7c1.2-0.3,2-1.1,2.1-2.4c0-0.3,0-0.6,0.2-0.7
		c0.2-0.2,0.5-0.5,0.7-0.5c0.2,0,0.5,0.4,0.5,0.6c0.1,1.6,0.8,2.6,2.4,3.1C32.1,87.4,32.3,87.7,32.6,88z"/>
	<path d="M145.3,63c-0.6-0.1-1.4-0.2-2.1-0.4c-0.2-0.1-0.4-0.5-0.4-0.7c0.2-3,2.1-4.7,5.1-4.5c0.4,0,0.8,0.4,1.1,0.7
		c0.9,0.9,0.8,1.8,0.2,2.8C148.3,62.1,146.8,63,145.3,63z M146.5,61.6c-0.6-0.8-1.1-1.4-1.6-2.1c-0.4,0.6-0.3,1.1,0.1,1.6
		C145.3,61.6,145.8,61.9,146.5,61.6z M148.1,60.6c0.1-0.3,0.3-0.5,0.2-0.6c-0.3-0.5-0.6-1.1-1-1.6c0,0-0.2,0-0.4,0.1c0,0,0,0,0,0.1
		c0.1,0.4,0.1,0.8,0.2,1.1C147.3,60,147.7,60.2,148.1,60.6z"/>
	<path d="M162.3,91.1c-1.5,0-3-1.1-3.2-2.6c-0.3-2.1-1.4-3.2-3.4-3.6c-0.1,0-0.2,0-0.2-0.1c-0.4-0.3-0.7-0.6-1.1-0.9
		c0.4-0.3,0.7-0.8,1.2-1c1.4-0.5,3.1,0.5,3.6,2c0.2,0.5,0.3,1,0.5,1.6c0.1,0.6,0.6,0.9,1.2,0.9c1.3-0.1,2.2,0.6,2.7,1.7
		C164.2,90.2,163.7,91.1,162.3,91.1z M162.5,89.4c-0.2-0.7-0.7-0.9-1.4-1c-0.1,0-0.3,0.3-0.3,0.4c0.1,0.5,0.9,0.8,1.5,0.7
		C162.4,89.5,162.4,89.5,162.5,89.4z"/>
	<path d="M199.1,59.2c-0.1,0.8-0.2,1.9-0.4,3c-0.2,0.9-0.6,1.1-1.4,0.6c-1.5-0.9-2.6-2.1-3.3-3.7c-0.3-0.6-0.3-1,0.6-1.1
		c1.4-0.2,2.7-0.7,3.5-1.9c0.1-0.1,0.4-0.3,0.5-0.2c0.2,0.1,0.4,0.3,0.4,0.5C199,57.2,199,58,199.1,59.2z"/>
	<path d="M179.4,58.1c1,0.3,1.7-0.2,3-2.5c0.1,0.6,0.3,1.1,0.3,1.7c-0.2,2.2-2.2,3.5-4.4,3c-0.5-0.1-0.9-0.3-1.3,0.3
		c0,0.1-0.6,0-0.8-0.2c-0.7-0.8-0.6-3.1,0-3.8c0.9,0.2,1.7,0.2,2.5,0.5C179,57.1,179.1,57.6,179.4,58.1z"/>
	<path d="M179.8,79.3c2.4,0.2,3.9,2.8,3.5,4.4c-0.3,1.2-1.3,2-2.4,1.7c-1.2-0.3-1.9-1.4-1.6-2.7c0.2-0.6,0.5-1.2,0.6-1.8
		C180,80.4,179.8,79.9,179.8,79.3z M181.5,81.3c-0.2,0-0.3,0.1-0.5,0.1c0.1,0.4,0.1,0.8,0.2,1.1c0.2,0,0.4-0.1,0.4-0.1
		C181.6,82.1,181.6,81.7,181.5,81.3z"/>
	<path d="M176.7,55.5c-0.5-1,0.1-2.5,1.4-2.8c0.6-0.1,1.3,0,2,0.1c0.5,0.1,0.9,0.2,1.4,0.4c0.2,0.1,0.5,0.5,0.5,0.7
		c-0.3,0.9-0.6,1.8-1,2.7c0,0.1-0.4,0.3-0.4,0.2c-0.5-0.5-1.2-1-1.4-1.6c-0.2-0.7-0.4-1-1.1-0.7C177.7,54.7,177.2,55.1,176.7,55.5z"
		/>
	<path d="M149.1,63.5C149.1,63.5,149.1,63.4,149.1,63.5c0-1.1,0.6-2.4,1.1-2.5c0.5-0.1,1.9,0.9,2.2,1.7c0.5,1,0.3,2.2-0.4,2.8
		c-0.8,0.6-2.2,0.3-2.6-0.6C149.2,64.5,149.1,64,149.1,63.5C149,63.5,149.1,63.5,149.1,63.5z"/>
	<path d="M197.3,52.4c0.9,0.2,1.4,1,1.2,1.9c-0.5,2-3.3,3.6-5.2,2.9c-0.3-0.1-0.7-0.6-0.6-0.8c0.1-0.3,0.4-0.7,0.8-0.8
		c0.6-0.2,1.2-0.1,1.8-0.3C196.6,54.7,197.1,54,197.3,52.4z"/>
	<path d="M183,93.5c-0.6-0.1-1.1-0.1-1.5-0.3c-0.5-0.2-0.9-0.5-0.9-1.1c0-0.6,0.1-1.1,0.7-1.3c1.1-0.5,2.2-0.5,3.3-0.2
		c0.6,0.2,0.9,0.5,1,1.2c0,0.6-0.2,1.1-0.8,1.3C184.1,93.3,183.5,93.4,183,93.5z"/>
	<path d="M148.3,55c-0.1,1.4-0.5,1.7-1.8,1.2c-0.9-0.3-1.6-0.8-1.9-1.8c-0.2-0.9,0.2-1.7,1-2.1c0.7-0.3,1.6-0.1,2,0.7
		C147.9,53.7,148,54.3,148.3,55z"/>
	<path d="M124,92.5c-0.2,0.2-0.5,0.4-0.8,0.6c-0.2-0.3-0.3-0.6-0.5-1c-0.1-0.1-0.1-0.3-0.1-0.4c-0.2-1.4,0.3-1.7,1.7-1.3
		c0.3,0.1,0.7,0.1,1.1,0.3c0.3,0.1,0.9,0.3,0.9,0.5c0.1,0.5,0.2,1.2-0.1,1.6C125.6,93.6,124.2,93.3,124,92.5z"/>
	<path d="M184.3,81.6c0.9,0,1.7,0.4,2.2,1.2c0.5,0.6,0.5,1.3,0.1,2c-0.4,0.7-1.2,0.9-1.9,0.7c-0.7-0.2-1.1-1-0.9-1.8
		C183.9,83.1,184.1,82.5,184.3,81.6z"/>
	<path d="M165.3,53.2c-0.1,0.3-0.2,0.7-0.4,0.9c-0.2,0.2-0.7,0.2-0.8,0.1c-1-1.3-2-2.5-2.9-3.9c-0.3-0.4,0-0.8,0.4-0.5
		c1.2,0.8,2.4,1.7,3.5,2.6C165.3,52.6,165.2,52.9,165.3,53.2z"/>
	<path d="M184.2,68.7c0,0.9-0.8,1.7-1.6,1.7c-0.9,0-1.6-0.8-1.6-1.7c0-0.8,0.8-1.6,1.6-1.6C183.4,67.1,184.2,67.9,184.2,68.7z"/>
	<path d="M160.9,108.5c0-1,0.7-1.8,1.6-1.8c0.8,0,1.4,0.6,1.4,1.4c0,1-0.8,1.9-1.7,1.9C161.3,110,160.9,109.5,160.9,108.5z"/>
	<path d="M192.2,53.2c1.1-0.3,2.1-0.6,3.2-0.8c0.3-0.1,0.9,0.1,1,0.3c0.1,0.2,0,0.8-0.2,1c-0.8,0.9-1.8,1.3-3,1.1
		C192.2,54.7,192.4,53.8,192.2,53.2z"/>
	<path d="M184.1,62.3c0,0.8-0.7,1.5-1.5,1.5c-0.8,0-1.5-0.8-1.5-1.6c0-0.8,0.8-1.5,1.5-1.5C183.4,60.7,184.1,61.5,184.1,62.3z"/>
	<path d="M180.1,65.9c-0.8,0-1.4-0.7-1.4-1.4c0-0.8,0.7-1.4,1.5-1.4c0.7,0,1.4,0.7,1.4,1.4C181.5,65.3,180.9,65.9,180.1,65.9z"/>
	<path d="M143.6,53.8c0,1.4,0.6,2.4,1.9,3c-0.7,0.6-1.6,0.8-2.3,0.4c-0.7-0.4-1-1-0.9-1.8C142.4,54.7,142.6,54.1,143.6,53.8z"/>
	<path d="M128.9,55.9c0,1-0.3,1.5-1,1.5c-0.7,0-1.3-0.7-1.3-1.4c0-0.8,0.7-1.6,1.3-1.6C128.6,54.3,128.9,54.8,128.9,55.9z"/>
	<path d="M177.3,64.6c0.7,0,1.3,0.7,1.3,1.4c0,0.7-0.7,1.4-1.4,1.4c-0.7,0-1.3-0.6-1.3-1.3C175.9,65.2,176.6,64.6,177.3,64.6z"/>
	<path d="M207.8,19.6c0,0.7-0.6,1.3-1.3,1.3c-0.7,0-1.4-0.6-1.4-1.3c0-0.7,0.6-1.4,1.4-1.4C207.1,18.2,207.8,18.9,207.8,19.6z"/>
	<path d="M176.9,83c0.9,0,1.6,0.4,1.9,1.2c0.1,0.4,0,1-0.2,1.3c-0.2,0.2-0.8,0.4-1.1,0.2c-0.3-0.2-0.6-0.7-0.7-1.1
		C176.8,84.2,176.9,83.7,176.9,83z"/>
	<path d="M142.3,65.2c1.1,0.9,1.1,0.9,3.9,0.9c-0.5,1.1-2.2,1.8-3.2,1.4C142.3,67.2,142,66.1,142.3,65.2z"/>
	<path d="M148.9,65.9c-0.4,0.3-1.1,0.4-1.5-0.1c-0.4-0.3-0.6-1-0.6-1.5c0.1-0.7,0.6-1.3,1.4-1.5C148.4,63.8,148.6,64.8,148.9,65.9z"
		/>
	<path d="M144.4,47.4c0.1,0,0.5,0.1,0.6,0.3c0.1,0.2-0.1,0.6-0.3,0.8c-0.4,0.4-0.9,0.8-1.4,1c-0.5,0.3-0.9,0.1-0.9-0.5
		C142.3,48,143,47.4,144.4,47.4z"/>
	<path d="M186.3,66.9c-0.1,0.6-0.4,1-1.1,1c-0.7,0-1.1-0.4-1.1-1c0-0.7,0.4-1.2,1.1-1.2C185.8,65.7,186.3,66.2,186.3,66.9z"/>
	<path d="M164.2,44.1c0.6,0,1.3,0,1.2,0.9c0,0.8-0.5,1.1-1.3,0.8c-0.2-0.1-0.4-0.2-0.6-0.3c-0.3-0.3-0.5-0.6-0.8-0.9
		c0.4-0.2,0.8-0.3,1.2-0.5C164,44,164.1,44.1,164.2,44.1z"/>
	<path d="M145.9,64.1c-0.5,0.8-1.3,1.3-2.1,1c-0.7-0.3-1.1-1-0.9-1.7C143.9,63.6,144.9,63.9,145.9,64.1z"/>
	<path d="M183.9,64.3c0.2-0.8,0.4-1.2,1.1-1.2c0.6,0,1.2,0.4,1.1,1c-0.1,0.4-0.6,0.9-1.1,1C184.8,65.2,184.3,64.6,183.9,64.3z"/>
	<path d="M148.9,56.6c0.3-0.3,0.6-0.7,1-0.7c0.6-0.1,1,0.3,1,0.9c0,0.6-0.4,1-1,0.9c-0.4-0.1-0.7-0.5-1-0.7
		C148.9,56.9,148.9,56.8,148.9,56.6z"/>
	<path d="M182.5,66.7c-0.3-0.4-0.7-0.7-0.7-1.1c-0.1-0.6,0.4-1,0.9-1c0.6,0,1,0.4,0.9,0.9c-0.1,0.4-0.5,0.8-0.7,1.1
		C182.8,66.7,182.6,66.7,182.5,66.7z"/>
	<path d="M179.6,68.5c-0.2-0.3-0.7-0.7-0.7-1.1c-0.1-0.5,0.3-1,0.9-1c0.6,0,1,0.4,0.9,1c-0.1,0.4-0.5,0.7-0.7,1
		C179.9,68.5,179.8,68.5,179.6,68.5z"/>
	<path d="M151.4,57.7c0.2,0.4,0.7,0.8,0.7,1.2c0,0.3-0.5,0.8-0.9,0.9c-0.5,0.1-1-0.4-0.9-1c0.1-0.4,0.5-0.7,0.7-1.1
		C151.1,57.7,151.2,57.7,151.4,57.7z"/>
	<path d="M178.6,62.5c-0.1,0.9-0.4,1.4-1,1.2c-0.4-0.1-0.9-0.6-0.9-0.9c0-0.3,0.5-0.8,0.9-0.9C178,61.9,178.3,62.4,178.6,62.5z"/>
	<path d="M183.9,58.5c0.2,0.3,0.6,0.6,0.6,1c0.1,0.6-0.3,1-0.9,1c-0.5,0-1-0.4-0.9-0.9c0.1-0.4,0.5-0.7,0.7-1
		C183.7,58.5,183.8,58.5,183.9,58.5z"/>
	<path d="M186.2,69.5c0,0.7-0.3,1.1-0.9,1.1c-0.6,0-0.9-0.5-0.8-1c0.1-0.3,0.5-0.8,0.8-0.9C185.8,68.6,186.2,69,186.2,69.5z"/>
	<path d="M178.7,61.5c0.4-0.2,0.7-0.6,1.1-0.7c0.5-0.1,1,0.4,0.9,0.9c-0.1,0.4-0.6,0.8-0.9,0.8c-0.3,0.1-0.6-0.4-1-0.7
		C178.7,61.7,178.7,61.6,178.7,61.5z"/>
	<path fill="#FFFFFF" d="M92.4,99.7c-1,0-2.1,0-3.1,0c-0.5,0-0.8-0.2-0.6-0.8c0.9-2.5,2.3-3.6,5.1-2.8c1,0.3,2.3,1.9,2.3,3
		c0,0.6-0.3,0.6-0.7,0.6c-0.1,0-0.1,0-0.2,0C94.3,99.7,93.3,99.7,92.4,99.7C92.4,99.7,92.4,99.7,92.4,99.7z"/>
</g>
</svg>
