<?xml version="1.0" encoding="utf-8"?>
<!-- Generator: Adobe Illustrator 18.0.0, SVG Export Plug-In . SVG Version: 6.00 Build 0)  -->
<!DOCTYPE svg PUBLIC "-//W3C//DTD SVG 1.1//EN" "http://www.w3.org/Graphics/SVG/1.1/DTD/svg11.dtd">
<svg version="1.1" id="Слой_1" xmlns="http://www.w3.org/2000/svg" xmlns:xlink="http://www.w3.org/1999/xlink" x="0px" y="0px"
	 viewBox="0 0 210 297" enable-background="new 0 0 210 297" xml:space="preserve">
<path fill="#3bb3f2" d="M202.6,15.1c-0.1,0.7-0.4,2-0.6,3.3c-2,9.7-4,19.4-6.1,29.1c-3.5,17.1-7.1,34.1-10.6,51.2
	c-2.9,13.7-5.7,27.5-8.6,41.2c-2.4,11.5-4.8,23-7.2,34.4c-0.6,3-3,4.7-5.9,4.3c-0.8-0.1-1.7-0.5-2.4-1c-8.4-6-16.7-12.1-25-18.2
	c-6.5-4.7-13-9.5-19.6-14.2c-2.4-1.8-5.1-2.3-7.9-1.1c-0.9,0.4-1.7,1-2.4,1.6c-8.1,6.5-16.1,13.1-24.2,19.7
	c-3.1,2.5-7.3,1.3-8.5-2.5c-2.1-6.7-4.2-13.4-6.3-20.2c-1.9-6.2-3.9-12.4-5.8-18.6c-1.7-5.4-3.4-10.8-5-16.2c-0.2-0.6-0.5-0.9-1-1.1
	c-9.5-3.5-19-7.1-28.5-10.6c-5.2-1.9-10.4-3.9-15.6-5.8c-2.9-1.1-4.2-4-3.1-6.9c0.5-1.4,1.6-2.4,3-2.9c4.1-1.6,8.3-3.2,12.4-4.8
	c8-3.1,16-6.2,24-9.2c12.4-4.8,24.7-9.5,37.1-14.3c10.2-3.9,20.4-7.9,30.6-11.8c13.5-5.2,27-10.4,40.4-15.6
	c10.2-3.9,20.4-7.9,30.6-11.8c3.1-1.2,6.1-2.4,9.2-3.5C199.1,8.4,202.6,10.9,202.6,15.1z M66.6,106.4c0.1,0.5,0.2,1.4,0.4,2.2
	c2.5,8.7,4.9,17.4,7.4,26.1c0.7,2.3,1.3,4.6,2,6.9c0.5,1.6,2.2,2.3,3.6,1.4c0.7-0.5,1-1.2,1.1-2c0.8-5.8,1.6-11.6,2.3-17.5
	c0.5-3.5,1.9-6.6,4.4-9.1c2.2-2.2,4.6-4.3,6.9-6.4c3.2-2.9,6.3-5.9,9.5-8.8c2.4-2.2,4.8-4.5,7.2-6.7c3.2-2.9,6.3-5.9,9.5-8.8
	c2.4-2.3,4.9-4.5,7.3-6.8c3.1-2.9,6.3-5.8,9.4-8.8c2.4-2.3,4.8-4.5,7.3-6.8c3.1-2.9,6.3-5.8,9.4-8.8c2-1.8,3.9-3.6,5.9-5.4
	c0.8-0.7,1-1.5,0.5-2.3c-0.5-0.8-1.4-0.9-2.3-0.4c-0.9,0.6-1.9,1.1-2.8,1.7c-13.2,8.1-26.4,16.2-39.6,24.4c-11.3,7-22.7,14-34,20.9
	c-3.8,2.4-7.7,4.7-11.4,7.1C67.9,100.3,66.7,102.8,66.6,106.4z"/>
</svg>
