<?xml version="1.0" encoding="utf-8"?>
<!-- Generator: Adobe Illustrator 18.0.0, SVG Export Plug-In . SVG Version: 6.00 Build 0)  -->
<!DOCTYPE svg PUBLIC "-//W3C//DTD SVG 1.1//EN" "http://www.w3.org/Graphics/SVG/1.1/DTD/svg11.dtd">
<svg version="1.1" id="Слой_1" xmlns="http://www.w3.org/2000/svg" xmlns:xlink="http://www.w3.org/1999/xlink" x="0px" y="0px"
	 viewBox="0 0 210 297" enable-background="new 0 0 210 297" xml:space="preserve">
<g>
	<path fill="#FFFFFF" d="M201.5,71.8c-0.9-0.7-1.8-1.2-2.7-2c-3.7-3.4-7.4-6.7-11.1-10.1c-1.1,0.8-2.2,1.7-3.5,2.4
		c-14.2,8.8-32.5,3.8-40.6-11c-9.2-16.6-1.6-37.9,15.8-44.2c2.2-0.8,4.6-1.1,6.9-1.7c1.8,0,3.7,0,5.5,0c1.1,0.2,2.4,0.4,3.5,0.7
		c16,3.7,26.1,19.9,22.7,36.1c-1,4.6-2.8,8.9-5.7,12.8c0.4,0.4,0.9,0.8,1.2,1.1c3.3,3,6.6,6,9.9,9c0.8,0.7,1.3,1.6,2,2.4
		c0,0.7,0,1.3,0,2.1c-0.9,0.8-1.8,1.6-2.6,2.4C202.4,71.8,201.9,71.8,201.5,71.8z M146.2,36.4c0.1,1.2,0.3,3,0.7,4.8
		c3.7,17.3,24.2,24.3,37.2,12.7c10.1-9,10.7-24.9,1.3-34.7c-7.6-8.1-19.7-9.4-28.8-3.1C149.7,20.8,146.4,27.5,146.2,36.4z"/>
	<path fill="#FFFFFF" d="M4.5,26.6c0.6-0.2,1.2-0.4,1.8-0.4c8.1,0,16.1,0,24.2,0c1.6,0,1.8,0.2,1.8,1.7c0,0.9,0,1.8,0,2.8
		c0,1.7-0.2,1.8-1.8,1.8c-2.7,0-5.5,0-8.4,0c0,0.7,0,1.1,0,1.7c0,10.1,0,20.3,0,30.4c0,1.9-0.2,2-2.1,2c-0.9,0-1.8,0-2.6,0
		c-2.6,0-2.6,0-2.6-2.5c0-10,0-20.1,0-30.1c0-0.4,0-0.9,0-1.6c-2.9,0-5.6,0-8.4,0c-0.6,0-1.2-0.3-1.8-0.4
		C4.5,30.1,4.5,28.3,4.5,26.6z"/>
	<path fill="#FFFFFF" d="M202.8,71.8c0.9-0.8,1.8-1.6,2.6-2.4"/>
	<path fill="#FFFFFF" d="M113.7,48.6c2-2.7,3.9-5.5,6-8.2c0.8-1.1,1.6-2.1,2.4-3.3c0.6-0.9,1.2-1.2,2.2-1.2c1.6,0.1,3.1,0,4.7,0
		c0.4,0,0.8,0.2,1.2,0.3c-0.1,0.3-0.2,0.9-0.4,1.1c-3.1,4-6.2,8.1-9.4,12c-0.7,0.9-0.6,1.3,0,2.2c3.1,4.4,6.3,8.8,9.3,13.1
		c0.2,0.4,0.3,0.9,0.6,1.3c-0.4,0.1-0.9,0.3-1.5,0.3c-1.6,0-3.1,0-4.7,0c-1.2,0.1-1.9-0.4-2.6-1.5c-2.4-3.7-4.8-7.3-7.2-11
		c-0.1-0.2-0.3-0.4-0.8-1.1c0,1,0,1.7,0,2.4c0,3,0,6.2,0,9.2c0,1.7-0.2,1.9-1.9,1.9c-1,0-2.1,0-3.1,0c-1.6,0-1.8-0.2-1.8-1.8
		c0-7.5,0-14.9,0-22.5c0-5.1,0-10.1,0-15.2c0-1.7,0.2-1.8,1.8-1.8c1.1,0,2.2,0,3.4,0c1.2-0.1,1.7,0.4,1.7,1.7c0,6.6,0,13.4,0,20
		c0,0.4,0,0.9,0,1.5C113.5,48.4,113.6,48.4,113.7,48.6z"/>
	<path fill="#FFFFFF" d="M68.8,64.7c-3.4,2-6.5,2.8-10.1,2.1c-3.3-0.7-5.5-2.5-6.1-5.7c-0.3-1.9-0.4-3.8-0.1-5.7
		c0.6-3.8,3.5-6.1,8.1-6.6c2.5-0.3,5.1-0.3,8-0.4c-0.2-1.6-0.2-3.3-0.6-4.7s-1.8-1.9-3.1-1.9c-3,0-6.1,0.2-9.1,0.3
		c-1.6,0.1-1.8,0-1.8-1.6c0.1-4-0.8-3.7,3.7-4.4c3.6-0.6,7.2-0.8,10.7,0.1c4.2,1,6.7,4.2,6.9,8.4c0.1,7,0.1,13.8,0.1,20.8
		c0,0.9-0.4,1.3-1.3,1.3c-1,0-2.1,0-3.1,0C69.6,66.6,68.5,66.5,68.8,64.7z M68.4,53.3c-1.7,0-3.3-0.1-4.8,0
		c-3.5,0.3-4.9,2.2-4.3,5.7c0.2,1.3,1,2.1,2.4,2.4c2.1,0.3,4.3-0.1,6.2-1.1c0.3-0.1,0.6-0.7,0.6-1C68.4,57.2,68.4,55.3,68.4,53.3z"
		/>
	<path fill="#FFFFFF" d="M80.8,50.5c0.2-1.7,0.3-4.4,1-6.9c1.2-4.8,5.1-7.8,10-8c2.5-0.1,4.9,0.3,7.4,0.4c1.1,0.1,1.7,0.7,1.6,1.9
		c-0.1,0.9,0,1.8,0,2.6c0.1,1.1-0.4,1.5-1.6,1.3c-1.9-0.2-3.7-0.3-5.6-0.3c-3.1-0.1-5.2,1.3-5.4,4.5c-0.3,3.5-0.3,7,0,10.3
		c0.2,3.1,2.2,4.6,5.4,4.5c1.9,0,3.8-0.1,5.6-0.3c1.1-0.1,1.7,0.2,1.6,1.5c-0.1,0.9,0,1.8,0,2.8c0,0.9-0.3,1.3-1.2,1.6
		c-3.4,0.7-6.6,1.1-10,0.2c-4.5-1.1-7.5-4.6-8.3-9.4C81,55.3,81,53.3,80.8,50.5z"/>
	<path fill="#FFFFFF" d="M41.7,37.7c1.8-0.7,3.7-1.3,5.6-1.9c0.4-0.1,1-0.1,1.6-0.1c0.9,0,1.3,0.4,1.3,1.2c0,1,0,2.1,0,3.1
		c0,1.1-0.4,1.5-1.6,1.7c-1.9,0.3-3.7,0.9-5.6,1.3c-0.9,0.2-1.2,0.9-1.2,1.8c0,6.6,0,13.3,0,19.9c0,1.8-0.1,2-1.9,2
		c-1.1,0-2.2,0-3.4,0c-1,0-1.6-0.4-1.6-1.5c0-9.3,0-18.5,0-27.9c0-1.1,0.4-1.5,1.6-1.5c0.9,0,1.8,0,2.8,0
		C41.4,35.9,41.4,35.9,41.7,37.7z"/>
	<path fill="#FFFFFF" d="M172.7,36.4c0.1-1.3,0.1-2.6,0.4-3.9c0.7-3.3,3.1-5.2,6.6-5.2c3.5,0,6.2,1.8,6.6,5.2c0.3,2.6,0.3,5.4,0,8
		c-0.4,3.3-3.1,5.1-6.6,5.1s-6-1.9-6.6-5.2C172.8,39.1,172.8,37.8,172.7,36.4z M182.1,36.6c-0.1-1.1-0.1-2.2-0.2-3.3
		c-0.2-1.1-0.9-1.8-2.1-1.7c-1.1,0-1.9,0.6-2,1.7c-0.1,2.1-0.1,4.3,0,6.4c0.1,1.1,0.9,1.7,2,1.7c1.2,0,1.9-0.6,2.1-1.7
		C182,38.7,182,37.7,182.1,36.6z"/>
	<path fill="#FFFFFF" d="M171.4,41.1c0,1.1,0.1,2.2,0,3.4c0,0.3-0.6,0.8-0.9,0.8c-1.7,0.1-3.5,0.3-5.2-0.1c-2.5-0.6-3.9-2.4-4.2-4.8
		c-0.2-2.2-0.3-4.6-0.1-7c0.4-4.2,2.9-6.1,7.1-6c3.3,0,3.6,0.3,3.4,3.6c0,0.2-0.1,0.4-0.1,0.8c-1.1-0.1-2.1-0.1-3.1-0.1
		c-1.5,0-2.4,0.6-2.5,2c-0.1,1.9-0.1,3.8,0,5.7c0.1,1.5,0.9,2,2.5,2c0.6,0,1,0,1.6,0C170.1,41.3,170.6,41.3,171.4,41.1z"/>
	<path fill="#FFFFFF" d="M158.1,36.5c0,2.6,0,5.1,0,7.6c0,0.9-0.3,1.2-1.2,1.2c-3.4,0-3.4,0.1-3.4-3.4c0-4.4,0-8.7,0-13
		c0-1,0.3-1.3,1.3-1.3c3.3,0,3.3,0,3.3,3.3C158.1,32.7,158.1,34.6,158.1,36.5z"/>
</g>
<line fill="none" x1="6.9" y1="-142.8" x2="77.7" y2="-213.6"/>
</svg>
