<?xml version="1.0" encoding="utf-8"?>
<!-- Generator: Adobe Illustrator 18.0.0, SVG Export Plug-In . SVG Version: 6.00 Build 0)  -->
<!DOCTYPE svg PUBLIC "-//W3C//DTD SVG 1.1//EN" "http://www.w3.org/Graphics/SVG/1.1/DTD/svg11.dtd">
<svg version="1.1" id="Слой_1" xmlns="http://www.w3.org/2000/svg" xmlns:xlink="http://www.w3.org/1999/xlink" x="0px" y="0px"
	 viewBox="0 0 210 297" enable-background="new 0 0 210 297" xml:space="preserve">
<path fill="#FFFFFF" d="M2,149.3c0-0.7,0-1.4,0-2c1.1-1.8,2.7-2.4,4.8-2.2c11.8,1.2,23.4-0.1,34.6-4c5.5-1.9,10.7-4.3,15.7-7.5
	c-0.2-0.2-0.3-0.3-0.4-0.3c-0.3-0.1-0.6-0.2-1-0.3c-6.6-1.8-12.4-4.9-17.6-9.3c-6.3-5.4-10.6-12.1-13.2-19.8
	c-0.9-2.6,0.8-4.6,3.5-4.5c0.9,0,1.9,0.2,3,0.3c-0.2-0.3-0.2-0.4-0.3-0.5c-0.4-0.3-0.9-0.6-1.3-0.9c-12.6-8.9-19-21.1-19.5-36.5
	c-0.1-3.6,2.2-5,5.5-3.5c1.6,0.7,3.2,1.5,5.3,2.4c-1.3-1.8-2.3-3.1-3.1-4.5c-0.9-1.4-1.8-2.9-2.5-4.4C8.4,37.5,8.9,23.5,16.3,9.7
	C17.6,7.2,20,6.9,22,8.9c0.7,0.7,1.3,1.5,2,2.3C40.4,30,60.8,42.3,85.2,48c4.9,1.1,9.9,1.8,14.9,2.6c0.2-0.6,0.3-0.8,0.3-1
	c0-0.9,0-1.9-0.1-2.8c-0.6-10.1,2-19.4,7.9-27.5C124-3,153.9-6.4,174.5,11.5c1,0.9,1.9,1.1,3.2,0.8c7.4-1.9,14.4-4.7,21-8.5
	c1.5-0.9,3.1-1.2,4.5,0.1c1.4,1.3,1.2,2.8,0.6,4.5c-1.7,4.8-4.1,9.3-7.3,13.2c-0.3,0.4-0.5,0.8-1.1,1.7c3.3-1.2,6-2.2,8.7-3.3
	c3.1-1.2,4-1,5.8,1.7c0,0.7,0,1.4,0,2c-5.5,8-11.8,15.1-19.4,21.1c-0.6,0.5-1,1.6-1,2.4c0.1,9.1-0.7,18.1-2.7,27
	c-5.6,25.4-17.6,47.1-36.6,64.9c-17.3,16.2-37.8,25.9-61.2,29.5c-12.5,1.9-25,2.1-37.4,0.3c-16.8-2.4-32.5-8.1-46.9-17.2
	C3.7,151.3,2.9,150.2,2,149.3z"/>
</svg>
