<?xml version="1.0" encoding="utf-8"?>
<!-- Generator: Adobe Illustrator 18.0.0, SVG Export Plug-In . SVG Version: 6.00 Build 0)  -->
<!DOCTYPE svg PUBLIC "-//W3C//DTD SVG 1.1//EN" "http://www.w3.org/Graphics/SVG/1.1/DTD/svg11.dtd">
<svg version="1.1" id="Слой_1" xmlns="http://www.w3.org/2000/svg" xmlns:xlink="http://www.w3.org/1999/xlink" x="0px" y="0px"
	 viewBox="0 0 210 297" enable-background="new 0 0 210 297" xml:space="preserve">
<path fill="#FFFFFF" d="M2.5,140.5c0-31.8,0-63.5,0-95.3c0-13.2,0.1-26.3,0.2-39.5c0-3.4,0.8-4.3,4.2-4.3
	c52.5-0.2,105-0.3,157.5-0.5c1.3,0,2.9,0.3,3.9,1.1c11.2,9,22.4,18.1,33.5,27.4c2.7,2.3,5.1,5,7.4,7.7c0.8,0.9,1.2,2.4,1.2,3.6
	c-0.3,16.3-0.9,32.6-1.1,48.8c-0.5,36.7-0.8,73.3-1.1,110c-0.2,26-0.3,52-0.4,77.9c0,3.7-0.7,4.4-4.3,4.4
	c-44.8-0.5-89.5-1-134.3-1.5c-21-0.2-42-0.4-63-0.7c-4.1,0-4.6-0.6-4.6-4.7c0-44.8,0-89.7,0-134.5C1.9,140.5,2.2,140.5,2.5,140.5z
	 M8.7,7.2C8.3,96.4,8,185,7.6,273.8c64.9,0.7,129.5,1.4,193.9,2.1c0.7-77.7,1.5-155.1,2.2-232.7c-0.8,0-1.8,0-2.7,0
	c-11.5,0-23,0-34.4,0c-3.2,0-4.1-0.9-4.1-4.1c0-4.9,0.1-9.8,0.2-14.7c0-5.8,0-11.5,0-17.2C111.4,7.2,60.3,7.2,8.7,7.2z M169.5,10.5
	c-0.3,0.1-0.5,0.3-0.8,0.4c0,8.7,0,17.4,0,26.1c10.7,0,21.3,0,31.8,0c0.1-0.2,0.2-0.5,0.4-0.7C190.4,27.7,180,19.1,169.5,10.5z"/>
<line fill="#FFFFFF" stroke="#FFFFFF" stroke-width="9" stroke-miterlimit="10" x1="57.5" y1="113.5" x2="153.3" y2="113.5"/>
<line fill="#FFFFFF" stroke="#FFFFFF" stroke-width="9" stroke-miterlimit="10" x1="57.5" y1="149.4" x2="153.3" y2="149.4"/>
<line fill="#FFFFFF" stroke="#FFFFFF" stroke-width="9" stroke-miterlimit="10" x1="56.7" y1="183.5" x2="131" y2="183.5"/>
</svg>
